<?xml version="1.0" standalone="no"?>
<!DOCTYPE svg PUBLIC "-//W3C//DTD SVG 1.1//EN" "http://www.w3.org/Graphics/SVG/1.1/DTD/svg11.dtd" >
<svg xmlns="http://www.w3.org/2000/svg" width="100%" height="100%">
<metadata>
Created by FontXChange 20110222 at Sun Mar  8 16:27:09 2015
 By Mitchell Warren
Copyright (c) Cornel Windlin, Gilles Gavillet. www.lineto.com, 2001. All rights reserved.
</metadata>
<defs>
<font id="Gravur-Condensed" horiz-adv-x="460" >
  <font-face 
    font-family="Gravur"
    font-weight="400"
    font-stretch="condensed"
    units-per-em="1000"
    panose-1="2 0 5 6 0 0 0 0 0 0"
    ascent="800"
    descent="-200"
    x-height="482"
    cap-height="697"
    bbox="-24 -215 945 907"
    underline-thickness="0"
    underline-position="0"
    stemh=" 76 "
    stemv=" 76 "
    unicode-range="U+0020-FB02"
  />
<missing-glyph horiz-adv-x="588" 
d="M88 698v-698h412v698h-412zM425 74h-262v549h262v-549z" />
    <glyph glyph-name=".notdef" horiz-adv-x="588" 
d="M88 698v-698h412v698h-412zM425 74h-262v549h262v-549z" />
    <glyph glyph-name=".notdef" unicode="&#xfffd;" horiz-adv-x="588" 
d="M88 698v-698h412v698h-412zM425 74h-262v549h262v-549z" />
    <glyph glyph-name="space" unicode=" " horiz-adv-x="345" 
 />
    <glyph glyph-name="Eth" unicode="&#xd0;" horiz-adv-x="554" 
d="M479 190c0 -105 -85 -190 -189 -190h-162c-20 0 -38 18 -38 38v305h-28c-25 0 -38 19 -38 38s13 38 38 38h28v234c0 20 17 38 37 38h162c105 0 190 -85 190 -189v-312zM404 190v311c0 63 -51 114 -114 114h-124v-196h93c25 0 38 -19 38 -38s-13 -38 -38 -38h-93v-267h124
c63 0 114 51 114 114z" />
    <glyph glyph-name="eth" unicode="&#xf0;" horiz-adv-x="487" 
d="M418 634l-44 -32c16 -19 24 -54 24 -85v-361c0 -89 -71 -161 -162 -161h-11c-89 0 -161 72 -161 161v124c0 89 72 161 161 161h11c33 0 61 -8 86 -24v100c0 15 -4 33 -11 41l-58 -41c-42 -30 -82 30 -41 58l43 30l-76 20c-20 5 -28 20 -28 35c0 19 13 37 36 37
c5 0 9 -1 12 -2l37 -9c29 -7 64 -19 88 -34l54 38c7 5 15 8 23 8c32 0 49 -40 17 -64zM322 156v124c0 47 -38 85 -86 85h-11c-47 0 -85 -38 -85 -85v-124c0 -47 37 -86 85 -86h11c48 0 86 39 86 86z" />
    <glyph glyph-name="Lslash" unicode="&#x141;" horiz-adv-x="470" 
d="M440 38c0 -19 -13 -38 -38 -38h-273c-20 0 -38 18 -38 38v204l-28 -17c-7 -4 -14 -6 -21 -6c-21 0 -37 19 -37 39c0 13 6 24 19 32l67 40v329c0 25 19 38 38 38s38 -13 38 -38v-284l150 90c7 4 14 6 20 6c21 0 37 -20 37 -40c0 -13 -6 -24 -19 -32l-188 -112v-211h235
c25 0 38 -19 38 -38z" />
    <glyph glyph-name="lslash" unicode="&#x142;" horiz-adv-x="322" 
d="M317 446c0 -12 -6 -23 -19 -31l-103 -65v-224c0 -31 24 -55 55 -56c26 0 38 -19 38 -38s-12 -38 -38 -38c-73 0 -131 59 -131 132v177l-55 -34c-7 -5 -15 -7 -21 -7c-21 0 -38 20 -38 40c0 11 5 23 18 31l96 59v267c0 25 19 38 38 38s38 -13 38 -38v-219l63 39
c7 5 14 7 21 7c21 0 38 -20 38 -40z" />
    <glyph glyph-name="Scaron" unicode="&#x160;" horiz-adv-x="498" 
d="M396 857c0 -13 -6 -23 -17 -30l-86 -58c-15 -10 -26 -15 -39 -15c-11 0 -25 5 -40 15l-86 58c-11 7 -17 17 -17 30c0 20 17 40 38 40c7 0 14 -3 23 -8l81 -56l82 56c9 5 16 8 22 8c23 0 39 -20 39 -40zM448 180c0 -115 -70 -185 -191 -185h-9c-103 0 -198 63 -198 184
c0 25 19 37 38 37s38 -11 38 -38c0 -71 58 -108 123 -108h10c79 0 113 39 113 111c0 82 -58 105 -119 139c-96 54 -193 78 -193 206c0 97 83 171 188 171h10c96 0 182 -68 182 -160c0 -25 -17 -37 -36 -37s-37 12 -40 36c-5 49 -47 85 -108 85h-9c-83 0 -110 -60 -110 -95
c0 -73 62 -95 116 -124c100 -54 195 -86 195 -222z" />
    <glyph glyph-name="scaron" unicode="&#x161;" horiz-adv-x="445" 
d="M366 657c0 -11 -5 -21 -17 -29l-85 -58c-14 -9 -27 -14 -40 -14s-26 5 -39 14l-87 58c-12 8 -17 18 -17 29c0 20 18 40 39 40c8 0 15 -2 22 -7l81 -57l82 57c7 5 15 7 23 7c21 0 38 -20 38 -40zM400 135c0 -93 -89 -140 -173 -140h-6c-65 0 -139 37 -171 99
c-3 7 -5 13 -5 19c0 23 19 37 39 37c12 0 25 -4 34 -17c25 -33 68 -63 105 -63h5c61 0 95 34 96 67c3 133 -260 34 -260 223c0 96 101 128 164 128h4c69 0 115 -30 131 -43c9 -7 14 -17 14 -29c0 -19 -15 -36 -36 -36c-7 0 -14 2 -22 6c-21 11 -43 27 -88 27h-4
c-56 0 -86 -25 -87 -54c-4 -108 260 -21 260 -220v-4z" />
    <glyph glyph-name="Yacute" unicode="&#xdd;" horiz-adv-x="476" 
d="M365 856c0 -12 -4 -23 -19 -32l-178 -105c-5 -3 -13 -5 -20 -5c-23 0 -38 19 -38 39c0 13 6 24 19 32l179 105c6 3 13 5 20 5c21 0 37 -19 37 -39zM433 644l-157 -377v-235c0 -25 -19 -37 -38 -37s-38 12 -38 37v235l-157 377c-11 27 8 53 37 53c13 0 26 -7 33 -24
l125 -300l125 300c7 17 21 24 34 24c29 0 47 -26 36 -53z" />
    <glyph glyph-name="yacute" unicode="&#xfd;" horiz-adv-x="413" 
d="M330 658c0 -13 -7 -26 -22 -33l-158 -72c-5 -3 -11 -4 -17 -4c-23 0 -38 20 -38 40c0 12 7 25 23 32l157 73c7 3 12 3 17 3c23 0 38 -20 38 -39zM378 451c0 -4 -1 -8 -2 -13l-165 -514c-23 -73 -60 -126 -133 -138c-1 -1 -3 -1 -6 -1c-21 0 -37 16 -37 39
c0 17 10 34 33 37c28 4 51 23 71 86l35 109l-133 382c-1 2 -2 4 -2 6v7c0 20 16 37 39 37c15 0 28 -7 35 -26l99 -285l91 285c6 19 20 26 35 26c23 0 40 -17 40 -37z" />
    <glyph glyph-name="Thorn" unicode="&#xde;" horiz-adv-x="497" 
d="M432 288c0 -88 -72 -162 -161 -162h-95v-94c0 -25 -19 -37 -38 -37s-38 12 -38 37v627c0 25 19 38 38 38s38 -13 38 -38v-95h95c89 0 161 -71 161 -160v-116zM356 288v116c0 47 -38 84 -85 84h-95v-286h95c48 0 85 39 85 86z" />
    <glyph glyph-name="thorn" unicode="&#xfe;" horiz-adv-x="497" 
d="M432 155c0 -90 -74 -160 -162 -160h-9c-33 0 -61 10 -85 29v-201c0 -25 -19 -38 -38 -38s-38 13 -38 38v836c0 25 19 38 38 38s38 -13 38 -38v-201c24 20 52 30 85 30h9c88 0 162 -72 162 -161v-172zM356 155v172c0 47 -38 85 -86 85h-9c-45 0 -85 -32 -85 -79v-184
c0 -44 40 -79 85 -79h9c48 0 86 38 86 85z" />
    <glyph glyph-name="Zcaron" unicode="&#x17d;" horiz-adv-x="464" 
d="M382 857c0 -12 -6 -22 -17 -30l-86 -58c-15 -10 -28 -14 -39 -14c-13 0 -27 5 -40 14l-86 58c-12 8 -18 18 -18 30c0 20 17 39 38 39c9 0 16 -2 23 -7l81 -56l82 56c7 5 15 7 23 7c21 0 39 -19 39 -39zM423 38c0 -19 -13 -38 -38 -38h-301c-28 0 -44 23 -44 48
c0 9 2 17 6 24l283 543h-237c-27 0 -38 19 -38 38s11 38 38 38h286c37 0 57 -35 39 -70l-284 -545h252c25 0 38 -19 38 -38z" />
    <glyph glyph-name="zcaron" unicode="&#x17e;" horiz-adv-x="416" 
d="M341 657c0 -11 -6 -21 -17 -29l-86 -58c-15 -10 -28 -15 -39 -15c-13 0 -26 5 -40 15l-86 58c-12 8 -18 18 -18 29c0 20 17 40 38 40c9 0 16 -2 23 -7l81 -57l82 57c7 5 15 7 23 7c21 0 39 -20 39 -40zM376 38c0 -19 -13 -38 -38 -38h-255c-39 0 -55 46 -32 80l222 326
h-188c-25 0 -38 19 -38 38s13 38 38 38h244c41 0 58 -43 35 -77l-223 -329h197c25 0 38 -19 38 -38z" />
    <glyph glyph-name="onehalf" unicode="&#xbd;" horiz-adv-x="822" 
d="M747 38c0 -19 -12 -38 -39 -38h-161c-24 0 -40 22 -40 45c0 8 2 15 7 22l135 211c7 9 10 18 10 26c0 27 -18 36 -35 36c-16 0 -32 -8 -32 -31c0 -25 -19 -38 -38 -38s-38 13 -38 38c0 59 45 106 105 106h8c64 0 106 -48 106 -111c0 -19 -4 -42 -20 -65l-113 -163h107
c25 0 38 -19 38 -38zM603 659c0 -6 -2 -13 -6 -20l-376 -626c-7 -12 -19 -18 -32 -18c-20 0 -40 14 -40 37c0 5 2 12 7 20l376 626c8 13 18 19 31 19c20 0 40 -15 40 -38zM217 320c0 -25 -19 -38 -38 -38s-38 13 -38 38v247c-9 -9 -18 -13 -29 -13c-20 0 -37 16 -37 35
c0 7 3 14 10 23l59 70c10 12 16 15 35 15c21 0 38 -18 38 -38v-339z" />
    <glyph glyph-name="onequarter" unicode="&#xbc;" horiz-adv-x="833" 
d="M758 118c0 -19 -11 -38 -38 -38h-23v-48c0 -25 -17 -37 -36 -37s-36 12 -36 37v48h-116c-23 0 -39 19 -39 43c0 8 2 16 6 24l124 240c8 16 20 22 35 22c19 0 39 -14 39 -35c0 -4 -2 -10 -5 -18l-100 -199h56v24c0 25 17 38 36 38s36 -13 36 -38v-24h24
c25 0 37 -19 37 -39zM609 659c0 -6 -2 -13 -6 -20l-376 -626c-7 -12 -19 -18 -32 -18c-20 0 -40 14 -40 37c0 5 2 12 7 20l376 626c8 13 18 19 31 19c20 0 40 -15 40 -38zM217 320c0 -25 -19 -38 -38 -38s-38 13 -38 38v247c-9 -9 -18 -13 -29 -13c-20 0 -37 16 -37 35
c0 7 3 14 10 23l59 70c10 12 16 15 35 15c21 0 38 -18 38 -38v-339z" />
    <glyph glyph-name="onesuperior" unicode="&#xb9;" horiz-adv-x="292" 
d="M217 320c0 -25 -19 -38 -38 -38s-38 13 -38 38v247c-9 -9 -18 -13 -29 -13c-20 0 -37 16 -37 35c0 7 3 14 10 23l59 70c10 12 16 15 35 15c21 0 38 -18 38 -38v-339z" />
    <glyph glyph-name="threequarters" unicode="&#xbe;" horiz-adv-x="839" 
d="M764 118c0 -19 -13 -38 -38 -38h-24v-48c0 -25 -17 -37 -36 -37s-35 12 -35 37v48h-117c-23 0 -39 19 -39 43c0 8 2 16 6 24l124 240c8 16 20 22 35 22c20 0 39 -14 39 -35c0 -4 -2 -10 -5 -18l-99 -199h56v24c0 25 18 38 35 38c19 0 36 -13 36 -38v-24h24
c25 0 38 -19 38 -39zM642 659c0 -6 -2 -13 -6 -20l-376 -626c-7 -12 -19 -18 -32 -18c-20 0 -39 14 -39 37c0 7 2 13 6 20l376 626c8 13 18 19 31 19c20 0 40 -15 40 -38zM294 387c0 -58 -45 -105 -104 -105h-10c-58 0 -105 47 -105 105c0 25 19 38 38 38s38 -13 38 -38
c0 -16 13 -29 29 -29h10c16 0 28 13 28 29v36c0 40 -9 42 -44 42c-27 0 -40 19 -40 38s13 38 40 38c29 0 44 2 44 39v13c0 19 -15 29 -31 29c-15 0 -31 -9 -31 -28c0 -25 -19 -38 -38 -38s-38 13 -38 38c0 69 53 103 107 103c52 0 107 -35 107 -104v-19
c0 -35 -11 -54 -24 -71c15 -19 24 -35 24 -70v-46z" />
    <glyph glyph-name="threesuperior" unicode="&#xb3;" horiz-adv-x="369" 
d="M294 387c0 -58 -45 -105 -104 -105h-10c-58 0 -105 47 -105 105c0 25 19 38 38 38s38 -13 38 -38c0 -16 13 -29 29 -29h10c16 0 28 13 28 29v36c0 40 -9 42 -44 42c-27 0 -40 19 -40 38s13 38 40 38c29 0 44 2 44 39v13c0 19 -15 29 -31 29c-15 0 -31 -9 -31 -28
c0 -25 -19 -38 -38 -38s-38 13 -38 38c0 69 53 103 107 103c52 0 107 -35 107 -104v-19c0 -35 -11 -54 -24 -71c15 -19 24 -35 24 -70v-46z" />
    <glyph glyph-name="twosuperior" unicode="&#xb2;" horiz-adv-x="389" 
d="M314 320c0 -19 -13 -38 -38 -38h-162c-24 0 -39 22 -39 45c0 8 2 15 6 22l136 211c7 11 10 17 10 26c0 27 -18 36 -35 36s-32 -8 -32 -31c0 -25 -19 -38 -38 -38s-38 13 -38 38c0 60 44 106 104 106h9c64 0 106 -51 106 -111c0 -19 -5 -42 -21 -65l-112 -163h106
c25 0 38 -19 38 -38z" />
    <glyph glyph-name="brokenbar" unicode="&#xa6;" horiz-adv-x="256" 
d="M166 442c0 -25 -19 -38 -38 -38s-38 13 -38 38v217c0 25 19 38 38 38s38 -13 38 -38v-217zM166 32c0 -25 -19 -37 -38 -37s-38 12 -38 37v217c0 25 19 38 38 38s38 -13 38 -38v-217z" />
    <glyph glyph-name="minus" unicode="&#x2212;" horiz-adv-x="608" 
d="M543 241c0 -19 -13 -38 -38 -38l-402 -1c-25 0 -38 19 -38 38s13 38 38 38l402 1c25 0 38 -19 38 -38z" />
    <glyph glyph-name="multiply" unicode="&#xd7;" horiz-adv-x="614" 
d="M554 33c0 -20 -16 -38 -39 -38c-10 0 -19 4 -26 11l-182 183l-181 -183c-7 -7 -16 -11 -27 -11c-23 0 -39 18 -39 38c0 10 4 19 11 26l180 182l-179 181c-8 8 -12 17 -12 27c0 20 16 39 39 39c9 0 18 -4 26 -12l182 -179l181 179c9 8 18 12 27 12c23 0 39 -19 39 -39
c0 -11 -4 -19 -11 -26l-185 -182l184 -181c8 -7 12 -16 12 -27z" />
    <glyph glyph-name="exclam" unicode="!" horiz-adv-x="256" 
d="M166 206c0 -27 -19 -38 -38 -38s-38 11 -38 38v453c0 25 19 38 38 38s38 -13 38 -38v-453zM166 32c0 -25 -19 -37 -38 -37s-38 12 -38 37v22c0 25 19 38 38 38s38 -13 38 -38v-22z" />
    <glyph glyph-name="quotedbl" unicode="&#x22;" horiz-adv-x="354" 
d="M274 521c0 -25 -19 -38 -38 -38s-38 13 -38 38v139c0 25 19 37 38 37s38 -12 38 -37v-139zM156 521c0 -25 -19 -38 -38 -38s-38 13 -38 38v139c0 25 19 37 38 37s38 -12 38 -37v-139z" />
    <glyph glyph-name="numbersign" unicode="#" horiz-adv-x="698" 
d="M658 450c0 -19 -13 -38 -38 -38h-133l-22 -122h120c25 0 38 -19 38 -38s-13 -38 -38 -38h-133l-33 -189c-4 -21 -20 -30 -37 -30c-23 0 -39 15 -39 36c0 3 1 5 1 8l31 175h-110l-34 -189c-4 -21 -20 -30 -36 -30c-23 0 -39 15 -39 36c0 3 0 6 1 8l31 175h-110
c-25 0 -38 19 -38 38s13 38 38 38h123l22 122h-110c-27 0 -38 19 -38 38s11 38 38 38h123l32 178c4 21 20 31 36 31c23 0 39 -16 39 -37v-8l-30 -164h111l31 178c4 21 20 31 37 31c23 0 38 -16 38 -37v-8l-29 -164h119c25 0 38 -19 38 -38zM410 412h-110l-22 -122h110z" />
    <glyph glyph-name="dollar" unicode="$" horiz-adv-x="498" 
d="M448 180c0 -104 -57 -172 -157 -183l-1 -45c-1 -25 -18 -38 -37 -38c-20 0 -38 13 -38 38v45c-91 11 -165 76 -165 182c0 25 19 37 38 37s38 -11 38 -38c0 -71 58 -108 123 -108h10c79 0 113 39 113 111c0 82 -58 105 -119 139c-96 54 -193 78 -193 206
c0 86 66 155 155 168v56c0 25 18 38 37 38s38 -13 38 -38v-56c82 -13 150 -76 150 -157c0 -25 -17 -37 -36 -37s-37 12 -40 36c-5 49 -47 85 -108 85h-9c-83 0 -110 -60 -110 -95c0 -73 62 -95 116 -124c100 -54 195 -86 195 -222z" />
    <glyph glyph-name="percent" unicode="%" horiz-adv-x="736" 
d="M676 111c0 -64 -49 -116 -113 -116c-65 0 -114 52 -114 116v142c0 63 49 117 114 117c64 0 113 -54 113 -117v-142zM534 660c0 -5 -1 -10 -3 -15l-260 -627c-7 -17 -20 -23 -33 -23c-24 0 -40 16 -40 36c0 6 1 11 3 16l260 627c7 17 20 23 33 23c24 0 40 -17 40 -37z
M287 438c0 -63 -49 -117 -113 -117c-65 0 -114 54 -114 117v142c0 63 49 117 114 117c64 0 113 -54 113 -117v-142zM600 111v142c0 24 -18 41 -37 41s-38 -17 -38 -41v-142c0 -24 19 -41 38 -41s37 17 37 41zM211 438v142c0 24 -18 41 -37 41c-20 0 -38 -17 -38 -41v-142
c0 -24 18 -41 38 -41c19 0 37 17 37 41z" />
    <glyph glyph-name="ampersand" unicode="&#x26;" horiz-adv-x="551" 
d="M526 32c0 -19 -12 -37 -39 -37c-39 0 -69 21 -96 54c-43 -35 -95 -54 -146 -54h-9c-105 0 -191 83 -191 189c0 95 67 154 134 203c-31 57 -54 101 -54 137c0 83 69 125 132 125h7c72 0 137 -40 137 -125c0 -70 -56 -115 -118 -158c27 -48 85 -144 117 -192
c5 9 9 17 12 25c7 17 21 24 34 24c20 0 40 -13 40 -36c0 -5 -1 -10 -3 -16c-9 -24 -22 -45 -38 -66c17 -23 29 -31 54 -37c19 -5 27 -20 27 -36zM325 524c0 31 -17 49 -61 49h-7c-24 0 -56 -22 -56 -51c0 -25 23 -61 42 -92c47 32 82 59 82 94zM348 112
c-26 39 -83 126 -131 209c-53 -39 -96 -78 -96 -137c0 -63 52 -114 115 -114h9c35 0 71 15 103 42z" />
    <glyph glyph-name="quotesingle" unicode="'" horiz-adv-x="236" 
d="M156 513c0 -25 -19 -38 -38 -38s-38 13 -38 38v146c0 25 19 38 38 38s38 -13 38 -38v-146z" />
    <glyph glyph-name="parenleft" unicode="(" horiz-adv-x="327" 
d="M286 -54c17 -17 14 -37 -1 -50c-13 -12 -34 -18 -52 0c-86 82 -153 245 -153 430c0 181 67 341 150 427c17 17 37 14 52 1c13 -12 18 -33 1 -50c-67 -67 -130 -212 -130 -378c0 -171 64 -314 133 -380z" />
    <glyph glyph-name="parenright" unicode=")" horiz-adv-x="327" 
d="M247 326c0 -185 -67 -348 -153 -430c-18 -18 -37 -12 -52 0c-13 13 -18 33 -1 50c69 66 133 209 133 380c0 166 -60 311 -130 378c-17 17 -12 38 1 50c15 13 35 16 52 -1c84 -84 150 -247 150 -427z" />
    <glyph glyph-name="asterisk" unicode="*" horiz-adv-x="371" 
d="M351 440c0 -20 -16 -40 -37 -40c-7 0 -14 2 -20 6l-79 55l9 -96c2 -25 -19 -38 -38 -38s-40 13 -38 38l8 96l-79 -55c-6 -4 -13 -6 -20 -6c-21 0 -37 20 -37 40c0 12 4 25 19 32l88 40l-88 41c-15 7 -19 20 -19 31c0 20 16 40 37 40c7 0 14 -2 20 -6l79 -55l-8 96
c-2 25 19 38 38 38s40 -13 38 -38l-9 -96l79 55c6 4 13 6 20 6c21 0 37 -20 37 -40c0 -11 -4 -24 -19 -31l-88 -41l88 -40c15 -7 19 -20 19 -32z" />
    <glyph glyph-name="plus" unicode="+" horiz-adv-x="452" 
d="M407 267c0 -19 -13 -38 -38 -38h-105v-105c0 -25 -19 -38 -38 -38s-38 13 -38 38v105h-105c-25 0 -38 19 -38 38s13 38 38 38h105v105c0 25 19 38 38 38s38 -13 38 -38v-105h105c25 0 38 -19 38 -38z" />
    <glyph glyph-name="comma" unicode="," horiz-adv-x="206" 
d="M141 38c0 -73 -12 -110 -59 -157l-16 -16c-9 -9 -18 -13 -27 -13c-20 0 -39 18 -39 39c0 9 4 18 11 26l17 18c28 30 37 47 37 104v22c0 27 19 38 38 38s38 -13 38 -38v-23z" />
    <glyph glyph-name="hyphen" unicode="-" horiz-adv-x="427" 
d="M382 267c0 -19 -11 -38 -38 -38h-261c-25 0 -38 19 -38 38s13 38 38 38h260c27 0 39 -19 39 -38z" />
    <glyph glyph-name="period" unicode="." horiz-adv-x="176" 
d="M126 32c0 -25 -19 -37 -38 -37s-38 12 -38 37v22c0 25 19 38 38 38s38 -13 38 -38v-22z" />
    <glyph glyph-name="slash" unicode="/" horiz-adv-x="391" 
d="M387 728c0 -5 -1 -11 -3 -16l-327 -803c-7 -16 -20 -24 -33 -24c-24 0 -39 17 -39 37v8c0 3 1 5 2 8l326 802c8 19 21 25 34 25c24 0 40 -17 40 -37z" />
    <glyph glyph-name="zero" unicode="0" horiz-adv-x="480" 
d="M407 155c0 -90 -71 -160 -162 -160h-11c-89 0 -161 70 -161 160v381c0 89 72 161 161 161h11c91 0 162 -72 162 -161v-381zM331 155v381c0 47 -38 85 -86 85h-11c-47 0 -85 -38 -85 -85v-381c0 -47 38 -85 85 -85h11c48 0 86 38 86 85z" />
    <glyph glyph-name="one" unicode="1" horiz-adv-x="480" 
d="M313 32c0 -25 -19 -37 -38 -37s-38 12 -38 37v548l-49 -70c-29 -42 -92 4 -62 44l96 129c6 9 16 14 31 14h32c20 0 28 -13 28 -33v-632z" />
    <glyph glyph-name="two" unicode="2" horiz-adv-x="480" 
d="M408 38c0 -19 -13 -38 -38 -38h-258c-44 0 -49 52 -31 82l227 380c19 31 19 45 19 65v6c0 48 -32 88 -85 88h-3c-47 0 -83 -38 -83 -84v-11c0 -25 -19 -38 -38 -38s-39 13 -39 38v11c0 89 71 160 159 160h3c88 0 162 -70 162 -160v-7c0 -29 -3 -61 -26 -100l-211 -354
h203c25 0 39 -19 39 -38z" />
    <glyph glyph-name="three" unicode="3" horiz-adv-x="480" 
d="M411 155c0 -90 -74 -160 -162 -160h-19c-89 0 -161 70 -161 160c0 27 19 38 38 38s38 -11 38 -38c0 -47 38 -85 85 -85h19c47 0 86 37 86 85v68c0 97 -38 109 -116 109c-27 0 -39 19 -39 38s12 38 39 38c54 0 116 3 116 105v24c0 56 -46 85 -91 85s-90 -27 -90 -84
c0 -25 -19 -38 -38 -38s-38 13 -38 38c0 107 83 159 166 159s167 -53 167 -160v-24c0 -73 -24 -116 -55 -143c35 -28 55 -75 55 -147v-68z" />
    <glyph glyph-name="four" unicode="4" horiz-adv-x="480" 
d="M431 193c0 -19 -11 -38 -38 -38h-45v-123c0 -25 -19 -37 -38 -37s-38 12 -38 37v123h-178c-28 0 -45 21 -45 44c0 7 2 14 5 22l199 453c7 15 18 23 33 23c24 0 40 -17 40 -37c0 -5 0 -11 -3 -16l-184 -413h132v80c0 27 19 38 38 38s38 -11 38 -38v-80h45
c27 0 39 -19 39 -38z" />
    <glyph glyph-name="five" unicode="5" horiz-adv-x="480" 
d="M404 155c0 -90 -72 -160 -161 -160h-11c-91 0 -156 60 -156 168c0 25 19 38 38 38s38 -13 38 -38c0 -71 32 -93 79 -93h11c47 0 86 37 86 85v156c0 48 -38 86 -85 86h-11c-31 0 -58 -16 -73 -41c-9 -15 -22 -21 -37 -21c-21 0 -41 14 -41 39v279c0 20 18 38 38 38h225
c25 0 39 -19 39 -38s-13 -38 -38 -38h-188v-169c15 15 47 27 74 27h11c88 0 162 -71 162 -162v-156z" />
    <glyph glyph-name="six" unicode="6" horiz-adv-x="480" 
d="M407 155c0 -90 -71 -160 -162 -160h-11c-89 0 -161 70 -161 160v380c0 88 72 162 161 162h11c92 0 152 -57 161 -134c1 -1 1 -3 1 -5c0 -25 -21 -39 -40 -39c-16 0 -32 9 -36 32c-6 41 -30 70 -86 70h-10c-48 0 -86 -39 -86 -86v-126c26 26 76 31 87 31h9
c91 0 162 -71 162 -160v-125zM331 155v125c0 47 -38 84 -86 84h-9c-47 0 -87 -28 -87 -79v-130c0 -47 38 -85 85 -85h11c48 0 86 38 86 85z" />
    <glyph glyph-name="seven" unicode="7" horiz-adv-x="480" 
d="M410 648c0 -7 -1 -15 -4 -23l-188 -604c-6 -19 -20 -26 -35 -26c-23 0 -39 16 -39 36c0 5 0 9 1 12l178 572h-176v-51c0 -27 -19 -38 -38 -38s-39 11 -39 38v89c0 20 18 38 38 38h254c32 0 48 -18 48 -43z" />
    <glyph glyph-name="eight" unicode="8" horiz-adv-x="480" 
d="M407 155c0 -90 -71 -160 -162 -160h-11c-89 0 -161 70 -161 160v93c0 49 25 90 60 121c-35 31 -60 72 -60 121v46c0 89 72 161 161 161h11c88 0 162 -72 162 -161v-46c0 -49 -25 -90 -60 -121c35 -31 60 -72 60 -121v-93zM331 492v44c0 47 -38 85 -86 85h-11
c-47 0 -85 -38 -85 -85v-44c0 -47 39 -86 86 -86h9c47 0 87 38 87 86zM331 155v90c0 48 -39 86 -87 86h-8c-48 0 -87 -38 -87 -86v-90c0 -47 38 -85 85 -85h11c48 0 86 38 86 85z" />
    <glyph glyph-name="nine" unicode="9" horiz-adv-x="480" 
d="M407 156c0 -98 -71 -161 -162 -161h-10c-87 0 -153 55 -161 133c-1 1 -1 3 -1 5c0 25 21 39 40 39c16 0 31 -9 35 -32c6 -41 34 -70 87 -70h10c48 0 86 39 86 86v128c-25 -27 -69 -34 -87 -34h-9c-91 0 -162 72 -162 161v124c0 91 71 162 162 162h10
c91 0 162 -71 162 -162v-379zM331 414v121c0 48 -38 86 -86 86h-10c-48 0 -86 -38 -86 -86v-124c0 -47 38 -85 86 -85h9c47 0 87 37 87 88z" />
    <glyph glyph-name="colon" unicode=":" horiz-adv-x="191" 
d="M134 319c0 -27 -19 -38 -38 -38s-38 11 -38 38v22c0 25 19 38 38 38s38 -13 38 -38v-22zM134 32c0 -25 -19 -37 -38 -37s-38 12 -38 37v22c0 25 19 38 38 38s38 -13 38 -38v-22z" />
    <glyph glyph-name="semicolon" unicode=";" horiz-adv-x="191" 
d="M141 319c0 -27 -19 -38 -38 -38s-38 11 -38 38v22c0 25 19 38 38 38s38 -13 38 -38v-22zM141 38c0 -73 -12 -110 -59 -157l-16 -16c-9 -9 -18 -13 -27 -13c-20 0 -39 18 -39 39c0 9 4 18 11 26l17 18c28 30 37 47 37 104v22c0 27 19 38 38 38s38 -13 38 -38v-23z" />
    <glyph glyph-name="less" unicode="&#x3c;" horiz-adv-x="331" 
d="M286 30c0 -19 -17 -35 -40 -35c-11 0 -21 5 -30 16l-158 196c-9 11 -13 22 -13 34c0 11 4 25 13 36l158 196c9 11 19 15 30 15c20 0 40 -17 40 -38c0 -8 -3 -16 -9 -24l-147 -185l146 -189c5 -7 10 -15 10 -22z" />
    <glyph glyph-name="equal" unicode="=" horiz-adv-x="533" 
d="M463 348c0 -19 -13 -38 -38 -38h-317c-25 0 -38 19 -38 38s13 38 38 38h317c25 0 38 -19 38 -38zM463 208c0 -19 -13 -38 -38 -38h-317c-25 0 -38 19 -38 38s13 38 38 38h317c25 0 38 -19 38 -38z" />
    <glyph glyph-name="greater" unicode="&#x3e;" horiz-adv-x="331" 
d="M286 241c0 -12 -4 -23 -13 -34l-159 -196c-9 -11 -17 -16 -29 -16c-23 0 -40 16 -40 35c0 7 5 15 10 22l146 189l-147 185c-6 8 -9 16 -9 24c0 21 20 38 40 38c11 0 21 -5 29 -15l159 -196c9 -11 13 -25 13 -36z" />
    <glyph glyph-name="question" unicode="?" horiz-adv-x="399" 
d="M349 497c0 -49 -22 -78 -45 -103c-38 -39 -85 -53 -85 -118v-69c0 -27 -19 -38 -38 -38s-38 11 -38 38v69c0 96 39 105 97 160c19 19 33 36 33 61v40c0 47 -38 85 -85 85h-7c-47 0 -85 -38 -85 -85v-9c0 -25 -19 -38 -38 -38s-38 13 -38 38v9c0 89 72 161 161 161h7
c89 0 161 -72 161 -161v-40zM219 32c0 -25 -19 -37 -38 -37s-38 12 -38 37v22c0 25 19 38 38 38s38 -13 38 -38v-22z" />
    <glyph glyph-name="at" unicode="@" horiz-adv-x="849" 
d="M769 134c0 -96 -52 -139 -128 -139h-6c-47 0 -78 17 -101 48c-29 -31 -71 -48 -118 -48h-7c-83 0 -161 50 -161 143v7c0 163 227 136 252 169c3 4 3 12 3 17c0 60 -37 81 -81 81h-6c-41 0 -63 -17 -82 -50c-8 -15 -21 -20 -34 -20c-19 0 -38 14 -38 35c0 7 1 13 4 18
c32 72 96 93 150 93h6c90 0 157 -69 157 -154v-189c0 -65 40 -75 56 -75h6c29 0 52 11 52 64v191c0 136 -111 244 -244 244h-49c-136 0 -244 -108 -244 -244v-172c0 -136 108 -243 244 -243h49c34 0 65 6 93 18c5 3 11 4 16 4c23 0 37 -20 37 -40c0 -15 -7 -27 -23 -34
c-38 -16 -79 -24 -123 -24h-49c-177 0 -320 142 -320 319v172c0 177 143 320 320 320h49c177 0 320 -143 320 -320v-191zM503 155v79c-73 -19 -179 -17 -179 -86v-8c0 -43 34 -70 85 -70h8c47 0 86 37 86 85z" />
    <glyph glyph-name="A" unicode="A" horiz-adv-x="545" 
d="M515 31c0 -20 -16 -36 -39 -36c-15 0 -30 7 -36 26l-44 144h-247l-45 -144c-6 -19 -20 -26 -35 -26c-23 0 -39 16 -39 36c0 3 1 7 2 12l195 626c6 19 25 28 45 28c21 0 40 -9 46 -28l195 -626c1 -5 2 -9 2 -12zM372 241l-100 320l-99 -320h199z" />
    <glyph glyph-name="B" unicode="B" horiz-adv-x="532" 
d="M472 190c0 -105 -85 -190 -190 -190h-154c-20 0 -38 18 -38 38v615c0 20 18 38 38 38h154c107 0 182 -78 182 -182v-1c0 -75 -35 -128 -78 -152c42 -24 86 -76 86 -157v-9zM388 508v1c0 64 -43 106 -106 106h-116v-221h116c60 0 106 47 106 114zM396 190v9
c0 65 -53 119 -114 119h-116v-242h116c63 0 114 51 114 114z" />
    <glyph glyph-name="C" unicode="C" horiz-adv-x="503" 
d="M463 156c-13 -92 -94 -161 -188 -161h-10c-105 0 -190 83 -190 189v324c0 104 85 189 190 189h10c96 0 175 -70 188 -163v-6c0 -24 -18 -37 -37 -37c-17 0 -33 10 -38 33c-11 55 -56 97 -113 97h-10c-63 0 -114 -52 -114 -113v-324c0 -63 51 -114 114 -114h10
c57 0 102 42 113 97c5 23 22 33 38 33c19 0 37 -13 37 -37v-7z" />
    <glyph glyph-name="D" unicode="D" horiz-adv-x="554" 
d="M479 190c0 -105 -85 -190 -189 -190h-162c-20 0 -38 18 -38 38v615c0 20 18 38 38 38h162c104 0 189 -85 189 -189v-312zM404 190v311c0 63 -50 114 -113 114h-125v-539h124c63 0 114 51 114 114z" />
    <glyph glyph-name="E" unicode="E" horiz-adv-x="509" 
d="M479 38c0 -19 -11 -38 -38 -38h-313c-20 0 -38 18 -38 38v615c0 20 18 38 38 38h313c27 0 38 -19 38 -38s-11 -38 -38 -38h-275v-220h191c25 0 38 -19 38 -38s-13 -38 -38 -38h-191v-243h275c27 0 38 -19 38 -38z" />
    <glyph glyph-name="F" unicode="F" horiz-adv-x="479" 
d="M479 653c0 -19 -11 -38 -38 -38h-275v-220h191c25 0 38 -19 38 -38s-13 -38 -38 -38h-191v-287c0 -25 -19 -37 -38 -37s-38 12 -38 37v621c0 20 18 38 38 38h313c27 0 38 -19 38 -38z" />
    <glyph glyph-name="G" unicode="G" horiz-adv-x="540" 
d="M465 184c0 -106 -85 -189 -190 -189h-10c-105 0 -190 83 -190 189v323c0 106 85 190 190 190h10c97 0 177 -69 190 -163v-6c0 -24 -19 -37 -38 -37c-17 0 -34 9 -38 32c-11 56 -49 98 -114 98h-10c-63 0 -114 -52 -114 -113v-324c0 -63 51 -114 114 -114h10
c63 0 114 51 114 114v117h-105c-25 0 -38 19 -38 38s13 38 38 38h143c20 0 38 -18 38 -38v-155z" />
    <glyph glyph-name="H" unicode="H" horiz-adv-x="569" 
d="M479 32c0 -27 -19 -37 -38 -37s-38 10 -38 37v287h-237v-287c0 -25 -19 -37 -38 -37s-38 12 -38 37v627c0 25 19 38 38 38s38 -13 38 -38v-264h237v264c0 25 19 38 38 38s38 -13 38 -38v-627z" />
    <glyph glyph-name="I" unicode="I" horiz-adv-x="276" 
d="M176 32c0 -25 -19 -37 -38 -37s-38 12 -38 37v627c0 25 19 38 38 38s38 -13 38 -38v-627z" />
    <glyph glyph-name="J" unicode="J" horiz-adv-x="476" 
d="M386 183c0 -105 -85 -188 -190 -188h-10c-92 0 -163 60 -185 147c-1 2 -1 5 -1 10c0 23 19 37 38 37c15 0 30 -9 37 -28c19 -56 56 -91 111 -91h10c63 0 114 52 114 113v476c0 25 19 38 38 38s38 -13 38 -38v-476z" />
    <glyph glyph-name="K" unicode="K" horiz-adv-x="510" 
d="M480 32c0 -21 -17 -37 -40 -37c-15 0 -26 7 -33 21l-155 319l-86 -127v-176c0 -25 -19 -37 -38 -37s-38 12 -38 37v627c0 25 19 38 38 38s38 -13 38 -38v-316l229 337c7 11 17 17 30 17c23 0 40 -18 40 -38c0 -8 -2 -15 -7 -22l-157 -230l175 -358c3 -7 4 -12 4 -17z" />
    <glyph glyph-name="L" unicode="L" horiz-adv-x="469" 
d="M439 38c0 -19 -13 -38 -38 -38h-273c-20 0 -38 18 -38 38v621c0 25 19 38 38 38s38 -13 38 -38v-583h235c25 0 38 -19 38 -38z" />
    <glyph glyph-name="M" unicode="M" horiz-adv-x="685" 
d="M595 32c0 -25 -19 -37 -38 -37s-38 12 -38 37v489l-132 -303c-8 -19 -25 -26 -42 -26c-19 0 -35 9 -43 26l-136 303v-489c0 -25 -19 -37 -38 -37s-38 12 -38 37v621c0 27 10 44 45 44h3c27 0 38 -14 45 -29l160 -358l159 358c7 15 18 29 46 29h3c35 0 44 -17 44 -44v-621
z" />
    <glyph glyph-name="N" unicode="N" horiz-adv-x="569" 
d="M479 39c0 -33 -20 -44 -43 -44c-15 0 -37 0 -52 33l-218 493v-489c0 -25 -19 -37 -38 -37s-38 12 -38 37v626c0 27 22 39 45 39s39 -5 51 -32l217 -495v489c0 25 20 38 39 38s37 -13 37 -38v-620z" />
    <glyph glyph-name="O" unicode="O" horiz-adv-x="539" 
d="M464 184c0 -106 -85 -189 -189 -189h-10c-105 0 -190 83 -190 189v324c0 104 85 189 190 189h10c104 0 189 -85 189 -189v-324zM388 184v323c0 63 -50 114 -113 114h-10c-63 0 -114 -52 -114 -113v-324c0 -63 51 -114 114 -114h10c63 0 113 51 113 114z" />
    <glyph glyph-name="P" unicode="P" horiz-adv-x="504" 
d="M479 503c0 -105 -85 -190 -190 -190h-123v-281c0 -25 -19 -37 -38 -37s-38 12 -38 37v621c0 20 18 38 38 38h161c105 0 190 -83 190 -188zM403 503c0 61 -51 112 -114 112h-123v-226h123c63 0 114 51 114 114z" />
    <glyph glyph-name="Q" unicode="Q" horiz-adv-x="539" 
d="M464 184c0 -40 -11 -75 -32 -106l18 -19c8 -8 12 -17 12 -26c0 -20 -16 -38 -39 -38c-10 0 -19 3 -27 11l-18 18c-31 -19 -66 -29 -103 -29h-10c-105 0 -190 83 -190 189v324c0 104 85 189 190 189h10c104 0 189 -85 189 -189v-324zM388 184v323c0 63 -50 114 -113 114
h-10c-63 0 -114 -52 -114 -113v-324c0 -63 51 -114 114 -114h10c16 0 32 4 48 11l-16 15c-8 9 -12 18 -12 27c0 20 19 39 39 39c10 0 19 -4 27 -12l16 -16c8 15 11 17 11 50z" />
    <glyph glyph-name="R" unicode="R" horiz-adv-x="536" 
d="M486 492c0 -88 -56 -160 -137 -184l124 -259c3 -5 4 -11 4 -17c0 -21 -16 -37 -40 -37c-12 0 -25 5 -33 21l-136 286h-102v-270c0 -25 -19 -37 -38 -37s-38 12 -38 37v621c0 20 18 38 38 38h168c105 0 190 -85 190 -190v-9zM410 492v9c0 63 -51 114 -114 114h-130v-237
h134c63 0 110 51 110 114z" />
    <glyph glyph-name="S" unicode="S" horiz-adv-x="498" 
d="M448 180c0 -115 -70 -185 -191 -185h-9c-103 0 -198 63 -198 184c0 25 19 37 38 37s38 -11 38 -38c0 -71 58 -108 123 -108h10c79 0 113 39 113 111c0 82 -58 105 -119 139c-96 54 -193 78 -193 206c0 97 83 171 188 171h10c96 0 182 -68 182 -160c0 -25 -17 -37 -36 -37
s-37 12 -40 36c-5 49 -47 85 -108 85h-9c-83 0 -110 -60 -110 -95c0 -73 62 -95 116 -124c100 -54 195 -86 195 -222z" />
    <glyph glyph-name="T" unicode="T" horiz-adv-x="402" 
d="M387 653c0 -19 -13 -38 -38 -38h-110v-583c0 -25 -19 -37 -38 -37s-38 12 -38 37v583h-110c-25 0 -38 19 -38 38s13 38 38 38h296c25 0 38 -19 38 -38z" />
    <glyph glyph-name="U" unicode="U" horiz-adv-x="569" 
d="M479 184c0 -106 -85 -189 -189 -189h-10c-105 0 -190 83 -190 189v475c0 25 19 38 38 38s38 -13 38 -38v-475c0 -63 51 -114 114 -114h10c63 0 113 51 113 114v475c0 25 19 38 38 38s38 -13 38 -38v-475z" />
    <glyph glyph-name="V" unicode="V" horiz-adv-x="477" 
d="M437 660c0 -1 -1 -5 -2 -10l-156 -626c-5 -20 -22 -29 -41 -29c-17 0 -35 9 -40 29l-157 626c-1 3 -1 6 -1 10c0 21 16 37 39 37c16 0 31 -9 36 -29l123 -523l123 523c5 20 21 29 36 29c23 0 40 -16 40 -37z" />
    <glyph glyph-name="W" unicode="W" horiz-adv-x="774" 
d="M733 651l-134 -627c-3 -15 -14 -29 -37 -29h-18c-21 0 -34 15 -37 28l-120 513l-120 -513c-3 -15 -16 -28 -37 -28h-18c-21 0 -34 14 -37 29l-134 627c-5 25 11 46 38 46c16 0 31 -9 36 -30l108 -503l118 506c4 16 15 27 38 27h16c21 0 34 -11 38 -27l118 -506l108 503
c4 21 20 30 36 30c27 0 43 -21 38 -46z" />
    <glyph glyph-name="X" unicode="X" horiz-adv-x="499" 
d="M445 49c13 -27 -4 -54 -35 -54c-15 0 -26 7 -33 20l-127 256l-128 -256c-7 -15 -20 -20 -32 -20c-31 0 -49 27 -36 54l153 308l-141 285c-13 27 4 55 35 55c12 0 26 -6 33 -21l116 -234l116 234c7 15 20 21 33 21c31 0 48 -28 35 -55l-142 -285z" />
    <glyph glyph-name="Y" unicode="Y" horiz-adv-x="476" 
d="M433 644l-157 -377v-235c0 -25 -19 -37 -38 -37s-38 12 -38 37v235l-157 377c-11 27 8 53 37 53c13 0 26 -7 33 -24l125 -300l125 300c7 17 21 24 34 24c29 0 47 -26 36 -53z" />
    <glyph glyph-name="Z" unicode="Z" horiz-adv-x="464" 
d="M423 38c0 -19 -13 -38 -38 -38h-301c-28 0 -44 23 -44 48c0 9 2 17 6 24l283 543h-237c-27 0 -38 19 -38 38s11 38 38 38h286c37 0 57 -35 39 -70l-284 -545h252c25 0 38 -19 38 -38z" />
    <glyph glyph-name="bracketleft" unicode="[" horiz-adv-x="315" 
d="M265 -79c0 -19 -13 -38 -38 -38h-79c-20 0 -38 18 -38 38v738c0 20 18 38 38 38h79c25 0 38 -19 38 -38s-13 -38 -38 -38h-41v-662h41c25 0 38 -19 38 -38z" />
    <glyph glyph-name="backslash" unicode="\" horiz-adv-x="406" 
d="M415 -78c0 -20 -16 -37 -40 -37c-15 0 -26 8 -33 24l-327 802c-3 7 -3 11 -3 16c0 20 16 38 40 38c13 0 27 -7 34 -24l326 -803c2 -5 3 -11 3 -16z" />
    <glyph glyph-name="bracketright" unicode="]" horiz-adv-x="315" 
d="M205 -79c0 -20 -18 -38 -38 -38h-79c-25 0 -38 19 -38 38s13 38 38 38h41v662h-41c-25 0 -38 19 -38 38s13 38 38 38h79c20 0 38 -18 38 -38v-738z" />
    <glyph glyph-name="asciicircum" unicode="^" horiz-adv-x="494" 
d="M494 435c0 -23 -19 -38 -39 -38c-10 0 -19 4 -27 12l-189 201l-173 -200c-8 -9 -17 -13 -28 -13c-19 0 -38 15 -38 38c0 8 2 17 9 25l193 224c8 9 20 13 37 13c13 0 24 -4 33 -11l211 -225c7 -7 11 -16 11 -26z" />
    <glyph glyph-name="underscore" unicode="_" horiz-adv-x="495" 
d="M450 38c0 -19 -13 -38 -38 -38h-329c-25 0 -38 19 -38 38s13 38 38 38h329c25 0 38 -19 38 -38z" />
    <glyph glyph-name="grave" unicode="`" 
d="M347 588c0 -20 -14 -40 -37 -40c-6 0 -12 1 -18 4l-157 72c-16 7 -22 20 -22 33c0 20 14 40 37 40c6 0 12 -1 18 -4l157 -73c16 -7 22 -20 22 -32z" />
    <glyph glyph-name="a" unicode="a" horiz-adv-x="475" 
d="M440 33c0 -20 -13 -38 -37 -38c-3 0 -6 0 -7 1c-35 5 -55 19 -68 38c-29 -25 -67 -39 -108 -39h-9c-80 0 -161 49 -161 143v12c0 158 228 131 253 164c3 4 3 12 3 17c0 60 -37 81 -81 81h-7c-41 0 -62 -17 -81 -50c-8 -15 -21 -20 -34 -20c-19 0 -38 14 -38 35
c0 7 1 13 4 18c32 72 97 93 149 93h7c89 0 157 -69 157 -154v-232c0 -19 9 -30 26 -33c23 -4 32 -20 32 -36zM306 155v79c-74 -18 -180 -18 -180 -86v-8c0 -43 34 -70 85 -70h9c47 0 86 37 86 85z" />
    <glyph glyph-name="b" unicode="b" horiz-adv-x="487" 
d="M422 155c0 -90 -74 -160 -162 -160h-9c-43 0 -71 14 -86 29c-3 -20 -20 -29 -37 -29c-19 0 -38 11 -38 35v629c0 25 19 38 38 38s38 -13 38 -38v-204c17 21 52 33 87 33h7c91 0 162 -72 162 -161v-172zM346 155v172c0 47 -38 85 -86 85h-9c-45 0 -85 -30 -85 -77v-186
c0 -49 40 -79 85 -79h9c48 0 86 38 86 85z" />
    <glyph glyph-name="c" unicode="c" horiz-adv-x="447" 
d="M397 155c0 -90 -72 -160 -161 -160h-10c-89 0 -161 70 -161 160v172c0 91 73 161 161 161h10c88 0 161 -72 161 -161c0 -25 -19 -38 -38 -38s-37 12 -38 37c-3 51 -38 86 -85 86h-10c-47 0 -85 -38 -85 -85v-172c0 -47 38 -85 86 -85h9c47 0 82 38 85 85
c1 27 19 39 38 39s38 -12 38 -39z" />
    <glyph glyph-name="d" unicode="d" horiz-adv-x="486" 
d="M396 30c0 -24 -19 -35 -38 -35c-17 0 -34 9 -37 29c-15 -15 -43 -29 -86 -29h-9c-91 0 -162 70 -162 160v172c0 89 71 161 162 161h7c35 0 70 -12 87 -33v204c0 25 19 38 38 38s38 -13 38 -38v-629zM320 149v186c0 47 -40 77 -85 77h-9c-48 0 -86 -38 -86 -85v-172
c0 -47 38 -85 85 -85h10c45 0 85 30 85 79z" />
    <glyph glyph-name="e" unicode="e" horiz-adv-x="451" 
d="M396 244c0 -20 -17 -38 -38 -38h-218v-51c0 -47 38 -85 85 -85h10c39 0 65 23 78 51c7 17 20 24 33 24c20 0 39 -16 39 -39c0 -6 -1 -12 -4 -17c-24 -56 -78 -94 -146 -94h-10c-89 0 -161 70 -161 160v172c0 89 72 161 161 161h10c89 0 161 -69 161 -162v-82zM320 277v49
c0 49 -40 86 -84 86h-10c-47 0 -86 -37 -86 -85v-50h180z" />
    <glyph glyph-name="f" unicode="f" horiz-adv-x="297" 
d="M272 659c0 -19 -13 -38 -38 -38c-32 0 -53 -25 -53 -56v-80h47c27 0 38 -19 38 -38s-13 -38 -38 -38h-47v-377c0 -25 -19 -37 -38 -37s-38 12 -38 37v377h-22c-25 0 -38 19 -38 38s13 38 38 38h22v80c0 76 55 132 129 132c25 0 38 -19 38 -38z" />
    <glyph glyph-name="g" unicode="g" horiz-adv-x="476" 
d="M401 -53c0 -91 -72 -162 -161 -162h-9c-68 0 -148 36 -169 110c-1 5 -2 10 -2 13c0 23 19 36 39 36c15 0 28 -7 35 -26c12 -33 48 -57 97 -57h9c47 0 85 38 85 86v77c-17 -19 -52 -29 -87 -29h-7c-88 0 -162 70 -162 160v172c0 89 74 161 162 161h9c43 0 71 -15 86 -30
c3 20 20 30 37 30c19 0 38 -12 38 -37v-504zM325 147v186c0 49 -40 79 -85 79h-9c-47 0 -86 -37 -86 -85v-172c0 -48 39 -85 86 -85h9c45 0 85 30 85 77z" />
    <glyph glyph-name="h" unicode="h" horiz-adv-x="482" 
d="M422 32c0 -25 -19 -37 -38 -37s-38 12 -38 37v295c0 59 -45 85 -89 85c-45 0 -91 -28 -91 -80v-300c0 -25 -19 -37 -38 -37s-38 12 -38 37v627c0 25 19 38 38 38s38 -13 38 -38v-201c17 19 52 30 87 30h8c89 0 161 -72 161 -161v-295z" />
    <glyph glyph-name="i" unicode="i" horiz-adv-x="246" 
d="M161 637c0 -25 -19 -38 -38 -38s-38 13 -38 38v22c0 25 19 38 38 38s38 -13 38 -38v-22zM161 32c0 -25 -19 -37 -38 -37s-38 12 -38 37v418c0 25 19 38 38 38s38 -13 38 -38v-418z" />
    <glyph glyph-name="j" unicode="j" horiz-adv-x="244" 
d="M159 637c0 -25 -19 -38 -38 -38s-38 13 -38 38v22c0 25 19 38 38 38s38 -13 38 -38v-22zM159 -98c0 -91 -41 -117 -116 -117c-25 0 -38 19 -38 38s13 38 38 38c29 0 40 19 40 46v543c0 25 19 38 38 38s38 -13 38 -38v-548z" />
    <glyph glyph-name="k" unicode="k" horiz-adv-x="464" 
d="M429 32c0 -20 -16 -37 -39 -37c-12 0 -24 4 -32 19l-125 219l-67 -72v-129c0 -25 -19 -37 -38 -37s-38 12 -38 37v627c0 25 19 38 38 38s38 -13 38 -38v-386l190 202c8 9 17 13 27 13c23 0 39 -19 39 -39c0 -10 -4 -19 -11 -26l-124 -132l137 -240c4 -7 5 -12 5 -19z" />
    <glyph glyph-name="l" unicode="l" horiz-adv-x="294" 
d="M254 32c0 -19 -11 -37 -38 -37c-73 0 -131 58 -131 131v533c0 25 19 38 38 38s38 -13 38 -38v-533c0 -31 24 -55 55 -56c27 0 38 -19 38 -38z" />
    <glyph glyph-name="m" unicode="m" horiz-adv-x="729" 
d="M664 32c0 -25 -19 -37 -38 -37s-38 12 -38 37v296c0 56 -34 84 -85 84h-9c-48 0 -86 -37 -86 -86v-292c0 -27 -19 -39 -38 -39s-38 12 -38 39v292c0 51 -38 86 -86 86h-9c-45 0 -86 -30 -86 -77v-303c0 -25 -19 -37 -38 -37s-38 12 -38 37v418c0 24 19 38 39 38
c16 0 33 -10 37 -30c19 19 51 30 86 30h9c51 0 93 -22 124 -57c31 35 73 57 124 57h9c85 0 161 -50 161 -160v-296z" />
    <glyph glyph-name="n" unicode="n" horiz-adv-x="472" 
d="M407 32c0 -25 -18 -37 -37 -37s-38 12 -38 37v295c0 47 -38 85 -86 85h-9c-47 0 -86 -37 -86 -85v-295c0 -25 -19 -37 -38 -37s-38 12 -38 37v418c0 24 19 38 39 38c17 0 34 -10 38 -30c19 19 51 30 86 30h9c85 0 160 -51 160 -161v-295z" />
    <glyph glyph-name="o" unicode="o" 
d="M396 155c0 -90 -72 -160 -161 -160h-10c-89 0 -161 70 -161 160v172c0 89 72 161 161 161h10c89 0 161 -72 161 -161v-172zM320 155v172c0 47 -38 85 -85 85h-10c-47 0 -85 -38 -85 -85v-172c0 -47 38 -85 86 -85h9c47 0 85 38 85 85z" />
    <glyph glyph-name="p" unicode="p" horiz-adv-x="486" 
d="M422 155c0 -90 -71 -160 -162 -160h-7c-35 0 -70 10 -87 29v-201c0 -25 -19 -38 -38 -38s-38 13 -38 38v628c0 25 19 37 38 37c17 0 34 -10 37 -30c15 15 47 30 86 30h9c88 0 162 -72 162 -161v-172zM346 155v172c0 47 -38 85 -86 85h-9c-45 0 -85 -30 -85 -79v-186
c0 -47 40 -77 85 -77h9c48 0 86 38 86 85z" />
    <glyph glyph-name="q" unicode="q" horiz-adv-x="486" 
d="M396 -177c0 -25 -19 -38 -38 -38s-38 13 -38 38v201c-17 -19 -52 -29 -87 -29h-8c-89 0 -161 70 -161 160v172c0 89 71 161 162 161h9c37 0 71 -15 86 -30c3 20 20 30 37 30c19 0 38 -12 38 -37v-628zM320 147v186c0 49 -40 79 -85 79h-10c-47 0 -85 -38 -85 -85v-172
c0 -47 38 -85 86 -85h9c45 0 85 30 85 77z" />
    <glyph glyph-name="r" unicode="r" horiz-adv-x="347" 
d="M327 413c0 -21 -17 -36 -37 -36c-11 0 -22 5 -31 14c-8 8 -21 21 -46 21c-60 0 -67 -35 -67 -67v-311c0 -27 -19 -39 -38 -39s-38 12 -38 39v416c0 24 20 38 39 38c13 0 26 -5 33 -20c0 0 20 20 72 20c39 0 80 -14 104 -49c6 -9 9 -17 9 -26z" />
    <glyph glyph-name="s" unicode="s" horiz-adv-x="445" 
d="M400 135c0 -93 -89 -140 -173 -140h-6c-65 0 -139 37 -171 99c-3 7 -5 13 -5 19c0 23 19 37 39 37c12 0 25 -4 34 -17c25 -33 68 -63 105 -63h5c61 0 95 34 96 67c3 133 -260 34 -260 223c0 96 101 128 164 128h4c69 0 115 -30 131 -43c9 -7 14 -17 14 -29
c0 -19 -15 -36 -36 -36c-7 0 -14 2 -22 6c-21 11 -43 27 -88 27h-4c-56 0 -86 -25 -87 -54c-4 -108 260 -21 260 -220v-4z" />
    <glyph glyph-name="t" unicode="t" horiz-adv-x="322" 
d="M282 32c0 -19 -11 -37 -38 -37c-73 0 -131 58 -131 131v283h-35c-25 0 -38 19 -38 38s13 38 38 38h35v174c0 25 19 38 38 38s38 -13 38 -38v-174h54c25 0 38 -19 38 -38s-13 -38 -38 -38h-54v-282c0 -35 27 -55 58 -57c24 -2 35 -19 35 -38z" />
    <glyph glyph-name="u" unicode="u" horiz-adv-x="469" 
d="M398 32c0 -24 -19 -37 -38 -37c-17 0 -34 9 -38 29c-19 -19 -51 -29 -86 -29h-9c-86 0 -161 49 -161 160v295c0 25 19 38 38 38s38 -13 38 -38v-295c0 -47 38 -85 85 -85h9c48 0 86 38 86 85v295c0 25 19 38 38 38s38 -13 38 -38v-418z" />
    <glyph glyph-name="v" unicode="v" horiz-adv-x="439" 
d="M399 451c0 -5 -1 -9 -3 -13l-136 -418c-6 -17 -24 -25 -36 -25h-9c-13 0 -31 6 -37 25l-136 418c-1 5 -2 10 -2 13c0 20 16 37 39 37c15 0 29 -7 35 -26l105 -322l105 322c6 19 20 26 35 26c23 0 40 -17 40 -37z" />
    <glyph glyph-name="w" unicode="w" horiz-adv-x="670" 
d="M630 451c0 -5 0 -8 -1 -11l-118 -418c-4 -13 -16 -27 -37 -27h-8c-19 0 -34 15 -38 28c-24 86 -87 327 -94 341c-4 -16 -69 -257 -92 -341c-4 -13 -18 -28 -37 -28h-9c-21 0 -33 14 -37 27l-117 418c-1 4 -2 7 -2 11c0 21 16 37 39 37c15 0 30 -8 36 -28l86 -304l90 305
c5 18 20 27 43 27h1c31 0 39 -12 43 -27l91 -306l87 305c6 20 20 28 35 28c23 0 39 -16 39 -37z" />
    <glyph glyph-name="x" unicode="x" horiz-adv-x="436" 
d="M391 32c0 -20 -17 -37 -40 -37c-11 0 -23 4 -31 17l-102 164l-102 -164c-8 -13 -20 -17 -31 -17c-23 0 -40 17 -40 37c0 7 2 14 6 20l122 196l-113 181c-4 7 -6 14 -6 21c0 20 17 38 40 38c11 0 23 -5 31 -18l93 -150l93 150c7 12 18 18 31 18c23 0 39 -18 39 -38
c0 -7 -2 -14 -6 -21l-112 -181l121 -196c5 -5 7 -12 7 -20z" />
    <glyph glyph-name="y" unicode="y" horiz-adv-x="413" 
d="M378 451c0 -4 -1 -8 -2 -13l-165 -514c-23 -72 -60 -126 -133 -138c-1 -1 -3 -1 -6 -1c-21 0 -37 16 -37 39c0 17 10 34 33 37c28 4 51 23 71 86l35 109l-133 382c-1 2 -2 4 -2 6v7c0 20 16 37 39 37c15 0 28 -7 35 -26l99 -285l91 285c6 19 20 26 35 26
c23 0 40 -17 40 -37z" />
    <glyph glyph-name="z" unicode="z" horiz-adv-x="416" 
d="M376 38c0 -19 -13 -38 -38 -38h-255c-39 0 -55 46 -32 80l222 326h-188c-25 0 -38 19 -38 38s13 38 38 38h244c41 0 58 -43 35 -77l-223 -329h197c25 0 38 -19 38 -38z" />
    <glyph glyph-name="braceleft" unicode="{" horiz-adv-x="397" 
d="M347 -67c0 -19 -11 -38 -38 -38c-60 0 -86 14 -109 38c-29 29 -37 58 -37 122v191c0 19 -22 40 -37 55c-19 19 -26 25 -26 44c0 20 11 31 26 44c19 17 37 40 37 67v148c0 57 10 88 37 117c23 25 53 36 109 36c27 0 38 -19 38 -38s-11 -38 -38 -38c-49 0 -70 -19 -70 -87
v-141c0 -47 -33 -86 -57 -108c29 -27 57 -53 57 -96v-188c0 -69 22 -90 70 -90c27 0 38 -19 38 -38z" />
    <glyph glyph-name="bar" unicode="|" horiz-adv-x="346" 
d="M211 -118c0 -25 -19 -38 -38 -38s-38 13 -38 38v848c0 25 19 38 38 38s38 -13 38 -38v-848z" />
    <glyph glyph-name="braceright" unicode="}" horiz-adv-x="397" 
d="M297 345c0 -19 -7 -25 -26 -44c-15 -15 -37 -36 -37 -55v-191c0 -64 -8 -93 -37 -122c-23 -24 -49 -38 -109 -38c-27 0 -38 19 -38 38s11 38 38 38c48 0 70 21 70 90v188c0 43 28 69 57 96c-24 22 -57 61 -57 108v141c0 68 -21 87 -70 87c-27 0 -38 19 -38 38
s11 38 38 38c56 0 86 -11 109 -36c27 -29 37 -60 37 -117v-148c0 -27 18 -50 37 -67c15 -13 26 -24 26 -44z" />
    <glyph glyph-name="asciitilde" unicode="~" 
d="M385 281c0 -10 -4 -19 -13 -27c-33 -27 -47 -32 -90 -32c-51 0 -84 26 -112 26c-9 0 -22 -2 -35 -14c-7 -7 -15 -11 -24 -11c-19 0 -36 18 -36 37c0 9 3 17 9 23c21 23 41 35 81 35c53 0 88 -26 118 -26c24 0 39 15 46 18c7 5 14 7 21 7c20 0 35 -17 35 -36z" />
    <glyph glyph-name="Adieresis" unicode="&#xc4;" horiz-adv-x="545" 
d="M400 836c0 -25 -19 -38 -38 -38s-38 13 -38 38v22c0 27 19 38 38 38s38 -11 38 -38v-22zM217 836c0 -25 -19 -38 -38 -38s-38 13 -38 38v22c0 27 19 38 38 38s38 -11 38 -38v-22zM515 31c0 -20 -16 -36 -39 -36c-15 0 -30 7 -36 26l-44 144h-247l-45 -144
c-6 -19 -20 -26 -35 -26c-23 0 -39 16 -39 36c0 3 1 7 2 12l195 626c6 19 25 28 46 28c20 0 39 -9 45 -28l195 -626c1 -5 2 -9 2 -12zM372 241l-100 320l-99 -320h199z" />
    <glyph glyph-name="Aring" unicode="&#xc5;" horiz-adv-x="545" 
d="M366 814c0 -51 -42 -93 -93 -93s-94 42 -94 93s42 93 93 93s94 -42 94 -93zM515 31c0 -20 -16 -36 -39 -36c-15 0 -30 7 -36 26l-44 144h-247l-45 -144c-6 -19 -20 -26 -35 -26c-23 0 -39 16 -39 36c0 3 1 7 2 12l195 626c6 19 25 28 46 28c20 0 39 -9 45 -28l195 -626
c1 -5 2 -9 2 -12zM309 814c0 20 -17 37 -37 37c-19 0 -36 -17 -36 -37s17 -37 36 -37c20 0 37 17 37 37zM372 241l-100 320l-99 -320h199z" />
    <glyph glyph-name="Ccedilla" unicode="&#xc7;" horiz-adv-x="503" 
d="M463 156c-11 -84 -81 -151 -164 -159v-24c33 -11 57 -40 57 -77v-10c0 -44 -36 -80 -81 -80h-10c-37 0 -67 23 -78 58c0 3 -1 6 -1 9c0 17 15 27 30 27c11 0 22 -5 26 -20c3 -11 11 -17 23 -17h10c13 0 24 10 24 23v10c0 13 -11 24 -24 24h-5c-15 0 -28 13 -28 29v47
c-93 11 -167 91 -167 188v324c0 104 85 189 190 189h10c96 0 175 -70 188 -163v-6c0 -24 -18 -37 -37 -37c-17 0 -33 10 -38 33c-11 55 -56 97 -113 97h-10c-63 0 -114 -52 -114 -113v-324c0 -63 51 -114 114 -114h10c57 0 102 42 113 97c5 23 22 33 38 33
c19 0 37 -13 37 -37v-7z" />
    <glyph glyph-name="Eacute" unicode="&#xc9;" horiz-adv-x="509" 
d="M403 857c0 -13 -7 -26 -22 -33l-158 -73c-7 -3 -12 -4 -17 -4c-23 0 -38 20 -38 40c0 13 7 26 23 33l157 73c7 3 12 4 17 4c23 0 38 -20 38 -40zM479 38c0 -19 -11 -38 -38 -38h-313c-20 0 -38 18 -38 38v615c0 20 18 38 38 38h313c27 0 38 -19 38 -38s-11 -38 -38 -38
h-275v-220h191c25 0 38 -19 38 -38s-13 -38 -38 -38h-191v-243h275c27 0 38 -19 38 -38z" />
    <glyph glyph-name="Ntilde" unicode="&#xd1;" horiz-adv-x="569" 
d="M437 860c0 -11 -5 -20 -14 -27c-30 -27 -48 -32 -90 -32c-51 0 -84 26 -111 26c-9 0 -23 -2 -35 -14c-7 -7 -15 -11 -24 -11c-19 0 -37 18 -37 37c0 8 3 15 9 22c21 23 42 36 82 36c51 0 87 -26 118 -26c24 0 38 14 45 18s15 7 22 7c20 0 35 -17 35 -36zM479 39
c0 -33 -20 -44 -43 -44c-15 0 -37 0 -52 33l-218 493v-489c0 -25 -19 -37 -38 -37s-38 12 -38 37v626c0 27 22 39 45 39s39 -5 51 -32l217 -495v489c0 25 20 38 39 38s37 -13 37 -38v-620z" />
    <glyph glyph-name="Odieresis" unicode="&#xd6;" horiz-adv-x="539" 
d="M400 836c0 -25 -19 -38 -38 -38s-39 13 -39 38v22c0 27 19 38 38 38s39 -11 39 -38v-22zM216 836c0 -25 -19 -38 -38 -38s-39 13 -39 38v22c0 27 19 38 38 38s38 -11 38 -38v-22h1zM464 184c0 -106 -85 -189 -189 -189h-10c-105 0 -190 83 -190 189v324
c0 104 85 189 190 189h10c104 0 189 -85 189 -189v-324zM388 184v323c0 63 -50 114 -113 114h-10c-63 0 -114 -52 -114 -113v-324c0 -63 51 -114 114 -114h10c63 0 113 51 113 114z" />
    <glyph glyph-name="Udieresis" unicode="&#xdc;" horiz-adv-x="569" 
d="M414 836c0 -25 -19 -38 -38 -38s-38 13 -38 38v22c0 27 19 38 38 38s38 -11 38 -38v-22zM231 836c0 -25 -19 -38 -38 -38s-38 13 -38 38v22c0 27 19 38 38 38s38 -11 38 -38v-22zM479 184c0 -106 -85 -189 -189 -189h-10c-105 0 -190 83 -190 189v475c0 25 19 38 38 38
s38 -13 38 -38v-475c0 -63 51 -114 114 -114h10c63 0 113 51 113 114v475c0 25 19 38 38 38s38 -13 38 -38v-475z" />
    <glyph glyph-name="aacute" unicode="&#xe1;" horiz-adv-x="475" 
d="M343 658c0 -13 -6 -26 -22 -33l-158 -72c-5 -3 -11 -4 -17 -4c-23 0 -38 20 -38 40c0 12 7 25 23 32l157 73c7 3 11 3 18 3c21 0 37 -20 37 -39zM440 33c0 -20 -13 -38 -37 -38c-3 0 -6 0 -7 1c-35 5 -55 19 -68 38c-29 -25 -67 -39 -108 -39h-9c-80 0 -161 49 -161 143
v12c0 158 228 131 253 164c3 4 3 12 3 17c0 60 -37 81 -81 81h-7c-41 0 -62 -17 -81 -50c-8 -15 -21 -20 -34 -20c-19 0 -38 14 -38 35c0 7 1 13 4 18c32 72 97 93 149 93h7c89 0 157 -69 157 -154v-232c0 -19 9 -30 26 -33c23 -4 32 -20 32 -36zM306 155v79
c-74 -18 -180 -18 -180 -86v-8c0 -43 34 -70 85 -70h9c47 0 86 37 86 85z" />
    <glyph glyph-name="agrave" unicode="&#xe0;" horiz-adv-x="475" 
d="M353 589c0 -20 -15 -40 -38 -40c-6 0 -12 1 -17 4l-158 72c-15 7 -22 20 -22 33c0 19 15 39 38 39c5 0 10 0 17 -3l157 -73c16 -7 23 -20 23 -32zM440 33c0 -20 -13 -38 -37 -38c-3 0 -6 0 -7 1c-35 5 -55 19 -68 38c-29 -25 -67 -39 -108 -39h-9c-80 0 -161 49 -161 143
v12c0 158 228 131 253 164c3 4 3 12 3 17c0 60 -37 81 -81 81h-7c-41 0 -62 -17 -81 -50c-8 -15 -21 -20 -34 -20c-19 0 -38 14 -38 35c0 7 1 13 4 18c32 72 97 93 149 93h7c89 0 157 -69 157 -154v-232c0 -19 9 -30 26 -33c23 -4 32 -20 32 -36zM306 155v79
c-74 -18 -180 -18 -180 -86v-8c0 -43 34 -70 85 -70h9c47 0 86 37 86 85z" />
    <glyph glyph-name="acircumflex" unicode="&#xe2;" horiz-adv-x="475" 
d="M363 595c0 -20 -17 -40 -38 -40c-7 0 -14 3 -23 8l-81 56l-82 -56c-9 -5 -16 -8 -23 -8c-21 0 -38 20 -38 40c0 13 6 23 17 30l86 58c15 10 28 14 39 14s24 -4 39 -14l87 -58c11 -7 17 -17 17 -30zM440 33c0 -20 -13 -38 -37 -38c-3 0 -6 0 -7 1c-35 5 -55 19 -68 38
c-29 -25 -67 -39 -108 -39h-9c-80 0 -161 49 -161 143v12c0 158 228 131 253 164c3 4 3 12 3 17c0 60 -37 81 -81 81h-7c-41 0 -62 -17 -81 -50c-8 -15 -21 -20 -34 -20c-19 0 -38 14 -38 35c0 7 1 13 4 18c32 72 97 93 149 93h7c89 0 157 -69 157 -154v-232
c0 -19 9 -30 26 -33c23 -4 32 -20 32 -36zM306 155v79c-74 -18 -180 -18 -180 -86v-8c0 -43 34 -70 85 -70h9c47 0 86 37 86 85z" />
    <glyph glyph-name="adieresis" unicode="&#xe4;" horiz-adv-x="475" 
d="M350 637c0 -25 -19 -38 -38 -38s-38 13 -38 38v22c0 25 19 38 38 38s38 -13 38 -38v-22zM167 637c0 -25 -19 -38 -38 -38s-38 13 -38 38v22c0 25 19 38 38 38s38 -13 38 -38v-22zM440 33c0 -20 -13 -38 -37 -38c-3 0 -6 0 -7 1c-35 5 -55 19 -68 38
c-29 -25 -67 -39 -108 -39h-9c-80 0 -161 49 -161 143v12c0 158 228 131 253 164c3 4 3 12 3 17c0 60 -37 81 -81 81h-7c-41 0 -62 -17 -81 -50c-8 -15 -21 -20 -34 -20c-19 0 -38 14 -38 35c0 7 1 13 4 18c32 72 97 93 149 93h7c89 0 157 -69 157 -154v-232
c0 -19 9 -30 26 -33c23 -4 32 -20 32 -36zM306 155v79c-74 -18 -180 -18 -180 -86v-8c0 -43 34 -70 85 -70h9c47 0 86 37 86 85z" />
    <glyph glyph-name="atilde" unicode="&#xe3;" horiz-adv-x="475" 
d="M382 661c0 -11 -4 -20 -13 -28c-31 -26 -49 -32 -91 -32c-51 0 -84 27 -111 27c-9 0 -23 -3 -35 -15c-7 -7 -15 -11 -24 -11c-19 0 -36 18 -36 38c0 9 3 16 9 22c21 23 41 35 81 35c53 0 88 -26 118 -26c24 0 39 15 46 19s14 6 21 6c20 0 35 -16 35 -35zM440 33
c0 -20 -13 -38 -37 -38c-3 0 -6 0 -7 1c-35 5 -55 19 -68 38c-29 -25 -67 -39 -108 -39h-9c-80 0 -161 49 -161 143v12c0 158 228 131 253 164c3 4 3 12 3 17c0 60 -37 81 -81 81h-7c-41 0 -62 -17 -81 -50c-8 -15 -21 -20 -34 -20c-19 0 -38 14 -38 35c0 7 1 13 4 18
c32 72 97 93 149 93h7c89 0 157 -69 157 -154v-232c0 -19 9 -30 26 -33c23 -4 32 -20 32 -36zM306 155v79c-74 -18 -180 -18 -180 -86v-8c0 -43 34 -70 85 -70h9c47 0 86 37 86 85z" />
    <glyph glyph-name="aring" unicode="&#xe5;" horiz-adv-x="475" 
d="M314 604c0 -51 -42 -93 -93 -93s-93 42 -93 93s42 93 93 93s93 -42 93 -93zM440 33c0 -20 -13 -38 -37 -38c-3 0 -6 0 -7 1c-35 5 -55 19 -68 38c-29 -25 -67 -39 -108 -39h-9c-80 0 -161 49 -161 143v12c0 158 228 131 253 164c3 4 3 12 3 17c0 60 -37 81 -81 81h-7
c-41 0 -62 -17 -81 -50c-8 -15 -21 -20 -34 -20c-19 0 -38 14 -38 35c0 7 1 13 4 18c32 72 97 93 149 93h7c89 0 157 -69 157 -154v-232c0 -19 9 -30 26 -33c23 -4 32 -20 32 -36zM258 604c0 20 -17 37 -37 37s-37 -17 -37 -37s17 -37 37 -37s37 17 37 37zM306 155v79
c-74 -18 -180 -18 -180 -86v-8c0 -43 34 -70 85 -70h9c47 0 86 37 86 85z" />
    <glyph glyph-name="ccedilla" unicode="&#xe7;" horiz-adv-x="447" 
d="M397 155c0 -80 -60 -150 -138 -158v-24c33 -11 57 -41 57 -77v-10c0 -45 -36 -81 -81 -81h-10c-37 0 -68 25 -77 58c-1 5 -2 8 -2 9c0 17 15 28 30 28c11 0 22 -6 26 -21c3 -11 11 -17 23 -17h10c13 0 24 11 24 24v10c0 13 -11 24 -24 24h-4c-15 0 -29 13 -29 28v49
c-77 11 -137 78 -137 158v172c0 91 73 161 161 161h10c88 0 161 -72 161 -161c0 -25 -19 -38 -38 -38s-37 12 -38 37c-3 51 -38 86 -85 86h-10c-47 0 -85 -38 -85 -85v-172c0 -47 38 -85 86 -85h9c47 0 82 38 85 85c1 27 19 39 38 39s38 -12 38 -39z" />
    <glyph glyph-name="eacute" unicode="&#xe9;" horiz-adv-x="451" 
d="M348 658c0 -13 -7 -26 -23 -33l-157 -72c-5 -3 -11 -4 -18 -4c-21 0 -37 20 -37 40c0 12 7 25 22 32l158 73c7 3 12 3 17 3c23 0 38 -20 38 -39zM396 244c0 -20 -17 -38 -38 -38h-218v-51c0 -47 38 -85 85 -85h10c39 0 65 23 78 51c7 17 20 24 33 24c20 0 39 -16 39 -39
c0 -6 -1 -12 -4 -17c-24 -56 -78 -94 -146 -94h-10c-89 0 -161 70 -161 160v172c0 89 72 161 161 161h10c89 0 161 -69 161 -162v-82zM320 277v49c0 49 -40 86 -84 86h-10c-47 0 -86 -37 -86 -85v-50h180z" />
    <glyph glyph-name="egrave" unicode="&#xe8;" horiz-adv-x="451" 
d="M348 589c0 -20 -15 -40 -38 -40c-6 0 -12 1 -17 4l-158 72c-15 7 -22 20 -22 33c0 19 15 39 38 39c5 0 10 0 17 -3l157 -73c16 -7 23 -20 23 -32zM396 244c0 -20 -17 -38 -38 -38h-218v-51c0 -47 38 -85 85 -85h10c39 0 65 23 78 51c7 17 20 24 33 24c20 0 39 -16 39 -39
c0 -6 -1 -12 -4 -17c-24 -56 -78 -94 -146 -94h-10c-89 0 -161 70 -161 160v172c0 89 72 161 161 161h10c89 0 161 -69 161 -162v-82zM320 277v49c0 49 -40 86 -84 86h-10c-47 0 -86 -37 -86 -85v-50h180z" />
    <glyph glyph-name="ecircumflex" unicode="&#xea;" horiz-adv-x="451" 
d="M373 595c0 -20 -17 -40 -38 -40c-7 0 -14 3 -23 8l-81 56l-82 -56c-9 -5 -16 -8 -22 -8c-23 0 -39 20 -39 40c0 13 6 23 17 30l86 58c15 10 28 14 39 14c13 0 26 -5 40 -14l86 -58c11 -7 17 -17 17 -30zM396 244c0 -20 -17 -38 -38 -38h-218v-51c0 -47 38 -85 85 -85h10
c39 0 65 23 78 51c7 17 20 24 33 24c20 0 39 -16 39 -39c0 -6 -1 -12 -4 -17c-24 -56 -78 -94 -146 -94h-10c-89 0 -161 70 -161 160v172c0 89 72 161 161 161h10c89 0 161 -69 161 -162v-82zM320 277v49c0 49 -40 86 -84 86h-10c-47 0 -86 -37 -86 -85v-50h180z" />
    <glyph glyph-name="edieresis" unicode="&#xeb;" horiz-adv-x="451" 
d="M359 637c0 -25 -19 -38 -38 -38s-38 13 -38 38v22c0 25 19 38 38 38s38 -13 38 -38v-22zM175 637c0 -25 -19 -38 -38 -38s-38 13 -38 38v22c0 25 19 38 38 38s38 -13 38 -38v-22zM396 244c0 -20 -17 -38 -38 -38h-218v-51c0 -47 38 -85 85 -85h10c39 0 65 23 78 51
c7 17 20 24 33 24c20 0 39 -16 39 -39c0 -6 -1 -12 -4 -17c-24 -56 -78 -94 -146 -94h-10c-89 0 -161 70 -161 160v172c0 89 72 161 161 161h10c89 0 161 -69 161 -162v-82zM320 277v49c0 49 -40 86 -84 86h-10c-47 0 -86 -37 -86 -85v-50h180z" />
    <glyph glyph-name="iacute" unicode="&#xed;" horiz-adv-x="246" 
d="M241 658c0 -15 -8 -26 -23 -33l-157 -72c-6 -3 -12 -4 -18 -4c-21 0 -38 20 -38 40c0 12 7 25 22 32l158 73c7 3 12 3 17 3c23 0 39 -20 39 -39zM161 32c0 -25 -19 -37 -38 -37s-38 12 -38 37v418c0 25 19 38 38 38s38 -13 38 -38v-418z" />
    <glyph glyph-name="igrave" unicode="&#xec;" horiz-adv-x="246" 
d="M241 589c0 -20 -15 -40 -38 -40c-6 0 -12 1 -17 4l-158 72c-16 7 -23 20 -23 33c0 19 15 39 38 39c5 0 10 0 17 -3l157 -73c16 -7 24 -20 24 -32zM161 32c0 -25 -19 -37 -38 -37s-38 12 -38 37v418c0 25 19 38 38 38s38 -13 38 -38v-418z" />
    <glyph glyph-name="icircumflex" unicode="&#xee;" horiz-adv-x="246" 
d="M266 595c0 -20 -17 -40 -38 -40c-8 0 -16 3 -23 8l-81 56l-82 -56c-9 -5 -16 -8 -22 -8c-23 0 -39 20 -39 40c0 12 6 22 17 30l85 58c14 10 28 14 39 14c13 0 27 -5 40 -14l86 -58c12 -8 18 -18 18 -30zM161 32c0 -25 -19 -37 -38 -37s-38 12 -38 37v418
c0 25 19 38 38 38s38 -13 38 -38v-418z" />
    <glyph glyph-name="idieresis" unicode="&#xef;" horiz-adv-x="246" 
d="M253 637c0 -25 -19 -38 -38 -38s-39 13 -39 38v22c0 25 19 38 38 38s39 -13 39 -38v-22zM70 637c0 -25 -19 -38 -38 -38s-38 13 -38 38v22c0 25 18 38 37 38s38 -13 38 -38v-22h1zM161 32c0 -25 -19 -37 -38 -37s-38 12 -38 37v418c0 25 19 38 38 38s38 -13 38 -38v-418z
" />
    <glyph glyph-name="ntilde" unicode="&#xf1;" horiz-adv-x="472" 
d="M392 661c0 -11 -5 -21 -14 -28c-31 -26 -48 -32 -90 -32c-51 0 -84 27 -112 27c-8 0 -22 -3 -34 -15c-9 -7 -17 -11 -24 -11c-20 0 -37 18 -37 38c0 8 3 15 9 22c21 23 41 35 81 35c53 0 87 -26 119 -26c23 0 38 15 45 19c8 4 15 6 22 6c20 0 35 -16 35 -35zM407 32
c0 -25 -18 -37 -37 -37s-38 12 -38 37v295c0 47 -38 85 -86 85h-9c-47 0 -86 -37 -86 -85v-295c0 -25 -19 -37 -38 -37s-38 12 -38 37v418c0 24 19 38 39 38c17 0 34 -10 38 -30c19 19 51 30 86 30h9c85 0 160 -51 160 -161v-295z" />
    <glyph glyph-name="oacute" unicode="&#xf3;" 
d="M348 658c0 -13 -7 -26 -23 -33l-157 -72c-5 -3 -11 -4 -18 -4c-21 0 -37 20 -37 40c0 12 7 25 22 32l158 73c7 3 12 3 17 3c23 0 38 -20 38 -39zM396 155c0 -90 -72 -160 -161 -160h-10c-89 0 -161 70 -161 160v172c0 89 72 161 161 161h10c89 0 161 -72 161 -161v-172z
M320 155v172c0 47 -38 85 -85 85h-10c-47 0 -85 -38 -85 -85v-172c0 -47 38 -85 86 -85h9c47 0 85 38 85 85z" />
    <glyph glyph-name="ograve" unicode="&#xf2;" 
d="M355 589c0 -20 -14 -40 -37 -40c-7 0 -13 1 -18 4l-157 72c-16 7 -22 20 -22 33c0 19 14 39 37 39c7 0 10 0 17 -3l158 -73c16 -7 22 -20 22 -32zM396 155c0 -90 -72 -160 -161 -160h-10c-89 0 -161 70 -161 160v172c0 89 72 161 161 161h10c89 0 161 -72 161 -161v-172z
M320 155v172c0 47 -38 85 -85 85h-10c-47 0 -85 -38 -85 -85v-172c0 -47 38 -85 86 -85h9c47 0 85 38 85 85z" />
    <glyph glyph-name="ocircumflex" unicode="&#xf4;" 
d="M372 595c0 -20 -17 -40 -38 -40c-7 0 -14 3 -23 8l-81 56l-82 -56c-7 -5 -15 -8 -22 -8c-23 0 -39 20 -39 40c0 13 6 23 17 30l86 58c15 10 28 14 39 14c13 0 26 -5 40 -14l86 -58c11 -7 17 -17 17 -30zM396 155c0 -90 -72 -160 -161 -160h-10c-89 0 -161 70 -161 160
v172c0 89 72 161 161 161h10c89 0 161 -72 161 -161v-172zM320 155v172c0 47 -38 85 -85 85h-10c-47 0 -85 -38 -85 -85v-172c0 -47 38 -85 86 -85h9c47 0 85 38 85 85z" />
    <glyph glyph-name="odieresis" unicode="&#xf6;" 
d="M359 637c0 -25 -19 -38 -38 -38s-38 13 -38 38v22c0 25 19 38 38 38s38 -13 38 -38v-22zM175 637c0 -25 -19 -38 -38 -38s-38 13 -38 38v22c0 25 19 38 38 38s38 -13 38 -38v-22zM396 155c0 -90 -72 -160 -161 -160h-10c-89 0 -161 70 -161 160v172c0 89 72 161 161 161
h10c89 0 161 -72 161 -161v-172zM320 155v172c0 47 -38 85 -85 85h-10c-47 0 -85 -38 -85 -85v-172c0 -47 38 -85 86 -85h9c47 0 85 38 85 85z" />
    <glyph glyph-name="otilde" unicode="&#xf5;" 
d="M383 661c0 -11 -4 -20 -13 -28c-31 -26 -48 -32 -90 -32c-51 0 -84 27 -112 27c-9 0 -22 -3 -34 -15c-9 -7 -17 -11 -25 -11c-19 0 -36 18 -36 38c0 8 3 15 9 22c21 23 41 35 81 35c53 0 87 -26 119 -26c23 0 38 15 45 19s14 6 21 6c20 0 35 -16 35 -35zM396 155
c0 -90 -72 -160 -161 -160h-10c-89 0 -161 70 -161 160v172c0 89 72 161 161 161h10c89 0 161 -72 161 -161v-172zM320 155v172c0 47 -38 85 -85 85h-10c-47 0 -85 -38 -85 -85v-172c0 -47 38 -85 86 -85h9c47 0 85 38 85 85z" />
    <glyph glyph-name="uacute" unicode="&#xfa;" horiz-adv-x="469" 
d="M341 658c0 -13 -7 -26 -22 -33l-158 -72c-5 -3 -11 -4 -17 -4c-23 0 -38 20 -38 40c0 12 7 25 23 32l157 73c7 3 12 3 17 3c23 0 38 -20 38 -39zM398 32c0 -24 -19 -37 -38 -37c-17 0 -34 9 -38 29c-19 -19 -51 -29 -86 -29h-9c-86 0 -161 49 -161 160v295
c0 25 19 38 38 38s38 -13 38 -38v-295c0 -47 38 -85 85 -85h9c48 0 86 38 86 85v295c0 25 19 38 38 38s38 -13 38 -38v-418z" />
    <glyph glyph-name="ugrave" unicode="&#xf9;" horiz-adv-x="469" 
d="M360 589c0 -20 -15 -40 -38 -40c-6 0 -12 1 -17 4l-157 73c-15 7 -23 17 -23 32c0 20 15 40 38 40c6 0 12 -1 17 -4l158 -72c15 -7 22 -20 22 -33zM398 32c0 -24 -19 -37 -38 -37c-17 0 -34 9 -38 29c-19 -19 -51 -29 -86 -29h-9c-86 0 -161 49 -161 160v295
c0 25 19 38 38 38s38 -13 38 -38v-295c0 -47 38 -85 85 -85h9c48 0 86 38 86 85v295c0 25 19 38 38 38s38 -13 38 -38v-418z" />
    <glyph glyph-name="ucircumflex" unicode="&#xfb;" horiz-adv-x="469" 
d="M376 595c0 -20 -18 -40 -39 -40c-7 0 -14 3 -23 8l-81 56l-82 -56c-7 -5 -15 -8 -22 -8c-23 0 -39 20 -39 40c0 13 6 23 17 30l86 58c15 10 28 14 39 14c13 0 26 -5 40 -14l86 -58c12 -8 18 -18 18 -30zM398 32c0 -24 -19 -37 -38 -37c-17 0 -34 9 -38 29
c-19 -19 -51 -29 -86 -29h-9c-86 0 -161 49 -161 160v295c0 25 19 38 38 38s38 -13 38 -38v-295c0 -47 38 -85 85 -85h9c48 0 86 38 86 85v295c0 25 19 38 38 38s38 -13 38 -38v-418z" />
    <glyph glyph-name="udieresis" unicode="&#xfc;" horiz-adv-x="469" 
d="M361 637c0 -25 -19 -38 -38 -38s-38 13 -38 38v22c0 25 18 38 37 38s39 -13 39 -38v-22zM177 637c0 -25 -19 -38 -38 -38s-38 13 -38 38v22c0 25 19 38 38 38s38 -13 38 -38v-22zM398 32c0 -24 -19 -37 -38 -37c-17 0 -34 9 -38 29c-19 -19 -51 -29 -86 -29h-9
c-86 0 -161 49 -161 160v295c0 25 19 38 38 38s38 -13 38 -38v-295c0 -47 38 -85 85 -85h9c48 0 86 38 86 85v295c0 25 19 38 38 38s38 -13 38 -38v-418z" />
    <glyph glyph-name="dagger" unicode="&#x2020;" horiz-adv-x="452" 
d="M402 460c0 -19 -11 -35 -35 -35h-106v-396c0 -24 -16 -34 -35 -34s-35 10 -35 34v396h-106c-23 0 -35 16 -35 35c0 17 12 35 35 35h106v167c0 23 16 35 35 35s35 -12 35 -35v-167h106c24 0 35 -16 35 -35z" />
    <glyph glyph-name="degree" unicode="&#xb0;" horiz-adv-x="332" 
d="M282 587c0 -64 -52 -116 -116 -116c-63 0 -116 52 -116 116c0 63 53 116 116 116c64 0 116 -53 116 -116zM226 587c0 32 -27 59 -60 59c-32 0 -59 -27 -59 -59c0 -33 27 -60 59 -60c33 0 60 27 60 60z" />
    <glyph glyph-name="cent" unicode="&#xa2;" horiz-adv-x="447" 
d="M397 155c0 -76 -54 -144 -127 -160v-38c0 -25 -19 -38 -38 -38s-38 13 -38 38v38c-74 16 -129 83 -129 160v172c0 79 56 142 129 158v41c0 25 19 38 38 38s38 -13 38 -38v-42c73 -16 127 -79 127 -157c0 -25 -19 -38 -38 -38s-38 13 -38 38c0 47 -38 85 -85 85h-10
c-47 0 -85 -38 -85 -85v-172c0 -47 38 -85 85 -85h10c47 0 85 38 85 85c0 27 19 38 38 38s38 -11 38 -38z" />
    <glyph glyph-name="sterling" unicode="&#xa3;" horiz-adv-x="517" 
d="M507 136c0 -98 -87 -136 -170 -136h-242c-27 0 -40 16 -40 35c0 16 11 34 34 41c56 17 72 55 72 99s-18 93 -30 129h-73c-25 0 -38 19 -38 38s13 38 38 38h44c-20 51 -41 102 -41 143v14c0 85 63 160 164 160h7c77 0 162 -57 173 -141v-4c0 -23 -20 -38 -40 -38
c-16 0 -31 10 -36 33c-7 36 -40 74 -97 74h-7c-56 0 -88 -33 -88 -84v-13c0 -45 20 -89 43 -144h101c27 0 38 -19 38 -38s-11 -38 -38 -38h-70c16 -43 28 -86 28 -127c0 -37 -10 -70 -30 -101h130h1c16 0 91 0 91 60c0 27 19 38 38 38s38 -11 38 -38z" />
    <glyph glyph-name="section" unicode="&#xa7;" horiz-adv-x="485" 
d="M415 248c0 -59 -40 -115 -96 -131c45 -39 78 -78 78 -140c0 -101 -81 -149 -162 -149c-79 0 -158 47 -158 133c0 25 18 38 37 38s39 -13 39 -38c1 -36 40 -57 83 -57c42 0 85 21 85 73c0 29 -19 60 -46 83l-159 137c-31 27 -46 63 -46 99c0 31 10 61 29 86
c16 21 34 33 61 44c-42 37 -62 64 -62 127c0 68 41 144 148 144c84 0 140 -51 140 -128c0 -25 -19 -38 -38 -38s-38 13 -38 38c0 33 -27 52 -68 52c-45 0 -68 -24 -68 -72c0 -46 15 -57 65 -98l128 -104c35 -28 48 -64 48 -99zM337 247c0 15 -5 31 -20 43l-102 84
s-28 -1 -55 -35c-11 -13 -16 -27 -16 -40c0 -15 6 -30 19 -41l104 -86s34 8 54 32c11 13 16 27 16 43z" />
    <glyph glyph-name="bullet" unicode="&#x2022;" horiz-adv-x="338" 
d="M273 337c0 -58 -45 -105 -104 -105c-57 0 -104 47 -104 105c0 57 47 104 104 104c59 0 104 -47 104 -104z" />
    <glyph glyph-name="paragraph" unicode="&#xb6;" horiz-adv-x="514" 
d="M424 -43c0 -25 -19 -38 -38 -38s-38 13 -38 38v658h-47v-658c0 -25 -19 -38 -38 -38s-38 13 -38 38v355h-15c-105 0 -190 85 -190 190c0 104 85 189 190 189h176c21 0 38 -18 38 -38v-696zM225 388v227h-15c-63 0 -114 -52 -114 -113c0 -63 51 -114 114 -114h15z" />
    <glyph glyph-name="germandbls" unicode="&#xdf;" horiz-adv-x="522" 
d="M472 184c0 -100 -75 -189 -159 -189c-27 0 -39 17 -39 36s13 36 37 39c30 3 85 39 85 114v69c0 94 -66 107 -74 107c-27 0 -40 20 -40 41c0 20 13 40 40 40c50 0 66 49 66 68v4c0 64 -43 108 -106 108h-10c-63 0 -106 -44 -106 -108v-534c0 -25 -19 -38 -38 -38
s-38 13 -38 38v536c0 104 75 182 182 182h10c107 0 182 -80 182 -184v-4c0 -20 -9 -74 -49 -109c41 -35 57 -95 57 -154v-62z" />
    <glyph glyph-name="registered" unicode="&#xae;" horiz-adv-x="881" 
d="M811 326c0 -204 -165 -369 -371 -369c-204 0 -370 165 -370 369c0 205 166 371 370 371c206 0 371 -166 371 -371zM741 326c0 166 -134 301 -301 301c-165 0 -300 -135 -300 -301c0 -165 135 -300 300 -300c167 0 301 135 301 300zM594 416c0 -53 -33 -96 -85 -119
l75 -150c3 -5 4 -10 4 -16c0 -19 -13 -33 -36 -33c-11 0 -22 5 -29 20l-86 171h-45v-157c0 -23 -16 -34 -35 -34c-17 0 -34 11 -34 34v385c0 17 17 34 33 34h107c73 0 131 -57 131 -129v-6zM525 417v6c0 43 -31 61 -63 61h-70v-127h70c35 0 63 25 63 60z" />
    <glyph glyph-name="copyright" unicode="&#xa9;" horiz-adv-x="881" 
d="M811 326c0 -204 -165 -369 -371 -369c-204 0 -370 165 -370 369c0 205 166 371 370 371c206 0 371 -166 371 -371zM741 326c0 166 -134 301 -301 301c-165 0 -300 -135 -300 -301c0 -165 135 -300 300 -300c167 0 301 135 301 300zM573 210c-1 -1 -1 -2 -1 -4
c-8 -60 -64 -108 -128 -108h-6c-72 0 -129 58 -129 127v200c0 72 57 126 129 126h6c64 0 120 -46 128 -108v-6c0 -21 -17 -32 -34 -32c-16 0 -31 9 -34 28c-4 29 -29 51 -60 51h-6c-33 0 -60 -26 -60 -59v-200c0 -33 27 -60 60 -60h6c31 0 56 22 60 51c3 21 18 29 34 29
c17 0 35 -12 35 -32v-1v-2z" />
    <glyph glyph-name="trademark" unicode="&#x2122;" horiz-adv-x="617" 
d="M567 407c0 -21 -14 -30 -29 -30s-29 9 -29 30v186l-54 -116c-7 -15 -17 -20 -24 -20c-8 0 -18 5 -25 21l-53 114v-185c0 -21 -14 -30 -29 -30s-29 9 -29 30v260c0 16 14 30 29 30h12c7 0 17 -1 25 -16c0 0 48 -91 70 -134c22 42 70 135 70 135c8 15 17 15 24 15h4h9
c15 0 29 -14 29 -30v-260zM244 667c0 -15 -10 -30 -29 -30h-51v-230c0 -21 -13 -30 -29 -30c-15 0 -29 9 -29 30v230h-57c-19 0 -29 15 -29 30c0 16 10 30 29 30h166c19 0 29 -14 29 -30z" />
    <glyph glyph-name="acute" unicode="&#xb4;" 
d="M347 658c0 -13 -6 -26 -22 -33l-157 -72c-6 -3 -12 -4 -18 -4c-23 0 -37 20 -37 40c0 12 6 25 22 32l157 73c7 3 11 3 18 3c23 0 37 -20 37 -39z" />
    <glyph glyph-name="dieresis" unicode="&#xa8;" 
d="M360 637c0 -25 -19 -38 -38 -38s-38 13 -38 38v22c0 25 19 38 38 38s38 -13 38 -38v-22zM176 637c0 -25 -19 -38 -38 -38s-38 13 -38 38v22c0 25 19 38 38 38s38 -13 38 -38v-22z" />
    <glyph glyph-name="notequal" unicode="&#x2260;" horiz-adv-x="533" 
d="M463 278c0 -19 -13 -38 -38 -38h-180l-46 -72c-8 -12 -18 -18 -31 -18c-23 0 -40 18 -40 38c0 7 2 14 7 21l20 31h-47c-25 0 -38 19 -38 38s13 38 38 38h96l37 57h-133c-25 0 -38 19 -38 38s13 38 38 38h182l48 74c8 12 18 18 31 18c23 0 40 -18 40 -38
c0 -7 -2 -14 -7 -21l-21 -33h44c25 0 38 -19 38 -38s-13 -38 -38 -38h-94l-36 -57h130c25 0 38 -19 38 -38z" />
    <glyph glyph-name="AE" unicode="&#xc6;" horiz-adv-x="748" 
d="M718 38c0 -19 -11 -38 -38 -38h-275c-20 0 -38 18 -38 38v145h-207l-55 -162c-7 -19 -22 -26 -37 -26c-23 0 -38 15 -38 35c0 3 1 8 2 13l204 608c10 29 24 40 53 40h391c27 0 38 -19 38 -38s-11 -38 -38 -38h-237v-222h153c25 0 38 -19 38 -38s-13 -38 -38 -38h-153
v-241h237c27 0 38 -19 38 -38zM367 259v356h-64l-120 -356h184z" />
    <glyph glyph-name="Oslash" unicode="&#xd8;" horiz-adv-x="573" 
d="M498 692c0 -7 -1 -13 -4 -18l-37 -73c17 -29 25 -60 25 -93v-324c0 -106 -85 -189 -190 -189h-10c-41 0 -80 12 -111 35l-23 -46c-7 -15 -21 -21 -33 -21c-20 0 -40 16 -40 37c0 7 2 12 5 17l37 74c-17 28 -25 59 -25 93v324c0 104 85 189 190 189h10
c41 0 80 -13 111 -36l23 47c7 15 20 21 33 21c20 0 39 -14 39 -37zM368 592c-21 19 -47 29 -76 29h-10c-63 0 -114 -52 -114 -113v-314zM406 184v314l-200 -399c21 -19 47 -29 76 -29h10c63 0 114 51 114 114z" />
    <glyph glyph-name="infinity" unicode="&#x221e;" horiz-adv-x="733" 
d="M663 233c0 -73 -47 -142 -131 -142c-59 0 -119 40 -166 85c-42 -42 -102 -85 -165 -85c-83 0 -131 69 -131 142c0 72 48 141 131 141c59 0 120 -39 165 -84c45 43 105 84 166 84c84 0 131 -69 131 -141zM587 233c0 43 -24 65 -55 65c-40 0 -87 -38 -114 -65
c26 -26 74 -65 114 -65c31 0 55 22 55 65zM315 233c-26 28 -75 65 -114 65c-31 0 -55 -22 -55 -65s24 -65 55 -65c41 0 87 38 114 65z" />
    <glyph glyph-name="plusminus" unicode="&#xb1;" horiz-adv-x="482" 
d="M422 313c0 -19 -13 -38 -38 -38h-105v-105c0 -25 -19 -38 -38 -38s-38 13 -38 38v105h-105c-25 0 -38 19 -38 38s13 38 38 38h105v105c0 25 19 38 38 38s38 -13 38 -38v-105h105c25 0 38 -19 38 -38zM390 38c0 -19 -11 -38 -38 -38h-224c-25 0 -38 19 -38 38s13 38 38 38
h224c27 0 38 -19 38 -38z" />
    <glyph glyph-name="lessequal" unicode="&#x2264;" horiz-adv-x="440" 
d="M337 206c0 -20 -17 -39 -38 -39c-7 0 -14 2 -22 6l-184 120c-12 8 -18 22 -18 37c0 17 6 29 18 37l184 120c7 5 15 7 22 7c21 0 38 -20 38 -40c0 -11 -5 -23 -18 -31l-145 -93l145 -93c12 -8 18 -18 18 -31zM370 38c0 -19 -11 -38 -38 -38h-224c-25 0 -38 19 -38 38
s13 38 38 38h224c27 0 38 -19 38 -38z" />
    <glyph glyph-name="greaterequal" unicode="&#x2265;" horiz-adv-x="440" 
d="M365 330c0 -15 -6 -30 -17 -37l-185 -120c-8 -4 -15 -6 -22 -6c-21 0 -37 19 -37 39c0 13 6 24 17 31l145 93l-145 93c-13 8 -17 20 -17 31c0 20 16 40 37 40c7 0 15 -2 22 -7l185 -120c11 -7 17 -22 17 -37zM370 38c0 -19 -11 -38 -38 -38h-224c-25 0 -38 19 -38 38
s13 38 38 38h224c27 0 38 -19 38 -38z" />
    <glyph glyph-name="yen" unicode="&#xa5;" horiz-adv-x="497" 
d="M447 660c0 -6 -1 -11 -4 -16l-138 -332h55c27 0 38 -19 38 -38s-11 -38 -38 -38h-74v-29h74c25 0 38 -19 38 -38s-13 -38 -38 -38h-74v-99c0 -25 -19 -37 -38 -37s-38 12 -38 37v99h-67c-25 0 -38 19 -38 38s13 38 38 38h67v29h-66c-25 0 -38 19 -38 38s13 38 38 38h47
l-138 332c-2 5 -3 11 -3 16c0 20 16 37 40 37c13 0 26 -7 33 -24l125 -300l125 300c7 17 21 24 34 24c23 0 40 -17 40 -37z" />
    <glyph glyph-name="mu" unicode="&#x3bc;" horiz-adv-x="468" 
d="M397 32c0 -24 -19 -37 -38 -37c-17 0 -34 9 -38 29c-19 -19 -55 -29 -90 -29s-71 10 -90 29v-201c0 -25 -19 -38 -38 -38s-38 13 -38 38v626v1c0 25 19 38 38 38s38 -13 38 -38v-301c0 -44 40 -79 85 -79h9c48 0 86 38 86 85v294c0 27 19 39 38 39s38 -12 38 -39v-417z
" />
    <glyph glyph-name="partialdiff" unicode="&#x2202;" horiz-adv-x="486" 
d="M398 156c0 -89 -71 -161 -162 -161h-11c-89 0 -161 72 -161 161v124c0 89 72 161 161 161h11c33 0 61 -8 86 -24v100c0 84 -87 91 -143 108c-20 6 -28 20 -28 35c0 19 13 37 36 37c3 0 7 -1 12 -2l37 -9c91 -22 162 -69 162 -169v-361zM322 156v124c0 47 -38 85 -86 85
h-11c-47 0 -85 -38 -85 -85v-124c0 -47 37 -86 85 -86h11c48 0 86 39 86 86z" />
    <glyph glyph-name="summation" unicode="&#x2211;" horiz-adv-x="531" 
d="M521 -171c0 -19 -11 -38 -38 -38h-414c-41 0 -54 42 -35 72l233 377l-234 380c-20 32 -5 71 36 71h414c27 0 38 -19 38 -38s-11 -38 -38 -38h-358l219 -355c4 -6 6 -13 6 -20s-2 -13 -6 -19l-219 -354h358c27 0 38 -19 38 -38z" />
    <glyph glyph-name="product" unicode="&#x220f;" horiz-adv-x="691" 
d="M591 -177c0 -25 -19 -38 -38 -38s-38 13 -38 38v792h-339v-792c0 -25 -19 -38 -38 -38s-38 13 -38 38v830c0 20 18 38 38 38h415c20 0 38 -18 38 -38v-830z" />
    <glyph glyph-name="pi" unicode="&#x3c0;" horiz-adv-x="546" 
d="M506 450c0 -19 -13 -38 -38 -38h-77v-276c0 -29 8 -59 40 -72c19 -7 27 -21 27 -34c0 -19 -15 -35 -38 -35c-68 0 -105 81 -105 141v276h-85v-380c0 -27 -19 -37 -38 -37s-38 10 -38 37v380h-76c-25 0 -38 19 -38 38s13 38 38 38h390c25 0 38 -19 38 -38z" />
    <glyph glyph-name="integral" unicode="&#x222b;" horiz-adv-x="373" 
d="M308 659c0 -19 -11 -38 -38 -38c-31 0 -53 -25 -53 -56v-654c0 -73 -54 -126 -129 -126c-25 0 -38 19 -38 38s13 38 38 38c32 0 53 25 53 56v653c0 73 56 127 129 127c27 0 38 -19 38 -38z" />
    <glyph glyph-name="ordfeminine" unicode="&#xaa;" horiz-adv-x="335" 
d="M290 417c0 -15 -10 -28 -27 -28c-3 0 -5 0 -6 1c-19 3 -32 11 -41 24c-15 -16 -39 -25 -63 -25h-6c-52 0 -102 38 -102 99v1c0 90 104 84 146 97c7 3 7 7 7 15v1c0 20 -19 38 -42 38h-5c-21 0 -35 -8 -42 -25c-5 -12 -14 -17 -25 -17c-15 0 -30 11 -30 27c0 5 1 9 3 13
c20 47 60 59 95 59h4c53 0 99 -46 99 -98v-139c0 -11 7 -13 11 -14c16 -4 24 -17 24 -29zM198 492v40c-43 -13 -96 -9 -96 -45c0 -27 15 -41 45 -41h6c25 0 45 19 45 46z" />
    <glyph glyph-name="ordmasculine" unicode="&#xba;" horiz-adv-x="301" 
d="M256 492c0 -57 -46 -103 -103 -103h-5c-57 0 -103 46 -103 103v103c0 56 46 102 103 102h5c57 0 103 -46 103 -102v-103zM199 492v103c0 25 -21 45 -46 45h-5c-27 0 -46 -20 -46 -45v-103c0 -27 19 -46 46 -46h5c25 0 46 19 46 46z" />
    <glyph glyph-name="Omega" unicode="&#x3a9;" horiz-adv-x="743" 
d="M685 38c0 -19 -13 -38 -38 -38h-178c-25 0 -40 17 -40 40v77c0 11 1 32 26 48c48 29 152 81 152 227c0 130 -105 235 -236 235c-130 0 -235 -105 -235 -235c0 -146 104 -198 152 -227c25 -16 26 -37 26 -48v-77c0 -23 -16 -40 -40 -40h-178c-27 0 -38 19 -38 38
s11 38 38 38h142v34c-105 51 -178 155 -178 282c0 172 139 311 311 311s312 -139 312 -311c0 -127 -73 -231 -178 -282v-34h142c25 0 38 -19 38 -38z" />
    <glyph glyph-name="ae" unicode="&#xe6;" horiz-adv-x="694" 
d="M639 244c0 -20 -18 -38 -38 -38h-219v-51c0 -47 38 -85 86 -85h9c39 0 65 23 78 51c8 17 21 24 33 24c20 0 39 -16 39 -39c0 -6 -1 -12 -4 -17c-24 -56 -78 -94 -146 -94h-10c-51 0 -94 21 -123 56c-31 -35 -75 -56 -124 -56h-9c-80 0 -161 49 -161 143v7v5
c0 158 228 131 253 164c3 4 3 11 3 15v1v1c0 60 -37 81 -81 81h-7c-41 0 -62 -17 -81 -50c-8 -15 -21 -20 -34 -20c-19 0 -38 14 -38 35c0 7 1 13 4 18c32 72 97 93 149 93h7c51 0 93 -20 121 -55c31 35 73 55 121 55h10c91 0 162 -69 162 -162v-82zM563 277v49
c0 49 -40 86 -85 86h-9c-48 0 -87 -37 -87 -85v-50h181zM306 155v79c-75 -19 -180 -17 -180 -86v-5v-3c0 -43 34 -70 85 -70h9c47 0 86 37 86 85z" />
    <glyph glyph-name="oslash" unicode="&#xf8;" horiz-adv-x="485" 
d="M421 470c0 -7 -2 -14 -6 -21l-27 -44c12 -23 20 -50 20 -78v-172c0 -90 -74 -160 -162 -160h-9c-31 0 -60 8 -86 24l-16 -25c-8 -13 -20 -18 -31 -18c-20 0 -40 16 -40 36c0 7 2 14 6 21l27 43c-14 23 -21 50 -21 79v172c0 89 72 161 161 161h9c32 0 61 -9 88 -26l16 27
c7 12 18 18 31 18c20 0 40 -16 40 -37zM294 398c-15 9 -31 14 -48 14h-9c-47 0 -85 -38 -85 -85v-161zM332 155v159l-141 -230c13 -9 29 -14 46 -14h9c47 0 86 37 86 85z" />
    <glyph glyph-name="questiondown" unicode="&#xbf;" horiz-adv-x="399" 
d="M256 637c0 -27 -19 -38 -38 -38s-38 11 -38 38v22c0 25 19 38 38 38s38 -13 38 -38v-22zM379 155c0 -90 -72 -160 -161 -160h-7c-89 0 -161 70 -161 160v43c0 37 26 79 53 104c40 37 77 51 77 112v71c0 27 19 38 38 38s38 -11 38 -38v-71c0 -95 -42 -113 -101 -167
c-11 -11 -29 -34 -29 -49v-43c0 -47 38 -85 85 -85h7c47 0 85 38 85 85v13c0 27 19 38 38 38s38 -11 38 -38v-13z" />
    <glyph glyph-name="exclamdown" unicode="&#xa1;" horiz-adv-x="256" 
d="M166 637c0 -25 -19 -38 -38 -38s-38 13 -38 38v22c0 25 19 38 38 38s38 -13 38 -38v-22zM166 32c0 -25 -19 -37 -38 -37s-38 12 -38 37v479c0 25 19 38 38 38s38 -13 38 -38v-479z" />
    <glyph glyph-name="logicalnot" unicode="&#xac;" horiz-adv-x="411" 
d="M341 256c0 -25 -19 -38 -38 -38s-38 13 -38 38v57h-177c-25 0 -38 19 -38 38s13 38 38 38h215c20 0 38 -18 38 -38v-95z" />
    <glyph glyph-name="radical" unicode="&#x221a;" horiz-adv-x="471" 
d="M451 653c0 -2 -1 -4 -2 -7l-216 -626c-7 -20 -24 -25 -35 -25h-10c-11 0 -27 3 -35 22l-110 260c-2 5 -3 11 -3 16c0 23 20 37 40 37c13 0 27 -7 34 -24l76 -181l187 546c7 19 20 26 35 26c19 0 39 -14 39 -37v-7z" />
    <glyph glyph-name="florin" unicode="&#x192;" horiz-adv-x="379" 
d="M359 659c0 -19 -13 -38 -38 -38c-47 0 -63 -28 -70 -63l-13 -70h40c27 0 38 -19 38 -38s-11 -38 -38 -38h-53l-66 -375c-12 -69 -74 -118 -145 -118c-25 0 -38 19 -38 38s12 38 36 38c35 0 67 24 73 59l62 358h-14c-25 0 -38 19 -38 38s13 38 38 38h28l15 84
c12 68 63 125 145 125c25 0 38 -19 38 -38z" />
    <glyph glyph-name="approxequal" unicode="&#x2248;" horiz-adv-x="474" 
d="M435 314c0 -11 -4 -21 -16 -32c-36 -30 -57 -38 -106 -38c-58 0 -98 31 -131 31c-11 0 -25 -2 -40 -17c-11 -11 -18 -12 -29 -12c-23 0 -43 20 -43 43c0 10 4 19 11 26c24 27 48 42 95 42c60 0 105 -31 140 -31c27 0 46 18 53 22c9 5 18 8 25 8c24 0 41 -19 41 -42z
M435 174c0 -12 -4 -22 -16 -33c-34 -32 -58 -37 -106 -37c-58 0 -98 31 -131 31c-11 0 -25 -2 -40 -17c-9 -9 -19 -13 -29 -13c-23 0 -43 21 -43 44c0 10 4 19 11 26c24 27 48 41 95 41c60 0 105 -30 140 -30c27 0 46 17 53 22c9 5 17 7 25 7c24 0 41 -20 41 -41z" />
    <glyph glyph-name="Delta" unicode="&#x394;" horiz-adv-x="669" 
d="M657 47c0 -23 -16 -47 -43 -47h-557c-28 0 -45 24 -45 48c0 7 1 13 4 18l276 568c8 17 26 26 42 26c19 0 37 -9 45 -26l274 -568c3 -5 4 -12 4 -19zM564 76l-230 474l-228 -474h458z" />
    <glyph glyph-name="guillemotleft" unicode="&#xab;" horiz-adv-x="605" 
d="M505 91c0 -12 -2 -20 -10 -29c-7 -7 -17 -11 -29 -11c-11 0 -18 6 -29 15l-159 158c-11 9 -13 25 -13 36s2 27 13 36l159 158c11 9 18 15 29 15c12 0 22 -4 29 -11c8 -9 10 -17 10 -29c0 -11 -5 -21 -15 -30l-140 -139l140 -139c10 -9 15 -19 15 -30zM290 91
c0 -12 -2 -20 -11 -29c-7 -7 -17 -11 -28 -11c-10 0 -20 5 -30 15l-158 158c-11 11 -13 25 -13 36s2 25 13 36l158 158c10 10 20 15 30 15c11 0 21 -4 28 -11c9 -9 11 -17 11 -29c0 -9 -5 -19 -16 -30l-139 -139l139 -139c11 -11 16 -21 16 -30z" />
    <glyph glyph-name="guillemotright" unicode="&#xbb;" horiz-adv-x="605" 
d="M555 260c0 -11 -2 -25 -13 -36l-158 -158c-10 -10 -20 -15 -29 -15c-12 0 -22 4 -29 11c-7 8 -11 18 -11 29s5 21 16 30l140 139l-140 139c-11 9 -16 19 -16 30s4 21 11 29c7 7 17 11 29 11c9 0 19 -5 29 -15l158 -158c11 -11 13 -25 13 -36zM340 260
c0 -11 -2 -25 -13 -36l-159 -158c-11 -9 -18 -15 -29 -15s-21 4 -29 11c-8 9 -10 17 -10 29c0 9 5 19 16 30l139 139l-139 139c-11 11 -16 21 -16 30c0 12 2 20 10 29c8 7 18 11 29 11s18 -6 29 -15l159 -158c11 -11 13 -25 13 -36z" />
    <glyph glyph-name="ellipsis" unicode="&#x2026;" horiz-adv-x="492" 
d="M457 32c0 -25 -19 -37 -38 -37s-38 12 -38 37v22c0 25 19 38 38 38s38 -13 38 -38v-22zM286 32c0 -25 -19 -37 -38 -37s-38 12 -38 37v22c0 25 19 38 38 38s38 -13 38 -38v-22zM106 32c0 -25 -19 -37 -38 -37s-38 12 -38 37v22c0 25 19 38 38 38s38 -13 38 -38v-22z" />
    <glyph glyph-name="uni00A0" unicode="&#xa0;" horiz-adv-x="345" 
 />
    <glyph glyph-name="Agrave" unicode="&#xc0;" horiz-adv-x="545" 
d="M408 787c0 -20 -15 -40 -38 -40c-5 0 -10 1 -17 4l-158 73c-15 7 -22 20 -22 33c0 20 15 39 38 39c5 0 11 -1 17 -3l157 -73c16 -7 23 -20 23 -33zM515 31c0 -20 -16 -36 -39 -36c-15 0 -30 7 -36 26l-44 144h-247l-45 -144c-6 -19 -20 -26 -35 -26c-23 0 -39 16 -39 36
c0 3 1 7 2 12l195 626c6 19 25 28 45 28c21 0 40 -9 46 -28l195 -626c1 -5 2 -9 2 -12zM372 241l-100 320l-99 -320h199z" />
    <glyph glyph-name="Atilde" unicode="&#xc3;" horiz-adv-x="545" 
d="M455 854c0 -12 -5 -23 -16 -33c-34 -31 -58 -37 -106 -37c-59 0 -99 31 -131 31c-11 0 -26 -2 -41 -17c-9 -9 -18 -13 -29 -13c-23 0 -43 21 -43 44c0 9 3 17 11 26c24 28 49 42 96 42c61 0 104 -31 139 -31c28 0 46 18 53 22c9 5 17 7 26 7c23 0 41 -20 41 -41zM515 31
c0 -20 -16 -36 -39 -36c-15 0 -30 7 -36 26l-44 144h-247l-45 -144c-6 -19 -20 -26 -35 -26c-23 0 -39 16 -39 36c0 3 1 7 2 12l195 626c6 19 25 28 45 28c21 0 40 -9 46 -28l195 -626c1 -5 2 -9 2 -12zM372 241l-100 320l-99 -320h199z" />
    <glyph glyph-name="Otilde" unicode="&#xd5;" horiz-adv-x="539" 
d="M425 860c0 -10 -5 -19 -14 -27c-33 -27 -47 -32 -90 -32c-51 0 -84 26 -112 26c-8 0 -22 -2 -34 -14c-7 -7 -16 -11 -25 -11c-19 0 -36 18 -36 37c0 8 3 15 9 22c21 23 41 36 81 36c53 0 87 -26 119 -26c23 0 38 15 45 18c7 5 14 7 21 7c20 0 36 -17 36 -36zM464 184
c0 -106 -85 -189 -189 -189h-10c-105 0 -190 83 -190 189v324c0 104 85 189 190 189h10c104 0 189 -85 189 -189v-324zM388 184v323c0 63 -50 114 -113 114h-10c-63 0 -114 -52 -114 -113v-324c0 -63 51 -114 114 -114h10c63 0 113 51 113 114z" />
    <glyph glyph-name="OE" unicode="&#x152;" horiz-adv-x="809" 
d="M779 38c0 -19 -13 -38 -38 -38h-314c-20 0 -38 18 -38 38c-27 -28 -71 -43 -114 -43h-10c-105 0 -190 83 -190 189v324c0 104 85 189 190 189h10c43 0 83 -15 114 -44c0 20 18 38 38 38h314c25 0 38 -19 38 -38s-13 -38 -38 -38h-276v-222h191c25 0 38 -19 38 -38
s-13 -38 -38 -38h-191v-241h276c25 0 38 -19 38 -38zM389 171v346c0 59 -54 104 -114 104h-10c-63 0 -114 -52 -114 -113v-324c0 -63 51 -114 114 -114h10c59 0 114 45 114 101z" />
    <glyph glyph-name="oe" unicode="&#x153;" horiz-adv-x="707" 
d="M652 244c0 -20 -18 -38 -38 -38h-218v-51c0 -47 37 -85 85 -85h9c39 0 65 23 78 51c8 17 20 24 35 24c19 0 38 -15 38 -38c0 -5 -1 -11 -4 -18c-25 -56 -79 -94 -147 -94h-9c-49 0 -94 21 -123 56c-31 -35 -74 -56 -123 -56h-10c-89 0 -161 70 -161 160v172
c0 89 72 161 161 161h10c49 0 92 -22 123 -57c29 35 73 57 122 57h10c91 0 162 -69 162 -162v-82zM576 277v49c0 49 -40 86 -84 86h-10c-48 0 -86 -38 -86 -85v-50h180zM320 155v172c0 47 -38 85 -85 85h-10c-47 0 -85 -38 -85 -85v-172c0 -47 38 -85 86 -85h9
c47 0 85 38 85 85z" />
    <glyph glyph-name="endash" unicode="&#x2013;" horiz-adv-x="495" 
d="M450 267c0 -19 -13 -38 -38 -38h-329c-25 0 -38 19 -38 38s13 38 38 38h329c25 0 38 -19 38 -38z" />
    <glyph glyph-name="emdash" unicode="&#x2014;" horiz-adv-x="584" 
d="M564 267c0 -19 -11 -38 -38 -38h-468c-25 0 -38 19 -38 38s13 38 38 38h468c27 0 38 -19 38 -38z" />
    <glyph glyph-name="quotedblleft" unicode="&#x201c;" horiz-adv-x="313" 
d="M278 659c0 -8 -2 -16 -7 -23c-16 -25 -25 -41 -25 -103v-20c0 -25 -19 -38 -38 -38s-38 13 -38 38v20c0 72 10 108 39 148c8 11 18 16 30 16c23 0 39 -18 39 -38zM144 659c0 -7 -3 -14 -8 -23c-16 -25 -25 -41 -25 -103v-20c0 -25 -19 -38 -38 -38s-38 13 -38 38v20
c0 72 10 108 39 148c8 12 19 16 30 16c23 0 40 -18 40 -38z" />
    <glyph glyph-name="quotedblright" unicode="&#x201d;" horiz-adv-x="313" 
d="M278 639c0 -72 -10 -108 -39 -148c-8 -11 -18 -16 -30 -16c-23 0 -39 18 -39 38c0 9 2 16 7 23c16 25 25 41 25 103v20c0 25 19 38 38 38c20 0 38 -13 38 -38v-20zM144 639c0 -72 -11 -108 -40 -148c-8 -11 -18 -16 -30 -16c-23 0 -39 18 -39 38c0 9 3 17 8 23
c16 24 25 42 25 103v20c0 25 19 38 38 38s38 -13 38 -38v-20z" />
    <glyph glyph-name="quoteleft" unicode="&#x2018;" horiz-adv-x="169" 
d="M139 659c0 -7 -3 -14 -8 -23c-16 -25 -25 -41 -25 -103v-20c0 -25 -19 -38 -38 -38s-38 13 -38 38v20c0 72 10 108 39 148c8 12 19 16 30 16c23 0 40 -18 40 -38z" />
    <glyph glyph-name="quoteright" unicode="&#x2019;" horiz-adv-x="169" 
d="M139 639c0 -72 -11 -108 -40 -148c-8 -11 -18 -16 -30 -16c-23 0 -39 18 -39 38c0 9 3 17 8 23c16 24 25 42 25 103v20c0 25 19 38 38 38s38 -13 38 -38v-20z" />
    <glyph glyph-name="divide" unicode="&#xf7;" horiz-adv-x="440" 
d="M258 454c0 -25 -19 -38 -38 -38s-38 13 -38 38v22c0 25 19 38 38 38s38 -13 38 -38v-22zM395 267c0 -19 -11 -38 -38 -38h-274c-25 0 -38 19 -38 38s13 38 38 38h274c27 0 38 -19 38 -38zM258 58c0 -25 -19 -38 -38 -38s-38 13 -38 38v22c0 25 19 38 38 38s38 -13 38 -38
v-22z" />
    <glyph glyph-name="lozenge" unicode="&#x25ca;" horiz-adv-x="578" 
d="M538 362c0 -13 -2 -26 -10 -34l-205 -205c-8 -8 -21 -10 -34 -10s-26 3 -33 10l-205 205c-7 7 -11 21 -11 34c0 15 4 26 11 33l205 205c7 7 18 11 33 11c13 0 26 -3 34 -11l205 -205c7 -7 10 -20 10 -33zM453 362l-164 164l-164 -164l164 -165z" />
    <glyph glyph-name="ydieresis" unicode="&#xff;" horiz-adv-x="413" 
d="M336 637c0 -25 -19 -38 -38 -38s-38 13 -38 38v22c0 25 19 38 38 38s38 -13 38 -38v-22zM152 637c0 -25 -19 -38 -38 -38s-38 13 -38 38v22c0 25 19 38 38 38s38 -13 38 -38v-22zM378 451c0 -4 -1 -8 -2 -13l-165 -514c-23 -73 -60 -126 -133 -138c-1 -1 -3 -1 -6 -1
c-21 0 -37 16 -37 39c0 17 10 34 33 37c28 4 51 23 71 86l35 109l-133 382c-1 2 -2 4 -2 6v7c0 20 16 37 39 37c15 0 28 -7 35 -26l99 -285l91 285c6 19 20 26 35 26c23 0 40 -17 40 -37z" />
    <glyph glyph-name="Ydieresis" unicode="&#x178;" horiz-adv-x="476" 
d="M367 836c0 -25 -19 -38 -38 -38s-38 13 -38 38v22c0 27 19 38 38 38s38 -11 38 -38v-22zM184 836c0 -25 -19 -38 -38 -38s-38 13 -38 38v22c0 27 19 38 38 38s38 -11 38 -38v-22zM433 644l-157 -377v-235c0 -25 -19 -37 -38 -37s-38 12 -38 37v235l-157 377
c-11 27 8 53 37 53c13 0 26 -7 33 -24l125 -300l125 300c7 17 21 24 34 24c29 0 47 -26 36 -53z" />
    <glyph glyph-name="fraction" unicode="&#x2044;" horiz-adv-x="396" 
d="M361 660c0 -5 -1 -10 -3 -16l-255 -626c-7 -17 -20 -23 -33 -23c-24 0 -40 16 -40 36c0 5 1 10 3 16l254 626c7 17 21 24 34 24c24 0 40 -17 40 -37z" />
    <glyph glyph-name="Euro" unicode="&#x20ac;" horiz-adv-x="565" 
d="M515 156c-13 -92 -94 -161 -188 -161h-10c-105 0 -190 83 -190 189v45h-39c-25 0 -38 19 -38 38s13 38 38 38h39v66h-39c-25 0 -38 19 -38 38s13 38 38 38h39v61c0 104 85 189 190 189h10c96 0 175 -70 188 -163v-6c0 -24 -18 -37 -37 -37c-17 0 -33 10 -38 33
c-11 55 -56 97 -113 97h-10c-63 0 -114 -52 -114 -113v-61h190c25 0 38 -19 38 -38s-13 -38 -38 -38h-190v-66h190c25 0 38 -19 38 -38s-13 -38 -38 -38h-190v-45c0 -63 51 -114 114 -114h10c57 0 102 42 113 97c5 23 22 33 38 33c19 0 37 -13 37 -37v-7z" />
    <glyph glyph-name="guilsinglleft" unicode="&#x2039;" horiz-adv-x="390" 
d="M290 91c0 -12 -2 -20 -11 -29c-7 -7 -17 -11 -28 -11c-10 0 -20 5 -30 15l-158 158c-11 11 -13 25 -13 36s2 25 13 36l158 158c10 10 20 15 30 15c11 0 21 -4 28 -11c9 -9 11 -17 11 -29c0 -9 -5 -19 -16 -30l-139 -139l139 -139c11 -11 16 -21 16 -30z" />
    <glyph glyph-name="guilsinglright" unicode="&#x203a;" horiz-adv-x="390" 
d="M340 260c0 -11 -2 -25 -13 -36l-159 -158c-11 -9 -18 -15 -29 -15s-21 4 -29 11c-8 9 -10 17 -10 29c0 9 5 19 16 30l139 139l-139 139c-11 11 -16 21 -16 30c0 12 2 20 10 29c8 7 18 11 29 11s18 -6 29 -15l159 -158c11 -11 13 -25 13 -36z" />
    <glyph glyph-name="fi" unicode="&#xfb01;" horiz-adv-x="495" 
d="M410 637c0 -25 -19 -38 -38 -38s-38 13 -38 38v22c0 25 19 38 38 38s38 -13 38 -38v-22zM409 32c0 -25 -19 -37 -38 -37s-38 12 -38 37v377h-152v-377c0 -25 -19 -37 -38 -37s-38 12 -38 37v377h-22c-25 0 -38 19 -38 38s13 38 38 38h22v80c0 72 55 132 129 132
c25 0 38 -19 38 -38s-13 -38 -38 -38c-32 0 -53 -25 -53 -56v-80h190c21 0 38 -18 38 -38v-415z" />
    <glyph glyph-name="fl" unicode="&#xfb02;" horiz-adv-x="552" 
d="M512 32c0 -19 -12 -37 -39 -37c-73 0 -131 57 -131 133v487h-100c-32 0 -54 -25 -54 -56v-74h48c25 0 38 -19 38 -38s-13 -38 -38 -38h-48v-377c0 -25 -18 -37 -37 -37s-38 12 -38 37v377h-30c-25 0 -38 19 -38 38s13 38 38 38h30v74c0 72 55 132 129 132h138
c20 0 38 -18 38 -38v-527c0 -40 30 -54 57 -56c25 -2 37 -19 37 -38z" />
    <glyph glyph-name="daggerdbl" unicode="&#x2021;" horiz-adv-x="461" 
d="M411 216c0 -19 -12 -35 -35 -35h-105v-153c0 -23 -16 -33 -35 -33c-17 0 -35 10 -35 33v153h-116c-23 0 -35 16 -35 35c0 17 12 34 35 34h116v197h-116c-23 0 -35 16 -35 35c0 17 12 34 35 34h116v147c0 23 18 34 35 34c19 0 35 -11 35 -34v-147h105c23 0 35 -17 35 -34
c0 -19 -12 -35 -35 -35h-105v-197h105c23 0 35 -17 35 -34z" />
    <glyph glyph-name="periodcentered" unicode="&#xb7;" horiz-adv-x="176" 
d="M126 346c0 -25 -19 -38 -38 -38s-38 13 -38 38v22c0 25 19 38 38 38s38 -13 38 -38v-22z" />
    <glyph glyph-name="quotesinglbase" unicode="&#x201a;" horiz-adv-x="169" 
d="M139 12c0 -71 -11 -107 -40 -147c-8 -11 -18 -16 -30 -16c-23 0 -39 18 -39 38c0 9 3 17 8 23c16 24 25 43 25 102v20c0 25 19 38 38 38s38 -13 38 -38v-20z" />
    <glyph glyph-name="quotedblbase" unicode="&#x201e;" horiz-adv-x="313" 
d="M144 12c0 -71 -11 -107 -40 -147c-8 -11 -18 -16 -30 -16c-23 0 -39 18 -39 38c0 9 3 17 8 23c16 24 25 43 25 102v20c0 25 19 38 38 38s38 -13 38 -38v-20zM278 11c0 -72 -10 -108 -39 -148c-8 -11 -18 -16 -30 -16c-23 0 -39 18 -39 38c0 9 2 16 7 23
c16 25 25 41 25 103v20c0 25 19 38 38 38c20 0 38 -13 38 -38v-20z" />
    <glyph glyph-name="perthousand" unicode="&#x2030;" horiz-adv-x="1005" 
d="M945 111c0 -64 -50 -116 -114 -116s-114 52 -114 116v142c0 63 50 117 114 117s114 -54 114 -117v-142zM676 111c0 -64 -49 -116 -113 -116c-65 0 -114 52 -114 116v142c0 63 49 117 114 117c64 0 113 -54 113 -117v-142zM534 660c0 -5 -1 -10 -3 -15l-260 -627
c-7 -17 -20 -23 -33 -23c-24 0 -40 16 -40 36c0 6 1 11 3 16l260 627c7 17 20 23 33 23c24 0 40 -17 40 -37zM287 438c0 -63 -49 -117 -113 -117c-65 0 -114 54 -114 117v142c0 63 49 117 114 117c64 0 113 -54 113 -117v-142zM869 111v142c0 24 -19 41 -38 41
s-38 -17 -38 -41v-142c0 -24 19 -41 38 -41s38 17 38 41zM600 111v142c0 24 -18 41 -37 41s-38 -17 -38 -41v-142c0 -24 19 -41 38 -41s37 17 37 41zM211 438v142c0 24 -18 41 -37 41c-20 0 -38 -17 -38 -41v-142c0 -24 18 -41 38 -41c19 0 37 17 37 41z" />
    <glyph glyph-name="Acircumflex" unicode="&#xc2;" horiz-adv-x="545" 
d="M415 795c0 -20 -16 -40 -39 -40c-7 0 -15 2 -22 7l-81 57l-82 -57c-7 -5 -15 -7 -23 -7c-21 0 -38 20 -38 40c0 11 5 21 17 29l86 58c13 9 26 14 39 14s26 -5 39 -14l87 -58c12 -8 17 -18 17 -29zM513 43c15 -48 -57 -70 -72 -22l-45 144h-247l-44 -144
c-15 -48 -88 -26 -73 22l195 627c6 19 26 27 46 27s39 -8 45 -27zM372 241l-99 320l-100 -320h199z" />
    <glyph glyph-name="Ecircumflex" unicode="&#xca;" horiz-adv-x="509" 
d="M432 795c0 -20 -18 -40 -39 -40c-8 0 -15 2 -22 7l-82 57l-82 -57c-7 -5 -14 -7 -22 -7c-21 0 -39 20 -39 40c0 11 5 21 17 29l86 58c13 9 26 14 39 14s26 -5 40 -14l87 -58c12 -8 17 -18 17 -29zM479 38c0 -19 -11 -38 -38 -38h-313c-20 0 -38 18 -38 38v615
c0 20 18 38 38 38h313c27 0 38 -19 38 -38s-11 -38 -38 -38h-275v-220h191c25 0 38 -19 38 -38s-13 -38 -38 -38h-191v-243h275c27 0 38 -19 38 -38z" />
    <glyph glyph-name="Aacute" unicode="&#xc1;" horiz-adv-x="545" 
d="M382 857c0 -13 -6 -26 -22 -33l-158 -72c-5 -3 -11 -4 -17 -4c-23 0 -37 20 -37 39c0 13 6 26 22 33l157 73c7 3 11 4 18 4c21 0 37 -20 37 -40zM513 43c15 -48 -57 -70 -72 -22l-45 144h-247l-44 -144c-15 -48 -88 -26 -73 22l195 627c6 19 26 27 46 27s39 -8 45 -27z
M372 241l-99 320l-100 -320h199z" />
    <glyph glyph-name="Edieresis" unicode="&#xcb;" horiz-adv-x="509" 
d="M416 836c0 -25 -19 -38 -38 -38s-38 13 -38 38v22c0 27 19 38 38 38s38 -11 38 -38v-22zM233 836c0 -25 -19 -38 -38 -38s-38 13 -38 38v22c0 27 19 38 38 38s38 -11 38 -38v-22zM479 38c0 -19 -11 -38 -38 -38h-313c-20 0 -38 18 -38 38v615c0 20 18 38 38 38h313
c27 0 38 -19 38 -38s-11 -38 -38 -38h-275v-220h191c25 0 38 -19 38 -38s-13 -38 -38 -38h-191v-243h275c27 0 38 -19 38 -38z" />
    <glyph glyph-name="Egrave" unicode="&#xc8;" horiz-adv-x="509" 
d="M403 787c0 -20 -16 -40 -37 -40c-7 0 -11 1 -18 4l-157 73c-16 7 -23 20 -23 33c0 20 15 39 38 39c5 0 11 -1 17 -3l158 -73c15 -7 22 -20 22 -33zM479 38c0 -19 -11 -38 -38 -38h-313c-20 0 -38 18 -38 38v615c0 20 18 38 38 38h313c27 0 38 -19 38 -38s-11 -38 -38 -38
h-275v-220h191c25 0 38 -19 38 -38s-13 -38 -38 -38h-191v-243h275c27 0 38 -19 38 -38z" />
    <glyph glyph-name="Iacute" unicode="&#xcd;" horiz-adv-x="276" 
d="M256 857c0 -13 -7 -26 -23 -33l-157 -73c-7 -3 -11 -4 -18 -4c-21 0 -37 20 -37 40c0 13 7 26 22 33l158 73c6 2 12 3 17 3c23 0 38 -19 38 -39zM190 32c0 -25 -19 -37 -38 -37s-38 12 -38 37v627c0 25 19 38 38 38s38 -13 38 -38v-627z" />
    <glyph glyph-name="Icircumflex" unicode="&#xce;" horiz-adv-x="276" 
d="M280 795c0 -20 -17 -40 -38 -40c-8 0 -16 2 -23 7l-81 57l-82 -57c-7 -5 -15 -7 -22 -7c-23 0 -38 20 -38 40c0 11 5 21 16 29l86 58c13 9 26 14 39 14s26 -5 40 -14l86 -58c12 -8 17 -18 17 -29zM174 32c0 -25 -20 -37 -39 -37s-37 12 -37 37v627c0 25 18 38 37 38
s39 -13 39 -38v-627z" />
    <glyph glyph-name="Idieresis" unicode="&#xcf;" horiz-adv-x="276" 
d="M268 836c0 -25 -19 -38 -38 -38s-38 13 -38 38v22c0 27 19 38 38 38s38 -11 38 -38v-22zM85 836c0 -25 -19 -38 -38 -38s-38 13 -38 38v22c0 27 19 38 38 38s38 -11 38 -38v-22zM176 32c0 -25 -19 -37 -38 -37s-38 12 -38 37v627c0 25 19 38 38 38s38 -13 38 -38v-627z
" />
    <glyph glyph-name="Igrave" unicode="&#xcc;" horiz-adv-x="276" 
d="M256 787c0 -20 -15 -40 -38 -40c-5 0 -10 1 -17 4l-158 73c-15 7 -22 20 -22 33c0 20 15 39 38 39c5 0 11 -1 17 -3l157 -73c16 -7 23 -20 23 -33zM160 32c0 -25 -19 -37 -38 -37s-38 12 -38 37v627c0 25 19 38 38 38s38 -13 38 -38v-627z" />
    <glyph glyph-name="Oacute" unicode="&#xd3;" horiz-adv-x="539" 
d="M387 857c0 -13 -7 -26 -22 -33l-158 -73c-7 -3 -10 -4 -17 -4c-23 0 -38 20 -38 40c0 13 7 26 22 33l157 73c6 2 12 3 18 3c23 0 38 -19 38 -39zM464 184c0 -106 -85 -189 -189 -189h-10c-105 0 -190 83 -190 189v324c0 104 85 189 190 189h10c104 0 189 -85 189 -189
v-324zM388 184v323c0 63 -50 114 -113 114h-10c-63 0 -114 -52 -114 -113v-324c0 -63 51 -114 114 -114h10c63 0 113 51 113 114z" />
    <glyph glyph-name="Ocircumflex" unicode="&#xd4;" horiz-adv-x="539" 
d="M412 795c0 -20 -16 -40 -39 -40c-8 0 -15 2 -22 7l-81 57l-82 -57c-7 -5 -15 -7 -23 -7c-21 0 -38 20 -38 40c0 11 5 21 17 29l85 58c14 9 27 14 40 14s26 -5 39 -14l87 -58c12 -8 17 -18 17 -29zM464 184c0 -106 -85 -189 -189 -189h-10c-105 0 -190 83 -190 189v324
c0 104 85 189 190 189h10c104 0 189 -85 189 -189v-324zM388 184v323c0 63 -50 114 -113 114h-10c-63 0 -114 -52 -114 -113v-324c0 -63 51 -114 114 -114h10c63 0 113 51 113 114z" />
    <glyph glyph-name="apple" horiz-adv-x="588" 
d="M539 364c0 -54 -39 -94 -93 -94h-72c11 -15 17 -35 17 -54c0 -54 -39 -93 -93 -93h-249v248c0 54 39 94 93 94c20 0 39 -6 55 -17v71c0 54 39 94 93 94s93 -40 93 -94v-62h63c54 0 93 -40 93 -93zM522 364c0 45 -31 76 -76 76h-79v79c0 45 -32 77 -77 77s-76 -32 -76 -77
v-232h232c45 0 76 32 76 77z" />
    <glyph glyph-name="Ograve" unicode="&#xd2;" horiz-adv-x="539" 
d="M387 787c0 -20 -15 -40 -38 -40c-5 0 -10 1 -17 4l-158 73c-15 7 -22 20 -22 33c0 20 15 39 38 39c5 0 11 -1 17 -3l158 -73c15 -7 22 -20 22 -33zM464 184c0 -106 -85 -189 -189 -189h-10c-105 0 -190 83 -190 189v324c0 104 85 189 190 189h10c104 0 189 -85 189 -189
v-324zM388 184v323c0 63 -50 114 -113 114h-10c-63 0 -114 -52 -114 -113v-324c0 -63 51 -114 114 -114h10c63 0 113 51 113 114z" />
    <glyph glyph-name="Uacute" unicode="&#xda;" horiz-adv-x="569" 
d="M402 857c0 -13 -7 -26 -22 -33l-157 -73c-7 -3 -11 -4 -18 -4c-21 0 -38 20 -38 40c0 13 7 26 22 33l158 73c6 2 12 3 17 3c23 0 38 -19 38 -39zM479 184c0 -106 -85 -189 -189 -189h-10c-105 0 -190 83 -190 189v475c0 25 19 38 38 38s38 -13 38 -38v-475
c0 -63 51 -114 114 -114h10c63 0 113 51 113 114v475c0 25 19 38 38 38s38 -13 38 -38v-475z" />
    <glyph glyph-name="Ucircumflex" unicode="&#xdb;" horiz-adv-x="569" 
d="M428 795c0 -20 -18 -40 -39 -40c-8 0 -15 2 -22 7l-81 57l-83 -57c-7 -5 -15 -7 -22 -7c-21 0 -40 20 -40 40c0 11 6 21 17 29l86 58c14 9 27 14 40 14s26 -5 39 -14l87 -58c12 -8 18 -18 18 -29zM479 184c0 -106 -85 -189 -189 -189h-10c-105 0 -190 83 -190 189v475
c0 25 19 38 38 38s38 -13 38 -38v-475c0 -63 51 -114 114 -114h10c63 0 113 51 113 114v475c0 25 19 38 38 38s38 -13 38 -38v-475z" />
    <glyph glyph-name="Ugrave" unicode="&#xd9;" horiz-adv-x="569" 
d="M402 787c0 -20 -15 -40 -38 -40c-5 0 -10 1 -17 4l-158 73c-15 7 -22 20 -22 33c0 20 16 39 37 39c6 0 12 -1 18 -3l157 -73c16 -7 23 -20 23 -33zM479 184c0 -106 -85 -189 -189 -189h-10c-105 0 -190 83 -190 189v475c0 25 19 38 38 38s38 -13 38 -38v-475
c0 -63 51 -114 114 -114h10c63 0 113 51 113 114v475c0 25 19 38 38 38s38 -13 38 -38v-475z" />
    <glyph glyph-name="dotlessi" unicode="&#x131;" horiz-adv-x="246" 
d="M161 32c0 -25 -19 -37 -38 -37s-38 12 -38 37v418c0 25 19 38 38 38s38 -13 38 -38v-418z" />
    <glyph glyph-name="circumflex" unicode="&#x2c6;" 
d="M373 595c0 -20 -18 -40 -39 -40c-7 0 -15 3 -22 8l-82 56l-82 -56c-7 -5 -15 -8 -22 -8c-21 0 -39 20 -39 40c0 13 6 23 17 30l86 58c15 10 28 14 39 14c13 0 26 -5 40 -14l87 -58c11 -7 17 -17 17 -30z" />
    <glyph glyph-name="tilde" unicode="&#x2dc;" 
d="M413 283c0 -11 -5 -22 -16 -32c-34 -31 -59 -38 -106 -38c-59 0 -100 32 -132 32c-11 0 -25 -2 -40 -17c-9 -9 -18 -13 -29 -13c-23 0 -43 21 -43 44c0 10 4 19 11 26c25 27 48 41 96 41c59 0 104 -30 139 -30c27 0 46 17 53 21c8 5 17 8 26 8c23 0 41 -19 41 -42z" />
    <glyph glyph-name="macron" unicode="&#xaf;" 
d="M405 636c0 -19 -13 -38 -38 -38h-274c-25 0 -38 19 -38 38s13 38 38 38h274c25 0 38 -19 38 -38z" />
    <glyph glyph-name="breve" unicode="&#x2d8;" 
d="M345 659c0 -61 -51 -112 -112 -112h-6c-61 0 -112 51 -112 112c0 25 19 38 38 38s38 -13 38 -38c0 -20 16 -36 36 -36h6c20 0 36 16 36 36c0 25 19 38 38 38s38 -13 38 -38z" />
    <glyph glyph-name="dotaccent" unicode="&#x2d9;" 
d="M268 637c0 -25 -19 -38 -38 -38s-38 13 -38 38v22c0 25 19 38 38 38s38 -13 38 -38v-22z" />
    <glyph glyph-name="ring" unicode="&#x2da;" horiz-adv-x="426" 
d="M306 610c0 -51 -42 -93 -93 -93s-93 42 -93 93s42 93 93 93s93 -42 93 -93zM250 610c0 20 -17 37 -37 37s-37 -17 -37 -37s17 -37 37 -37s37 17 37 37z" />
    <glyph glyph-name="cedilla" unicode="&#xb8;" 
d="M315 -92c0 -45 -36 -81 -81 -81h-10c-37 0 -68 25 -77 58c-1 5 -2 8 -2 9c0 17 15 28 30 28c11 0 22 -6 26 -21c3 -11 11 -17 23 -17h10c13 0 24 11 24 24v10c0 13 -11 24 -24 24h-4c-16 0 -29 13 -29 28v74c0 15 13 25 28 25c17 0 29 -10 29 -25v-49
c33 -11 57 -41 57 -77v-10z" />
    <glyph glyph-name="hungarumlaut" unicode="&#x2dd;" 
d="M385 659c0 -80 -27 -125 -107 -153c-3 -1 -5 -2 -8 -2h-6c-23 0 -37 20 -37 39c0 15 7 28 26 35c48 16 56 29 56 81c0 25 19 38 38 38s38 -13 38 -38zM233 659c0 -80 -27 -125 -107 -153c-3 -1 -5 -2 -8 -2h-6c-23 0 -37 20 -37 39c0 15 7 28 26 35c48 16 56 29 56 81
c0 25 19 38 38 38s38 -13 38 -38z" />
    <glyph glyph-name="ogonek" unicode="&#x2db;" 
d="M326 -102c0 -7 -1 -13 -4 -19c-15 -35 -51 -57 -90 -57h-8c-51 0 -90 39 -90 90v10c0 66 79 101 135 109c3 0 4 1 7 1c23 0 37 -20 37 -37c0 -16 -9 -32 -32 -36c-20 -3 -65 -20 -71 -37c0 -3 -1 -4 -1 -7c0 -11 6 -18 23 -18c11 0 28 17 31 20c7 10 17 15 28 15
c17 0 35 -13 35 -34z" />
    <glyph glyph-name="caron" unicode="&#x2c7;" 
d="M373 658c0 -13 -6 -23 -17 -30l-86 -58c-14 -10 -27 -15 -39 -15c-11 0 -25 5 -40 15l-87 58c-12 8 -17 18 -17 29c0 20 16 40 39 40c8 0 15 -2 22 -7l82 -57l82 57c7 5 14 7 22 7c23 0 39 -20 39 -39z" />
    <glyph glyph-name="currency" unicode="&#xa4;" horiz-adv-x="588" 
d="M539 364c0 -54 -39 -94 -93 -94h-72c11 -15 17 -35 17 -54c0 -54 -39 -93 -93 -93h-249v248c0 54 39 94 93 94c20 0 39 -6 55 -17v71c0 54 39 94 93 94s93 -40 93 -94v-62h63c54 0 93 -40 93 -93zM522 364c0 45 -31 76 -76 76h-79v79c0 45 -32 77 -77 77s-76 -32 -76 -77
v-232h232c45 0 76 32 76 77z" />
  </font>
</defs>
</svg>
