<?xml version="1.0" standalone="no"?>
<!DOCTYPE svg PUBLIC "-//W3C//DTD SVG 1.1//EN" "http://www.w3.org/Graphics/SVG/1.1/DTD/svg11.dtd" >
<svg xmlns="http://www.w3.org/2000/svg" width="100%" height="100%">
<metadata>
Created by FontXChange 20110222 at Sun Mar  8 16:27:09 2015
 By Mitchell Warren
Copyright (c) Cornel Windlin, Gilles Gavillet. www.lineto.com, 2001. All rights reserved.
</metadata>
<defs>
<font id="Gravur-CondensedBold" horiz-adv-x="466" >
  <font-face 
    font-family="Gravur"
    font-weight="700"
    font-stretch="condensed"
    units-per-em="1000"
    panose-1="2 0 8 6 0 0 0 0 0 0"
    ascent="800"
    descent="-200"
    x-height="482"
    cap-height="697"
    bbox="-32 -215 947 897"
    underline-thickness="0"
    underline-position="0"
    stemh=" 95 "
    stemv=" 96 "
    unicode-range="U+0020-FB02"
  />
<missing-glyph horiz-adv-x="588" 
d="M88 698v-698h412v698h-412zM425 74h-262v549h262v-549z" />
    <glyph glyph-name=".notdef" horiz-adv-x="588" 
d="M88 698v-698h412v698h-412zM425 74h-262v549h262v-549z" />
    <glyph glyph-name=".notdef" unicode="&#xfffd;" horiz-adv-x="588" 
d="M88 698v-698h412v698h-412zM425 74h-262v549h262v-549z" />
    <glyph glyph-name="space" unicode=" " horiz-adv-x="290" 
 />
    <glyph glyph-name="Eth" unicode="&#xd0;" horiz-adv-x="540" 
d="M476 195c0 -108 -87 -195 -195 -195h-156c-27 0 -49 23 -49 48v286h-23c-33 0 -49 24 -49 48s16 47 49 47h23v214c0 25 22 48 49 48h156c108 0 195 -87 195 -195v-301zM380 195v301c0 56 -43 100 -99 100h-109v-167h79c32 0 48 -23 48 -47s-16 -48 -48 -48h-79v-239h109
c56 0 99 46 99 100z" />
    <glyph glyph-name="eth" unicode="&#xf0;" horiz-adv-x="499" 
d="M439 648c0 -15 -6 -28 -22 -39l-33 -23c8 -16 16 -28 16 -79v-344c0 -93 -74 -168 -167 -168h-11c-92 0 -167 63 -167 168v111c0 93 67 167 167 167h11c24 0 61 -12 71 -19v81c0 13 -5 19 -5 19l-39 -29c-9 -7 -18 -10 -29 -10c-27 0 -48 23 -48 50c0 13 5 28 20 38
l31 21l-64 17c-25 7 -36 24 -36 41c0 23 17 47 44 47c39 0 137 -45 137 -43l44 32c10 7 21 11 32 11c28 0 48 -24 48 -49zM304 163v111c0 39 -32 72 -71 72h-11c-39 0 -71 -33 -71 -72v-111c0 -40 32 -74 71 -74h11c39 0 71 34 71 74z" />
    <glyph glyph-name="Lslash" unicode="&#x141;" horiz-adv-x="474" 
d="M448 47c0 -23 -16 -47 -48 -47h-264c-27 0 -48 21 -48 48v178l-15 -8c-9 -5 -18 -8 -26 -8c-27 0 -47 24 -47 51c0 15 6 30 24 40l64 37v311c0 32 24 48 48 48s48 -16 48 -48v-254l133 79c9 5 17 7 26 7c27 0 48 -25 48 -50c0 -17 -8 -30 -25 -40l-182 -108v-188h216
c32 0 48 -24 48 -48z" />
    <glyph glyph-name="lslash" unicode="&#x142;" horiz-adv-x="346" 
d="M341 446c0 -14 -7 -29 -23 -39l-101 -62v-214c0 -23 17 -42 40 -42c27 0 48 -19 48 -47s-20 -48 -48 -48c-87 0 -136 50 -136 137v154l-42 -26c-9 -6 -18 -9 -26 -9c-27 0 -48 25 -48 51c0 14 7 29 23 39l93 58v251c0 32 24 48 48 48s48 -16 48 -48v-191l50 31
c9 5 18 8 26 8c27 0 48 -25 48 -51z" />
    <glyph glyph-name="Scaron" unicode="&#x160;" horiz-adv-x="489" 
d="M396 845c0 -12 -7 -26 -19 -34l-85 -60c-13 -9 -29 -15 -45 -15s-32 5 -47 15l-88 59c-15 10 -20 23 -20 36c0 25 23 51 50 51c9 0 18 -3 29 -10l76 -51l68 50c9 7 19 11 29 11c28 0 52 -25 52 -52zM446 180c0 -113 -87 -185 -199 -185h-10c-105 0 -195 71 -195 194
c0 32 24 48 48 48s48 -16 48 -48c0 -64 42 -100 99 -100h10c59 0 103 32 103 91c0 140 -302 141 -302 322v18c0 108 99 177 190 177h9c96 0 189 -51 189 -153v-6c0 -27 -19 -45 -46 -45c-28 0 -44 17 -50 44c-12 54 -40 65 -93 65h-9c-44 0 -94 -28 -94 -77v-20
c0 -96 302 -118 302 -325z" />
    <glyph glyph-name="scaron" unicode="&#x161;" horiz-adv-x="432" 
d="M368 645c0 -13 -6 -25 -19 -34l-85 -60c-13 -9 -28 -14 -45 -14c-16 0 -32 5 -47 15l-88 59c-15 10 -20 23 -20 36c0 25 23 50 50 50c9 0 18 -3 29 -10l76 -50l68 50c9 7 18 10 29 10c28 0 52 -25 52 -52zM394 144c0 -114 -100 -149 -174 -149h-17
c-64 0 -130 37 -160 102c-3 7 -5 14 -5 22c0 27 24 46 49 46c48 0 49 -76 116 -76h17c56 0 78 23 78 55c0 54 -53 59 -94 67c-69 13 -156 42 -156 127v17c0 99 108 133 172 133h4c89 0 155 -51 155 -86c0 -23 -19 -44 -46 -44c-38 0 -46 35 -109 35h-4
c-44 0 -76 -18 -76 -41v-10c0 -72 250 -12 250 -198z" />
    <glyph glyph-name="Yacute" unicode="&#xdd;" horiz-adv-x="474" 
d="M365 847c0 -16 -8 -32 -27 -41l-161 -76c-8 -4 -15 -5 -22 -5c-27 0 -46 24 -46 49c0 16 9 33 28 42l160 76c8 4 15 5 22 5c27 0 46 -25 46 -50zM440 649c0 -7 -1 -12 -4 -19l-151 -363v-225c0 -32 -24 -47 -48 -47s-48 15 -48 47v225l-151 363c-3 5 -4 12 -4 19
c0 27 19 48 50 48c17 0 34 -9 43 -30l110 -265l110 265c9 21 26 30 43 30c31 0 50 -21 50 -48z" />
    <glyph glyph-name="yacute" unicode="&#xfd;" horiz-adv-x="415" 
d="M336 647c0 -16 -8 -32 -27 -41l-161 -76c-8 -4 -15 -5 -22 -5c-27 0 -46 24 -46 49c0 16 8 33 28 42l160 76c7 3 14 5 22 5c27 0 46 -25 46 -50zM386 442c0 -5 -2 -11 -3 -16l-176 -541c-27 -83 -78 -100 -123 -100c-44 0 -54 21 -54 48c0 25 10 47 51 47
c23 0 34 19 43 47l44 129l-128 368c-2 6 -3 12 -3 18c0 27 20 46 49 46c19 0 36 -9 44 -32l86 -245l77 244c7 23 25 33 44 33c28 0 49 -21 49 -46z" />
    <glyph glyph-name="Thorn" unicode="&#xde;" horiz-adv-x="475" 
d="M424 293c0 -92 -75 -166 -167 -166h-81v-85c0 -32 -23 -47 -48 -47c-24 0 -48 15 -48 47v607c0 32 24 48 48 48c25 0 48 -16 48 -48v-85h81c92 0 167 -74 167 -167v-104zM328 293v104c0 39 -32 72 -71 72h-81v-247h81c39 0 71 32 71 71z" />
    <glyph glyph-name="thorn" unicode="&#xfe;" horiz-adv-x="475" 
d="M424 162c0 -94 -75 -167 -167 -167h-9c-19 0 -51 6 -72 25v-186c0 -32 -23 -49 -47 -49c-25 0 -49 17 -49 49v815c0 32 24 48 49 48c24 0 47 -16 47 -48v-187c21 19 53 26 72 26h9c92 0 167 -74 167 -167v-159zM328 160v162c0 39 -32 71 -71 71h-9c-40 0 -72 -29 -72 -69
v-164c0 -39 32 -71 72 -71h9c39 0 71 32 71 71z" />
    <glyph glyph-name="Zcaron" unicode="&#x17d;" horiz-adv-x="458" 
d="M381 845c0 -12 -7 -26 -19 -34l-85 -60c-15 -10 -30 -15 -45 -15c-16 0 -32 5 -47 15l-88 59c-16 11 -20 23 -20 36c0 25 23 51 50 51c9 0 18 -3 29 -10l76 -51l68 50c9 7 19 11 29 11c28 0 52 -25 52 -52zM424 48c0 -24 -16 -48 -48 -48h-289c-33 0 -53 27 -53 55
c0 9 2 17 6 25l254 516h-201c-32 0 -48 24 -48 48c0 23 16 47 48 47h271c36 0 55 -22 55 -49c0 -11 -4 -22 -9 -33l-253 -514h219c32 0 48 -24 48 -47z" />
    <glyph glyph-name="zcaron" unicode="&#x17e;" horiz-adv-x="399" 
d="M351 645c0 -12 -6 -25 -19 -34l-85 -60c-13 -9 -28 -14 -45 -14c-16 0 -32 5 -47 15l-88 59c-15 10 -20 23 -20 36c0 25 23 50 50 50c9 0 18 -3 29 -10l76 -50l68 50c9 7 19 10 29 10c28 0 52 -25 52 -52zM365 48c0 -24 -15 -48 -47 -48h-234c-25 0 -50 21 -50 53
c0 12 2 23 12 39l186 295h-146c-32 0 -48 24 -48 48s16 47 48 47h223c25 0 50 -22 50 -47c0 -19 -1 -29 -15 -51l-179 -289h153c32 0 47 -23 47 -47z" />
    <glyph glyph-name="onehalf" unicode="&#xbd;" horiz-adv-x="841" 
d="M777 48c0 -24 -16 -48 -49 -48h-147c-29 0 -49 28 -49 55c0 9 2 18 8 27l123 187c7 11 7 20 7 27v7c0 12 -9 17 -21 17c-11 0 -22 -6 -22 -17v-6c0 -32 -23 -48 -47 -48s-48 16 -48 48v6c0 61 51 112 112 112h9c60 0 113 -49 113 -113v-7c0 -34 -41 -84 -107 -200h69
c33 0 49 -23 49 -47zM624 647c0 -9 0 -17 -7 -26l-362 -602c-11 -19 -26 -24 -41 -24c-31 0 -52 21 -52 48c0 9 3 18 8 27l361 602c11 19 26 25 41 25c31 0 52 -23 52 -50zM244 331c0 -32 -24 -49 -48 -49s-48 17 -48 49v204c-11 -11 -24 -17 -39 -17c-25 0 -46 19 -46 42
c0 11 5 23 14 34l71 83c11 13 24 20 47 20c35 0 49 -21 49 -48v-318z" />
    <glyph glyph-name="onequarter" unicode="&#xbc;" horiz-adv-x="853" 
d="M789 123c0 -24 -16 -48 -48 -48h-13v-33c0 -32 -23 -47 -47 -47s-48 15 -48 47v33h-112c-28 0 -50 26 -50 53c0 9 2 16 6 23l133 231c11 18 26 27 44 27c25 0 49 -18 49 -45c0 -8 0 -16 -7 -25l-96 -169h33v15c0 32 25 48 49 48s46 -16 46 -48v-15h13c32 0 48 -24 48 -47
zM639 647c0 -8 0 -17 -7 -26l-361 -602c-11 -19 -26 -24 -42 -24c-31 0 -52 22 -52 49c0 8 3 17 8 26l361 602c11 19 26 25 42 25c29 0 51 -23 51 -50zM243 331c0 -32 -24 -49 -48 -49s-48 17 -48 49v204c-11 -11 -24 -17 -39 -17c-25 0 -45 19 -45 42c0 12 4 23 13 34
l72 83c11 12 23 20 47 20c33 0 48 -21 48 -48v-318z" />
    <glyph glyph-name="onesuperior" unicode="&#xb9;" horiz-adv-x="307" 
d="M243 331c0 -32 -24 -49 -48 -49s-48 17 -48 49v204c-11 -11 -24 -17 -39 -17c-24 0 -45 19 -45 42c0 11 5 23 14 34l71 83c11 12 23 20 47 20c33 0 48 -21 48 -48v-318z" />
    <glyph glyph-name="threequarters" unicode="&#xbe;" horiz-adv-x="893" 
d="M829 123c0 -24 -16 -48 -49 -48h-13v-33c0 -32 -23 -47 -47 -47s-47 15 -47 47v33h-112c-29 0 -50 26 -50 53c0 9 2 16 6 23l133 231c11 18 26 27 43 27c25 0 49 -18 49 -45c0 -8 -2 -16 -7 -25l-95 -169h33v15c0 32 24 48 48 48s46 -16 46 -48v-15h13
c33 0 49 -24 49 -47zM669 648c0 -10 -3 -19 -8 -27l-361 -602c-11 -19 -26 -24 -41 -24c-31 0 -52 22 -52 49c0 9 2 17 7 26l362 602c11 19 26 25 41 25c31 0 52 -22 52 -49zM298 393c0 -64 -51 -111 -112 -111h-10c-63 0 -113 42 -113 111c0 33 24 49 48 49s48 -16 48 -49
c0 -9 8 -16 17 -16h10c11 0 16 5 16 16v27c0 24 -3 29 -24 29h-8c-35 0 -50 22 -50 45s15 44 50 44c28 0 32 1 32 26v21c0 11 -10 17 -19 17c-11 0 -19 -5 -19 -16c0 -27 -24 -39 -48 -39s-48 12 -48 39c0 86 53 111 116 111c56 0 114 -28 114 -112v-13
c0 -43 -10 -57 -22 -74c13 -21 22 -34 22 -77v-28z" />
    <glyph glyph-name="threesuperior" unicode="&#xb3;" horiz-adv-x="362" 
d="M298 393c0 -64 -51 -111 -112 -111h-10c-63 0 -113 42 -113 111c0 33 24 49 48 49s48 -16 48 -49c0 -9 8 -16 17 -16h10c11 0 16 5 16 16v27c0 24 -3 29 -24 29h-8c-35 0 -50 22 -50 45s15 44 50 44c28 0 32 1 32 26v21c0 11 -10 17 -19 17c-11 0 -19 -5 -19 -16
c0 -27 -24 -39 -48 -39s-48 12 -48 39c0 86 53 111 116 111c56 0 114 -28 114 -112v-13c0 -43 -10 -57 -22 -74c13 -21 22 -34 22 -77v-28z" />
    <glyph glyph-name="twosuperior" unicode="&#xb2;" horiz-adv-x="373" 
d="M309 330c0 -24 -16 -48 -49 -48h-147c-31 0 -50 29 -50 56c0 9 2 18 8 27l124 187c6 10 7 20 7 27v6c0 12 -9 17 -21 17c-11 0 -22 -6 -22 -17v-6c0 -32 -24 -48 -48 -48s-48 16 -48 48v6c0 64 52 112 113 112h8c61 0 114 -48 114 -112v-7c0 -17 -6 -37 -20 -60l-87 -141
h69c33 0 49 -23 49 -47z" />
    <glyph glyph-name="brokenbar" unicode="&#xa6;" horiz-adv-x="240" 
d="M168 452c0 -32 -24 -48 -48 -48s-48 16 -48 48v197c0 32 24 48 48 48s48 -16 48 -48v-197zM168 42c0 -32 -24 -47 -48 -47s-48 15 -48 47v196c0 33 24 49 48 49s48 -16 48 -49v-196z" />
    <glyph glyph-name="minus" unicode="&#x2212;" horiz-adv-x="580" 
d="M529 268c0 -24 -16 -48 -48 -48h-382c-32 0 -48 24 -48 48s16 47 48 47h382c32 0 48 -23 48 -47z" />
    <glyph glyph-name="multiply" unicode="&#xd7;" horiz-adv-x="491" 
d="M445 118c0 -27 -22 -49 -49 -49c-13 0 -25 5 -34 14l-116 116l-116 -116c-8 -8 -19 -14 -34 -14c-27 0 -49 22 -49 49c0 15 7 26 15 34l116 116l-116 116c-8 8 -15 19 -15 34c0 27 22 49 49 49c13 0 25 -5 34 -14l116 -116l116 116c9 9 21 14 34 14c27 0 49 -22 49 -49
c0 -13 -5 -25 -14 -34l-116 -116l116 -116c9 -9 14 -21 14 -34z" />
    <glyph glyph-name="exclam" unicode="!" horiz-adv-x="248" 
d="M172 251c0 -33 -24 -48 -48 -48s-48 15 -48 48v398c0 32 24 48 48 48s48 -16 48 -48v-398zM172 42c0 -32 -23 -47 -47 -47c-25 0 -49 15 -49 47v22c0 32 24 48 48 48s48 -16 48 -48v-22z" />
    <glyph glyph-name="quotedbl" unicode="&#x22;" horiz-adv-x="363" 
d="M296 532c0 -33 -24 -49 -48 -49s-48 16 -48 49v117c0 32 24 48 48 48s48 -16 48 -48v-117zM164 532c0 -33 -24 -49 -48 -49s-48 16 -48 49v117c0 32 24 48 48 48s48 -16 48 -48v-117z" />
    <glyph glyph-name="numbersign" unicode="#" horiz-adv-x="703" 
d="M665 450c0 -28 -20 -48 -48 -48h-114l-18 -102h98c28 0 48 -20 48 -48s-22 -47 -49 -47h-114l-30 -171c-4 -24 -22 -39 -46 -39c-28 0 -48 18 -48 46c0 5 0 8 1 10l27 154h-102l-30 -171c-4 -23 -18 -39 -43 -39c-28 0 -50 19 -50 47c0 4 0 7 1 9l26 154h-88
c-28 0 -48 19 -48 47s19 48 48 48h107l18 102h-90c-28 0 -49 20 -49 48s21 47 49 47h107l28 160c4 24 22 40 47 40c27 0 47 -20 47 -47c0 -3 -1 -7 -1 -10l-25 -143h100l28 160c4 24 22 40 47 40c27 0 47 -20 47 -47c0 -3 -1 -7 -1 -10l-25 -143h97c28 0 48 -19 48 -47z
M407 402h-101l-18 -102h101z" />
    <glyph glyph-name="dollar" unicode="$" horiz-adv-x="489" 
d="M446 180c0 -98 -67 -169 -159 -182v-31c0 -33 -22 -48 -43 -48s-43 15 -43 48v31c-88 13 -159 84 -159 191c0 32 24 48 48 48s48 -16 48 -48c0 -64 42 -100 99 -100h10c59 0 103 32 103 91c0 140 -302 141 -302 322v18c0 94 74 157 153 173v31c0 33 22 49 43 49
s43 -16 43 -49v-30c79 -13 149 -62 149 -150v-6c0 -27 -19 -45 -46 -45c-28 0 -44 17 -50 44c-12 54 -40 65 -93 65h-9c-44 0 -94 -28 -94 -77v-20c0 -96 302 -118 302 -325z" />
    <glyph glyph-name="percent" unicode="%" horiz-adv-x="730" 
d="M679 117c0 -68 -51 -122 -120 -122s-121 54 -121 122v129c0 67 52 124 121 124s120 -57 120 -124v-129zM539 649c0 -7 -1 -12 -4 -19l-251 -606c-9 -21 -26 -29 -43 -29c-31 0 -51 20 -51 47c0 7 1 14 4 19l251 606c9 21 26 30 43 30c31 0 51 -21 51 -48zM292 444
c0 -67 -51 -123 -120 -123s-121 56 -121 123v128c0 67 52 125 121 125s120 -58 120 -125v-128zM584 117v129c0 17 -13 29 -25 29c-11 0 -25 -12 -25 -29v-129c0 -17 14 -28 25 -28c12 0 25 11 25 28zM197 444v128c0 19 -13 30 -25 30s-25 -11 -25 -30v-128
c0 -19 13 -28 25 -28s25 9 25 28z" />
    <glyph glyph-name="ampersand" unicode="&#x26;" horiz-adv-x="565" 
d="M544 46c0 -27 -17 -51 -52 -51c-39 0 -76 20 -103 49c-43 -31 -92 -49 -143 -49h-10c-111 0 -198 80 -198 192c0 104 61 148 131 196c-23 40 -53 81 -53 132c0 107 83 134 141 134h8c61 0 148 -35 148 -136c0 -72 -55 -121 -115 -163l94 -152l15 26c12 20 29 28 45 28
c25 0 49 -19 49 -48c0 -7 -2 -14 -5 -23c-8 -23 -21 -45 -36 -65c16 -19 28 -22 35 -22c33 0 49 -24 49 -48zM317 513c0 13 -15 41 -52 41h-8c-25 0 -45 -14 -45 -45c0 -19 21 -53 37 -80c39 27 68 57 68 84zM327 124c-26 40 -113 183 -113 182c-45 -35 -81 -61 -81 -110
c0 -56 47 -107 104 -107h10c27 0 53 14 80 35z" />
    <glyph glyph-name="quotesingle" unicode="'" horiz-adv-x="231" 
d="M164 525c0 -35 -23 -50 -46 -50c-25 0 -50 18 -50 50v122c0 33 25 50 50 50c23 0 46 -15 46 -50v-122z" />
    <glyph glyph-name="parenleft" unicode="(" horiz-adv-x="310" 
d="M271 -31c22 -24 16 -53 -1 -70c-16 -16 -41 -23 -64 1c-78 83 -138 244 -138 426c0 178 58 338 135 423c42 47 108 -20 66 -68c-56 -62 -111 -197 -111 -355c0 -163 56 -296 113 -357z" />
    <glyph glyph-name="parenright" unicode=")" horiz-adv-x="310" 
d="M243 326c0 -182 -61 -343 -139 -426c-43 -46 -107 24 -65 69c58 61 113 195 113 357c0 158 -54 293 -110 355c-43 48 23 115 65 68c77 -85 136 -244 136 -423z" />
    <glyph glyph-name="asterisk" unicode="*" horiz-adv-x="427" 
d="M391 488c-7 -13 -21 -24 -40 -22l-70 7l41 -56c12 -16 9 -33 2 -45c-12 -23 -42 -34 -65 -21c-7 4 -13 10 -17 18l-28 65l-29 -64c-14 -30 -43 -29 -64 -17c-20 11 -34 38 -16 63l41 57l-70 -7c-9 -1 -18 0 -25 5c-23 13 -27 45 -15 66c7 13 21 24 40 22l70 -8l-41 57
c-12 16 -9 33 -2 46c12 21 42 32 65 19c8 -5 14 -11 17 -18l29 -65l29 65c13 29 43 29 63 18c21 -12 35 -39 17 -64l-42 -58l70 8c11 1 18 -2 25 -6c23 -13 27 -44 15 -65z" />
    <glyph glyph-name="plus" unicode="+" horiz-adv-x="468" 
d="M430 267c0 -23 -17 -47 -49 -47h-99v-101c0 -31 -25 -47 -49 -47s-47 16 -47 47v101h-100c-32 0 -48 24 -48 47c0 24 16 48 48 48h100v101c0 32 24 48 48 48s48 -16 48 -48v-101h99c32 0 49 -24 49 -48z" />
    <glyph glyph-name="comma" unicode="," horiz-adv-x="211" 
d="M156 35c0 -70 -15 -104 -59 -152l-14 -15c-10 -11 -21 -16 -34 -16c-25 0 -49 22 -49 49c0 11 4 22 14 32l14 15c25 26 32 35 32 88v31c0 31 24 47 47 47c24 0 49 -16 49 -48v-31z" />
    <glyph glyph-name="hyphen" unicode="-" horiz-adv-x="383" 
d="M345 267c0 -24 -15 -48 -47 -48h-212c-32 0 -48 24 -48 48c0 23 16 47 48 47h212c32 0 47 -24 47 -47z" />
    <glyph glyph-name="period" unicode="." horiz-adv-x="181" 
d="M138 42c0 -32 -24 -47 -48 -47s-48 15 -48 47v22c0 32 24 48 48 48s48 -16 48 -48v-22z" />
    <glyph glyph-name="slash" unicode="/" horiz-adv-x="393" 
d="M390 714c0 -7 -1 -14 -4 -21l-305 -775c-9 -23 -25 -33 -44 -33c-29 0 -50 23 -50 51c0 7 1 14 4 21l303 775c9 23 27 33 44 33c31 0 52 -23 52 -51z" />
    <glyph glyph-name="zero" unicode="0" horiz-adv-x="459" 
d="M403 158c0 -92 -75 -163 -168 -163h-10c-93 0 -168 71 -168 163v376c0 93 75 163 168 163h10c93 0 168 -70 168 -163v-376zM307 158v376c0 40 -32 68 -72 68h-10c-40 0 -72 -28 -72 -68v-376c0 -39 32 -69 72 -69h10c40 0 72 30 72 69z" />
    <glyph glyph-name="one" unicode="1" horiz-adv-x="441" 
d="M315 42c0 -32 -24 -47 -48 -47s-48 15 -48 47v509l-39 -55c-11 -15 -23 -21 -38 -21c-27 0 -51 21 -51 48c0 10 3 20 10 29l89 121c17 23 35 24 48 24h38c25 0 39 -23 39 -48v-607z" />
    <glyph glyph-name="two" unicode="2" horiz-adv-x="463" 
d="M417 48c0 -24 -16 -48 -48 -48h-272c-32 0 -50 31 -50 60c0 13 3 23 8 31l236 378c13 21 14 38 14 53v12c0 39 -32 68 -73 68h-6c-40 0 -72 -29 -72 -68v-7c0 -32 -24 -49 -48 -49s-48 17 -48 49v7c0 93 76 163 168 163h6c91 0 169 -64 169 -163v-17
c0 -41 -23 -85 -32 -100l-197 -322h197c32 0 48 -24 48 -47z" />
    <glyph glyph-name="three" unicode="3" horiz-adv-x="460" 
d="M406 162c0 -94 -73 -167 -171 -167h-10c-100 0 -171 73 -171 157c0 32 24 48 48 48s48 -16 48 -48c0 -35 36 -63 75 -63h10c40 0 75 34 75 73v65c0 87 -31 96 -99 96c-35 0 -51 24 -51 48c0 23 16 47 51 47c52 0 99 3 99 90v23c0 47 -36 71 -75 71s-76 -16 -76 -59
c0 -32 -24 -49 -48 -49s-48 17 -48 49c0 104 87 154 172 154c86 0 171 -57 171 -166v-23c0 -68 -19 -110 -46 -138c31 -32 46 -80 46 -143v-65z" />
    <glyph glyph-name="four" unicode="4" horiz-adv-x="467" 
d="M433 193c0 -24 -16 -48 -48 -48h-34v-103c0 -32 -23 -47 -47 -47s-49 15 -49 47v103h-169c-33 0 -51 27 -51 55c0 9 2 17 5 24l192 444c9 20 25 29 42 29c31 0 50 -21 50 -48c0 -7 0 -13 -4 -20l-169 -389h104v69c0 32 24 48 48 48s48 -16 48 -48v-69h34
c32 0 48 -24 48 -47z" />
    <glyph glyph-name="five" unicode="5" horiz-adv-x="458" 
d="M399 162c0 -94 -75 -167 -168 -167h-10c-95 0 -162 69 -162 167c0 32 24 48 48 48s48 -16 48 -48c0 -45 27 -73 66 -73h10c40 0 72 34 72 73v152c0 40 -32 73 -72 73h-10c-27 0 -49 -8 -68 -41c-7 -11 -22 -19 -41 -19c-23 0 -47 13 -47 49v267c0 25 21 48 48 48h217
c32 0 48 -24 48 -47c0 -24 -16 -48 -48 -48h-169v-131c12 11 39 17 60 17h10c93 0 168 -66 168 -167v-153z" />
    <glyph glyph-name="six" unicode="6" horiz-adv-x="459" 
d="M403 555c0 -29 -23 -45 -47 -45c-23 0 -43 13 -49 41c-6 32 -36 51 -72 51h-10c-39 0 -72 -34 -72 -73v-102c16 13 45 23 72 23h10c93 0 167 -75 167 -168v-120c0 -94 -74 -167 -167 -167h-10c-93 0 -168 73 -168 167v367c0 92 75 168 168 168h10c125 0 168 -98 168 -142
zM306 162v120c0 40 -31 73 -71 73h-10c-40 0 -72 -33 -72 -73v-120c0 -39 32 -73 72 -73h10c40 0 71 34 71 73z" />
    <glyph glyph-name="seven" unicode="7" horiz-adv-x="460" 
d="M406 638c0 -7 -1 -15 -3 -22l-180 -588c-7 -24 -26 -33 -45 -33c-29 0 -50 20 -50 47c0 7 1 12 2 15l164 539h-144v-32c0 -32 -24 -48 -48 -48s-48 16 -48 48v79c0 25 21 48 48 48h248c36 0 56 -22 56 -53z" />
    <glyph glyph-name="eight" unicode="8" horiz-adv-x="459" 
d="M403 162c0 -94 -75 -167 -168 -167h-10c-93 0 -168 73 -168 167v87c0 47 23 89 54 120c-31 31 -54 72 -54 119v42c0 93 75 167 168 167h10c93 0 168 -74 168 -167v-42c0 -47 -21 -88 -52 -119c31 -31 52 -73 52 -120v-87zM307 488v42c0 39 -32 72 -72 72h-10
c-40 0 -72 -33 -72 -72v-42c0 -40 32 -71 72 -71h10c40 0 72 31 72 71zM307 161v88c0 40 -32 73 -72 73h-10c-40 0 -72 -33 -72 -73v-88c0 -39 32 -72 72 -72h10c40 0 72 33 72 72z" />
    <glyph glyph-name="nine" unicode="9" horiz-adv-x="459" 
d="M403 162c0 -93 -75 -167 -168 -167h-10c-108 0 -168 92 -168 147c0 31 24 47 49 47c21 0 42 -13 47 -40c7 -32 36 -60 72 -60h10c39 0 72 34 72 73v107c-15 -12 -45 -22 -72 -22h-10c-93 0 -168 74 -168 167v115c0 93 75 168 168 168h10c93 0 168 -75 168 -168v-367z
M307 414v116c0 40 -32 72 -72 72h-10c-40 0 -72 -32 -72 -72v-116c0 -40 32 -72 72 -72h10c40 0 72 32 72 72z" />
    <glyph glyph-name="colon" unicode=":" horiz-adv-x="211" 
d="M154 308c0 -31 -24 -47 -48 -47s-48 16 -48 47v23c0 32 24 48 48 48s48 -16 48 -48v-23zM154 42c0 -32 -24 -47 -48 -47s-48 15 -48 47v22c0 32 24 48 48 48s48 -16 48 -48v-22z" />
    <glyph glyph-name="semicolon" unicode=";" horiz-adv-x="211" 
d="M156 308c0 -31 -23 -47 -47 -47s-48 16 -48 47v23c0 32 24 48 48 48s47 -16 47 -48v-23zM156 35c0 -70 -15 -104 -59 -152l-14 -15c-10 -11 -21 -16 -34 -16c-25 0 -49 22 -49 49c0 11 4 22 14 32l14 15c25 26 32 35 32 88v31c0 31 24 47 47 47c24 0 49 -16 49 -48v-31z
" />
    <glyph glyph-name="less" unicode="&#x3c;" horiz-adv-x="349" 
d="M298 38c0 -24 -17 -43 -52 -43c-15 0 -23 5 -36 20l-152 183c-11 14 -16 28 -16 43s5 29 16 43l152 186c11 13 24 18 36 18c29 0 52 -23 52 -50c0 -11 -2 -19 -11 -30l-137 -167l136 -168c8 -10 12 -22 12 -35z" />
    <glyph glyph-name="equal" unicode="=" horiz-adv-x="468" 
d="M430 337c0 -24 -16 -47 -47 -47h-298c-32 0 -47 23 -47 47s15 48 47 48h298c31 0 47 -24 47 -48zM430 197c0 -24 -16 -48 -47 -48h-298c-32 0 -47 24 -47 48c0 23 15 47 47 47h298c31 0 47 -24 47 -47z" />
    <glyph glyph-name="greater" unicode="&#x3e;" horiz-adv-x="349" 
d="M307 241c0 -16 -5 -30 -16 -43l-152 -183c-13 -15 -21 -20 -36 -20c-35 0 -52 19 -52 43c0 13 4 25 12 35l136 168l-137 167c-7 9 -11 19 -11 30c0 27 23 50 52 50c12 0 25 -5 36 -18l152 -186c11 -13 16 -27 16 -43z" />
    <glyph glyph-name="question" unicode="?" horiz-adv-x="401" 
d="M359 496c0 -132 -126 -125 -126 -217v-47c0 -32 -24 -48 -48 -48s-49 16 -49 48v47c0 88 35 110 102 169c5 4 24 16 24 53v30c0 39 -31 70 -71 70h-6c-40 0 -71 -30 -71 -66v-3c0 -32 -24 -48 -48 -48c-25 0 -49 16 -49 48v3c0 84 68 162 168 162h6
c100 0 168 -74 168 -166v-35zM233 42c0 -32 -24 -47 -48 -47c-23 0 -47 15 -47 47v22c0 32 24 48 47 48c24 0 48 -16 48 -48v-22z" />
    <glyph glyph-name="at" unicode="@" horiz-adv-x="807" 
d="M743 139c0 -90 -57 -144 -126 -144h-23c-35 0 -64 15 -87 40c-29 -27 -67 -40 -110 -40h-9c-84 0 -165 58 -165 159c0 152 192 135 245 167v5c0 39 -31 67 -66 67h-7c-31 0 -53 -10 -66 -39c-9 -20 -25 -29 -41 -29c-25 0 -50 20 -50 48c0 7 1 14 4 20
c32 73 99 95 153 95h7c91 0 161 -72 161 -158v-181c0 -50 27 -60 34 -60h19c11 0 32 5 32 50v182c0 123 -99 222 -222 222h-46c-123 0 -222 -99 -222 -222v-164c0 -123 99 -221 222 -221h46c30 0 58 6 85 17c6 3 13 4 20 4c28 0 46 -24 46 -49c0 -52 -93 -67 -151 -67h-46
c-175 0 -317 141 -317 316v164c0 175 142 317 317 317h46c175 0 317 -142 317 -317v-182zM468 159v60c-69 -19 -149 -15 -149 -66v-1c0 -36 24 -63 69 -63h9c39 0 71 31 71 70z" />
    <glyph glyph-name="A" unicode="A" horiz-adv-x="545" 
d="M519 40c0 -27 -20 -45 -49 -45c-19 0 -38 10 -46 34l-41 132h-222l-40 -132c-7 -24 -28 -34 -47 -34c-29 0 -49 19 -49 44c0 4 1 9 2 16l190 604c8 25 32 38 55 38c24 0 47 -11 55 -38l190 -604c1 -7 2 -12 2 -15zM353 256l-81 265l-81 -265h162z" />
    <glyph glyph-name="B" unicode="B" horiz-adv-x="519" 
d="M468 195c0 -108 -87 -195 -195 -195h-149c-27 0 -48 23 -48 48v595c0 25 21 48 48 48h149c109 0 187 -79 187 -186c0 -59 -24 -114 -71 -147c47 -35 79 -94 79 -154v-9zM364 505c0 56 -35 91 -91 91h-101v-193h101c52 0 91 42 91 102zM372 195v9c0 57 -46 104 -99 104
h-101v-213h101c56 0 99 46 99 100z" />
    <glyph glyph-name="C" unicode="C" horiz-adv-x="495" 
d="M461 161c0 -98 -97 -166 -194 -166h-9c-108 0 -195 82 -195 191v320c0 108 87 191 195 191h9c97 0 194 -70 194 -167v-3c0 -31 -17 -52 -49 -52c-27 0 -40 16 -47 41c-9 49 -46 86 -98 86h-9c-56 0 -99 -40 -99 -95v-322c0 -56 44 -96 99 -96h9c52 0 89 37 98 86
c7 25 20 41 47 41c32 0 49 -21 49 -52v-3z" />
    <glyph glyph-name="D" unicode="D" horiz-adv-x="540" 
d="M476 195c0 -117 -87 -195 -195 -195h-157c-25 0 -48 23 -48 48v595c0 25 23 48 48 48h157c108 0 195 -78 195 -195v-301zM380 195v301c0 55 -46 100 -99 100h-109v-501h109c53 0 99 46 99 100z" />
    <glyph glyph-name="E" unicode="E" horiz-adv-x="502" 
d="M476 47c0 -23 -16 -47 -48 -47h-304c-25 0 -48 23 -48 48v595c0 25 23 48 48 48h304c32 0 48 -24 48 -48c0 -23 -16 -47 -48 -47h-256v-193h174c32 0 48 -23 48 -47s-16 -48 -48 -48h-174v-213h256c32 0 48 -24 48 -48z" />
    <glyph glyph-name="F" unicode="F" horiz-adv-x="476" 
d="M476 643c0 -23 -16 -47 -48 -47h-256v-193h174c32 0 48 -23 48 -47s-16 -48 -48 -48h-174v-266c0 -32 -24 -47 -48 -47s-48 15 -48 47v601c0 25 23 48 48 48h304c32 0 48 -24 48 -48z" />
    <glyph glyph-name="G" unicode="G" horiz-adv-x="527" 
d="M463 189c0 -109 -87 -194 -195 -194h-10c-108 0 -195 82 -195 191v320c0 108 88 191 195 191h10c103 0 186 -70 194 -157v-5c0 -31 -23 -45 -47 -45c-21 0 -43 12 -47 43c-5 45 -51 69 -100 69h-10c-55 0 -99 -41 -99 -96v-320c0 -56 44 -97 99 -97h10c53 0 99 46 99 100
v103h-81c-32 0 -48 24 -48 48s16 47 48 47h128c27 0 49 -21 49 -48v-150z" />
    <glyph glyph-name="H" unicode="H" horiz-adv-x="552" 
d="M476 42c0 -32 -24 -47 -48 -47c-25 0 -48 15 -48 47v266h-208v-266c0 -32 -24 -47 -48 -47s-48 15 -48 47v607c0 32 24 48 48 48s48 -16 48 -48v-246h208v246c0 32 24 48 48 48s48 -16 48 -48v-607z" />
    <glyph glyph-name="I" unicode="I" horiz-adv-x="265" 
d="M181 42c0 -32 -24 -47 -48 -47s-48 15 -48 47v607c0 32 24 48 48 48s48 -16 48 -48v-607z" />
    <glyph glyph-name="J" unicode="J" horiz-adv-x="470" 
d="M394 189c0 -109 -87 -194 -195 -194h-9c-91 0 -170 57 -189 147c-1 3 -1 7 -1 12c0 27 22 47 49 47c25 0 40 -15 47 -38c15 -47 43 -74 94 -74h9c56 0 99 44 99 100v460c0 32 24 48 48 48s48 -16 48 -48v-460z" />
    <glyph glyph-name="K" unicode="K" horiz-adv-x="502" 
d="M476 41c0 -25 -21 -46 -50 -46c-16 0 -33 7 -42 26l-141 291l-71 -103v-167c0 -32 -24 -47 -48 -47s-48 15 -48 47v607c0 32 24 48 48 48s48 -16 48 -48v-269l201 296c10 15 25 21 38 21c29 0 50 -21 50 -48c0 -10 -3 -19 -8 -27l-148 -218l166 -341c3 -8 5 -15 5 -22z
" />
    <glyph glyph-name="L" unicode="L" 
d="M440 47c0 -23 -16 -47 -48 -47h-268c-27 0 -48 23 -48 48v601c0 32 24 48 48 48s47 -16 47 -48v-554h221c32 0 48 -24 48 -48z" />
    <glyph glyph-name="M" unicode="M" horiz-adv-x="664" 
d="M588 42c0 -32 -24 -47 -48 -47s-48 15 -48 47v424l-108 -250c-9 -20 -30 -30 -51 -30c-20 0 -40 10 -49 30l-112 250v-424c0 -32 -24 -47 -48 -47s-48 15 -48 47v607c0 25 23 48 48 48h12c25 0 41 -9 49 -28l148 -330l146 330c9 21 22 28 49 28h12c25 0 48 -23 48 -48
v-607z" />
    <glyph glyph-name="N" unicode="N" horiz-adv-x="552" 
d="M476 42c0 -25 -21 -47 -48 -47h-11c-13 0 -38 3 -54 40l-191 431v-424c0 -32 -23 -47 -47 -47s-49 15 -49 47v605c0 27 19 50 51 50h11c12 0 36 0 51 -35l191 -431v418c0 32 23 48 47 48s49 -16 49 -48v-607z" />
    <glyph glyph-name="O" unicode="O" horiz-adv-x="527" 
d="M463 186c0 -109 -87 -191 -195 -191h-10c-107 0 -195 82 -195 191v320c0 108 88 191 196 191h9c108 0 195 -83 195 -191v-320zM367 186v320c0 56 -44 96 -99 96h-10c-55 0 -99 -41 -99 -96v-320c0 -56 44 -97 99 -97h10c55 0 99 41 99 97z" />
    <glyph glyph-name="P" unicode="P" horiz-adv-x="495" 
d="M474 497c0 -108 -80 -195 -188 -195h-114v-260c0 -32 -24 -47 -48 -47s-48 15 -48 47v601c0 25 21 48 48 48h162c108 0 188 -86 188 -194zM378 497c0 55 -36 99 -92 99h-114v-199h114c56 0 92 44 92 100z" />
    <glyph glyph-name="Q" unicode="Q" horiz-adv-x="527" 
d="M463 189c0 -37 -9 -71 -28 -101l11 -12c10 -10 15 -21 15 -33c0 -27 -23 -48 -50 -48c-13 0 -24 4 -34 14l-11 11c-29 -16 -62 -25 -98 -25h-10c-107 0 -195 86 -195 194v313c0 108 88 195 195 195h10c108 0 195 -87 195 -195v-313zM367 188v315c0 56 -46 99 -99 99h-10
c-53 0 -99 -46 -99 -99v-315c0 -53 46 -99 99 -99h10c9 0 17 1 25 4l-10 10c-10 10 -15 21 -15 33c0 27 23 50 50 50c13 0 24 -5 34 -15l11 -11c3 9 4 19 4 28z" />
    <glyph glyph-name="R" unicode="R" horiz-adv-x="524" 
d="M482 487c0 -86 -51 -159 -127 -185l114 -239c4 -8 5 -15 5 -21c0 -27 -20 -47 -51 -47c-16 0 -32 7 -41 26l-129 272h-81v-251c0 -32 -23 -47 -47 -47c-25 0 -49 15 -49 47v601c0 25 23 48 48 48h163c108 0 195 -87 195 -195v-9zM386 487v9c0 56 -41 100 -96 100h-118
v-208h119c55 0 95 44 95 99z" />
    <glyph glyph-name="S" unicode="S" horiz-adv-x="489" 
d="M446 180c0 -113 -87 -185 -199 -185h-10c-105 0 -195 71 -195 194c0 32 24 48 48 48s48 -16 48 -48c0 -64 42 -100 99 -100h10c59 0 103 32 103 91c0 140 -302 141 -302 322v18c0 108 99 177 190 177h9c96 0 189 -51 189 -153v-6c0 -27 -19 -45 -46 -45
c-28 0 -44 17 -50 44c-12 54 -40 65 -93 65h-9c-44 0 -94 -28 -94 -77v-20c0 -96 302 -118 302 -325z" />
    <glyph glyph-name="T" unicode="T" horiz-adv-x="407" 
d="M395 643c0 -23 -16 -47 -48 -47h-95v-554c0 -32 -24 -47 -48 -47s-48 15 -48 47v554h-95c-32 0 -48 24 -48 47c0 24 16 48 48 48h286c32 0 48 -24 48 -48z" />
    <glyph glyph-name="U" unicode="U" horiz-adv-x="552" 
d="M476 189c0 -108 -87 -194 -195 -194h-10c-107 0 -195 86 -195 194v460c0 32 24 48 48 48s48 -16 48 -48v-460c0 -53 45 -99 100 -99h9c53 0 99 46 99 99v460c0 32 24 48 48 48s48 -16 48 -48v-460z" />
    <glyph glyph-name="V" unicode="V" horiz-adv-x="474" 
d="M440 650c0 -5 0 -10 -1 -13l-146 -601c-7 -28 -31 -41 -56 -41s-49 13 -56 41l-146 601c-1 3 -1 8 -1 13c0 27 21 47 50 47c19 0 39 -10 45 -37l108 -460l108 460c6 27 26 37 45 37c29 0 50 -20 50 -47z" />
    <glyph glyph-name="W" unicode="W" horiz-adv-x="762" 
d="M728 650c0 -5 0 -8 -1 -11l-129 -604c-6 -28 -31 -40 -56 -40c-27 0 -51 12 -57 39l-104 449l-104 -449c-6 -27 -31 -39 -56 -39s-51 13 -57 40l-129 604c-1 3 -1 6 -1 11c0 27 21 47 49 47c21 0 40 -11 46 -38l94 -437l104 435c6 27 30 40 54 40s48 -13 54 -40l104 -435
l94 437c6 27 25 38 46 38c28 0 49 -20 49 -47z" />
    <glyph glyph-name="X" unicode="X" horiz-adv-x="495" 
d="M452 41c0 -25 -21 -46 -50 -46c-16 0 -32 6 -42 26l-113 227l-113 -227c-9 -19 -26 -26 -42 -26c-29 0 -50 21 -50 46c0 7 2 15 6 23l145 292l-134 271c-4 8 -6 16 -6 23c0 25 21 47 50 47c16 0 33 -8 42 -27l102 -205l102 205c10 20 26 27 42 27c29 0 50 -22 50 -47
c0 -7 -2 -15 -6 -23l-134 -271l145 -292c4 -8 6 -16 6 -23z" />
    <glyph glyph-name="Y" unicode="Y" horiz-adv-x="474" 
d="M440 649c0 -7 -1 -12 -4 -19l-151 -363v-225c0 -32 -24 -47 -48 -47s-48 15 -48 47v225l-151 363c-3 5 -4 12 -4 19c0 27 19 48 50 48c17 0 34 -9 43 -30l110 -265l110 265c9 21 26 30 43 30c31 0 50 -21 50 -48z" />
    <glyph glyph-name="Z" unicode="Z" horiz-adv-x="458" 
d="M424 48c0 -24 -16 -48 -48 -48h-289c-33 0 -53 27 -53 55c0 9 2 17 6 25l254 516h-201c-32 0 -48 24 -48 48c0 23 16 47 48 47h271c36 0 55 -22 55 -49c0 -11 -4 -22 -9 -33l-253 -514h219c32 0 48 -24 48 -47z" />
    <glyph glyph-name="bracketleft" unicode="[" horiz-adv-x="295" 
d="M252 -69c0 -24 -16 -48 -48 -48h-76c-27 0 -48 22 -48 47v719c0 25 21 48 48 48h76c32 0 48 -24 48 -48c0 -23 -16 -47 -48 -47h-28v-624h28c32 0 48 -23 48 -47z" />
    <glyph glyph-name="backslash" unicode="\" horiz-adv-x="393" 
d="M390 -64c0 -28 -21 -51 -52 -51c-19 0 -34 10 -43 33l-304 775c-3 7 -4 14 -4 21c0 28 21 51 50 51c19 0 36 -10 45 -33l304 -775c3 -7 4 -14 4 -21z" />
    <glyph glyph-name="bracketright" unicode="]" horiz-adv-x="295" 
d="M214 -70c0 -25 -21 -47 -48 -47h-76c-32 0 -48 24 -48 48s16 47 48 47h28v624h-28c-32 0 -48 24 -48 47c0 24 16 48 48 48h76c27 0 48 -23 48 -48v-719z" />
    <glyph glyph-name="asciicircum" unicode="^" horiz-adv-x="494" 
d="M494 470c0 -27 -24 -48 -49 -48c-12 0 -23 3 -34 15l-164 185l-162 -183c-11 -13 -23 -17 -36 -17c-25 0 -49 21 -49 48c0 11 5 22 13 31l190 212c13 14 27 21 44 21s31 -6 43 -19l190 -212c9 -10 14 -21 14 -33z" />
    <glyph glyph-name="underscore" unicode="_" horiz-adv-x="544" 
d="M506 47c0 -23 -15 -47 -47 -47h-373c-32 0 -48 24 -48 47c0 24 16 48 48 48h373c32 0 47 -24 47 -48z" />
    <glyph glyph-name="grave" unicode="`" horiz-adv-x="427" 
d="M335 581c0 -25 -19 -50 -46 -50c-6 0 -13 1 -21 5l-149 70c-19 9 -28 26 -28 42c0 24 18 48 45 49c7 0 14 -1 22 -5l149 -69c20 -9 28 -26 28 -42z" />
    <glyph glyph-name="a" unicode="a" 
d="M436 41c0 -23 -16 -46 -45 -46c-33 0 -60 19 -75 36c-28 -23 -62 -36 -101 -36h-9c-83 0 -164 45 -164 149v5c0 140 159 144 230 160c12 3 13 12 13 19c0 40 -29 65 -65 65h-7c-29 0 -52 -10 -65 -39c-8 -20 -26 -29 -42 -29c-25 0 -50 20 -50 47c0 7 1 14 4 21
c32 73 99 95 153 95h7c80 0 161 -58 161 -151v-221c0 -15 1 -23 16 -27c27 -6 39 -27 39 -48zM285 159v63c-70 -19 -150 -15 -150 -76c0 -33 26 -57 71 -57h9c39 0 70 31 70 70z" />
    <glyph glyph-name="b" unicode="b" horiz-adv-x="471" 
d="M416 159c0 -92 -74 -164 -166 -164h-7c-16 0 -50 2 -71 25c-7 -16 -20 -25 -48 -25c-24 0 -48 16 -48 47v607c0 32 24 48 48 48s48 -16 48 -48v-187c21 19 55 26 71 26h7c92 0 166 -73 166 -165v-164zM320 159v164c0 39 -31 70 -70 70h-8c-39 0 -70 -31 -70 -70v-164
c0 -36 31 -70 70 -70h8c39 0 70 31 70 70z" />
    <glyph glyph-name="c" unicode="c" horiz-adv-x="437" 
d="M395 154c0 -93 -74 -159 -166 -159h-8c-92 0 -166 69 -166 161v170c0 91 74 162 166 162h8c92 0 166 -68 166 -160c0 -32 -24 -48 -48 -48s-48 16 -48 48c0 39 -31 65 -70 65h-8c-39 0 -70 -28 -70 -67v-170c0 -39 31 -67 70 -67h8c39 0 70 26 70 65c0 32 24 48 48 48
s48 -16 48 -48z" />
    <glyph glyph-name="d" unicode="d" horiz-adv-x="471" 
d="M395 42c0 -31 -24 -47 -48 -47c-28 0 -41 9 -48 25c-21 -23 -55 -25 -71 -25h-7c-92 0 -166 72 -166 164v164c0 92 74 165 166 165h7c16 0 50 -7 71 -26v187c0 32 24 48 48 48s48 -16 48 -48v-607zM299 159v164c0 39 -31 70 -70 70h-8c-39 0 -70 -31 -70 -70v-164
c0 -39 31 -70 70 -70h8c39 0 70 34 70 70z" />
    <glyph glyph-name="e" unicode="e" horiz-adv-x="442" 
d="M395 240c0 -25 -21 -48 -48 -48h-196v-36c0 -39 31 -67 70 -67h8c69 0 52 69 105 69c25 0 50 -16 50 -43c0 -6 -2 -13 -5 -22c-32 -64 -77 -98 -150 -98h-8c-92 0 -166 69 -166 161v170c0 91 76 162 166 162h8c92 0 166 -69 166 -165v-83zM299 281v42c0 41 -33 70 -68 70
h-9c-39 0 -71 -28 -71 -67v-45h148z" />
    <glyph glyph-name="f" unicode="f" horiz-adv-x="297" 
d="M276 650c0 -24 -15 -48 -47 -48c-24 0 -39 -19 -39 -43v-74h34c32 0 47 -23 47 -47s-15 -48 -47 -48h-34v-348c0 -32 -24 -47 -48 -47s-48 15 -48 47v348h-9c-32 0 -47 24 -47 48s15 47 47 47h9v75c0 76 47 137 135 137c32 0 47 -23 47 -47z" />
    <glyph glyph-name="g" unicode="g" horiz-adv-x="463" 
d="M400 -50c0 -91 -74 -165 -165 -165h-9c-68 0 -148 36 -172 112c-2 6 -3 11 -3 16c0 28 25 46 50 46c60 0 25 -79 125 -79h9c39 0 69 31 69 70v70c-23 -27 -54 -25 -69 -25h-9c-91 0 -165 72 -165 164v164c0 91 74 165 165 165h9c20 0 49 -6 69 -26c12 23 30 26 49 26
c23 0 47 -16 47 -48v-490zM304 158v166c0 39 -30 69 -69 69h-9c-39 0 -69 -31 -69 -70v-164c0 -39 30 -70 69 -70h9c39 0 69 30 69 69z" />
    <glyph glyph-name="h" unicode="h" horiz-adv-x="467" 
d="M416 42c0 -32 -24 -47 -48 -47s-48 15 -48 47v282c0 47 -35 69 -71 69h-3c-47 0 -74 -32 -74 -75v-276c0 -32 -24 -47 -48 -47s-48 15 -48 47v607c0 32 24 48 48 48s48 -16 48 -48v-187c21 19 55 26 70 26h12c95 0 162 -74 162 -164v-282z" />
    <glyph glyph-name="i" unicode="i" horiz-adv-x="240" 
d="M168 628c0 -31 -24 -47 -48 -47s-47 16 -47 47v21c0 32 23 48 47 48s48 -16 48 -48v-21zM168 42c0 -32 -25 -47 -48 -47c-24 0 -48 15 -48 47v398c0 32 24 48 48 48c23 0 48 -16 48 -48v-398z" />
    <glyph glyph-name="j" unicode="j" horiz-adv-x="248" 
d="M176 628c0 -32 -25 -48 -48 -48c-24 0 -48 16 -48 48v21c0 32 24 47 48 47c23 0 48 -15 48 -47v-21zM176 -87c0 -92 -32 -128 -109 -128h-15c-32 0 -48 24 -48 48s16 48 48 48c21 0 28 9 28 32v527c0 32 24 48 48 48c23 0 48 -16 48 -48v-527z" />
    <glyph glyph-name="k" unicode="k" horiz-adv-x="455" 
d="M425 41c0 -25 -21 -46 -50 -46c-15 0 -29 5 -40 24l-114 200l-49 -54v-123c0 -32 -25 -47 -49 -47s-47 15 -47 47v607c0 32 23 48 47 48s49 -16 49 -48v-344l155 167c11 11 22 16 35 16c27 0 48 -24 48 -49c0 -12 -4 -23 -13 -32l-108 -115l129 -226c5 -7 7 -16 7 -25z
" />
    <glyph glyph-name="l" unicode="l" horiz-adv-x="290" 
d="M256 45c0 -28 -20 -47 -48 -47c-88 0 -136 48 -136 136v515c0 28 20 48 48 48c27 0 48 -20 48 -47v-516c0 -23 17 -42 40 -42c27 0 48 -19 48 -47z" />
    <glyph glyph-name="m" unicode="m" horiz-adv-x="708" 
d="M653 42c0 -32 -25 -47 -49 -47c-23 0 -47 15 -47 47v281c0 39 -32 70 -71 70h-9c-39 0 -71 -31 -71 -70v-279c0 -33 -25 -49 -48 -49c-24 0 -48 16 -48 49v279c0 39 -32 70 -71 70h-9c-39 0 -71 -31 -71 -70v-281c0 -32 -24 -47 -48 -47c-23 0 -48 15 -48 47v398
c0 32 24 48 48 48c23 0 36 -5 48 -26c15 16 44 26 71 26h9c52 0 88 -18 119 -49c31 31 72 49 119 49h9c112 0 167 -62 167 -162v-284z" />
    <glyph glyph-name="n" unicode="n" horiz-adv-x="458" 
d="M403 42c0 -32 -24 -47 -48 -47c-23 0 -48 15 -48 47v281c0 39 -30 70 -69 70h-9c-39 0 -70 -31 -70 -70v-281c0 -32 -24 -47 -48 -47s-48 15 -48 47v398c0 32 24 48 48 48c19 0 36 -5 48 -26c28 27 49 26 70 26h9c99 0 165 -73 165 -165v-281z" />
    <glyph glyph-name="o" unicode="o" horiz-adv-x="448" 
d="M394 156c0 -92 -74 -161 -166 -161h-8c-92 0 -166 69 -166 161v170c0 91 74 162 166 162h8c92 0 166 -71 166 -162v-170zM298 156v170c0 39 -31 67 -70 67h-8c-39 0 -70 -28 -70 -67v-170c0 -39 31 -67 70 -67h8c39 0 70 28 70 67z" />
    <glyph glyph-name="p" unicode="p" horiz-adv-x="471" 
d="M416 159c0 -93 -74 -164 -166 -164h-7c-16 0 -50 6 -71 25v-187c0 -32 -24 -48 -48 -48s-48 16 -48 48v607c0 31 24 48 48 48c28 0 41 -10 48 -26c21 23 55 26 71 26h7c92 0 166 -74 166 -165v-164zM320 159v164c0 39 -31 70 -70 70h-8c-39 0 -70 -34 -70 -70v-164
c0 -39 31 -70 70 -70h8c39 0 70 31 70 70z" />
    <glyph glyph-name="q" unicode="q" horiz-adv-x="471" 
d="M395 -167c0 -32 -24 -48 -48 -48s-48 16 -48 48v187c-21 -19 -55 -25 -71 -25h-7c-92 0 -166 71 -166 164v164c0 91 74 165 166 165h7c16 0 50 -3 71 -26c7 16 20 26 48 26c24 0 48 -17 48 -48v-607zM299 159v164c0 36 -31 70 -70 70h-8c-39 0 -70 -31 -70 -70v-164
c0 -39 31 -70 70 -70h8c39 0 70 31 70 70z" />
    <glyph glyph-name="r" unicode="r" horiz-adv-x="345" 
d="M328 398c0 -27 -28 -41 -51 -41c-44 0 -18 36 -71 36c-28 0 -51 -10 -51 -45v-304c0 -33 -25 -49 -49 -49s-47 16 -47 49v396c0 32 23 48 48 48c23 0 40 -5 48 -20c11 15 34 20 49 20c81 0 111 -43 122 -78c1 -5 2 -9 2 -12z" />
    <glyph glyph-name="s" unicode="s" horiz-adv-x="432" 
d="M394 144c0 -114 -100 -149 -174 -149h-17c-64 0 -130 37 -160 102c-3 7 -5 14 -5 22c0 27 24 46 49 46c48 0 49 -76 116 -76h17c56 0 78 23 78 55c0 54 -53 59 -94 67c-69 13 -156 42 -156 127v17c0 99 108 133 172 133h4c89 0 155 -51 155 -86c0 -23 -19 -44 -46 -44
c-38 0 -46 35 -109 35h-4c-44 0 -76 -18 -76 -41v-10c0 -72 250 -12 250 -198z" />
    <glyph glyph-name="t" unicode="t" horiz-adv-x="316" 
d="M282 45c0 -24 -16 -47 -48 -47c-76 0 -136 60 -136 136v256h-16c-32 0 -48 24 -48 48c0 23 16 47 48 47h16v164c0 32 24 48 47 48c24 0 49 -16 49 -48v-164h35c32 0 48 -24 48 -47c0 -24 -16 -48 -48 -48h-35v-256c0 -16 16 -42 40 -42c32 0 48 -24 48 -47z" />
    <glyph glyph-name="u" unicode="u" horiz-adv-x="454" 
d="M395 42c0 -32 -24 -47 -48 -47c-19 0 -36 4 -48 25c-28 -27 -49 -25 -70 -25h-9c-98 0 -165 71 -165 164v281c0 32 24 48 48 48c23 0 48 -16 48 -48v-281c0 -39 30 -70 69 -70h9c39 0 70 31 70 70v281c0 32 24 48 48 48s48 -16 48 -48v-398z" />
    <glyph glyph-name="v" unicode="v" horiz-adv-x="432" 
d="M398 441c0 -3 -1 -8 -2 -15l-132 -401c-7 -21 -28 -30 -45 -30h-6c-19 0 -38 9 -45 30l-132 401c-1 3 -2 8 -2 15c0 27 20 47 49 47c19 0 36 -10 44 -33l89 -274l89 274c7 23 25 33 44 33c29 0 49 -20 49 -47z" />
    <glyph glyph-name="w" unicode="w" horiz-adv-x="660" 
d="M626 441c0 -7 -1 -12 -2 -15l-116 -401c-7 -23 -28 -30 -45 -30h-4c-19 0 -38 7 -45 30l-84 263l-86 -263c-8 -25 -28 -30 -45 -30h-3c-19 0 -39 9 -45 30l-115 401c-1 3 -2 8 -2 15c0 27 20 47 49 47c19 0 37 -9 44 -33l77 -258l81 258c7 21 16 33 45 33h4
c28 0 38 -12 45 -33l80 -258l74 258c7 24 25 33 44 33c29 0 49 -20 49 -47z" />
    <glyph glyph-name="x" unicode="x" horiz-adv-x="428" 
d="M390 41c0 -25 -21 -46 -49 -46c-15 0 -28 5 -39 22l-88 141l-88 -141c-11 -17 -24 -22 -39 -22c-28 0 -49 21 -49 46c0 10 2 19 7 26l113 181l-104 166c-7 9 -7 17 -7 26c0 25 21 48 49 48c15 0 29 -8 39 -24l79 -126l79 126c10 16 24 24 39 24c28 0 49 -23 49 -48
c0 -9 0 -17 -7 -26l-104 -166l113 -181c5 -7 7 -16 7 -26z" />
    <glyph glyph-name="y" unicode="y" horiz-adv-x="415" 
d="M386 442c0 -5 -2 -11 -3 -16l-176 -541c-27 -83 -78 -100 -123 -100c-44 0 -54 21 -54 48c0 25 10 47 51 47c23 0 34 19 43 47l44 129l-128 368c-2 6 -3 12 -3 18c0 27 20 46 49 46c19 0 36 -9 44 -32l86 -245l77 244c7 23 25 33 44 33c28 0 49 -21 49 -46z" />
    <glyph glyph-name="z" unicode="z" horiz-adv-x="399" 
d="M365 48c0 -24 -15 -48 -47 -48h-234c-25 0 -50 21 -50 53c0 12 2 23 12 39l186 295h-146c-32 0 -48 24 -48 48s16 47 48 47h223c25 0 50 -22 50 -47c0 -19 -1 -29 -15 -51l-179 -289h153c32 0 47 -23 47 -47z" />
    <glyph glyph-name="braceleft" unicode="{" horiz-adv-x="371" 
d="M328 -59c0 -21 -12 -46 -51 -46c-107 0 -134 64 -134 119v229c0 15 -12 28 -17 35c-33 33 -46 37 -46 67c0 31 14 33 46 65c7 7 17 21 17 37v190c0 57 27 120 134 120c39 0 51 -25 51 -46c0 -24 -14 -49 -49 -49c-25 0 -41 -21 -41 -53v-174c0 -39 -21 -67 -48 -90
c27 -21 48 -51 48 -90v-213c0 -32 16 -52 41 -52c35 0 49 -25 49 -49z" />
    <glyph glyph-name="bar" unicode="|" horiz-adv-x="282" 
d="M189 -107c0 -33 -23 -49 -47 -49s-49 16 -49 49v826c0 33 24 49 48 49s48 -16 48 -49v-826z" />
    <glyph glyph-name="braceright" unicode="}" horiz-adv-x="371" 
d="M290 345c0 -30 -14 -35 -46 -67c-7 -7 -17 -20 -17 -35v-229c0 -55 -25 -119 -134 -119c-39 0 -51 25 -51 46c0 24 14 49 49 49c25 0 41 20 41 52v213c0 39 21 69 48 90c-27 23 -48 51 -48 90v174c0 32 -16 53 -41 53c-35 0 -49 25 -49 49c0 21 12 46 51 46
c109 0 134 -63 134 -120v-190c0 -16 10 -30 17 -37c32 -32 46 -34 46 -65z" />
    <glyph glyph-name="asciitilde" unicode="~" horiz-adv-x="439" 
d="M383 659c0 -28 -34 -68 -111 -68c-43 0 -74 25 -114 25c-21 0 -45 -25 -61 -25c-24 0 -40 21 -40 42c0 39 52 64 99 64c48 0 84 -26 118 -26c26 0 46 26 69 26s40 -18 40 -38z" />
    <glyph glyph-name="Adieresis" unicode="&#xc4;" horiz-adv-x="545" 
d="M405 827c0 -31 -24 -47 -47 -47c-24 0 -48 16 -48 47v21c0 32 24 49 48 49c23 0 47 -17 47 -49v-21zM230 827c0 -31 -24 -47 -48 -47c-23 0 -47 16 -47 47v21c0 32 24 48 47 48c24 0 48 -16 48 -48v-21zM519 40c0 -27 -20 -45 -49 -45c-19 0 -38 10 -46 34l-41 132h-222
l-40 -132c-7 -24 -28 -34 -47 -34c-29 0 -49 19 -49 44c0 4 1 9 2 16l190 604c8 25 32 38 55 38c24 0 47 -11 55 -38l190 -604c1 -7 2 -12 2 -15zM353 256l-81 265l-81 -265h162z" />
    <glyph glyph-name="Aring" unicode="&#xc5;" horiz-adv-x="545" 
d="M365 804c0 -51 -42 -93 -93 -93s-93 42 -93 93s42 93 93 93s93 -42 93 -93zM519 40c0 -27 -20 -45 -49 -45c-19 0 -38 10 -46 34l-41 132h-222l-40 -132c-7 -24 -28 -34 -47 -34c-29 0 -49 19 -49 44c0 4 1 9 2 16l190 604c8 25 32 38 55 38c24 0 47 -11 55 -38l190 -604
c1 -7 2 -12 2 -15zM301 803c0 19 -13 31 -29 31c-15 0 -28 -12 -28 -31c0 -15 13 -28 28 -28c16 0 29 13 29 28zM353 256l-81 265l-81 -265h162z" />
    <glyph glyph-name="Ccedilla" unicode="&#xc7;" horiz-adv-x="495" 
d="M461 161c0 -93 -87 -158 -178 -165v-8c33 -13 56 -45 56 -84v-10c0 -49 -39 -90 -90 -90h-10c-42 0 -88 34 -88 77c0 23 19 37 39 37c40 0 28 -38 49 -38h10c8 0 14 7 14 14v10c0 8 -6 15 -14 15h-4c-21 0 -38 17 -38 38v44c-83 22 -144 94 -144 185v320
c0 108 87 191 195 191h9c97 0 194 -70 194 -167v-3c0 -31 -17 -52 -49 -52c-27 0 -40 16 -47 41c-9 49 -46 86 -98 86h-9c-56 0 -99 -40 -99 -95v-322c0 -56 44 -96 99 -96h9c52 0 89 37 98 86c7 25 20 41 47 41c32 0 49 -21 49 -52v-3z" />
    <glyph glyph-name="Eacute" unicode="&#xc9;" horiz-adv-x="502" 
d="M393 847c0 -16 -8 -32 -27 -41l-161 -76c-8 -4 -15 -5 -22 -5c-27 0 -46 24 -46 49c0 16 9 33 28 42l160 76c8 4 15 5 22 5c27 0 46 -25 46 -50zM476 47c0 -23 -16 -47 -48 -47h-304c-25 0 -48 23 -48 48v595c0 25 23 48 48 48h304c32 0 48 -24 48 -48
c0 -23 -16 -47 -48 -47h-256v-193h174c32 0 48 -23 48 -47s-16 -48 -48 -48h-174v-213h256c32 0 48 -24 48 -48z" />
    <glyph glyph-name="Ntilde" unicode="&#xd1;" horiz-adv-x="552" 
d="M437 834c0 -28 -33 -68 -112 -68c-43 0 -73 25 -113 25c-22 0 -46 -25 -62 -25c-23 0 -40 21 -40 42c0 39 52 64 100 64c47 0 83 -26 117 -26c27 0 45 26 70 26c23 0 40 -18 40 -38zM476 42c0 -25 -21 -47 -48 -47h-11c-13 0 -38 3 -54 40l-191 431v-424
c0 -32 -23 -47 -47 -47s-49 15 -49 47v605c0 27 19 50 51 50h11c12 0 36 0 51 -35l191 -431v418c0 32 23 48 47 48s49 -16 49 -48v-607z" />
    <glyph glyph-name="Odieresis" unicode="&#xd6;" horiz-adv-x="527" 
d="M398 827c0 -31 -24 -47 -47 -47c-24 0 -48 16 -48 47v21c0 32 24 49 48 49c23 0 47 -17 47 -49v-21zM223 827c0 -31 -24 -47 -48 -47c-23 0 -47 16 -47 47v21c0 32 24 48 47 48c24 0 48 -16 48 -48v-21zM463 186c0 -109 -87 -191 -195 -191h-10c-107 0 -195 82 -195 191
v320c0 108 88 191 196 191h9c108 0 195 -83 195 -191v-320zM367 186v320c0 56 -44 96 -99 96h-10c-55 0 -99 -41 -99 -96v-320c0 -56 44 -97 99 -97h10c55 0 99 41 99 97z" />
    <glyph glyph-name="Udieresis" unicode="&#xdc;" horiz-adv-x="552" 
d="M411 827c0 -31 -24 -47 -47 -47c-24 0 -48 16 -48 47v21c0 32 24 49 48 49c23 0 47 -17 47 -49v-21zM236 827c0 -31 -24 -47 -48 -47c-23 0 -47 16 -47 47v21c0 32 24 48 47 48c24 0 48 -16 48 -48v-21zM476 189c0 -108 -87 -194 -195 -194h-10c-107 0 -195 86 -195 194
v460c0 32 24 48 48 48s48 -16 48 -48v-460c0 -53 45 -99 100 -99h9c53 0 99 46 99 99v460c0 32 24 48 48 48s48 -16 48 -48v-460z" />
    <glyph glyph-name="aacute" unicode="&#xe1;" 
d="M344 647c0 -16 -8 -32 -27 -41l-161 -76c-8 -4 -15 -5 -22 -5c-27 0 -46 24 -46 49c0 16 8 33 28 42l160 76c8 4 15 5 22 5c27 0 46 -25 46 -50zM436 41c0 -23 -16 -46 -45 -46c-33 0 -60 19 -75 36c-28 -23 -62 -36 -101 -36h-9c-83 0 -164 45 -164 149v5
c0 140 159 144 230 160c12 3 13 12 13 19c0 40 -29 65 -65 65h-7c-29 0 -52 -10 -65 -39c-8 -20 -26 -29 -42 -29c-25 0 -50 20 -50 47c0 7 1 14 4 21c32 73 99 95 153 95h7c80 0 161 -58 161 -151v-221c0 -15 1 -23 16 -27c27 -6 39 -27 39 -48zM285 159v63
c-70 -19 -150 -15 -150 -76c0 -33 26 -57 71 -57h9c39 0 70 31 70 70z" />
    <glyph glyph-name="agrave" unicode="&#xe0;" 
d="M349 581c0 -25 -19 -50 -46 -50c-6 0 -13 1 -21 5l-149 70c-20 9 -28 26 -28 42c0 24 18 48 45 49c7 0 14 -1 22 -5l149 -69c20 -9 28 -26 28 -42zM436 41c0 -23 -16 -46 -45 -46c-33 0 -60 19 -75 36c-28 -23 -62 -36 -101 -36h-9c-83 0 -164 45 -164 149v5
c0 140 159 144 230 160c12 3 13 12 13 19c0 40 -29 65 -65 65h-7c-29 0 -52 -10 -65 -39c-8 -20 -26 -29 -42 -29c-25 0 -50 20 -50 47c0 7 1 14 4 21c32 73 99 95 153 95h7c80 0 161 -58 161 -151v-221c0 -15 1 -23 16 -27c27 -6 39 -27 39 -48zM285 159v63
c-70 -19 -150 -15 -150 -76c0 -33 26 -57 71 -57h9c39 0 70 31 70 70z" />
    <glyph glyph-name="acircumflex" unicode="&#xe2;" 
d="M371 587c0 -25 -23 -50 -50 -50c-9 0 -18 3 -29 10l-76 50l-68 -50c-9 -7 -18 -10 -29 -10c-28 0 -52 25 -52 52c0 13 6 25 19 34l85 60c13 9 28 14 45 14s32 -5 47 -15l88 -59c15 -10 20 -23 20 -36zM436 41c0 -23 -16 -46 -45 -46c-33 0 -60 19 -75 36
c-28 -23 -62 -36 -101 -36h-9c-83 0 -164 45 -164 149v5c0 140 159 144 230 160c12 3 13 12 13 19c0 40 -29 65 -65 65h-7c-29 0 -52 -10 -65 -39c-8 -20 -26 -29 -42 -29c-25 0 -50 20 -50 47c0 7 1 14 4 21c32 73 99 95 153 95h7c80 0 161 -58 161 -151v-221
c0 -15 1 -23 16 -27c27 -6 39 -27 39 -48zM285 159v63c-70 -19 -150 -15 -150 -76c0 -33 26 -57 71 -57h9c39 0 70 31 70 70z" />
    <glyph glyph-name="adieresis" unicode="&#xe4;" 
d="M358 628c0 -31 -24 -47 -47 -47c-24 0 -48 16 -48 47v21c0 32 24 48 48 48c23 0 47 -16 47 -48v-21zM183 628c0 -31 -24 -47 -48 -47c-23 0 -47 16 -47 47v21c0 32 24 48 47 48c24 0 48 -16 48 -48v-21zM436 41c0 -23 -16 -46 -45 -46c-33 0 -60 19 -75 36
c-28 -23 -62 -36 -101 -36h-9c-83 0 -164 45 -164 149v5c0 140 159 144 230 160c12 3 13 12 13 19c0 40 -29 65 -65 65h-7c-29 0 -52 -10 -65 -39c-8 -20 -26 -29 -42 -29c-25 0 -50 20 -50 47c0 7 1 14 4 21c32 73 99 95 153 95h7c80 0 161 -58 161 -151v-221
c0 -15 1 -23 16 -27c27 -6 39 -27 39 -48zM285 159v63c-70 -19 -150 -15 -150 -76c0 -33 26 -57 71 -57h9c39 0 70 31 70 70z" />
    <glyph glyph-name="atilde" unicode="&#xe3;" 
d="M382 659c0 -28 -33 -68 -112 -68c-43 0 -73 25 -113 25c-22 0 -46 -25 -62 -25c-23 0 -40 21 -40 42c0 39 52 64 100 64c47 0 83 -26 117 -26c27 0 45 26 70 26c23 0 40 -18 40 -38zM436 41c0 -23 -16 -46 -45 -46c-33 0 -60 19 -75 36c-28 -23 -62 -36 -101 -36h-9
c-83 0 -164 45 -164 149v5c0 140 159 144 230 160c12 3 13 12 13 19c0 40 -29 65 -65 65h-7c-29 0 -52 -10 -65 -39c-8 -20 -26 -29 -42 -29c-25 0 -50 20 -50 47c0 7 1 14 4 21c32 73 99 95 153 95h7c80 0 161 -58 161 -151v-221c0 -15 1 -23 16 -27c27 -6 39 -27 39 -48z
M285 159v63c-70 -19 -150 -15 -150 -76c0 -33 26 -57 71 -57h9c39 0 70 31 70 70z" />
    <glyph glyph-name="aring" unicode="&#xe5;" 
d="M310 604c0 -51 -42 -93 -93 -93s-93 42 -93 93s42 93 93 93s93 -42 93 -93zM436 41c0 -23 -16 -46 -45 -46c-33 0 -60 19 -75 36c-28 -23 -62 -36 -101 -36h-9c-83 0 -164 45 -164 149v5c0 140 159 144 230 160c12 3 13 12 13 19c0 40 -29 65 -65 65h-7
c-29 0 -52 -10 -65 -39c-8 -20 -26 -29 -42 -29c-25 0 -50 20 -50 47c0 7 1 14 4 21c32 73 99 95 153 95h7c80 0 161 -58 161 -151v-221c0 -15 1 -23 16 -27c27 -6 39 -27 39 -48zM246 603c0 19 -14 31 -29 31c-16 0 -29 -12 -29 -31c0 -15 13 -29 29 -29c15 0 29 14 29 29z
M285 159v63c-70 -19 -150 -15 -150 -76c0 -33 26 -57 71 -57h9c39 0 70 31 70 70z" />
    <glyph glyph-name="ccedilla" unicode="&#xe7;" horiz-adv-x="437" 
d="M395 154c0 -83 -59 -144 -137 -157v-9c33 -13 56 -45 56 -84v-10c0 -49 -39 -90 -90 -90h-10c-42 0 -88 34 -88 77c0 23 19 37 39 37c40 0 28 -38 49 -38h10c8 0 14 7 14 14v10c0 8 -6 15 -14 15h-4c-21 0 -38 17 -38 38v42c-73 17 -127 78 -127 157v170
c0 91 74 162 166 162h8c92 0 166 -68 166 -160c0 -32 -24 -48 -48 -48s-48 16 -48 48c0 39 -31 65 -70 65h-8c-39 0 -70 -28 -70 -67v-170c0 -39 31 -67 70 -67h8c39 0 70 26 70 65c0 32 24 48 48 48s48 -16 48 -48z" />
    <glyph glyph-name="eacute" unicode="&#xe9;" horiz-adv-x="442" 
d="M352 647c0 -16 -8 -32 -27 -41l-161 -76c-8 -4 -15 -5 -22 -5c-27 0 -46 24 -46 49c0 16 8 33 28 42l160 76c8 4 15 5 22 5c27 0 46 -25 46 -50zM395 240c0 -25 -21 -48 -48 -48h-196v-36c0 -39 31 -67 70 -67h8c69 0 52 69 105 69c25 0 50 -16 50 -43
c0 -6 -2 -13 -5 -22c-32 -64 -77 -98 -150 -98h-8c-92 0 -166 69 -166 161v170c0 91 76 162 166 162h8c92 0 166 -69 166 -165v-83zM299 281v42c0 41 -33 70 -68 70h-9c-39 0 -71 -28 -71 -67v-45h148z" />
    <glyph glyph-name="egrave" unicode="&#xe8;" horiz-adv-x="442" 
d="M356 581c0 -25 -19 -50 -46 -50c-6 0 -13 1 -21 5l-149 70c-20 9 -28 26 -28 42c0 24 18 48 45 49c7 0 14 -1 22 -5l149 -69c20 -9 28 -26 28 -42zM395 240c0 -25 -21 -48 -48 -48h-196v-36c0 -39 31 -67 70 -67h8c69 0 52 69 105 69c25 0 50 -16 50 -43
c0 -6 -2 -13 -5 -22c-32 -64 -77 -98 -150 -98h-8c-92 0 -166 69 -166 161v170c0 91 76 162 166 162h8c92 0 166 -69 166 -165v-83zM299 281v42c0 41 -33 70 -68 70h-9c-39 0 -71 -28 -71 -67v-45h148z" />
    <glyph glyph-name="ecircumflex" unicode="&#xea;" horiz-adv-x="442" 
d="M379 587c0 -25 -23 -50 -50 -50c-9 0 -18 3 -29 10l-76 50l-68 -50c-9 -7 -18 -10 -29 -10c-28 0 -52 25 -52 52c0 13 6 25 19 34l85 60c13 9 28 14 45 14s32 -5 47 -15l88 -59c15 -10 20 -23 20 -36zM395 240c0 -25 -21 -48 -48 -48h-196v-36c0 -39 31 -67 70 -67h8
c69 0 52 69 105 69c25 0 50 -16 50 -43c0 -6 -2 -13 -5 -22c-32 -64 -77 -98 -150 -98h-8c-92 0 -166 69 -166 161v170c0 91 76 162 166 162h8c92 0 166 -69 166 -165v-83zM299 281v42c0 41 -33 70 -68 70h-9c-39 0 -71 -28 -71 -67v-45h148z" />
    <glyph glyph-name="edieresis" unicode="&#xeb;" horiz-adv-x="442" 
d="M362 628c0 -31 -24 -47 -47 -47c-24 0 -48 16 -48 47v21c0 32 24 48 48 48c23 0 47 -16 47 -48v-21zM187 628c0 -31 -24 -47 -48 -47c-23 0 -47 16 -47 47v21c0 32 24 48 47 48c24 0 48 -16 48 -48v-21zM395 240c0 -25 -21 -48 -48 -48h-196v-36c0 -39 31 -67 70 -67h8
c69 0 52 69 105 69c25 0 50 -16 50 -43c0 -6 -2 -13 -5 -22c-32 -64 -77 -98 -150 -98h-8c-92 0 -166 69 -166 161v170c0 91 76 162 166 162h8c92 0 166 -69 166 -165v-83zM299 281v42c0 41 -33 70 -68 70h-9c-39 0 -71 -28 -71 -67v-45h148z" />
    <glyph glyph-name="iacute" unicode="&#xed;" horiz-adv-x="240" 
d="M248 647c0 -16 -8 -32 -27 -41l-161 -76c-8 -4 -15 -5 -22 -5c-27 0 -46 24 -46 49c0 16 8 33 28 42l160 76c8 4 15 5 22 5c27 0 46 -25 46 -50zM168 42c0 -32 -25 -47 -48 -47c-24 0 -48 15 -48 47v398c0 32 24 48 48 48c23 0 48 -16 48 -48v-398z" />
    <glyph glyph-name="igrave" unicode="&#xec;" horiz-adv-x="240" 
d="M242 581c0 -25 -19 -50 -46 -50c-6 0 -13 1 -21 5l-149 70c-20 9 -28 26 -28 42c0 24 18 48 45 49c7 0 14 -1 22 -5l149 -69c20 -9 28 -26 28 -42zM168 42c0 -32 -25 -47 -48 -47c-24 0 -48 15 -48 47v398c0 32 24 48 48 48c23 0 48 -16 48 -48v-398z" />
    <glyph glyph-name="icircumflex" unicode="&#xee;" horiz-adv-x="240" 
d="M271 587c0 -25 -23 -50 -50 -50c-9 0 -18 3 -29 10l-76 50l-68 -50c-9 -7 -18 -10 -29 -10c-28 0 -51 25 -51 52c0 13 6 25 18 34l85 60c13 9 28 14 45 14s32 -5 47 -15l88 -59c15 -10 20 -23 20 -36zM167 42c0 -32 -25 -47 -48 -47c-24 0 -48 15 -48 47v398
c0 32 24 48 48 48c23 0 48 -16 48 -48v-398z" />
    <glyph glyph-name="idieresis" unicode="&#xef;" horiz-adv-x="240" 
d="M254 628c0 -31 -24 -47 -47 -47c-24 0 -48 16 -48 47v21c0 32 24 48 48 48c23 0 47 -16 47 -48v-21zM79 628c0 -31 -24 -47 -48 -47c-23 0 -46 16 -46 47v21c0 32 23 48 46 48c24 0 48 -16 48 -48v-21zM167 42c0 -32 -25 -47 -48 -47c-24 0 -48 15 -48 47v398
c0 32 24 48 48 48c23 0 48 -16 48 -48v-398z" />
    <glyph glyph-name="ntilde" unicode="&#xf1;" horiz-adv-x="458" 
d="M392 659c0 -28 -33 -68 -112 -68c-43 0 -74 25 -114 25c-21 0 -45 -25 -61 -25c-24 0 -40 21 -40 42c0 39 52 64 100 64c47 0 83 -26 117 -26c27 0 45 26 70 26c23 0 40 -18 40 -38zM403 42c0 -32 -24 -47 -48 -47c-23 0 -48 15 -48 47v281c0 39 -30 70 -69 70h-9
c-39 0 -70 -31 -70 -70v-281c0 -32 -24 -47 -48 -47s-48 15 -48 47v398c0 32 24 48 48 48c19 0 36 -5 48 -26c28 27 49 26 70 26h9c99 0 165 -73 165 -165v-281z" />
    <glyph glyph-name="oacute" unicode="&#xf3;" horiz-adv-x="448" 
d="M352 647c0 -16 -8 -32 -27 -41l-161 -76c-8 -4 -15 -5 -22 -5c-27 0 -46 24 -46 49c0 16 8 33 28 42l160 76c8 4 15 5 22 5c27 0 46 -25 46 -50zM394 156c0 -92 -74 -161 -166 -161h-8c-92 0 -166 69 -166 161v170c0 91 74 162 166 162h8c92 0 166 -71 166 -162v-170z
M298 156v170c0 39 -31 67 -70 67h-8c-39 0 -70 -28 -70 -67v-170c0 -39 31 -67 70 -67h8c39 0 70 28 70 67z" />
    <glyph glyph-name="ograve" unicode="&#xf2;" horiz-adv-x="448" 
d="M346 581c0 -25 -19 -50 -46 -50c-6 0 -13 1 -21 5l-149 70c-20 9 -28 26 -28 42c0 24 18 48 45 49c7 0 14 -1 22 -5l149 -69c20 -9 28 -26 28 -42zM394 156c0 -92 -74 -161 -166 -161h-8c-92 0 -166 69 -166 161v170c0 91 74 162 166 162h8c92 0 166 -71 166 -162v-170z
M298 156v170c0 39 -31 67 -70 67h-8c-39 0 -70 -28 -70 -67v-170c0 -39 31 -67 70 -67h8c39 0 70 28 70 67z" />
    <glyph glyph-name="ocircumflex" unicode="&#xf4;" horiz-adv-x="448" 
d="M376 587c0 -25 -23 -50 -50 -50c-9 0 -18 3 -29 10l-76 50l-68 -50c-9 -7 -18 -10 -29 -10c-28 0 -52 25 -52 52c0 13 6 25 19 34l85 60c13 9 28 14 45 14s32 -5 47 -15l88 -59c15 -10 20 -23 20 -36zM394 156c0 -92 -74 -161 -166 -161h-8c-92 0 -166 69 -166 161v170
c0 91 74 162 166 162h8c92 0 166 -71 166 -162v-170zM298 156v170c0 39 -31 67 -70 67h-8c-39 0 -70 -28 -70 -67v-170c0 -39 31 -67 70 -67h8c39 0 70 28 70 67z" />
    <glyph glyph-name="odieresis" unicode="&#xf6;" horiz-adv-x="448" 
d="M359 628c0 -31 -24 -47 -47 -47c-24 0 -48 16 -48 47v21c0 32 24 48 48 48c23 0 47 -16 47 -48v-21zM184 628c0 -31 -24 -47 -48 -47c-23 0 -47 16 -47 47v21c0 32 24 48 47 48c24 0 48 -16 48 -48v-21zM394 156c0 -92 -74 -161 -166 -161h-8c-92 0 -166 69 -166 161v170
c0 91 74 162 166 162h8c92 0 166 -71 166 -162v-170zM298 156v170c0 39 -31 67 -70 67h-8c-39 0 -70 -28 -70 -67v-170c0 -39 31 -67 70 -67h8c39 0 70 28 70 67z" />
    <glyph glyph-name="otilde" unicode="&#xf5;" horiz-adv-x="448" 
d="M388 659c0 -28 -33 -68 -112 -68c-43 0 -73 25 -113 25c-22 0 -46 -25 -62 -25c-23 0 -40 21 -40 42c0 39 52 64 100 64c47 0 83 -26 117 -26c27 0 45 26 70 26c23 0 40 -18 40 -38zM394 156c0 -92 -74 -161 -166 -161h-8c-92 0 -166 69 -166 161v170
c0 91 74 162 166 162h8c92 0 166 -71 166 -162v-170zM298 156v170c0 39 -31 67 -70 67h-8c-39 0 -70 -28 -70 -67v-170c0 -39 31 -67 70 -67h8c39 0 70 28 70 67z" />
    <glyph glyph-name="uacute" unicode="&#xfa;" horiz-adv-x="454" 
d="M355 647c0 -16 -7 -32 -27 -41l-161 -76c-7 -3 -14 -5 -22 -5c-27 0 -46 24 -46 49c0 16 9 33 28 42l160 76c8 4 15 5 22 5c27 0 46 -25 46 -50zM395 42c0 -32 -24 -47 -48 -47c-19 0 -36 4 -48 25c-28 -27 -49 -25 -70 -25h-9c-98 0 -165 71 -165 164v281
c0 32 24 48 48 48c23 0 48 -16 48 -48v-281c0 -39 30 -70 69 -70h9c39 0 70 31 70 70v281c0 32 24 48 48 48s48 -16 48 -48v-398z" />
    <glyph glyph-name="ugrave" unicode="&#xf9;" horiz-adv-x="454" 
d="M349 581c0 -25 -19 -50 -46 -50c-6 0 -13 1 -21 5l-149 70c-19 9 -28 26 -28 42c0 24 18 48 45 49c8 0 15 -2 22 -5l149 -69c20 -9 28 -26 28 -42zM395 42c0 -32 -24 -47 -48 -47c-19 0 -36 4 -48 25c-28 -27 -49 -25 -70 -25h-9c-98 0 -165 71 -165 164v281
c0 32 24 48 48 48c23 0 48 -16 48 -48v-281c0 -39 30 -70 69 -70h9c39 0 70 31 70 70v281c0 32 24 48 48 48s48 -16 48 -48v-398z" />
    <glyph glyph-name="ucircumflex" unicode="&#xfb;" horiz-adv-x="454" 
d="M376 587c0 -25 -23 -50 -50 -50c-9 0 -18 3 -29 10l-76 50l-68 -50c-9 -7 -18 -10 -29 -10c-28 0 -52 25 -52 52c0 13 6 25 19 34l85 60c13 9 28 14 45 14s32 -5 47 -15l88 -59c15 -10 20 -23 20 -36zM395 42c0 -32 -24 -47 -48 -47c-19 0 -36 4 -48 25
c-28 -27 -49 -25 -70 -25h-9c-98 0 -165 71 -165 164v281c0 32 24 48 48 48c23 0 48 -16 48 -48v-281c0 -39 30 -70 69 -70h9c39 0 70 31 70 70v281c0 32 24 48 48 48s48 -16 48 -48v-398z" />
    <glyph glyph-name="udieresis" unicode="&#xfc;" horiz-adv-x="454" 
d="M359 628c0 -31 -24 -47 -47 -47c-24 0 -48 16 -48 47v21c0 32 24 48 48 48c23 0 47 -16 47 -48v-21zM184 628c0 -31 -24 -47 -48 -47c-23 0 -47 16 -47 47v21c0 32 24 48 47 48c24 0 48 -16 48 -48v-21zM395 42c0 -32 -24 -47 -48 -47c-19 0 -36 4 -48 25
c-28 -27 -49 -25 -70 -25h-9c-98 0 -165 71 -165 164v281c0 32 24 48 48 48c23 0 48 -16 48 -48v-281c0 -39 30 -70 69 -70h9c39 0 70 31 70 70v281c0 32 24 48 48 48s48 -16 48 -48v-398z" />
    <glyph glyph-name="dagger" unicode="&#x2020;" horiz-adv-x="457" 
d="M414 440c0 -23 -16 -47 -48 -47h-90v-352c0 -32 -24 -46 -48 -46s-48 14 -48 46v352h-90c-32 0 -48 24 -48 47c0 24 16 48 48 48h90v162c0 31 24 47 48 47s48 -16 48 -47v-162h90c32 0 48 -24 48 -48z" />
    <glyph glyph-name="degree" unicode="&#xb0;" horiz-adv-x="344" 
d="M300 575c0 -70 -58 -128 -128 -128s-128 58 -128 128s58 128 128 128s128 -58 128 -128zM222 575c0 28 -23 51 -50 51c-28 0 -50 -23 -50 -51c0 -27 22 -50 50 -50c27 0 50 23 50 50z" />
    <glyph glyph-name="cent" unicode="&#xa2;" horiz-adv-x="437" 
d="M395 154c0 -77 -53 -139 -126 -154v-33c0 -33 -22 -48 -43 -48s-43 15 -43 48v32c-75 16 -128 78 -128 157v170c0 79 55 141 128 158v31c0 33 22 49 43 49s43 -16 43 -49v-31c73 -17 126 -79 126 -156c0 -32 -24 -48 -48 -48s-48 16 -48 48c0 39 -31 65 -70 65h-8
c-39 0 -70 -28 -70 -67v-170c0 -39 31 -67 70 -67h8c39 0 70 26 70 65c0 32 24 48 48 48s48 -16 48 -48z" />
    <glyph glyph-name="sterling" unicode="&#xa3;" horiz-adv-x="519" 
d="M511 143c0 -101 -91 -143 -176 -143h-264c-35 0 -54 21 -54 44c0 19 13 40 40 51c63 25 88 67 88 115c0 27 -6 55 -17 83h-63c-32 0 -48 24 -48 47c0 24 16 48 48 48h26c-19 45 -34 90 -34 129v13c0 89 64 167 168 167h15c83 0 173 -48 173 -152c0 -32 -25 -49 -49 -49
s-47 16 -47 48c0 33 -32 58 -77 58h-15c-47 0 -72 -29 -72 -72v-12c0 -40 18 -82 38 -130h90c33 0 49 -24 49 -48c0 -23 -16 -47 -49 -47h-51c8 -24 12 -49 12 -74c0 -47 -14 -92 -45 -124h141c19 0 77 4 77 48c0 33 24 49 48 49s48 -16 48 -49z" />
    <glyph glyph-name="section" unicode="&#xa7;" horiz-adv-x="482" 
d="M423 249c0 -56 -31 -99 -80 -128c40 -36 65 -74 65 -133c0 -109 -87 -160 -174 -160c-85 0 -170 51 -170 143c0 35 25 49 50 49s47 -14 50 -45c3 -27 35 -52 71 -52c37 0 73 22 73 65c0 25 -10 41 -29 58l-168 146c-34 30 -52 64 -52 104c0 56 28 104 84 131
c-36 33 -57 64 -57 121c0 48 27 149 159 149c104 0 152 -74 152 -125c0 -32 -19 -55 -50 -55c-23 0 -49 14 -49 45c0 27 -19 40 -56 40c-44 0 -57 -27 -57 -54c0 -36 19 -58 41 -76l148 -122c37 -31 49 -64 49 -101zM322 245c0 15 -6 26 -13 32l-98 83
c-5 -3 -55 -19 -55 -61c0 -12 5 -23 16 -33l94 -81c19 8 56 29 56 60z" />
    <glyph glyph-name="bullet" unicode="&#x2022;" horiz-adv-x="318" 
d="M263 331c0 -58 -45 -106 -104 -106s-104 47 -104 105c0 57 45 105 104 105s104 -47 104 -104z" />
    <glyph glyph-name="paragraph" unicode="&#xb6;" horiz-adv-x="520" 
d="M457 -39c0 -28 -21 -42 -44 -42c-21 0 -42 14 -42 42v648h-63v-648c0 -28 -20 -42 -43 -42c-21 0 -42 14 -42 42v347c-117 0 -206 85 -206 193c0 106 88 190 196 190h200c23 0 44 -19 44 -42v-688zM223 391v218c-69 0 -121 -45 -121 -108c0 -64 52 -110 121 -110z" />
    <glyph glyph-name="germandbls" unicode="&#xdf;" horiz-adv-x="510" 
d="M468 190c0 -101 -66 -195 -165 -195c-32 0 -48 23 -48 47s16 47 48 47c20 0 69 39 69 100v60c0 153 -109 70 -109 146v7c0 24 15 45 48 45c40 0 53 42 53 58c0 61 -38 97 -91 97h-10c-55 0 -91 -39 -91 -95v-518c0 -32 -24 -48 -48 -48s-48 16 -48 48v519
c0 107 78 189 187 189h10c109 0 187 -86 187 -193c0 -20 -12 -69 -44 -107c37 -33 52 -93 52 -148v-59z" />
    <glyph glyph-name="registered" unicode="&#xae;" horiz-adv-x="858" 
d="M799 345c0 -206 -166 -369 -370 -369c-205 0 -370 163 -370 369c0 205 165 371 370 371c204 0 370 -166 370 -371zM718 345c0 159 -132 290 -289 290c-161 0 -289 -131 -289 -290c0 -160 128 -289 289 -289c157 0 289 129 289 289zM575 435c0 -48 -26 -89 -73 -114
l67 -145c3 -5 4 -11 4 -18c0 -20 -15 -38 -40 -38c-13 0 -27 6 -34 22l-75 163h-32v-146c0 -27 -19 -39 -40 -39c-23 0 -40 12 -40 39v369c0 20 15 39 36 39h99c70 0 128 -57 128 -126v-6zM495 434v5c0 31 -26 47 -50 47h-53v-100h55c27 0 48 21 48 48z" />
    <glyph glyph-name="copyright" unicode="&#xa9;" horiz-adv-x="858" 
d="M799 345c0 -206 -166 -369 -370 -369c-205 0 -370 163 -370 369c0 205 165 371 370 371c204 0 370 -166 370 -371zM718 345c0 159 -132 290 -289 290c-161 0 -289 -131 -289 -290c0 -160 128 -289 289 -289c157 0 289 129 289 289zM560 235c0 -63 -64 -115 -125 -115h-5
c-69 0 -124 57 -124 125v197c0 68 55 125 124 125h5c61 0 125 -52 125 -115c0 -24 -20 -38 -40 -38c-19 0 -35 11 -38 34c-4 25 -23 38 -47 38h-5c-27 0 -44 -17 -44 -44v-197c0 -27 17 -45 44 -45h5c24 0 44 15 47 38c4 24 19 34 38 34c20 0 40 -13 40 -37z" />
    <glyph glyph-name="trademark" unicode="&#x2122;" horiz-adv-x="647" 
d="M605 421c0 -31 -18 -44 -41 -44s-40 13 -40 44v101c-19 -25 -39 -56 -39 -56c-7 -9 -15 -14 -26 -14s-19 5 -25 14l-38 62v-107c0 -31 -17 -44 -40 -44s-41 13 -41 44v236c0 23 15 40 38 40h7c13 0 30 -1 43 -24l58 -102c13 26 54 101 55 102c13 23 30 24 43 24h7
c23 0 39 -17 39 -40v-236zM268 655c0 -20 -14 -41 -43 -41h-42v-194c0 -28 -19 -43 -40 -43c-20 0 -41 16 -41 43v194h-42c-29 0 -43 21 -43 41c0 21 14 42 43 42h165c29 0 43 -21 43 -42z" />
    <glyph glyph-name="acute" unicode="&#xb4;" horiz-adv-x="429" 
d="M342 647c0 -16 -8 -32 -27 -41l-161 -76c-8 -4 -15 -5 -22 -5c-27 0 -46 24 -46 49c0 16 8 33 28 42l160 76c8 4 15 5 22 5c27 0 46 -25 46 -50z" />
    <glyph glyph-name="dieresis" unicode="&#xa8;" horiz-adv-x="431" 
d="M350 628c0 -31 -24 -47 -47 -47c-24 0 -48 16 -48 47v21c0 32 24 48 48 48c23 0 47 -16 47 -48v-21zM175 628c0 -31 -24 -47 -48 -47c-23 0 -47 16 -47 47v21c0 32 24 48 47 48c24 0 48 -16 48 -48v-21z" />
    <glyph glyph-name="notequal" unicode="&#x2260;" horiz-adv-x="468" 
d="M430 269c0 -24 -16 -47 -47 -47h-168l-39 -60c-11 -16 -25 -23 -40 -23c-25 0 -50 22 -50 49c0 9 3 18 9 27l5 7h-15c-32 0 -47 23 -47 47s15 48 47 48h77l29 46h-106c-32 0 -47 23 -47 47s15 48 47 48h168l41 63c10 16 24 23 39 23c27 0 50 -21 50 -48
c0 -9 -1 -18 -8 -27l-8 -11h16c31 0 47 -24 47 -48s-16 -47 -47 -47h-77l-30 -46h107c31 0 47 -24 47 -48z" />
    <glyph glyph-name="AE" unicode="&#xc6;" horiz-adv-x="739" 
d="M713 48c0 -24 -16 -48 -48 -48h-266c-27 0 -49 23 -49 48v128h-186l-45 -148c-7 -24 -25 -33 -44 -33c-29 0 -50 20 -50 47c0 3 1 8 2 15l188 600c5 15 31 34 47 34h403c32 0 48 -23 48 -47s-16 -48 -48 -48h-218v-193h136c33 0 49 -23 49 -47s-16 -48 -49 -48h-136v-213
h218c32 0 48 -23 48 -47zM350 271v325h-55l-102 -325h157z" />
    <glyph glyph-name="Oslash" unicode="&#xd8;" horiz-adv-x="565" 
d="M501 681c0 -9 -2 -17 -6 -24l-34 -68c13 -27 20 -56 20 -87v-313c0 -108 -87 -194 -195 -194h-9c-39 0 -73 9 -102 28l-17 -33c-10 -19 -27 -27 -43 -27c-27 0 -52 20 -52 47c0 7 2 15 6 24l34 67c-15 27 -21 57 -21 88l-1 313c0 108 88 195 196 195h9
c39 0 72 -10 103 -29l17 34c10 20 27 27 43 27c27 0 52 -20 52 -48zM345 582c-16 12 -36 20 -59 20h-9c-56 0 -100 -44 -100 -100v-253zM385 189v250l-167 -330c17 -13 37 -20 59 -20h9c56 0 99 46 99 100z" />
    <glyph glyph-name="infinity" unicode="&#x221e;" horiz-adv-x="711" 
d="M652 233c0 -72 -48 -142 -138 -142c-56 0 -115 34 -159 73c-41 -36 -97 -73 -158 -73c-88 0 -138 70 -138 142s50 141 138 141c57 0 115 -33 158 -72c43 36 99 72 159 72c89 0 138 -69 138 -141zM555 233c0 33 -18 48 -41 48c-29 0 -64 -25 -91 -48c27 -23 62 -48 91 -48
c23 0 41 15 41 48zM288 233c-27 24 -62 48 -91 48c-21 0 -40 -15 -40 -48s19 -48 40 -48c29 0 64 24 91 48z" />
    <glyph glyph-name="plusminus" unicode="&#xb1;" horiz-adv-x="480" 
d="M421 312c0 -24 -16 -47 -47 -47h-85v-85c0 -32 -25 -48 -49 -48s-47 16 -47 48v85h-88c-31 0 -46 23 -46 48c0 23 15 47 46 47h88v87c0 31 24 47 48 47s48 -16 48 -47v-87h85c31 0 47 -24 47 -48zM399 47c0 -23 -16 -47 -48 -47h-224c-32 0 -48 24 -48 47
c0 24 16 48 48 48h224c32 0 48 -24 48 -48z" />
    <glyph glyph-name="lessequal" unicode="&#x2264;" horiz-adv-x="438" 
d="M357 202c0 -25 -22 -51 -49 -51c-9 0 -18 3 -27 9l-185 121c-15 10 -21 26 -21 42s6 31 21 41l185 121c9 6 18 9 27 9c27 0 49 -24 49 -51c0 -15 -6 -28 -23 -38l-134 -82l134 -83c15 -9 23 -22 23 -38zM379 47c0 -23 -16 -47 -48 -47h-224c-32 0 -48 24 -48 47
c0 24 16 48 48 48h224c32 0 48 -24 48 -48z" />
    <glyph glyph-name="greaterequal" unicode="&#x2265;" horiz-adv-x="438" 
d="M363 323c0 -16 -8 -33 -21 -42l-185 -121c-10 -6 -19 -9 -27 -9c-27 0 -49 26 -49 51c0 16 8 29 23 38l134 83l-134 82c-17 11 -23 23 -23 38c0 27 22 51 49 51c8 0 17 -3 27 -9l185 -121c14 -9 21 -24 21 -41zM379 47c0 -23 -16 -47 -48 -47h-224c-32 0 -48 24 -48 47
c0 24 16 48 48 48h224c32 0 48 -24 48 -48z" />
    <glyph glyph-name="yen" unicode="&#xa5;" horiz-adv-x="491" 
d="M448 650c0 -7 -1 -14 -4 -20l-130 -313h57c29 0 43 -20 43 -43s-14 -43 -43 -43h-78v-24h78c29 0 43 -20 43 -43s-14 -43 -43 -43h-78v-79c0 -32 -24 -47 -48 -47s-48 15 -48 47v79h-77c-29 0 -43 20 -43 43s14 43 43 43h77v24h-77c-29 0 -43 20 -43 43s14 43 43 43h56
l-130 313c-3 6 -4 13 -4 20c0 27 19 47 50 47c17 0 34 -9 43 -30l110 -265l110 265c9 21 26 30 43 30c31 0 50 -20 50 -47z" />
    <glyph glyph-name="mu" unicode="&#x3bc;" horiz-adv-x="458" 
d="M399 42c0 -32 -24 -47 -48 -47c-16 0 -30 6 -39 29c-23 -23 -51 -29 -79 -29h-7c-20 0 -47 4 -71 29v-191c0 -32 -24 -48 -48 -48s-48 16 -48 48v607c0 32 24 48 48 48c23 0 48 -16 48 -48v-281c0 -39 30 -70 69 -70h9c39 0 70 31 70 70v281c0 32 24 48 48 48
s48 -16 48 -48v-398z" />
    <glyph glyph-name="partialdiff" unicode="&#x2202;" horiz-adv-x="465" 
d="M389 157c0 -93 -71 -168 -162 -168h-11c-89 0 -161 75 -161 168v119c0 93 72 168 161 168h11c24 0 46 -5 67 -14v75c0 72 -74 76 -124 92c-24 7 -34 27 -34 46c0 24 17 48 45 48c4 0 9 -1 14 -2c95 -24 194 -57 194 -184v-348zM294 157v119c0 39 -28 70 -67 70h-11
c-37 0 -66 -31 -66 -70v-119c0 -39 30 -71 66 -71h11c37 0 67 32 67 71z" />
    <glyph glyph-name="summation" unicode="&#x2211;" horiz-adv-x="548" 
d="M539 -157c0 -27 -17 -52 -50 -52h-415c-35 0 -53 28 -53 56c0 12 3 23 9 33l228 360l-228 362c-6 10 -9 21 -9 33c0 28 18 56 53 56h415c33 0 50 -24 50 -48c0 -23 -17 -47 -50 -47h-353l207 -326c7 -11 11 -21 11 -30c0 -8 -4 -18 -11 -29l-198 -315h344
c33 0 50 -26 50 -53z" />
    <glyph glyph-name="product" unicode="&#x220f;" horiz-adv-x="683" 
d="M599 -165c0 -33 -23 -50 -47 -50s-48 17 -48 50v761h-323v-761c0 -33 -24 -50 -48 -50s-48 17 -48 50v806c0 27 23 50 50 50h414c27 0 50 -23 50 -50v-806z" />
    <glyph glyph-name="pi" unicode="&#x3c0;" horiz-adv-x="558" 
d="M524 435c0 -24 -17 -48 -50 -48h-54v-253c0 -70 68 -33 68 -97c0 -28 -17 -42 -51 -42c-80 0 -113 69 -113 139v253h-90v-343c0 -33 -25 -49 -48 -49c-24 0 -48 16 -48 49v343h-54c-33 0 -50 24 -50 48c0 23 17 47 50 47h390c33 0 50 -24 50 -47z" />
    <glyph glyph-name="integral" unicode="&#x222b;" horiz-adv-x="371" 
d="M320 650c0 -24 -15 -48 -50 -48s-45 -20 -45 -49v-624c0 -81 -21 -144 -137 -144c-35 0 -50 23 -50 47s15 48 50 48c31 0 41 24 41 49v624c0 89 40 144 141 144c35 0 50 -23 50 -47z" />
    <glyph glyph-name="ordfeminine" unicode="&#xaa;" horiz-adv-x="326" 
d="M288 416c0 -16 -10 -27 -33 -27c-19 0 -35 13 -44 24c-17 -17 -43 -24 -64 -24h-6c-53 0 -103 32 -103 102c0 60 45 77 97 87l37 7c11 2 13 8 13 12c0 16 -14 32 -35 32h-4c-43 0 -27 -40 -64 -40c-19 0 -36 14 -36 33c0 32 40 75 100 75h4c55 0 101 -46 101 -100v-128
c0 -21 37 -12 37 -48v-5zM183 493v31c-40 -11 -78 -7 -78 -35c0 -21 12 -32 36 -32h6c20 0 36 16 36 36z" />
    <glyph glyph-name="ordmasculine" unicode="&#xba;" horiz-adv-x="290" 
d="M252 494c0 -57 -47 -105 -104 -105h-6c-57 0 -104 48 -104 105v98c0 59 47 104 104 104h6c57 0 104 -45 104 -104v-98zM184 494v98c0 20 -16 37 -36 37h-6c-20 0 -36 -17 -36 -37v-98c0 -20 16 -37 36 -37h6c20 0 36 17 36 37z" />
    <glyph glyph-name="Omega" unicode="&#x3a9;" horiz-adv-x="733" 
d="M684 48c0 -24 -16 -48 -48 -48h-177c-25 0 -49 21 -49 48v72c0 35 19 52 36 63c27 16 138 68 138 204c0 120 -97 215 -217 215c-119 0 -218 -95 -218 -215c0 -136 111 -188 137 -204c19 -11 37 -28 37 -63v-72c0 -27 -23 -48 -48 -48h-177c-32 0 -49 24 -49 48
s16 47 48 47h129v19c-102 51 -173 151 -173 273c0 173 140 310 313 310s314 -137 314 -310c0 -123 -69 -222 -173 -273v-19h128c32 0 49 -23 49 -47z" />
    <glyph glyph-name="ae" unicode="&#xe6;" horiz-adv-x="659" 
d="M613 240c0 -25 -23 -48 -48 -48h-196v-36c0 -37 30 -67 69 -67h9c60 0 56 69 104 69c25 0 51 -17 51 -44c0 -7 -2 -14 -5 -21c-31 -64 -78 -98 -150 -98h-9c-47 0 -86 17 -117 48c-31 -31 -71 -48 -118 -48h-9c-83 0 -164 45 -164 149v5c0 140 159 144 230 160
c12 3 13 12 13 19c0 40 -29 65 -65 65h-7c-29 0 -53 -10 -65 -39c-9 -20 -26 -29 -42 -29c-25 0 -50 20 -50 47c0 7 0 13 4 21c32 73 99 95 153 95h7c43 0 85 -16 116 -45c29 28 69 45 113 45c96 0 176 -66 176 -165v-83zM517 281v42c0 41 -33 70 -68 70h-10
c-37 0 -70 -29 -70 -66v-46h148zM273 159v63c-68 -19 -148 -16 -148 -70c0 -36 24 -63 69 -63h9c39 0 70 31 70 70z" />
    <glyph glyph-name="oslash" unicode="&#xf8;" horiz-adv-x="472" 
d="M418 460c0 -9 -3 -18 -8 -26l-23 -37c11 -23 18 -47 18 -74v-164c0 -92 -74 -164 -166 -164h-8c-29 0 -55 6 -79 18l-9 -14c-11 -17 -24 -23 -39 -23c-25 0 -50 19 -50 46c0 8 3 17 8 26l21 35c-11 23 -18 49 -18 76v164c0 91 74 165 166 165h8c29 0 55 -7 80 -20l10 16
c11 17 24 23 39 23c27 0 50 -20 50 -47zM269 386c-11 5 -21 7 -30 7h-8c-39 0 -70 -31 -70 -70v-114zM309 159v111l-107 -175c9 -4 19 -6 29 -6h8c39 0 70 31 70 70z" />
    <glyph glyph-name="questiondown" unicode="&#xbf;" horiz-adv-x="401" 
d="M263 627c0 -32 -24 -48 -47 -48c-24 0 -48 16 -48 48v22c0 32 24 48 48 48c23 0 47 -16 47 -48v-22zM384 156c0 -85 -68 -161 -168 -161h-6c-100 0 -168 72 -168 165v35c0 132 126 125 126 217v47c0 32 24 48 48 48s49 -16 49 -48v-47c0 -89 -34 -108 -102 -169
c-4 -4 -24 -16 -24 -53v-30c0 -39 31 -70 71 -70h6c40 0 71 30 71 66v3c0 32 24 48 48 48c25 0 49 -16 49 -48v-3z" />
    <glyph glyph-name="exclamdown" unicode="&#xa1;" horiz-adv-x="248" 
d="M172 627c0 -32 -24 -48 -48 -48s-48 16 -48 48v22c0 32 23 48 47 48c25 0 49 -16 49 -48v-22zM172 42c0 -32 -24 -47 -48 -47s-48 15 -48 47v433c0 33 24 48 48 48s48 -15 48 -48v-433z" />
    <glyph glyph-name="logicalnot" unicode="&#xac;" horiz-adv-x="406" 
d="M351 259c0 -32 -24 -48 -48 -48s-48 16 -48 48v45h-160c-32 0 -48 23 -48 47s16 48 48 48h208c27 0 48 -22 48 -49v-91z" />
    <glyph glyph-name="radical" unicode="&#x221a;" horiz-adv-x="454" 
d="M446 649c0 -7 -2 -12 -3 -17l-209 -605c-7 -19 -23 -32 -47 -32h-5c-23 0 -39 13 -46 30l-101 237c-3 7 -5 14 -5 21c0 28 26 47 51 47c17 0 34 -9 43 -30l56 -136l172 499c8 23 25 34 44 34c29 0 50 -21 50 -48z" />
    <glyph glyph-name="florin" unicode="&#x192;" horiz-adv-x="373" 
d="M373 649c0 -23 -16 -47 -48 -47c-39 0 -52 -25 -57 -52l-12 -62h26c32 0 48 -24 48 -48c0 -23 -16 -47 -48 -47h-43l-64 -365c-13 -72 -76 -129 -152 -129c-31 0 -47 24 -47 48s16 48 47 48c29 0 52 23 57 50l61 348c-32 0 -48 24 -48 47c0 24 16 48 48 48h17l15 78
c14 73 61 131 152 131c32 0 48 -24 48 -48z" />
    <glyph glyph-name="approxequal" unicode="&#x2248;" horiz-adv-x="494" 
d="M439 317c0 -33 -39 -76 -131 -76c-51 0 -88 30 -134 30c-25 0 -54 -30 -72 -30c-28 0 -47 24 -47 51c0 46 62 74 117 74c56 0 98 -30 138 -30c32 0 54 27 82 27c27 0 47 -21 47 -46zM439 170c0 -34 -39 -75 -131 -75c-51 0 -88 30 -134 30c-23 0 -53 -30 -72 -30
c-28 0 -47 25 -47 50c0 46 62 75 117 75c56 0 98 -30 138 -30c31 0 53 26 82 26c27 0 47 -21 47 -46z" />
    <glyph glyph-name="Delta" unicode="&#x394;" horiz-adv-x="661" 
d="M652 53c0 -28 -15 -53 -42 -53h-559c-27 0 -43 25 -43 53c0 9 2 18 6 26l269 549c7 15 27 26 47 26c23 0 41 -11 48 -26l270 -549c4 -8 4 -15 4 -26zM551 83l-221 452l-220 -452h441z" />
    <glyph glyph-name="guillemotleft" unicode="&#xab;" horiz-adv-x="587" 
d="M523 101c0 -13 -1 -24 -12 -36c-11 -11 -22 -14 -37 -14s-25 7 -36 18l-150 148c-13 13 -16 31 -16 43s3 30 16 43l150 148c11 11 21 18 36 18c31 0 49 -19 49 -50c0 -14 -6 -26 -18 -37l-123 -122l123 -122c12 -11 18 -23 18 -37zM294 101c0 -15 -3 -25 -14 -36
c-9 -9 -21 -14 -35 -14s-25 7 -37 18l-150 148c-13 13 -16 31 -16 43s3 30 16 43l150 148c12 11 23 18 37 18c29 0 49 -21 49 -50c0 -15 -8 -26 -19 -37l-123 -122l123 -122c11 -11 19 -22 19 -37z" />
    <glyph glyph-name="guillemotright" unicode="&#xbb;" horiz-adv-x="587" 
d="M544 260c0 -12 -2 -31 -15 -43l-150 -148c-12 -12 -24 -18 -37 -18c-14 0 -26 5 -35 14c-12 11 -14 21 -14 36s8 26 19 37l122 122l-122 122c-11 11 -19 22 -19 37c0 29 20 50 49 50c13 0 25 -6 37 -18l150 -148c13 -12 15 -31 15 -43zM315 260c0 -12 -3 -31 -16 -43
l-150 -148c-11 -11 -21 -18 -36 -18s-26 3 -37 14c-11 12 -13 23 -13 36c0 15 7 26 18 37l124 122l-124 122c-11 11 -18 22 -18 37c0 31 19 50 50 50c15 0 25 -7 36 -18l150 -148c13 -12 16 -31 16 -43z" />
    <glyph glyph-name="ellipsis" unicode="&#x2026;" horiz-adv-x="530" 
d="M492 42c0 -32 -24 -47 -47 -47c-24 0 -48 15 -48 47v22c0 32 24 48 48 48c23 0 47 -16 47 -48v-22zM313 42c0 -32 -24 -47 -48 -47s-48 15 -48 47v22c0 32 24 48 48 48s48 -16 48 -48v-22zM133 42c0 -32 -24 -47 -48 -47c-23 0 -47 15 -47 47v22c0 32 24 48 47 48
c24 0 48 -16 48 -48v-22z" />
    <glyph glyph-name="uni00A0" unicode="&#xa0;" horiz-adv-x="290" 
 />
    <glyph glyph-name="Agrave" unicode="&#xc0;" horiz-adv-x="545" 
d="M394 780c0 -25 -19 -50 -46 -50c-6 0 -13 1 -21 5l-149 70c-21 10 -28 26 -28 42c0 24 18 49 45 50c7 0 15 -3 22 -6l149 -69c20 -9 28 -26 28 -42zM519 40c0 -27 -20 -45 -49 -45c-19 0 -38 10 -46 34l-41 132h-222l-40 -132c-7 -24 -28 -34 -47 -34
c-29 0 -49 19 -49 44c0 4 1 9 2 16l190 604c8 25 32 38 55 38c24 0 47 -11 55 -38l190 -604c1 -7 2 -12 2 -15zM353 256l-81 265l-81 -265h162z" />
    <glyph glyph-name="Atilde" unicode="&#xc3;" horiz-adv-x="545" 
d="M436 834c0 -28 -33 -68 -112 -68c-43 0 -73 25 -113 25c-22 0 -46 -25 -62 -25c-23 0 -40 21 -40 42c0 39 52 64 100 64c47 0 83 -26 117 -26c27 0 45 26 70 26c23 0 40 -18 40 -38zM519 40c0 -27 -20 -45 -49 -45c-19 0 -38 10 -46 34l-41 132h-222l-40 -132
c-7 -24 -28 -34 -47 -34c-29 0 -49 19 -49 44c0 4 1 9 2 16l190 604c8 25 32 38 55 38c24 0 47 -11 55 -38l190 -604c1 -7 2 -12 2 -15zM353 256l-81 265l-81 -265h162z" />
    <glyph glyph-name="Otilde" unicode="&#xd5;" horiz-adv-x="527" 
d="M427 834c0 -28 -33 -68 -112 -68c-43 0 -73 25 -113 25c-22 0 -46 -25 -62 -25c-23 0 -40 21 -40 42c0 39 52 64 100 64c47 0 83 -26 117 -26c27 0 45 26 70 26c23 0 40 -18 40 -38zM463 186c0 -109 -87 -191 -195 -191h-10c-107 0 -195 82 -195 191v320
c0 108 88 191 196 191h9c108 0 195 -83 195 -191v-320zM367 186v320c0 56 -44 96 -99 96h-10c-55 0 -99 -41 -99 -96v-320c0 -56 44 -97 99 -97h10c55 0 99 41 99 97z" />
    <glyph glyph-name="OE" unicode="&#x152;" horiz-adv-x="793" 
d="M767 41c0 -23 -16 -46 -48 -46h-304c-19 0 -38 19 -38 36c-35 -24 -71 -36 -109 -36h-9c-108 0 -196 79 -196 192v315c0 109 81 195 196 195h9c39 0 78 -14 109 -37c0 12 13 37 38 37h304c32 0 48 -24 48 -48c0 -23 -16 -47 -48 -47h-256v-199h174c32 0 48 -23 48 -47
s-16 -48 -48 -48h-174v-219h256c32 0 48 -24 48 -48zM367 177v334c0 51 -47 91 -99 91h-9c-56 0 -100 -44 -100 -100v-313c0 -54 45 -100 100 -100h9c51 0 99 40 99 88z" />
    <glyph glyph-name="oe" unicode="&#x153;" horiz-adv-x="685" 
d="M638 240c0 -25 -21 -48 -48 -48h-196v-33c0 -39 30 -70 69 -70h9c62 0 56 69 104 69c25 0 51 -16 51 -43c0 -8 -2 -15 -5 -22c-31 -64 -77 -98 -150 -98h-9c-47 0 -86 22 -117 53c-31 -31 -71 -53 -118 -53h-8c-92 0 -166 72 -166 164v164c0 92 74 165 166 165h8
c47 0 87 -22 118 -53c29 31 71 53 116 53c96 0 176 -66 176 -165v-83zM542 281v42c0 41 -33 70 -68 70h-10c-39 0 -70 -31 -70 -70v-42h148zM298 159v164c0 39 -31 70 -70 70h-8c-39 0 -70 -31 -70 -70v-164c0 -39 31 -70 70 -70h8c39 0 70 31 70 70z" />
    <glyph glyph-name="endash" unicode="&#x2013;" horiz-adv-x="456" 
d="M418 267c0 -24 -14 -48 -45 -48h-289c-31 0 -46 24 -46 48s15 47 46 47h289c31 0 45 -23 45 -47z" />
    <glyph glyph-name="emdash" unicode="&#x2014;" horiz-adv-x="586" 
d="M565 267c0 -24 -15 -48 -46 -48h-452c-31 0 -46 24 -46 48s15 47 46 47h452c31 0 46 -23 46 -47z" />
    <glyph glyph-name="quotedblleft" unicode="&#x201c;" horiz-adv-x="323" 
d="M297 654c0 -9 -2 -18 -9 -29c-16 -26 -22 -32 -22 -76v-28c0 -31 -26 -46 -49 -46s-46 16 -46 47v23c0 84 34 152 78 152c24 0 48 -16 48 -43zM151 654c0 -9 -2 -18 -9 -29c-16 -26 -22 -32 -22 -76v-28c0 -31 -26 -46 -49 -46s-46 16 -46 47v23c0 83 36 152 79 152
c24 0 47 -16 47 -43z" />
    <glyph glyph-name="quotedblright" unicode="&#x201d;" horiz-adv-x="323" 
d="M297 628c0 -84 -35 -153 -79 -153c-24 0 -47 16 -47 43c0 9 2 18 9 29c16 26 22 32 22 76v28c0 31 26 46 49 46s46 -16 46 -47v-22zM151 628c0 -85 -34 -153 -78 -153c-24 0 -48 16 -48 43c0 9 2 18 9 29c16 26 22 32 22 76v28c0 31 26 46 49 46s46 -16 46 -47v-22z" />
    <glyph glyph-name="quoteleft" unicode="&#x2018;" horiz-adv-x="168" 
d="M147 654c0 -9 -2 -18 -9 -29c-16 -26 -22 -33 -22 -76v-28c0 -31 -26 -46 -49 -46s-46 16 -46 47v23c0 84 36 152 78 152c25 0 48 -16 48 -43z" />
    <glyph glyph-name="quoteright" unicode="&#x2019;" horiz-adv-x="168" 
d="M147 628c0 -85 -36 -153 -78 -153c-25 0 -48 16 -48 43c0 9 3 18 9 29c16 26 22 32 22 76v28c0 31 26 46 49 46s46 -16 46 -47v-22z" />
    <glyph glyph-name="divide" unicode="&#xf7;" horiz-adv-x="432" 
d="M266 445c0 -32 -24 -48 -48 -48s-47 16 -47 48v22c0 32 23 48 47 48s48 -16 48 -48v-22zM396 267c0 -23 -16 -47 -48 -47h-264c-32 0 -48 24 -48 47c0 24 16 48 48 48h264c32 0 48 -24 48 -48zM266 69c0 -32 -24 -48 -48 -48s-47 16 -47 48v22c0 32 23 48 47 48
s48 -16 48 -48v-22z" />
    <glyph glyph-name="lozenge" unicode="&#x25ca;" horiz-adv-x="549" 
d="M523 362c0 -16 -4 -28 -13 -37l-199 -200c-8 -8 -20 -12 -37 -12c-15 0 -27 4 -35 12l-203 201c-7 7 -11 20 -11 36s4 28 11 35l203 202c8 8 20 12 35 12c17 0 29 -4 37 -12l199 -201c9 -9 13 -21 13 -36zM430 362l-156 155l-156 -155l156 -155z" />
    <glyph glyph-name="ydieresis" unicode="&#xff;" horiz-adv-x="415" 
d="M343 628c0 -31 -24 -47 -47 -47c-24 0 -48 16 -48 47v21c0 32 24 48 48 48c23 0 47 -16 47 -48v-21zM168 628c0 -31 -24 -47 -48 -47c-23 0 -47 16 -47 47v21c0 32 24 48 47 48c24 0 48 -16 48 -48v-21zM386 442c0 -5 -2 -11 -3 -16l-176 -541
c-27 -83 -78 -100 -123 -100c-44 0 -54 21 -54 48c0 25 10 47 51 47c23 0 34 19 43 47l44 129l-128 368c-2 6 -3 12 -3 18c0 27 20 46 49 46c19 0 36 -9 44 -32l86 -245l77 244c7 23 25 33 44 33c28 0 49 -21 49 -46z" />
    <glyph glyph-name="Ydieresis" unicode="&#x178;" horiz-adv-x="474" 
d="M372 827c0 -31 -24 -47 -47 -47c-24 0 -48 16 -48 47v21c0 32 24 49 48 49c23 0 47 -17 47 -49v-21zM197 827c0 -31 -24 -47 -48 -47c-23 0 -47 16 -47 47v21c0 32 24 48 47 48c24 0 48 -16 48 -48v-21zM440 649c0 -7 -1 -12 -4 -19l-151 -363v-225
c0 -32 -24 -47 -48 -47s-48 15 -48 47v225l-151 363c-3 5 -4 12 -4 19c0 27 19 48 50 48c17 0 34 -9 43 -30l110 -265l110 265c9 21 26 30 43 30c31 0 50 -21 50 -48z" />
    <glyph glyph-name="fraction" unicode="&#x2044;" horiz-adv-x="399" 
d="M369 649c0 -7 -1 -14 -4 -19l-246 -606c-8 -21 -25 -29 -44 -29c-29 0 -50 20 -50 47c0 7 1 12 4 19l246 606c9 21 25 30 44 30c29 0 50 -21 50 -48z" />
    <glyph glyph-name="Euro" unicode="&#x20ac;" horiz-adv-x="580" 
d="M538 161c0 -98 -98 -166 -194 -166h-9c-108 0 -195 85 -195 194v38h-54c-32 0 -48 24 -48 47c0 24 16 48 48 48h54v40h-54c-32 0 -48 24 -48 47c0 24 16 48 48 48h54v49c0 108 87 191 195 191h9c96 0 194 -70 194 -167v-3c0 -31 -18 -52 -49 -52c-27 0 -42 16 -47 41
c-11 49 -46 86 -98 86h-9c-56 0 -99 -46 -99 -99v-46h103c32 0 48 -24 48 -48c0 -23 -16 -47 -48 -47h-103v-40h103c32 0 48 -24 48 -48c0 -23 -16 -47 -48 -47h-103v-42c0 -56 44 -96 99 -96h9c52 0 87 37 98 86c5 25 20 41 47 41c31 0 49 -21 49 -52v-3z" />
    <glyph glyph-name="guilsinglleft" unicode="&#x2039;" horiz-adv-x="357" 
d="M294 101c0 -15 -3 -25 -14 -36c-9 -9 -21 -14 -35 -14s-25 7 -37 18l-150 148c-13 13 -16 31 -16 43s3 30 16 43l150 148c12 11 23 18 37 18c29 0 49 -21 49 -50c0 -15 -8 -26 -19 -37l-123 -122l123 -122c11 -11 19 -22 19 -37z" />
    <glyph glyph-name="guilsinglright" unicode="&#x203a;" horiz-adv-x="357" 
d="M315 260c0 -12 -3 -31 -16 -43l-150 -148c-11 -11 -21 -18 -36 -18s-26 3 -37 14c-11 12 -13 23 -13 36c0 15 7 26 18 37l124 122l-124 122c-11 11 -18 22 -18 37c0 31 19 50 50 50c15 0 25 -7 36 -18l150 -148c13 -12 16 -31 16 -43z" />
    <glyph glyph-name="fi" unicode="&#xfb01;" horiz-adv-x="548" 
d="M476 628c0 -31 -24 -47 -48 -47s-48 16 -48 47v21c0 32 24 48 48 48s48 -16 48 -48v-21zM476 42c0 -32 -25 -47 -49 -47s-47 15 -47 47v348h-189v-348c0 -32 -24 -47 -48 -47s-48 15 -48 47v348h-9c-32 0 -48 24 -48 48c0 23 16 47 48 47h9v75c0 76 47 137 135 137
c31 0 47 -24 47 -48c0 -23 -16 -47 -47 -47c-24 0 -39 -19 -39 -43v-74h238c27 0 47 -21 47 -48v-395z" />
    <glyph glyph-name="fl" unicode="&#xfb02;" horiz-adv-x="606" 
d="M572 45c0 -24 -16 -47 -47 -47c-76 0 -137 36 -137 136v468h-159c-24 0 -39 -19 -39 -43v-74h34c32 0 47 -24 47 -48c0 -23 -15 -47 -47 -47h-34v-348c0 -32 -24 -47 -48 -47s-47 15 -47 47v348h-10c-31 0 -47 24 -47 48c0 23 16 47 47 47h10v75c0 76 46 137 134 137h207
c24 0 48 -16 48 -47v-516c0 -23 17 -42 41 -42c31 0 47 -24 47 -47z" />
    <glyph glyph-name="daggerdbl" unicode="&#x2021;" horiz-adv-x="457" 
d="M414 225c0 -24 -16 -47 -48 -47h-85v-136c0 -32 -24 -47 -48 -47s-48 15 -48 47v136h-95c-32 0 -48 23 -48 47s16 48 48 48h95v145h-95c-32 0 -48 24 -48 48s16 47 48 47h95v136c0 32 24 48 48 48s48 -16 48 -48v-136h85c32 0 48 -23 48 -47s-16 -48 -48 -48h-85v-145h85
c32 0 48 -24 48 -48z" />
    <glyph glyph-name="periodcentered" unicode="&#xb7;" horiz-adv-x="181" 
d="M138 339c0 -32 -24 -48 -48 -48s-48 16 -48 48v22c0 32 24 48 48 48s48 -16 48 -48v-22z" />
    <glyph glyph-name="quotesinglbase" unicode="&#x201a;" horiz-adv-x="168" 
d="M147 20c0 -84 -36 -152 -78 -152c-25 0 -48 16 -48 43c0 8 3 18 9 29c16 26 22 33 22 75v43c0 31 26 46 49 46s46 -16 46 -47v-37z" />
    <glyph glyph-name="quotedblbase" unicode="&#x201e;" horiz-adv-x="323" 
d="M297 20c0 -84 -34 -152 -78 -152c-24 0 -47 16 -47 43c0 9 2 18 9 29c16 26 21 33 21 75v43c0 31 27 46 50 46s45 -16 45 -47v-37zM150 20c0 -84 -34 -152 -78 -152c-24 0 -47 16 -47 43c0 9 1 18 8 29c16 26 22 33 22 75v43c0 31 26 46 49 46c24 0 46 -16 46 -47v-37z
" />
    <glyph glyph-name="perthousand" unicode="&#x2030;" horiz-adv-x="993" 
d="M947 117c0 -68 -51 -122 -120 -122s-121 54 -121 122v129c0 67 52 124 121 124s120 -57 120 -124v-129zM675 117c0 -68 -51 -122 -120 -122s-121 54 -121 122v129c0 67 52 124 121 124s120 -57 120 -124v-129zM534 650c0 -7 -1 -13 -4 -20l-251 -606
c-9 -21 -24 -29 -43 -29c-29 0 -50 21 -50 46c0 7 1 13 4 20l251 606c9 21 26 30 43 30c31 0 50 -22 50 -47zM288 444c0 -67 -51 -123 -120 -123s-121 56 -121 123v128c0 67 52 125 121 125s120 -58 120 -125v-128zM852 117v129c0 17 -13 29 -25 29c-11 0 -25 -12 -25 -29
v-129c0 -17 14 -28 25 -28c12 0 25 11 25 28zM580 117v129c0 17 -13 29 -25 29s-25 -12 -25 -29v-129c0 -17 13 -28 25 -28s25 11 25 28zM193 444v128c0 19 -13 30 -25 30s-25 -11 -25 -30v-128c0 -19 13 -28 25 -28s25 9 25 28z" />
    <glyph glyph-name="Acircumflex" unicode="&#xc2;" horiz-adv-x="545" 
d="M424 787c0 -25 -23 -50 -50 -50c-8 0 -18 3 -29 10l-76 50l-68 -50c-9 -7 -18 -10 -29 -10c-28 0 -52 25 -52 52c0 13 6 25 19 34l85 60c13 9 28 14 45 14s32 -5 47 -15l88 -59c16 -11 20 -23 20 -36zM519 40c0 -27 -20 -45 -49 -45c-19 0 -38 10 -46 34l-41 132h-222
l-40 -132c-7 -24 -28 -34 -47 -34c-29 0 -49 19 -49 44c0 4 1 9 2 16l190 604c8 25 32 38 55 38c24 0 47 -11 55 -38l190 -604c1 -7 2 -12 2 -15zM353 256l-81 265l-81 -265h162z" />
    <glyph glyph-name="Ecircumflex" unicode="&#xca;" horiz-adv-x="502" 
d="M427 786c0 -25 -23 -50 -50 -50c-9 0 -18 3 -29 10l-76 50l-68 -50c-10 -7 -20 -10 -29 -10c-28 0 -52 25 -52 52c0 12 7 26 19 34l85 60c15 10 30 15 45 15s31 -5 47 -16l88 -59c15 -10 20 -23 20 -36zM476 47c0 -23 -16 -47 -48 -47h-304c-25 0 -48 23 -48 48v595
c0 25 23 48 48 48h304c32 0 48 -24 48 -48c0 -23 -16 -47 -48 -47h-256v-193h174c32 0 48 -23 48 -47s-16 -48 -48 -48h-174v-213h256c32 0 48 -24 48 -48z" />
    <glyph glyph-name="Aacute" unicode="&#xc1;" horiz-adv-x="545" 
d="M400 847c0 -16 -8 -32 -27 -41l-161 -76c-8 -4 -15 -5 -22 -5c-27 0 -46 24 -46 49c0 16 9 33 28 42l160 76c8 4 15 5 22 5c27 0 46 -25 46 -50zM519 40c0 -27 -20 -45 -49 -45c-19 0 -38 10 -46 34l-41 132h-222l-40 -132c-7 -24 -28 -34 -47 -34c-29 0 -49 19 -49 44
c0 4 1 9 2 16l190 604c8 25 32 38 55 38c24 0 47 -11 55 -38l190 -604c1 -7 2 -12 2 -15zM353 256l-81 265l-81 -265h162z" />
    <glyph glyph-name="Edieresis" unicode="&#xcb;" horiz-adv-x="502" 
d="M415 827c0 -31 -24 -47 -47 -47c-24 0 -48 16 -48 47v21c0 32 24 49 48 49c23 0 47 -17 47 -49v-21zM240 827c0 -31 -24 -47 -48 -47c-23 0 -47 16 -47 47v21c0 32 24 48 47 48c24 0 48 -16 48 -48v-21zM476 47c0 -23 -16 -47 -48 -47h-304c-25 0 -48 23 -48 48v595
c0 25 23 48 48 48h304c32 0 48 -24 48 -48c0 -23 -16 -47 -48 -47h-256v-193h174c32 0 48 -23 48 -47s-16 -48 -48 -48h-174v-213h256c32 0 48 -24 48 -48z" />
    <glyph glyph-name="Egrave" unicode="&#xc8;" horiz-adv-x="502" 
d="M394 780c0 -25 -19 -50 -46 -50c-6 0 -13 1 -21 5l-149 70c-21 10 -28 26 -28 42c0 24 18 49 45 50c7 0 15 -3 22 -6l149 -69c20 -9 28 -26 28 -42zM476 47c0 -23 -16 -47 -48 -47h-304c-25 0 -48 23 -48 48v595c0 25 23 48 48 48h304c32 0 48 -24 48 -48
c0 -23 -16 -47 -48 -47h-256v-193h174c32 0 48 -23 48 -47s-16 -48 -48 -48h-174v-213h256c32 0 48 -24 48 -48z" />
    <glyph glyph-name="Iacute" unicode="&#xcd;" horiz-adv-x="265" 
d="M261 847c0 -16 -8 -32 -27 -41l-161 -76c-8 -4 -15 -5 -22 -5c-27 0 -46 24 -46 49c0 16 8 33 28 42l160 76c8 4 15 5 22 5c27 0 46 -25 46 -50zM181 42c0 -32 -24 -47 -48 -47s-48 15 -48 47v607c0 32 24 48 48 48s48 -16 48 -48v-607z" />
    <glyph glyph-name="Icircumflex" unicode="&#xce;" horiz-adv-x="265" 
d="M284 786c0 -25 -23 -50 -50 -50c-9 0 -18 3 -29 10l-76 50l-68 -50c-10 -7 -20 -10 -29 -10c-28 0 -51 25 -51 52c0 12 6 26 18 34l85 60c13 9 29 15 45 15s31 -5 47 -16l88 -59c15 -10 20 -23 20 -36zM180 42c0 -32 -24 -47 -48 -47s-48 15 -48 47v607c0 32 24 48 48 48
s48 -16 48 -48v-607z" />
    <glyph glyph-name="Idieresis" unicode="&#xcf;" horiz-adv-x="265" 
d="M267 827c0 -31 -24 -47 -47 -47c-24 0 -48 16 -48 47v21c0 32 24 49 48 49c23 0 47 -17 47 -49v-21zM92 827c0 -31 -24 -47 -48 -47c-23 0 -47 16 -47 47v21c0 32 24 48 47 48c24 0 48 -16 48 -48v-21zM180 42c0 -32 -24 -47 -48 -47s-48 15 -48 47v607c0 32 24 48 48 48
s48 -16 48 -48v-607z" />
    <glyph glyph-name="Igrave" unicode="&#xcc;" horiz-adv-x="265" 
d="M255 780c0 -25 -19 -50 -46 -50c-6 0 -13 1 -21 5l-149 70c-21 10 -28 26 -28 42c0 24 18 49 45 50c7 0 15 -3 22 -6l149 -69c20 -9 28 -26 28 -42zM181 42c0 -32 -24 -47 -48 -47s-48 15 -48 47v607c0 32 24 48 48 48s48 -16 48 -48v-607z" />
    <glyph glyph-name="Oacute" unicode="&#xd3;" horiz-adv-x="527" 
d="M391 847c0 -16 -8 -32 -27 -41l-161 -76c-7 -3 -14 -5 -22 -5c-27 0 -46 24 -46 49c0 16 9 33 28 42l160 76c8 4 15 5 22 5c27 0 46 -25 46 -50zM463 186c0 -109 -87 -191 -195 -191h-10c-107 0 -195 82 -195 191v320c0 108 88 191 196 191h9c108 0 195 -83 195 -191
v-320zM367 186v320c0 56 -44 96 -99 96h-10c-55 0 -99 -41 -99 -96v-320c0 -56 44 -97 99 -97h10c55 0 99 41 99 97z" />
    <glyph glyph-name="Ocircumflex" unicode="&#xd4;" horiz-adv-x="527" 
d="M415 787c0 -25 -23 -50 -50 -50c-8 0 -18 3 -29 10l-76 50l-68 -50c-9 -7 -18 -10 -29 -10c-28 0 -52 25 -52 52c0 13 6 25 19 34l85 60c13 9 28 14 45 14s32 -5 47 -15l88 -59c16 -11 20 -23 20 -36zM463 186c0 -109 -87 -191 -195 -191h-10c-107 0 -195 82 -195 191
v320c0 108 88 191 196 191h9c108 0 195 -83 195 -191v-320zM367 186v320c0 56 -44 96 -99 96h-10c-55 0 -99 -41 -99 -96v-320c0 -56 44 -97 99 -97h10c55 0 99 41 99 97z" />
    <glyph glyph-name="apple" horiz-adv-x="588" 
d="M539 364c0 -54 -39 -94 -93 -94h-72c11 -15 17 -35 17 -54c0 -54 -39 -93 -93 -93h-249v248c0 54 39 94 93 94c20 0 39 -6 55 -17v71c0 54 39 94 93 94s93 -40 93 -94v-62h63c54 0 93 -40 93 -93zM522 364c0 45 -31 76 -76 76h-79v79c0 45 -32 77 -77 77s-76 -32 -76 -77
v-232h232c45 0 76 32 76 77z" />
    <glyph glyph-name="Ograve" unicode="&#xd2;" horiz-adv-x="527" 
d="M385 780c0 -25 -19 -50 -46 -50c-6 0 -13 1 -21 5l-149 70c-21 10 -28 26 -28 42c0 24 18 49 45 50c7 0 15 -3 22 -6l149 -69c20 -9 28 -26 28 -42zM463 186c0 -109 -87 -191 -195 -191h-10c-107 0 -195 82 -195 191v320c0 108 88 191 196 191h9c108 0 195 -83 195 -191
v-320zM367 186v320c0 56 -44 96 -99 96h-10c-55 0 -99 -41 -99 -96v-320c0 -56 44 -97 99 -97h10c55 0 99 41 99 97z" />
    <glyph glyph-name="Uacute" unicode="&#xda;" horiz-adv-x="552" 
d="M404 847c0 -16 -8 -32 -27 -41l-161 -76c-8 -4 -15 -5 -22 -5c-27 0 -46 24 -46 49c0 16 8 33 28 42l160 76c8 4 15 5 22 5c27 0 46 -25 46 -50zM476 189c0 -108 -87 -194 -195 -194h-10c-107 0 -195 86 -195 194v460c0 32 24 48 48 48s48 -16 48 -48v-460
c0 -53 45 -99 100 -99h9c53 0 99 46 99 99v460c0 32 24 48 48 48s48 -16 48 -48v-460z" />
    <glyph glyph-name="Ucircumflex" unicode="&#xdb;" horiz-adv-x="552" 
d="M428 786c0 -25 -23 -50 -50 -50c-9 0 -18 3 -29 10l-76 50l-68 -50c-10 -7 -20 -10 -29 -10c-28 0 -52 25 -52 52c0 12 7 26 19 34l85 60c15 10 30 15 45 15s31 -5 47 -16l88 -59c15 -10 20 -23 20 -36zM476 189c0 -108 -87 -194 -195 -194h-10c-107 0 -195 86 -195 194
v460c0 32 24 48 48 48s48 -16 48 -48v-460c0 -53 45 -99 100 -99h9c53 0 99 46 99 99v460c0 32 24 48 48 48s48 -16 48 -48v-460z" />
    <glyph glyph-name="Ugrave" unicode="&#xd9;" horiz-adv-x="552" 
d="M398 780c0 -25 -19 -50 -46 -50c-6 0 -13 1 -21 5l-149 70c-21 10 -28 26 -28 42c0 24 18 49 45 50c7 0 15 -3 22 -6l149 -69c20 -9 28 -26 28 -42zM476 189c0 -108 -87 -194 -195 -194h-10c-107 0 -195 86 -195 194v460c0 32 24 48 48 48s48 -16 48 -48v-460
c0 -53 45 -99 100 -99h9c53 0 99 46 99 99v460c0 32 24 48 48 48s48 -16 48 -48v-460z" />
    <glyph glyph-name="dotlessi" unicode="&#x131;" horiz-adv-x="240" 
d="M168 42c0 -32 -25 -47 -48 -47c-24 0 -48 15 -48 47v398c0 32 24 48 48 48c23 0 48 -16 48 -48v-398z" />
    <glyph glyph-name="circumflex" unicode="&#x2c6;" horiz-adv-x="436" 
d="M370 587c0 -25 -23 -50 -50 -50c-10 0 -19 4 -29 10l-76 50l-68 -50c-9 -7 -18 -10 -29 -10c-28 0 -52 25 -52 52c0 12 6 25 19 34l85 60c13 9 28 14 45 14s32 -5 47 -15l88 -59c13 -9 20 -21 20 -36z" />
    <glyph glyph-name="tilde" unicode="&#x2dc;" horiz-adv-x="448" 
d="M416 652c0 -32 -39 -80 -131 -80c-51 0 -88 30 -134 30c-25 0 -54 -30 -72 -30c-28 0 -47 25 -47 50c0 46 61 75 117 75s98 -30 138 -30c31 0 53 30 82 30c27 0 47 -21 47 -45z" />
    <glyph glyph-name="macron" unicode="&#xaf;" horiz-adv-x="443" 
d="M397 649c0 -23 -16 -47 -48 -47h-253c-33 0 -49 24 -49 48c0 23 16 47 48 47h253c33 0 49 -24 49 -48z" />
    <glyph glyph-name="breve" unicode="&#x2d8;" horiz-adv-x="427" 
d="M338 649c0 -67 -54 -121 -121 -121h-6c-67 0 -121 54 -121 121c0 32 24 48 47 48s49 -16 49 -48c0 -15 10 -26 25 -26h6c15 0 27 11 27 26c0 32 24 48 47 48s47 -16 47 -48z" />
    <glyph glyph-name="dotaccent" unicode="&#x2d9;" horiz-adv-x="404" 
d="M250 627c0 -32 -24 -48 -48 -48s-48 16 -48 48v22c0 32 24 48 48 48s48 -16 48 -48v-22z" />
    <glyph glyph-name="ring" unicode="&#x2da;" horiz-adv-x="418" 
d="M302 630c0 -51 -42 -93 -93 -93s-93 42 -93 93s42 93 93 93s93 -42 93 -93zM238 629c0 19 -14 31 -29 31c-16 0 -29 -12 -29 -31c0 -15 13 -28 29 -28c15 0 29 13 29 28z" />
    <glyph glyph-name="cedilla" unicode="&#xb8;" horiz-adv-x="418" 
d="M303 -106c0 -49 -39 -90 -90 -90h-10c-42 0 -88 34 -88 77c0 23 19 37 39 37c40 0 28 -38 49 -38h10c8 0 14 7 14 14v10c0 8 -6 15 -14 15h-4c-21 0 -38 17 -38 38v94c0 25 19 38 38 38s38 -13 38 -38v-63c33 -13 56 -45 56 -84v-10z" />
    <glyph glyph-name="hungarumlaut" unicode="&#x2dd;" horiz-adv-x="443" 
d="M395 649c0 -87 -25 -126 -109 -158c-6 -2 -12 -3 -19 -3c-28 0 -47 24 -47 49c0 19 11 32 33 43c42 20 46 23 46 69c0 32 24 48 49 48c24 0 47 -16 47 -48zM222 649c0 -87 -25 -126 -110 -158c-6 -2 -12 -3 -18 -3c-29 0 -47 24 -47 49c0 19 11 33 32 43
c43 21 47 23 47 69c0 32 24 48 48 48s48 -16 48 -48z" />
    <glyph glyph-name="ogonek" unicode="&#x2db;" horiz-adv-x="420" 
d="M311 -65c0 -53 -61 -81 -107 -81c-52 0 -95 43 -95 95v14c0 67 90 115 148 115c23 0 41 -20 41 -43s-14 -35 -37 -40c-13 -3 -66 -18 -66 -36c0 -11 5 -21 17 -21c21 0 30 36 59 36c23 0 40 -16 40 -39z" />
    <glyph glyph-name="caron" unicode="&#x2c7;" horiz-adv-x="436" 
d="M370 645c0 -15 -6 -26 -19 -35l-85 -59c-13 -9 -28 -14 -45 -14s-33 5 -47 14l-88 59c-15 10 -20 24 -20 36c0 27 23 51 50 51c8 0 18 -3 29 -10l76 -51l68 51c9 7 18 10 29 10c28 0 52 -25 52 -52z" />
    <glyph glyph-name="currency" unicode="&#xa4;" horiz-adv-x="588" 
d="M539 364c0 -54 -39 -94 -93 -94h-72c11 -15 17 -35 17 -54c0 -54 -39 -93 -93 -93h-249v248c0 54 39 94 93 94c20 0 39 -6 55 -17v71c0 54 39 94 93 94s93 -40 93 -94v-62h63c54 0 93 -40 93 -93zM522 364c0 45 -31 76 -76 76h-79v79c0 45 -32 77 -77 77s-76 -32 -76 -77
v-232h232c45 0 76 32 76 77z" />
  </font>
</defs>
</svg>
