<?xml version="1.0" standalone="no"?>
<!DOCTYPE svg PUBLIC "-//W3C//DTD SVG 1.1//EN" "http://www.w3.org/Graphics/SVG/1.1/DTD/svg11.dtd">
<svg width="100%" height="100%" viewBox="0 0 655 448" version="1.1" xmlns="http://www.w3.org/2000/svg" xmlns:xlink="http://www.w3.org/1999/xlink" xml:space="preserve" style="fill-rule:evenodd;clip-rule:evenodd;stroke-linejoin:round;stroke-miterlimit:1.41421;">
    <g transform="matrix(1,0,0,1,-823.924,-526.905)">
        <g transform="matrix(3.59684,0,0,3.59684,0,0)">
            <path d="M265.059,211.362L231.771,211.362C229.993,211.362 229.069,210.011 229.069,208.659C229.069,207.308 229.993,205.956 231.771,205.956L265.059,205.956C266.979,205.956 267.762,207.308 267.762,208.659C267.762,210.011 266.979,211.362 265.059,211.362" style="fill:rgb(35,31,32);fill-rule:nonzero;"/>
        </g>
        <g transform="matrix(3.59684,0,0,3.59684,0,0)">
            <path d="M253.509,172.239C253.509,168.896 250.664,166.762 247.463,166.762L246.823,166.762C243.409,166.762 240.706,169.465 240.706,172.808L240.706,185.042C240.706,188.385 243.409,191.087 246.752,191.087L247.463,191.087C250.664,191.087 253.509,188.954 253.509,185.468L253.509,172.239ZM256.212,196.422C255.003,196.422 253.794,195.782 253.58,194.359C252.513,195.426 250.522,196.422 247.463,196.422L246.823,196.422C240.35,196.422 235.3,191.443 235.3,185.042L235.3,172.808C235.3,166.478 240.35,161.356 246.823,161.356L247.321,161.356C249.81,161.356 252.3,162.21 253.509,163.704L253.509,149.194C253.509,147.416 254.86,146.491 256.212,146.491C257.563,146.491 258.915,147.416 258.915,149.194L258.915,193.933C258.915,195.64 257.563,196.422 256.212,196.422" style="fill:rgb(35,31,32);fill-rule:nonzero;"/>
        </g>
        <g transform="matrix(3.59684,0,0,3.59684,0,0)">
            <path d="M253.634,247.301C253.634,243.958 250.931,241.256 247.517,241.256L246.877,241.256C243.676,241.256 240.831,243.389 240.831,246.732L240.831,259.962C240.831,263.447 243.676,265.581 246.877,265.581L247.517,265.581C250.931,265.581 253.634,262.878 253.634,259.535L253.634,247.301ZM247.517,270.916L246.877,270.916C243.818,270.916 241.827,269.92 240.76,268.853C240.547,270.275 239.337,270.916 238.128,270.916C236.777,270.916 235.425,270.133 235.425,268.426L235.425,223.687C235.425,221.909 236.777,220.984 238.128,220.984C239.479,220.984 240.831,221.909 240.831,223.687L240.831,238.197C242.04,236.704 244.53,235.85 247.019,235.85L247.517,235.85C253.989,235.85 259.039,240.971 259.039,247.301L259.039,259.535C259.039,265.937 253.776,270.916 247.517,270.916" style="fill:rgb(35,31,32);fill-rule:nonzero;"/>
        </g>
        <g transform="matrix(3.59684,0,0,3.59684,0,0)">
            <path d="M302.028,211.288L294.573,211.288L294.573,218.742C294.573,220.517 293.225,221.439 291.876,221.439C290.528,221.439 289.179,220.517 289.179,218.742L289.179,211.288L281.725,211.288C279.951,211.288 279.028,209.939 279.028,208.59C279.028,207.242 279.951,205.893 281.725,205.893L289.179,205.893L289.179,198.44C289.179,196.665 290.528,195.742 291.876,195.742C293.225,195.742 294.573,196.665 294.573,198.44L294.573,205.893L302.028,205.893C303.802,205.893 304.725,207.242 304.725,208.59C304.725,209.939 303.802,211.288 302.028,211.288" style="fill:white;fill-rule:nonzero;"/>
        </g>
        <g transform="matrix(3.59684,0,0,3.59684,0,0)">
            <path d="M329.944,173.59C329.279,173.59 328.655,173.877 328.089,174.443C320.777,182.019 316.051,195.488 316.051,208.753C316.051,222.628 320.87,236.188 328.326,243.3C328.876,243.85 329.484,244.126 330.135,244.126C330.797,244.126 331.505,243.824 332.077,243.296C332.643,242.806 332.961,242.198 332.984,241.578C333.007,240.939 332.718,240.299 332.149,239.73C326.747,234.564 321.291,222.978 321.291,208.753C321.291,194.799 326.622,183.221 331.905,177.937C332.429,177.414 332.699,176.801 332.687,176.168C332.674,175.515 332.363,174.861 331.834,174.372C331.246,173.863 330.59,173.59 329.944,173.59" style="fill:white;fill-rule:nonzero;"/>
        </g>
        <g transform="matrix(3.59684,0,0,3.59684,0,0)">
            <path d="M347.342,227.899L346.632,227.899C340.314,227.899 335.203,222.93 335.203,216.542L335.203,204.332C335.203,197.873 340.386,192.904 346.632,192.904L347.342,192.904C353.589,192.904 358.77,198.014 358.77,204.332C358.77,206.107 357.422,207.03 356.073,207.03C354.724,207.03 353.446,206.178 353.376,204.403C353.163,200.783 350.678,198.298 347.342,198.298L346.632,198.298C343.296,198.298 340.598,200.996 340.598,204.332L340.598,216.542C340.598,219.878 343.296,222.575 346.703,222.575L347.342,222.575C350.678,222.575 353.163,219.878 353.376,216.542C353.446,214.625 354.724,213.773 356.073,213.773C357.422,213.773 358.77,214.625 358.77,216.542C358.77,222.93 353.66,227.899 347.342,227.899" style="fill:white;fill-rule:nonzero;"/>
        </g>
        <g transform="matrix(3.59684,0,0,3.59684,0,0)">
            <path d="M385.037,204.332C385.037,200.996 382.34,198.298 379.003,198.298L378.293,198.298C374.957,198.298 372.26,200.996 372.26,204.332L372.26,216.541C372.26,219.877 374.957,222.575 378.364,222.575L379.003,222.575C382.34,222.575 385.037,219.877 385.037,216.541L385.037,204.332ZM379.003,227.899L378.293,227.899C371.976,227.899 366.865,222.93 366.865,216.541L366.865,204.332C366.865,198.014 371.976,192.904 378.293,192.904L379.003,192.904C385.321,192.904 390.432,198.014 390.432,204.332L390.432,216.541C390.432,222.93 385.321,227.899 379.003,227.899" style="fill:white;fill-rule:nonzero;"/>
        </g>
        <g transform="matrix(3.59684,0,0,3.59684,0,0)">
            <path d="M397.037,173.59C396.392,173.59 395.735,173.863 395.141,174.378C394.619,174.861 394.308,175.515 394.295,176.168C394.282,176.802 394.553,177.414 395.076,177.937C400.356,182.991 405.69,194.483 405.69,208.753C405.69,222.979 400.234,234.565 394.827,239.735C393.546,241.017 394.031,242.421 394.914,243.305C396.24,244.36 397.543,244.411 398.651,243.305C406.113,236.188 410.931,222.628 410.931,208.753C410.931,195.224 406.206,181.757 398.893,174.443C398.327,173.877 397.703,173.59 397.037,173.59" style="fill:white;fill-rule:nonzero;"/>
        </g>
    </g>
</svg>
