<?xml version="1.0" standalone="no"?>
<!DOCTYPE svg PUBLIC "-//W3C//DTD SVG 1.1//EN" "http://www.w3.org/Graphics/SVG/1.1/DTD/svg11.dtd" >
<svg xmlns="http://www.w3.org/2000/svg" width="100%" height="100%">
<metadata>
Created by FontXChange 20110222 at Sun Mar  8 16:27:09 2015
 By Mitchell Warren
Copyright (c) Cornel Windlin, Gilles Gavillet. www.lineto.com, 2001. All rights reserved.
</metadata>
<defs>
<font id="Gravur-CondensedLight" horiz-adv-x="485" >
  <font-face 
    font-family="Gravur"
    font-weight="200"
    font-stretch="condensed"
    units-per-em="1000"
    panose-1="2 0 3 6 0 0 0 0 0 0"
    ascent="800"
    descent="-200"
    x-height="482"
    cap-height="697"
    bbox="-22 -215 916 900"
    underline-thickness="0"
    underline-position="0"
    stemh=" 49 "
    stemv=" 49 "
    unicode-range="U+0020-FB02"
  />
<missing-glyph horiz-adv-x="588" 
d="M88 698v-698h412v698h-412zM425 74h-262v549h262v-549z" />
    <glyph glyph-name=".notdef" horiz-adv-x="588" 
d="M88 698v-698h412v698h-412zM425 74h-262v549h262v-549z" />
    <glyph glyph-name=".notdef" unicode="&#xfffd;" horiz-adv-x="588" 
d="M88 698v-698h412v698h-412zM425 74h-262v549h262v-549z" />
    <glyph glyph-name="space" unicode=" " horiz-adv-x="360" 
 />
    <glyph glyph-name="Eth" unicode="&#xd0;" horiz-adv-x="569" 
d="M482 183c0 -101 -82 -183 -183 -183h-169c-13 0 -25 10 -25 25v332h-42c-16 0 -25 12 -25 24c0 13 9 25 25 25h42v260c0 15 12 25 25 25h169c101 0 183 -81 183 -182v-326zM432 183v325c0 75 -60 134 -133 134h-145v-236h131c17 0 25 -12 25 -25c0 -12 -8 -24 -25 -24
h-131v-308h145c73 0 133 59 133 134z" />
    <glyph glyph-name="eth" unicode="&#xf0;" horiz-adv-x="541" 
d="M439 671c0 -7 -4 -14 -11 -19l-51 -35c11 -21 17 -46 17 -74v-396c0 -86 -69 -152 -154 -152h-11c-85 0 -154 66 -154 152v129c0 85 69 154 154 154h11c41 0 77 -14 105 -41v154c0 15 -3 29 -10 44l-85 -59c-5 -3 -10 -5 -14 -5c-15 0 -25 13 -25 26c0 7 2 13 11 20
l82 57c-19 15 -40 22 -64 22h-63c-17 0 -25 12 -25 24c0 13 8 25 25 25h63c43 0 81 -15 108 -40l51 35c5 3 10 5 15 5c13 0 25 -13 25 -26zM345 147v129c0 59 -46 105 -105 105h-11c-57 0 -104 -46 -104 -105v-129c0 -59 47 -104 104 -104h11c59 0 105 45 105 104z" />
    <glyph glyph-name="Lslash" unicode="&#x141;" horiz-adv-x="474" 
d="M439 25c0 -13 -8 -25 -25 -25h-284c-15 0 -25 10 -25 25v248l-48 -29c-5 -3 -9 -4 -13 -4c-15 0 -25 13 -25 26c0 9 4 16 13 21l73 44v341c0 17 12 25 25 25c12 0 24 -8 24 -25v-312l183 109c3 3 8 4 13 4c15 0 24 -13 24 -26c0 -8 -4 -15 -12 -20l-208 -125v-253h260
c17 0 25 -12 25 -24z" />
    <glyph glyph-name="lslash" unicode="&#x142;" horiz-adv-x="324" 
d="M319 445c0 -8 -3 -15 -12 -20l-124 -78v-228c0 -42 29 -76 74 -76c17 0 26 -12 26 -24c0 -13 -9 -25 -26 -25c-81 0 -124 56 -124 125v197l-90 -55c-4 -3 -9 -4 -13 -4c-14 0 -25 13 -25 26c0 7 3 15 12 20l116 71v298c0 17 13 25 25 25c13 0 25 -8 25 -24v-268l98 62
c5 3 9 4 13 4c14 0 25 -13 25 -26z" />
    <glyph glyph-name="Scaron" unicode="&#x160;" horiz-adv-x="499" 
d="M365 872c0 -8 -4 -14 -11 -19l-78 -53c-11 -8 -16 -11 -27 -11s-16 3 -27 10l-78 53c-7 5 -11 12 -11 19c0 12 11 26 24 26c4 0 9 -2 14 -5l78 -52l78 51c5 4 10 6 14 6c13 0 24 -13 24 -25zM440 167c0 -105 -82 -172 -188 -172h-10c-100 0 -184 66 -184 182
c0 17 12 25 25 25s25 -8 25 -25c0 -84 59 -133 134 -133h10c78 0 138 46 138 123c0 202 -321 143 -321 359c0 104 80 171 173 171h10c96 0 175 -56 175 -155c0 -16 -12 -24 -24 -24s-25 8 -25 25c0 68 -54 104 -126 104h-10c-67 0 -124 -46 -124 -122
c0 -169 322 -125 322 -358z" />
    <glyph glyph-name="scaron" unicode="&#x161;" horiz-adv-x="447" 
d="M342 672c0 -8 -4 -14 -11 -19l-78 -53c-11 -7 -16 -10 -27 -10s-16 3 -27 10l-78 53c-7 5 -11 12 -11 19c0 12 11 25 24 25c5 0 9 -2 14 -5l78 -51l78 51c5 3 10 5 14 5c13 0 24 -13 24 -25zM394 136c0 -100 -93 -141 -163 -141h-18c-62 0 -128 38 -158 98
c-1 4 -3 8 -3 11c0 15 14 25 27 25c11 0 18 -5 22 -15c20 -43 69 -71 112 -71h18c68 0 113 44 113 93c0 162 -271 47 -271 232v5c0 67 66 115 152 115h2c84 0 141 -42 141 -65c0 -13 -11 -25 -24 -25c-6 0 -12 2 -17 7c-27 24 -56 34 -100 34h-5c-40 0 -100 -20 -100 -67v-4
c0 -127 272 -29 272 -232z" />
    <glyph glyph-name="Yacute" unicode="&#xdd;" horiz-adv-x="477" 
d="M340 871c0 -9 -5 -16 -15 -21l-163 -77c-5 -1 -9 -2 -12 -2c-13 0 -24 13 -24 26c0 9 5 16 15 21l163 76c4 1 8 3 12 3c12 0 24 -13 24 -26zM431 673c0 -3 -1 -6 -2 -10l-165 -396v-248c0 -17 -13 -24 -25 -24s-25 7 -25 24v248l-165 396c-1 2 -2 5 -2 10
c0 15 13 24 26 24c11 0 18 -5 22 -15l144 -346l144 346c4 10 11 15 22 15c13 0 26 -9 26 -24z" />
    <glyph glyph-name="yacute" unicode="&#xfd;" horiz-adv-x="412" 
d="M307 671c0 -9 -5 -16 -15 -21l-163 -77c-5 -1 -9 -2 -12 -2c-13 0 -24 13 -24 26c0 9 5 16 15 21l163 76c4 2 8 3 12 3c12 0 24 -13 24 -26zM371 464c0 -4 0 -7 -1 -9l-171 -533c-20 -62 -59 -137 -134 -137c-15 0 -24 11 -24 26s9 20 22 23c52 10 72 57 87 103l36 109
l-143 408c-1 3 -1 6 -1 10c0 15 13 24 26 24c9 0 19 -5 23 -17l120 -346l111 345c4 12 12 18 23 18c13 0 26 -9 26 -24z" />
    <glyph glyph-name="Thorn" unicode="&#xde;" horiz-adv-x="481" 
d="M411 289c0 -81 -68 -149 -149 -149h-107v-122c0 -16 -13 -23 -25 -23s-25 7 -25 23v655c0 16 13 24 25 24s25 -8 25 -24v-122h107c81 0 149 -65 149 -146v-116zM361 289v116c0 56 -43 97 -99 97h-107v-313h107c56 0 99 44 99 100z" />
    <glyph glyph-name="thorn" unicode="&#xfe;" horiz-adv-x="486" 
d="M411 141c0 -82 -65 -146 -148 -146h-9c-39 0 -72 12 -99 37v-223c0 -16 -13 -24 -25 -24s-25 8 -25 24v864c0 16 13 24 25 24s25 -8 25 -24v-223c27 25 60 38 99 38h9c83 0 148 -65 148 -147v-200zM361 143v196c0 55 -42 100 -98 100h-9c-56 0 -99 -44 -99 -100v-196
c0 -56 43 -100 99 -100h9c56 0 98 45 98 100z" />
    <glyph glyph-name="Zcaron" unicode="&#x17d;" horiz-adv-x="445" 
d="M339 872c0 -7 -4 -14 -11 -19l-78 -53c-12 -8 -16 -11 -27 -11s-17 3 -27 10l-78 53c-10 6 -12 12 -12 19c0 12 11 26 24 26c4 0 10 -2 14 -5l78 -52l78 51c5 4 10 6 14 6c13 0 25 -13 25 -25zM399 659c0 -7 -1 -11 -8 -26l-285 -584h267c17 0 25 -12 25 -24
s-8 -25 -25 -25h-301c-13 0 -25 14 -25 27v5c0 7 1 11 8 26l285 584h-258c-17 0 -25 13 -25 25s8 24 25 24h292c16 0 25 -14 25 -27v-5z" />
    <glyph glyph-name="zcaron" unicode="&#x17e;" horiz-adv-x="388" 
d="M310 672c0 -8 -4 -14 -11 -19l-78 -53c-11 -7 -16 -10 -27 -10s-16 3 -27 10l-78 53c-7 5 -11 11 -11 19c0 12 11 25 24 25c4 0 9 -2 14 -5l78 -51l78 51c5 3 10 5 14 5c13 0 24 -13 24 -25zM342 25c0 -12 -9 -25 -26 -25h-233c-16 0 -36 4 -36 33c0 15 3 18 14 37
l215 363h-196c-17 0 -25 13 -25 25s8 24 25 24h223c15 0 35 -5 35 -33c0 -15 -4 -21 -11 -32l-220 -368h209c17 0 26 -12 26 -24z" />
    <glyph glyph-name="onehalf" unicode="&#xbd;" horiz-adv-x="850" 
d="M743 25c0 -13 -9 -25 -25 -25h-160c-16 0 -25 16 -25 32c0 6 1 11 4 16l141 233c8 13 10 22 10 33v8c0 23 -21 44 -46 44h-9c-25 0 -45 -20 -45 -45v-6c0 -16 -12 -24 -25 -24c-12 0 -24 8 -24 24v6c0 53 42 94 94 94h9c52 0 95 -41 95 -94v-7c0 -17 -2 -35 -16 -58
l-126 -207h123c16 0 25 -12 25 -24zM612 672c0 -4 -1 -8 -4 -13l-392 -653c-4 -7 -12 -11 -21 -11c-13 0 -26 9 -26 24c0 4 1 8 4 13l392 653c5 8 12 12 21 12c13 0 26 -10 26 -25zM212 307c0 -17 -12 -25 -24 -25c-13 0 -25 8 -25 25v310l-30 -36c-6 -7 -12 -9 -19 -9
c-15 0 -27 11 -27 24c0 6 2 11 6 16l60 68c15 16 16 17 33 17c19 0 26 -11 26 -24v-366z" />
    <glyph glyph-name="onequarter" unicode="&#xbc;" horiz-adv-x="858" 
d="M767 115c0 -12 -8 -25 -25 -25h-55v-71c0 -17 -12 -24 -24 -24c-13 0 -25 7 -25 24v71h-112c-17 0 -27 13 -27 29c0 6 1 12 4 17l128 258c5 10 13 15 22 15c13 0 26 -10 26 -25c0 -3 -1 -7 -3 -10l-117 -234h79v54c0 16 12 25 25 25c12 0 24 -9 24 -25v-54h55
c17 0 25 -13 25 -25zM630 672c0 -4 -1 -8 -4 -13l-392 -653c-5 -8 -13 -11 -20 -11c-13 0 -26 9 -26 24c0 4 1 8 4 13l392 653c5 8 12 12 20 12c13 0 26 -10 26 -25zM212 307c0 -17 -12 -25 -24 -25c-13 0 -25 8 -25 25v310l-30 -36c-6 -7 -12 -9 -19 -9
c-15 0 -27 11 -27 24c0 6 2 11 6 16l60 68c15 16 16 17 33 17c19 0 26 -11 26 -24v-366z" />
    <glyph glyph-name="onesuperior" unicode="&#xb9;" horiz-adv-x="320" 
d="M212 307c0 -17 -12 -25 -24 -25c-13 0 -25 8 -25 25v310l-30 -36c-6 -7 -12 -9 -19 -9c-15 0 -27 11 -27 24c0 6 2 11 6 16l60 68c15 16 16 17 33 17c19 0 26 -11 26 -24v-366z" />
    <glyph glyph-name="threequarters" unicode="&#xbe;" horiz-adv-x="855" 
d="M827 115c0 -12 -8 -25 -25 -25h-55v-71c0 -17 -12 -24 -24 -24c-13 0 -25 7 -25 24v71h-112c-17 0 -27 13 -27 29c0 6 1 12 4 17l128 258c5 10 13 15 22 15c13 0 26 -10 26 -25c0 -3 -1 -7 -3 -10l-117 -234h79v54c0 16 12 25 25 25c12 0 24 -9 24 -25v-54h55
c17 0 25 -13 25 -25zM675 672c0 -4 -1 -8 -4 -13l-392 -653c-5 -8 -13 -11 -21 -11c-13 0 -26 9 -26 24c0 4 1 8 4 13l393 653c5 8 12 12 20 12c13 0 26 -10 26 -25zM286 376c0 -52 -43 -94 -95 -94h-10c-52 0 -94 42 -94 94c0 17 12 25 24 25c13 0 25 -8 25 -25
c0 -25 20 -45 45 -45h10c25 0 45 20 45 45v36c0 52 -20 59 -62 59c-17 0 -25 12 -25 25c0 12 8 24 25 24c31 0 62 2 62 56v27c0 31 -24 45 -48 45c-23 0 -47 -15 -47 -44c0 -17 -12 -25 -24 -25c-13 0 -25 8 -25 25c0 61 49 93 96 93c49 0 98 -31 98 -94v-27
c0 -40 -13 -65 -29 -80c19 -18 29 -46 29 -84v-36z" />
    <glyph glyph-name="threesuperior" unicode="&#xb3;" horiz-adv-x="397" 
d="M286 376c0 -52 -43 -94 -95 -94h-10c-52 0 -94 42 -94 94c0 17 12 25 24 25c13 0 25 -8 25 -25c0 -25 20 -45 45 -45h10c25 0 45 20 45 45v36c0 52 -20 59 -62 59c-17 0 -25 12 -25 25c0 12 8 24 25 24c31 0 62 2 62 56v27c0 31 -24 45 -48 45c-23 0 -47 -15 -47 -44
c0 -17 -12 -25 -24 -25c-13 0 -25 8 -25 25c0 61 49 93 96 93c49 0 98 -31 98 -94v-27c0 -40 -13 -65 -29 -80c19 -18 29 -46 29 -84v-36z" />
    <glyph glyph-name="twosuperior" unicode="&#xb2;" horiz-adv-x="419" 
d="M297 307c0 -13 -8 -25 -25 -25h-159c-17 0 -26 16 -26 31c0 7 1 12 4 17l142 233c8 13 9 22 9 33v7c0 24 -19 45 -46 45h-9c-25 0 -44 -20 -44 -45v-6c0 -16 -13 -25 -25 -25c-13 0 -25 9 -25 25v6c0 53 43 94 94 94h9c52 0 96 -41 96 -94v-7c0 -19 -2 -35 -16 -58
l-127 -207h123c17 0 25 -12 25 -24z" />
    <glyph glyph-name="brokenbar" unicode="&#xa6;" horiz-adv-x="260" 
d="M155 429c0 -17 -13 -25 -25 -25s-25 8 -25 25v243c0 17 13 25 25 25s25 -8 25 -25v-243zM155 19c0 -17 -13 -24 -25 -24s-25 7 -25 24v243c0 17 13 25 25 25s25 -8 25 -25v-243z" />
    <glyph glyph-name="minus" unicode="&#x2212;" horiz-adv-x="547" 
d="M471 241c0 -12 -8 -25 -25 -25h-345c-17 0 -25 13 -25 25s8 25 25 25h345c17 0 25 -13 25 -25z" />
    <glyph glyph-name="multiply" unicode="&#xd7;" horiz-adv-x="491" 
d="M421 91c0 -15 -12 -26 -25 -26c-7 0 -13 3 -18 8l-132 133l-133 -133c-5 -5 -11 -8 -17 -8c-15 0 -26 11 -26 26c0 7 3 13 8 17l132 133l-132 133c-5 4 -8 10 -8 17c0 15 11 26 26 26c6 0 12 -3 17 -8l133 -133l132 133c5 5 11 8 18 8c13 0 25 -11 25 -26
c0 -7 -2 -12 -7 -17l-133 -133l133 -133c5 -5 7 -10 7 -17z" />
    <glyph glyph-name="exclam" unicode="!" horiz-adv-x="260" 
d="M155 177c0 -16 -13 -24 -25 -24s-25 8 -25 24v495c0 17 13 25 25 25s25 -8 25 -25v-495zM155 19c0 -17 -13 -24 -25 -24s-25 7 -25 24v33c0 16 13 25 25 25s25 -9 25 -25v-33z" />
    <glyph glyph-name="quotedbl" unicode="&#x22;" horiz-adv-x="355" 
d="M261 508c0 -16 -13 -25 -25 -25s-25 9 -25 25v164c0 17 13 25 25 25s25 -8 25 -25v-164zM143 508c0 -16 -13 -25 -25 -25s-25 9 -25 25v164c0 17 13 25 25 25s25 -8 25 -25v-164z" />
    <glyph glyph-name="numbersign" unicode="#" horiz-adv-x="635" 
d="M589 463c0 -17 -8 -25 -25 -25h-125l-29 -159h119c15 0 26 -10 26 -25s-11 -25 -26 -25h-128l-38 -214c-2 -13 -11 -20 -24 -20c-16 0 -29 12 -26 29l37 205h-114l-38 -214c-2 -13 -11 -20 -24 -20c-16 0 -29 12 -26 29l37 205h-113c-17 0 -25 8 -25 25s8 25 25 25h122
l29 160h-116c-15 0 -26 9 -26 24s11 25 26 25h125l32 188c2 14 10 21 24 21c16 0 29 -13 26 -30l-31 -179h114l32 188c2 14 10 21 24 21c16 0 29 -13 26 -30l-31 -179h116c17 0 25 -8 25 -25zM388 439h-114l-29 -160h113z" />
    <glyph glyph-name="dollar" unicode="$" horiz-adv-x="499" 
d="M440 167c0 -100 -73 -163 -170 -171v-40c0 -16 -12 -25 -25 -25c-12 0 -24 9 -24 25v40c-92 8 -163 74 -163 181c0 17 12 25 25 25s25 -8 25 -25c0 -84 59 -133 134 -133h10c78 0 138 46 138 123c0 202 -321 143 -321 359c0 96 67 159 151 170v40c0 17 12 25 24 25
c13 0 25 -8 25 -25v-40c88 -5 158 -62 158 -154c0 -16 -12 -24 -24 -24s-25 8 -25 25c0 68 -54 104 -126 104h-10c-67 0 -124 -46 -124 -122c0 -169 322 -125 322 -358z" />
    <glyph glyph-name="percent" unicode="%" horiz-adv-x="736" 
d="M666 101c0 -60 -45 -106 -104 -106c-58 0 -103 46 -103 106v162c0 59 45 107 103 107c59 0 104 -48 104 -107v-162zM525 673c0 -3 -1 -6 -2 -10l-270 -654c-4 -9 -11 -14 -22 -14c-13 0 -26 8 -26 23c0 3 1 6 2 10l271 654c4 10 11 15 22 15c13 0 25 -9 25 -24zM277 428
c0 -59 -45 -107 -103 -107c-59 0 -104 48 -104 107v161c0 59 45 108 104 108c58 0 103 -49 103 -108v-161zM616 101v162c0 33 -25 58 -54 58s-54 -25 -54 -58v-162c0 -33 25 -58 54 -58s54 25 54 58zM228 428v161c0 33 -25 59 -54 59s-54 -26 -54 -59v-161
c0 -33 25 -58 54 -58s54 25 54 58z" />
    <glyph glyph-name="ampersand" unicode="&#x26;" horiz-adv-x="554" 
d="M524 19c0 -15 -10 -24 -25 -24c-39 0 -70 25 -98 64c-45 -39 -101 -64 -154 -64h-11c-101 0 -184 81 -184 183c0 97 73 156 145 207c-24 40 -59 98 -59 145c0 83 69 119 121 119h7c53 0 127 -33 127 -117c0 -72 -69 -114 -135 -159l147 -235c11 15 22 34 29 50
c4 11 11 16 22 16c15 0 26 -9 26 -24c0 -5 -1 -8 -2 -10c-9 -27 -25 -52 -44 -75c27 -37 46 -52 63 -52c15 0 25 -9 25 -24zM344 532c0 51 -45 68 -78 68h-7c-32 0 -71 -25 -71 -70c0 -35 24 -84 47 -119c53 37 109 70 109 121zM374 101l-154 246
c-64 -43 -118 -97 -118 -169s59 -135 134 -135h11c43 0 88 23 127 58z" />
    <glyph glyph-name="quotesingle" unicode="'" horiz-adv-x="237" 
d="M143 500c0 -17 -13 -25 -25 -25s-25 8 -25 25v172c0 17 13 25 25 25s25 -8 25 -25v-172z" />
    <glyph glyph-name="parenleft" unicode="(" horiz-adv-x="345" 
d="M303 -78c11 -10 10 -20 -1 -30c-11 -9 -24 -11 -36 0c-96 82 -173 246 -173 434c0 182 76 349 169 431c23 20 61 -8 37 -29c-83 -75 -156 -226 -156 -402c0 -180 77 -332 160 -404z" />
    <glyph glyph-name="parenright" unicode=")" horiz-adv-x="345" 
d="M252 326c0 -188 -78 -351 -172 -434c-24 -22 -63 12 -37 30c83 72 159 224 159 404c0 176 -74 326 -156 402c-23 21 14 50 37 29c94 -83 169 -248 169 -431z" />
    <glyph glyph-name="asterisk" unicode="*" horiz-adv-x="417" 
d="M393 512c0 -12 -8 -25 -25 -24l-125 5l66 -106c3 -5 4 -9 4 -14c0 -15 -12 -24 -25 -24c-9 0 -16 4 -21 13l-59 111l-58 -112c-5 -9 -13 -13 -21 -13c-15 0 -25 12 -25 25c0 5 1 9 3 13l67 107l-125 -5c-17 -1 -26 12 -26 25c0 12 9 25 26 24l125 -5l-67 106
c-2 4 -3 8 -3 13c0 15 12 25 25 25c8 0 16 -4 21 -13l58 -111l59 111c5 9 12 13 21 13c15 0 25 -12 25 -25c0 -4 0 -9 -3 -13l-66 -106l124 5c16 1 25 -12 25 -25z" />
    <glyph glyph-name="plus" unicode="+" horiz-adv-x="467" 
d="M414 266c0 -12 -9 -25 -26 -25h-130v-131c0 -17 -12 -25 -25 -25c-12 0 -25 8 -25 25v131h-131c-17 0 -25 13 -25 25s8 25 25 25h131v131c0 17 13 25 25 25c13 0 25 -8 25 -25v-131h130c17 0 26 -13 26 -25z" />
    <glyph glyph-name="comma" unicode="," horiz-adv-x="202" 
d="M126 42c0 -73 -21 -117 -64 -163l-18 -19c-5 -5 -11 -8 -17 -8c-15 0 -27 11 -27 26c0 6 3 12 8 17l18 19c33 34 50 64 50 128v32c0 17 12 25 25 25c12 0 25 -8 25 -25v-32z" />
    <glyph glyph-name="hyphen" unicode="-" horiz-adv-x="416" 
d="M364 266c0 -12 -8 -25 -25 -25h-262c-17 0 -25 13 -25 25s8 25 25 25h262c17 0 25 -13 25 -25z" />
    <glyph glyph-name="period" unicode="." horiz-adv-x="167" 
d="M108 19c0 -17 -13 -24 -25 -24s-25 7 -25 24v33c0 16 13 25 25 25s25 -9 25 -25v-33z" />
    <glyph glyph-name="slash" unicode="/" horiz-adv-x="391" 
d="M371 741c0 -4 -1 -7 -2 -10l-338 -830c-5 -11 -12 -16 -22 -16c-12 0 -25 9 -25 24c0 5 1 8 2 10l337 829c4 11 11 17 22 17c13 0 26 -9 26 -24z" />
    <glyph glyph-name="zero" unicode="0" horiz-adv-x="507" 
d="M412 148c0 -86 -69 -153 -153 -153h-12c-84 0 -153 67 -153 153v397c0 84 69 152 153 152h12c84 0 153 -68 153 -152v-397zM363 148v397c0 57 -47 103 -104 103h-12c-57 0 -104 -46 -104 -103v-397c0 -58 47 -105 104 -105h12c57 0 104 47 104 105z" />
    <glyph glyph-name="one" unicode="1" horiz-adv-x="531" 
d="M328 19c0 -17 -12 -24 -24 -24c-13 0 -25 7 -25 24v617l-78 -110c-5 -7 -12 -11 -20 -11c-13 0 -25 11 -25 24c0 5 1 10 4 15l96 128c7 9 14 15 29 15h19c13 0 24 -12 24 -25v-653z" />
    <glyph glyph-name="two" unicode="2" horiz-adv-x="504" 
d="M420 25c0 -13 -8 -25 -25 -25h-276c-27 0 -35 18 -35 34c0 6 1 12 4 17l256 415c17 28 19 48 19 71v8c0 58 -48 103 -107 103h-10c-57 0 -104 -46 -104 -103v-11c0 -17 -12 -25 -24 -25c-13 0 -25 8 -25 25v11c0 84 69 152 153 152h10c84 0 157 -65 157 -152v-8
c0 -31 -3 -59 -26 -96l-245 -392h253c17 0 25 -12 25 -24z" />
    <glyph glyph-name="three" unicode="3" horiz-adv-x="506" 
d="M416 148c0 -86 -69 -153 -153 -153h-20c-84 0 -153 67 -153 153c0 16 12 25 25 25c12 0 24 -9 24 -25c0 -58 47 -105 104 -105h20c57 0 104 47 104 105v75c0 109 -44 124 -135 124c-17 0 -26 13 -26 25s9 25 26 25c65 0 135 3 135 123v26c0 67 -53 102 -106 102
c-55 0 -112 -32 -112 -101c0 -17 -12 -25 -24 -25c-13 0 -25 8 -25 25c0 103 81 150 162 150c78 0 154 -51 154 -151v-26c0 -81 -29 -124 -66 -147c41 -25 66 -69 66 -150v-75z" />
    <glyph glyph-name="four" unicode="4" horiz-adv-x="500" 
d="M431 193c0 -12 -8 -24 -25 -24h-65v-150c0 -17 -12 -24 -25 -24c-12 0 -24 7 -24 24v150h-194c-19 0 -29 17 -29 32c0 4 1 8 2 12c1 0 140 311 210 469c5 10 12 15 21 15c13 0 26 -9 26 -24c0 -5 -1 -8 -2 -11l-199 -444h165v99c0 17 12 25 24 25c13 0 25 -8 25 -25v-99
h65c17 0 25 -12 25 -25z" />
    <glyph glyph-name="five" unicode="5" horiz-adv-x="506" 
d="M414 154c0 -89 -69 -159 -158 -159h-11c-91 0 -153 56 -153 167c0 19 13 26 25 26s24 -7 24 -26c0 -83 45 -119 104 -119h11c60 0 109 51 109 111v145c0 60 -49 111 -109 111h-11c-39 0 -74 -16 -93 -45c-7 -11 -17 -15 -28 -15c-13 0 -26 8 -26 25v290c0 15 12 26 25 26
h244c19 0 26 -12 26 -24s-7 -25 -26 -25h-220v-217c21 20 62 34 98 34h11c89 0 158 -72 158 -160v-145z" />
    <glyph glyph-name="six" unicode="6" horiz-adv-x="505" 
d="M418 154c0 -89 -72 -159 -160 -159h-12c-88 0 -160 70 -160 159v383c0 89 72 160 160 160h12c78 0 146 -55 159 -130v-6c0 -16 -12 -24 -25 -24c-11 0 -22 6 -25 21c-9 51 -54 90 -109 90h-12c-60 0 -111 -51 -111 -111v-145c31 27 68 42 111 42h12
c88 0 160 -71 160 -160v-120zM368 152v122c0 60 -49 111 -110 111h-12c-60 0 -111 -51 -111 -111v-122c0 -60 51 -109 111 -109h12c61 0 110 49 110 109z" />
    <glyph glyph-name="seven" unicode="7" horiz-adv-x="506" 
d="M414 648c0 -3 -1 -5 -2 -8l-196 -628c-3 -11 -12 -17 -23 -17c-12 0 -25 8 -25 23c0 3 0 6 1 8l191 615h-219v-75c0 -16 -12 -24 -24 -24c-13 0 -25 8 -25 24v100c0 13 12 25 25 25h260c27 0 37 -16 37 -35v-8z" />
    <glyph glyph-name="eight" unicode="8" horiz-adv-x="507" 
d="M412 148c0 -86 -69 -153 -153 -153h-12c-84 0 -153 67 -153 153v94c0 55 26 101 69 128c-43 28 -69 74 -69 129v45c0 85 69 153 153 153h12c84 0 153 -68 153 -153v-45c0 -55 -26 -101 -69 -129c43 -27 69 -73 69 -128v-94zM363 499v45c0 57 -47 104 -104 104h-12
c-57 0 -104 -47 -104 -104v-45c0 -59 47 -104 104 -104h12c57 0 104 45 104 104zM363 148v94c0 59 -47 104 -104 104h-12c-57 0 -104 -45 -104 -104v-94c0 -58 47 -105 104 -105h12c57 0 104 47 104 105z" />
    <glyph glyph-name="nine" unicode="9" horiz-adv-x="505" 
d="M418 154c0 -90 -72 -159 -160 -159h-12c-77 0 -145 53 -159 129v6c0 16 12 24 25 24c11 0 22 -6 25 -21c11 -51 54 -90 109 -90h12c60 0 111 51 111 111v160c-31 -27 -68 -42 -111 -42h-12c-88 0 -160 71 -160 160v105c0 88 72 160 160 160h12c88 0 160 -72 160 -160
v-383zM369 432v107c0 60 -51 109 -111 109h-12c-59 0 -110 -49 -110 -109v-107c0 -60 51 -111 110 -111h12c60 0 111 51 111 111z" />
    <glyph glyph-name="colon" unicode=":" horiz-adv-x="185" 
d="M118 331c0 -17 -13 -25 -25 -25s-25 8 -25 25v33c0 16 13 25 25 25s25 -9 25 -25v-33zM118 19c0 -17 -13 -24 -25 -24s-25 7 -25 24v33c0 16 13 25 25 25s25 -9 25 -25v-33z" />
    <glyph glyph-name="semicolon" unicode=";" horiz-adv-x="185" 
d="M126 331c0 -17 -13 -25 -25 -25c-13 0 -25 8 -25 25v33c0 16 12 25 25 25c12 0 25 -9 25 -25v-33zM126 42c0 -73 -21 -117 -64 -163l-18 -19c-5 -5 -10 -8 -17 -8c-15 0 -27 11 -27 26c0 5 3 10 8 17l18 19c33 34 50 64 50 128v32c0 17 12 25 25 25c12 0 25 -8 25 -25
v-32z" />
    <glyph glyph-name="less" unicode="&#x3c;" horiz-adv-x="331" 
d="M278 18c0 -15 -11 -23 -24 -23c-8 0 -15 3 -22 10l-165 203c-9 11 -15 18 -15 33s6 21 15 32l165 204c7 7 14 11 22 11c13 0 24 -11 24 -24c0 -7 -2 -13 -7 -18l-165 -205l165 -205c5 -5 7 -11 7 -18z" />
    <glyph glyph-name="equal" unicode="=" horiz-adv-x="505" 
d="M424 337c0 -12 -8 -25 -24 -25h-294c-16 0 -24 13 -24 25s8 25 24 25h294c16 0 24 -13 24 -25zM424 196c0 -12 -8 -24 -24 -24h-294c-16 0 -24 12 -24 24c0 13 8 25 24 25h294c16 0 24 -12 24 -25z" />
    <glyph glyph-name="greater" unicode="&#x3e;" horiz-adv-x="331" 
d="M278 241c0 -15 -6 -22 -15 -33l-165 -203c-7 -7 -15 -10 -22 -10c-13 0 -24 8 -24 23c0 5 2 11 7 18l165 205l-165 205c-5 7 -7 13 -7 18c0 13 11 24 24 24c7 0 15 -3 22 -11l165 -204c9 -11 15 -17 15 -32z" />
    <glyph glyph-name="question" unicode="?" horiz-adv-x="396" 
d="M337 503c0 -51 -32 -89 -57 -114c-45 -45 -79 -52 -79 -128v-57c0 -16 -12 -25 -25 -25c-12 0 -24 9 -24 25v57c0 96 41 109 98 164c18 18 37 47 37 78v42c0 57 -45 103 -104 103h-6c-59 0 -104 -46 -104 -103v-15c0 -16 -13 -24 -25 -24s-25 9 -25 25v14
c0 84 69 152 154 152h6c85 0 154 -68 154 -152v-42zM201 19c0 -17 -12 -24 -25 -24c-12 0 -24 7 -24 24v33c0 16 12 25 24 25c13 0 25 -9 25 -25v-33z" />
    <glyph glyph-name="at" unicode="@" horiz-adv-x="887" 
d="M793 128c0 -88 -50 -133 -113 -133h-21c-41 0 -76 23 -97 62c-29 -39 -74 -62 -125 -62h-11c-83 0 -155 50 -155 144v5c0 120 146 134 229 150c39 8 42 25 42 42c-1 58 -45 102 -100 102h-8c-40 0 -75 -15 -98 -60c-4 -10 -11 -15 -22 -15c-13 0 -27 10 -27 25
c0 3 1 7 3 11c31 68 91 89 144 89h8c81 0 151 -65 151 -148v-201c0 -66 38 -94 66 -94h21c30 0 63 19 63 83v202c0 152 -123 274 -274 274h-52c-151 0 -274 -122 -274 -274v-183c0 -150 123 -273 274 -273h52c37 0 73 8 105 21c3 1 6 2 11 2c15 0 25 -13 25 -26
c0 -33 -96 -47 -141 -47h-52c-179 0 -324 145 -324 323v183c0 180 145 325 324 325h52c179 0 324 -145 324 -325v-202zM543 150v106c-63 -26 -222 -15 -222 -113v-5c0 -60 42 -93 105 -93h11c58 0 106 47 106 105z" />
    <glyph glyph-name="A" unicode="A" horiz-adv-x="544" 
d="M509 18c0 -15 -12 -23 -25 -23c-11 0 -19 6 -23 17l-53 160h-275l-50 -160c-3 -11 -12 -17 -23 -17c-13 0 -25 8 -25 23c0 3 0 6 1 8l212 653c4 13 13 18 24 18s19 -6 23 -18l213 -653c1 -2 1 -5 1 -8zM393 221l-121 376l-123 -376h244z" />
    <glyph glyph-name="B" unicode="B" horiz-adv-x="543" 
d="M473 183c0 -101 -82 -183 -183 -183h-161c-13 0 -24 12 -24 25v647c0 13 11 25 24 25h161c101 0 174 -76 174 -177v-4c0 -68 -32 -127 -84 -159c56 -33 93 -96 93 -164v-10zM415 516v4c0 76 -52 128 -125 128h-136v-265h136c72 0 125 57 125 133zM424 183v10
c0 75 -61 140 -134 140h-136v-284h136c75 0 134 59 134 134z" />
    <glyph glyph-name="C" unicode="C" horiz-adv-x="509" 
d="M462 151c-11 -90 -88 -156 -181 -156h-10c-101 0 -184 80 -184 182v337c0 102 83 183 184 183h10c93 0 170 -68 181 -157v-3c0 -15 -11 -25 -24 -25c-12 0 -22 9 -25 21c-8 64 -64 115 -132 115h-10c-75 0 -135 -59 -135 -134v-337c0 -75 60 -134 135 -134h10
c68 0 124 51 132 115c3 12 13 21 25 21c13 0 24 -10 24 -25v-3z" />
    <glyph glyph-name="D" unicode="D" horiz-adv-x="568" 
d="M481 183c0 -101 -82 -183 -183 -183h-168c-15 0 -25 12 -25 25v641c0 13 10 25 25 25h168c101 0 183 -81 183 -183v-325zM432 183v325c0 75 -59 134 -134 134h-144v-593h144c75 0 134 59 134 134z" />
    <glyph glyph-name="E" unicode="E" horiz-adv-x="516" 
d="M481 25c0 -13 -8 -25 -25 -25h-326c-15 0 -25 12 -25 25v641c0 13 10 25 25 25h326c17 0 25 -12 25 -25c0 -12 -8 -24 -25 -24h-297v-259h209c17 0 25 -13 25 -26c0 -12 -8 -24 -25 -24h-214v-284h302c17 0 25 -12 25 -24z" />
    <glyph glyph-name="F" unicode="F" horiz-adv-x="481" 
d="M481 667c0 -12 -8 -25 -25 -25h-302v-259h214c17 0 25 -12 25 -25s-8 -25 -25 -25h-214v-314c0 -17 -12 -24 -24 -24s-25 7 -25 24v647c0 13 10 25 25 25h326c17 0 25 -12 25 -24z" />
    <glyph glyph-name="G" unicode="G" horiz-adv-x="551" 
d="M463 177c0 -102 -82 -182 -183 -182h-10c-101 0 -183 80 -183 182v337c0 102 82 183 183 183h10c98 0 183 -73 183 -169v-2c0 -15 -10 -25 -25 -25s-24 9 -25 24c-5 69 -61 123 -133 123h-10c-75 0 -134 -59 -134 -134v-337c0 -75 59 -134 134 -134h10
c75 0 134 59 134 134v137h-122c-16 0 -25 12 -25 24c0 13 9 25 25 25h146c15 0 25 -11 25 -24v-162z" />
    <glyph glyph-name="H" unicode="H" horiz-adv-x="586" 
d="M481 19c0 -17 -12 -24 -25 -24c-12 0 -24 7 -24 24v314h-278v-314c0 -17 -12 -24 -24 -24c-13 0 -25 7 -25 24v653c0 17 12 25 25 25c12 0 24 -8 24 -25v-289h278v289c0 17 12 25 24 25c13 0 25 -8 25 -25v-653z" />
    <glyph glyph-name="I" unicode="I" horiz-adv-x="283" 
d="M167 19c0 -17 -13 -24 -25 -24s-25 7 -25 24v653c0 17 13 25 25 25s25 -8 25 -25v-653z" />
    <glyph glyph-name="J" unicode="J" horiz-adv-x="477" 
d="M372 177c0 -102 -82 -182 -183 -182h-10c-88 0 -160 59 -179 142v6c0 15 12 24 25 24c11 0 21 -6 24 -19c13 -60 66 -105 130 -105h10c75 0 134 59 134 134v495c0 17 12 25 25 25c12 0 24 -8 24 -25v-495z" />
    <glyph glyph-name="K" unicode="K" horiz-adv-x="516" 
d="M481 18c0 -15 -13 -23 -26 -23c-9 0 -16 4 -21 13l-173 356l-107 -158v-187c0 -17 -12 -24 -25 -24c-12 0 -24 7 -24 24v653c0 17 12 25 24 25c13 0 25 -8 25 -25v-377l266 391c5 7 12 11 20 11c13 0 26 -10 26 -25c0 -5 -2 -10 -5 -14l-168 -247l185 -381
c2 -4 3 -8 3 -12z" />
    <glyph glyph-name="L" unicode="L" horiz-adv-x="474" 
d="M439 25c0 -12 -8 -25 -25 -25h-284c-13 0 -25 12 -25 25v647c0 17 12 25 25 25s25 -8 25 -25v-623h259c17 0 25 -12 25 -24z" />
    <glyph glyph-name="M" unicode="M" horiz-adv-x="710" 
d="M605 19c0 -17 -12 -24 -25 -24c-12 0 -24 7 -24 24v581l-174 -381c-5 -12 -16 -18 -27 -18c-9 0 -22 6 -27 18l-174 381v-581c0 -17 -12 -24 -24 -24c-13 0 -25 7 -25 24v653c0 13 12 25 25 25h18c7 0 19 -8 22 -15l185 -411l185 411c3 7 15 15 22 15h18
c13 0 25 -12 25 -25v-653z" />
    <glyph glyph-name="N" unicode="N" horiz-adv-x="586" 
d="M481 20c0 -16 -11 -25 -24 -25h-18c-7 0 -20 4 -25 16l-259 588v-580c0 -17 -13 -24 -25 -24s-25 7 -25 24v653c0 13 12 25 25 25h18c7 0 17 -5 22 -16l261 -589v580c0 17 13 25 25 25s25 -8 25 -25v-652z" />
    <glyph glyph-name="O" unicode="O" horiz-adv-x="551" 
d="M463 177c0 -102 -82 -182 -183 -182h-10c-101 0 -183 80 -183 182v337c0 102 82 183 183 183h10c101 0 183 -81 183 -183v-337zM414 177v337c0 75 -59 134 -134 134h-10c-75 0 -134 -59 -134 -134v-337c0 -75 59 -134 134 -134h10c75 0 134 59 134 134z" />
    <glyph glyph-name="P" unicode="P" horiz-adv-x="510" 
d="M481 509c0 -101 -82 -182 -183 -182h-144v-308c0 -17 -12 -24 -24 -24s-25 7 -25 24v647c0 13 12 25 25 25h168c101 0 183 -81 183 -182zM432 509c0 73 -59 133 -134 133h-144v-265h144c75 0 134 57 134 132z" />
    <glyph glyph-name="Q" unicode="Q" horiz-adv-x="551" 
d="M463 177c0 -43 -14 -81 -38 -112l28 -29c5 -5 7 -10 7 -17c0 -12 -10 -24 -25 -24c-7 0 -13 2 -18 7l-28 28c-31 -23 -68 -35 -109 -35h-10c-101 0 -183 80 -183 182v337c0 102 82 183 183 183h10c101 0 183 -81 183 -183v-337zM414 177v337c0 75 -59 134 -134 134h-10
c-75 0 -134 -59 -134 -134v-337c0 -75 59 -134 134 -134h10c28 0 53 8 74 23l-30 30c-5 5 -7 10 -7 17c0 15 12 26 25 26c7 0 13 -3 18 -8l30 -31c16 23 24 49 24 77z" />
    <glyph glyph-name="R" unicode="R" horiz-adv-x="545" 
d="M487 498c0 -91 -62 -165 -149 -181l137 -287c2 -4 3 -8 3 -12c0 -15 -13 -23 -26 -23c-9 0 -17 4 -21 13l-146 307h-131v-296c0 -17 -12 -24 -25 -24c-12 0 -24 7 -24 24v647c0 13 11 25 24 25h175c101 0 183 -82 183 -183v-10zM438 498v10c0 75 -59 134 -134 134h-150
v-278h150c75 0 134 57 134 134z" />
    <glyph glyph-name="S" unicode="S" horiz-adv-x="499" 
d="M440 167c0 -105 -82 -172 -188 -172h-10c-100 0 -184 66 -184 182c0 17 12 25 25 25s25 -8 25 -25c0 -84 59 -133 134 -133h10c78 0 138 46 138 123c0 202 -321 143 -321 359c0 104 80 171 173 171h10c96 0 175 -56 175 -155c0 -16 -12 -24 -24 -24s-25 8 -25 25
c0 68 -54 104 -126 104h-10c-67 0 -124 -46 -124 -122c0 -169 322 -125 322 -358z" />
    <glyph glyph-name="T" unicode="T" horiz-adv-x="392" 
d="M374 666c0 -12 -8 -24 -25 -24h-129v-623c0 -17 -12 -24 -25 -24c-12 0 -24 7 -24 24v623h-129c-17 0 -25 12 -25 24c0 13 8 25 25 25h307c17 0 25 -12 25 -25z" />
    <glyph glyph-name="U" unicode="U" horiz-adv-x="586" 
d="M481 177c0 -102 -82 -182 -183 -182h-10c-101 0 -183 80 -183 182v495c0 17 12 25 25 25c12 0 24 -8 24 -25v-495c0 -75 59 -134 134 -134h10c75 0 134 59 134 134v495c0 17 12 25 24 25c13 0 25 -8 25 -25v-495z" />
    <glyph glyph-name="V" unicode="V" horiz-adv-x="477" 
d="M431 673c0 -3 0 -5 -1 -7l-152 -642c-6 -23 -24 -29 -39 -29c-13 0 -33 6 -38 29l-153 642c-1 2 -1 4 -1 7c0 15 13 24 26 24c11 0 21 -6 24 -19l142 -625l143 625c3 13 13 19 24 19c12 0 25 -9 25 -24z" />
    <glyph glyph-name="W" unicode="W" horiz-adv-x="767" 
d="M721 673c0 -3 0 -5 -1 -7l-135 -643c-5 -23 -26 -28 -38 -28c-15 0 -34 5 -39 28l-124 542l-124 -542c-5 -23 -24 -28 -39 -28c-12 0 -33 5 -38 28l-135 643c-1 2 -1 4 -1 7c0 15 14 24 27 24c11 0 20 -6 23 -19l124 -594l140 594c3 13 12 19 23 19s20 -6 23 -19
l140 -594l124 594c3 13 12 19 23 19c13 0 27 -9 27 -24z" />
    <glyph glyph-name="X" unicode="X" horiz-adv-x="503" 
d="M444 18c0 -15 -13 -23 -26 -23c-9 0 -16 4 -21 13l-146 294l-146 -294c-5 -9 -12 -13 -21 -13c-13 0 -26 8 -26 23c0 4 1 8 3 12l162 327l-151 304c-2 4 -3 8 -3 12c0 15 13 24 26 24c10 0 17 -5 22 -14l134 -270l134 270c5 11 14 14 22 14c13 0 26 -9 26 -24
c0 -4 -1 -8 -3 -12l-151 -304l162 -327c2 -4 3 -8 3 -12z" />
    <glyph glyph-name="Y" unicode="Y" horiz-adv-x="477" 
d="M431 673c0 -3 -1 -6 -2 -10l-165 -396v-248c0 -17 -13 -24 -25 -24s-25 7 -25 24v248l-165 396c-1 2 -2 5 -2 10c0 15 13 24 26 24c11 0 18 -5 22 -15l144 -346l144 346c4 10 11 15 22 15c13 0 26 -9 26 -24z" />
    <glyph glyph-name="Z" unicode="Z" horiz-adv-x="445" 
d="M399 659c0 -7 -1 -11 -8 -26l-285 -584h267c17 0 25 -12 25 -24s-8 -25 -25 -25h-301c-13 0 -25 14 -25 27v5c0 7 1 11 8 26l285 584h-258c-17 0 -25 13 -25 25s8 24 25 24h292c16 0 25 -14 25 -27v-5z" />
    <glyph glyph-name="bracketleft" unicode="[" horiz-adv-x="348" 
d="M254 -92c0 -13 -8 -25 -24 -25h-79c-12 0 -23 12 -23 24v766c0 13 11 24 23 24h79c16 0 24 -13 24 -25s-8 -24 -23 -24h-54v-715h54c15 0 23 -13 23 -25z" />
    <glyph glyph-name="backslash" unicode="\" horiz-adv-x="409" 
d="M371 -91c0 -15 -13 -24 -26 -24c-10 0 -17 5 -22 16l-337 829c-1 2 -2 5 -2 10c0 15 13 25 25 25c9 0 17 -5 22 -16l338 -830c1 -4 2 -7 2 -10z" />
    <glyph glyph-name="bracketright" unicode="]" horiz-adv-x="348" 
d="M219 -93c0 -12 -11 -24 -23 -24h-79c-16 0 -24 12 -24 25c0 12 8 25 23 25h54v715h-54c-15 0 -23 12 -23 24s8 25 24 25h79c12 0 23 -11 23 -24v-766z" />
    <glyph glyph-name="asciicircum" unicode="^" horiz-adv-x="494" 
d="M494 434c0 -13 -11 -25 -26 -25c-6 0 -12 3 -18 9l-203 228l-203 -228c-6 -6 -12 -9 -18 -9c-15 0 -26 12 -26 25c0 7 2 12 6 16l215 237c5 7 15 10 26 10s21 -3 26 -10l215 -237c4 -4 6 -9 6 -16z" />
    <glyph glyph-name="underscore" unicode="_" horiz-adv-x="523" 
d="M470 25c0 -13 -8 -25 -25 -25h-368c-17 0 -25 12 -25 25c0 12 8 24 25 24h368c17 0 25 -12 25 -24z" />
    <glyph glyph-name="grave" unicode="`" horiz-adv-x="501" 
d="M356 597c0 -13 -11 -26 -24 -26c-5 0 -9 1 -12 2l-163 77c-10 5 -15 12 -15 21c0 13 12 26 24 26c4 0 8 -1 12 -3l163 -76c10 -5 15 -12 15 -21z" />
    <glyph glyph-name="a" unicode="a" horiz-adv-x="483" 
d="M442 20c0 -15 -9 -25 -24 -25h-5c-40 7 -60 25 -71 52c-29 -33 -71 -52 -118 -52h-10c-84 0 -156 50 -156 144v5c0 134 158 125 243 154c27 9 29 15 29 38c0 58 -45 102 -101 102h-7c-40 0 -79 -15 -99 -60c-5 -10 -12 -15 -22 -15c-13 0 -27 10 -27 25c0 3 1 7 3 11
c29 68 92 89 145 89h7c79 0 150 -65 150 -148v-201c0 -77 10 -90 42 -95c14 -2 21 -10 21 -24zM330 150v106c-58 -27 -223 -16 -223 -113v-5c0 -60 44 -95 107 -95h10c59 0 106 48 106 107z" />
    <glyph glyph-name="b" unicode="b" horiz-adv-x="503" 
d="M427 150c0 -86 -68 -155 -156 -155h-9c-41 0 -88 21 -107 48v-24c0 -17 -13 -24 -25 -24s-25 7 -25 24v653c0 17 13 25 25 25s25 -8 25 -25v-233c19 29 66 49 107 49h9c85 0 156 -68 156 -156v-182zM377 149v184c0 60 -46 106 -106 106h-9c-60 0 -107 -49 -107 -109v-178
c0 -58 48 -109 107 -109h9c59 0 106 48 106 106z" />
    <glyph glyph-name="c" unicode="c" horiz-adv-x="456" 
d="M398 150c0 -86 -71 -155 -156 -155h-10c-85 0 -156 69 -156 155v182c0 88 71 156 156 156h10c85 0 156 -68 156 -156c0 -17 -12 -25 -24 -25s-25 8 -25 25c0 59 -48 107 -107 107h-10c-59 0 -107 -48 -107 -107v-182c0 -59 48 -107 107 -107h10c59 0 107 48 107 107
c0 17 13 26 25 26s24 -9 24 -26z" />
    <glyph glyph-name="d" unicode="d" horiz-adv-x="502" 
d="M397 19c0 -17 -13 -24 -25 -24s-25 7 -25 24v24c-19 -27 -66 -48 -107 -48h-9c-88 0 -156 69 -156 155v182c0 88 71 156 156 156h9c41 0 88 -20 107 -49v233c0 17 13 25 25 25s25 -8 25 -25v-653zM347 152v178c0 60 -47 109 -107 109h-9c-60 0 -106 -46 -106 -106v-184
c0 -58 47 -106 106 -106h9c59 0 107 51 107 109z" />
    <glyph glyph-name="e" unicode="e" horiz-adv-x="461" 
d="M397 241c0 -13 -12 -25 -25 -25h-248v-66c0 -59 48 -107 107 -107h10c47 0 84 29 99 72c4 11 12 17 23 17c13 0 27 -9 27 -24c0 -2 -1 -5 -2 -9c-21 -63 -79 -104 -147 -104h-10c-85 0 -156 69 -156 155v182c0 85 71 156 155 156h10c87 0 157 -65 157 -156v-91zM348 266
v66c0 59 -50 107 -106 107h-10c-59 0 -108 -48 -108 -107v-66h224z" />
    <glyph glyph-name="f" unicode="f" horiz-adv-x="293" 
d="M263 673c0 -12 -9 -25 -26 -25c-43 0 -73 -28 -73 -76v-87h67c17 0 26 -12 26 -24s-9 -25 -26 -25h-67v-417c0 -17 -12 -24 -24 -24s-25 7 -25 24v417h-38c-17 0 -25 13 -25 25s8 24 25 24h38v87c0 83 51 125 122 125c17 0 26 -12 26 -24z" />
    <glyph glyph-name="g" unicode="g" horiz-adv-x="487" 
d="M400 -59c0 -85 -68 -156 -155 -156h-10c-68 0 -142 36 -164 106c-1 2 -1 5 -1 8c0 15 13 24 26 24c11 0 19 -6 23 -18c12 -40 60 -71 116 -71h10c59 0 105 48 105 107v102c-19 -27 -66 -48 -106 -48h-10c-86 0 -155 69 -155 155v182c0 88 69 156 155 156h10
c40 0 87 -20 106 -49v24c0 17 13 25 25 25c13 0 25 -8 25 -25v-522zM350 152v178c0 60 -47 109 -106 109h-10c-60 0 -106 -46 -106 -106v-184c0 -58 48 -106 106 -106h10c58 0 106 51 106 109z" />
    <glyph glyph-name="h" unicode="h" horiz-adv-x="497" 
d="M427 19c0 -17 -13 -24 -25 -24s-25 7 -25 24v314c0 60 -46 106 -106 106h-9c-60 0 -107 -49 -107 -109v-311c0 -17 -13 -24 -25 -24s-25 7 -25 24v653c0 17 13 25 25 25s25 -8 25 -25v-233c19 29 66 49 107 49h9c85 0 156 -68 156 -156v-313z" />
    <glyph glyph-name="i" unicode="i" horiz-adv-x="248" 
d="M149 639c0 -16 -13 -25 -25 -25s-25 9 -25 25v33c0 17 13 25 25 25s25 -8 25 -25v-33zM149 19c0 -17 -13 -24 -25 -24s-25 7 -25 24v444c0 17 13 25 25 25s25 -8 25 -25v-444z" />
    <glyph glyph-name="j" unicode="j" horiz-adv-x="237" 
d="M138 639c0 -16 -12 -25 -25 -25c-12 0 -24 9 -24 25v33c0 17 12 25 24 25c13 0 25 -8 25 -25v-33zM138 -100c0 -72 -27 -115 -103 -115c-19 0 -29 13 -29 25s9 24 28 24c39 0 55 27 55 66v563c0 17 12 25 24 25c13 0 25 -8 25 -25v-563z" />
    <glyph glyph-name="k" unicode="k" horiz-adv-x="474" 
d="M433 462c0 -5 0 -10 -7 -17l-146 -155l148 -258c3 -5 4 -9 4 -13c0 -15 -12 -24 -27 -24c-9 0 -16 4 -21 12l-140 244l-90 -95v-137c0 -17 -12 -24 -24 -24c-13 0 -25 7 -25 24v653c0 17 12 25 25 25c12 0 24 -8 24 -25v-442l235 250c5 5 11 8 18 8c15 0 26 -11 26 -26z
" />
    <glyph glyph-name="l" unicode="l" horiz-adv-x="296" 
d="M249 19c0 -13 -9 -24 -26 -24c-81 0 -124 55 -124 124v553c0 17 13 25 25 25s25 -8 25 -25v-553c0 -43 29 -76 74 -76c17 0 26 -12 26 -24z" />
    <glyph glyph-name="m" unicode="m" horiz-adv-x="755" 
d="M679 19c0 -17 -12 -24 -24 -24c-13 0 -25 7 -25 24v314c0 60 -46 106 -106 106h-9c-60 0 -107 -49 -107 -109v-311c0 -17 -13 -24 -25 -24s-25 7 -25 24v314c0 60 -46 106 -106 106h-9c-60 0 -107 -49 -107 -109v-311c0 -17 -12 -24 -25 -24c-12 0 -24 7 -24 24v444
c0 17 12 25 24 25c13 0 25 -8 25 -25v-24c19 29 66 49 107 49h9c56 0 104 -29 132 -72c29 43 74 72 131 72h9c86 0 155 -68 155 -156v-313z" />
    <glyph glyph-name="n" unicode="n" 
d="M409 19c0 -17 -13 -24 -25 -24s-25 7 -25 24v314c0 60 -46 106 -106 106h-9c-60 0 -107 -49 -107 -109v-311c0 -17 -13 -24 -25 -24s-25 7 -25 24v444c0 17 13 25 25 25s25 -8 25 -25v-24c19 29 66 49 107 49h9c85 0 156 -68 156 -156v-313z" />
    <glyph glyph-name="o" unicode="o" horiz-adv-x="471" 
d="M397 150c0 -86 -71 -155 -156 -155h-10c-85 0 -156 69 -156 155v182c0 88 71 156 156 156h10c85 0 156 -68 156 -156v-182zM348 150v182c0 59 -48 107 -107 107h-10c-59 0 -107 -48 -107 -107v-182c0 -59 48 -107 107 -107h10c59 0 107 48 107 107z" />
    <glyph glyph-name="p" unicode="p" 
d="M409 150c0 -89 -71 -155 -156 -155h-9c-41 0 -88 19 -107 48v-233c0 -17 -13 -25 -25 -25s-25 8 -25 25v653c0 17 13 25 25 25s25 -8 25 -25v-24c19 27 66 49 107 49h9c88 0 156 -71 156 -156v-182zM359 149v184c0 58 -47 106 -106 106h-9c-59 0 -107 -51 -107 -109v-178
c0 -60 47 -109 107 -109h9c60 0 106 46 106 106z" />
    <glyph glyph-name="q" unicode="q" 
d="M398 -190c0 -17 -13 -25 -25 -25s-25 8 -25 25v233c-19 -29 -66 -48 -107 -48h-9c-85 0 -156 66 -156 155v182c0 85 68 156 156 156h9c41 0 88 -22 107 -49v24c0 17 13 25 25 25s25 -8 25 -25v-653zM348 152v178c0 58 -48 109 -107 109h-9c-59 0 -106 -48 -106 -106v-184
c0 -60 46 -106 106 -106h9c60 0 107 49 107 109z" />
    <glyph glyph-name="r" unicode="r" horiz-adv-x="345" 
d="M321 426c0 -15 -13 -25 -26 -25c-8 0 -15 4 -20 11c-16 23 -36 27 -64 27c-41 0 -74 -18 -74 -66v-353c0 -17 -12 -25 -25 -25c-12 0 -25 8 -25 25v443c0 17 13 25 26 25c12 0 24 -8 24 -24c15 15 47 24 74 24c35 0 79 -11 104 -47c4 -5 6 -10 6 -15z" />
    <glyph glyph-name="s" unicode="s" horiz-adv-x="447" 
d="M394 136c0 -100 -93 -141 -163 -141h-18c-62 0 -128 38 -158 98c-1 4 -3 8 -3 11c0 15 14 25 27 25c11 0 18 -5 22 -15c20 -43 69 -71 112 -71h18c68 0 113 44 113 93c0 162 -271 47 -271 232v5c0 67 66 115 152 115h2c84 0 141 -42 141 -65c0 -13 -11 -25 -24 -25
c-6 0 -12 2 -17 7c-27 24 -56 34 -100 34h-5c-40 0 -100 -20 -100 -67v-4c0 -127 272 -29 272 -232z" />
    <glyph glyph-name="t" unicode="t" horiz-adv-x="303" 
d="M257 19c0 -13 -8 -24 -25 -24c-76 0 -124 48 -124 124v317h-36c-17 0 -25 12 -25 24c0 13 8 25 25 25h36v187c0 17 12 25 25 25c12 0 24 -8 24 -25v-187h69c17 0 26 -12 26 -25c0 -12 -9 -24 -26 -24h-69v-317c0 -43 28 -76 75 -76c17 0 25 -12 25 -24z" />
    <glyph glyph-name="u" unicode="u" 
d="M398 19c0 -17 -13 -24 -25 -24s-25 7 -25 24v24c-19 -29 -66 -48 -107 -48h-9c-85 0 -156 66 -156 155v313c0 17 13 25 25 25s25 -8 25 -25v-314c0 -60 46 -106 106 -106h9c60 0 107 49 107 109v311c0 17 13 25 25 25s25 -8 25 -25v-444z" />
    <glyph glyph-name="v" unicode="v" horiz-adv-x="443" 
d="M397 464c0 -4 0 -7 -1 -9l-143 -440c-7 -16 -20 -20 -31 -20s-26 4 -31 20l-143 440c-1 2 -1 5 -1 9c0 15 13 24 26 24c11 0 19 -6 23 -17l126 -386l126 386c4 11 12 17 23 17c13 0 26 -9 26 -24z" />
    <glyph glyph-name="w" unicode="w" horiz-adv-x="665" 
d="M619 464c0 -3 -2 -6 -2 -9l-123 -440c-5 -17 -16 -20 -31 -20c-12 0 -25 3 -30 20l-100 363l-100 -363c-5 -17 -18 -20 -30 -20c-15 0 -26 3 -31 20l-123 440c-1 4 -2 7 -2 9c0 15 13 24 26 24c11 0 21 -5 24 -17l105 -386l104 386c3 12 15 17 27 17s24 -5 27 -17
l104 -386l105 386c3 12 13 17 24 17c13 0 26 -9 26 -24z" />
    <glyph glyph-name="x" unicode="x" horiz-adv-x="441" 
d="M388 19c0 -15 -13 -24 -26 -24c-9 0 -16 4 -21 11l-121 195l-121 -195c-5 -7 -12 -11 -21 -11c-13 0 -26 9 -26 24c0 5 1 9 4 14l134 215l-124 201c-3 5 -4 9 -4 14c0 15 13 25 26 25c9 0 16 -4 21 -12l111 -180l111 180c5 8 12 12 21 12c13 0 26 -10 26 -25
c0 -4 0 -9 -4 -14l-124 -201l134 -215c4 -5 4 -10 4 -14z" />
    <glyph glyph-name="y" unicode="y" horiz-adv-x="412" 
d="M371 464c0 -4 0 -7 -1 -9l-171 -533c-20 -62 -59 -137 -134 -137c-15 0 -24 11 -24 26s9 20 22 23c52 10 72 57 87 103l36 109l-143 408c-1 3 -1 6 -1 10c0 15 13 24 26 24c9 0 19 -5 23 -17l120 -346l111 345c4 12 12 18 23 18c13 0 26 -9 26 -24z" />
    <glyph glyph-name="z" unicode="z" horiz-adv-x="388" 
d="M342 25c0 -12 -9 -25 -26 -25h-233c-16 0 -36 4 -36 33c0 15 3 18 14 37l215 363h-196c-17 0 -25 13 -25 25s8 24 25 24h223c15 0 35 -5 35 -33c0 -15 -4 -21 -11 -32l-220 -368h209c17 0 26 -12 26 -24z" />
    <glyph glyph-name="braceleft" unicode="{" horiz-adv-x="346" 
d="M299 -80c0 -13 -9 -25 -25 -25c-108 0 -123 66 -123 137v209c0 17 -6 32 -19 45c-27 30 -39 35 -39 59c0 25 12 30 39 60c13 13 19 28 19 45v169c0 72 15 138 123 138c16 0 25 -12 25 -25c0 -12 -9 -24 -25 -24c-50 0 -73 -8 -73 -89v-169c0 -50 -34 -76 -60 -105
c27 -27 60 -55 60 -104v-209c0 -80 23 -88 73 -88c16 0 25 -12 25 -24z" />
    <glyph glyph-name="bar" unicode="|" horiz-adv-x="330" 
d="M190 -131c0 -17 -13 -25 -25 -25s-25 8 -25 25v874c0 16 13 25 25 25s25 -9 25 -25v-874z" />
    <glyph glyph-name="braceright" unicode="}" horiz-adv-x="346" 
d="M253 345c0 -23 -10 -30 -39 -59c-13 -13 -19 -28 -19 -45v-209c0 -71 -15 -137 -123 -137c-16 0 -25 12 -25 25c0 12 9 24 25 24c50 0 73 8 73 88v209c0 49 33 77 60 104c-26 29 -60 55 -60 105v164c0 81 -23 89 -73 89c-16 0 -25 12 -25 24c0 13 9 25 25 25
c108 0 123 -66 123 -138v-164c0 -17 6 -32 19 -45c29 -29 39 -36 39 -60z" />
    <glyph glyph-name="asciitilde" unicode="~" horiz-adv-x="489" 
d="M386 669c0 -27 -41 -46 -89 -46c-51 0 -87 26 -114 26c-34 0 -45 -26 -61 -26c-12 0 -22 11 -22 22c0 29 52 46 79 46c53 0 88 -26 118 -26c47 0 46 26 66 26c12 0 23 -10 23 -22z" />
    <glyph glyph-name="Adieresis" unicode="&#xc4;" horiz-adv-x="544" 
d="M388 838c0 -16 -12 -25 -25 -25c-12 0 -25 9 -25 25v33c0 17 13 25 25 25c13 0 25 -8 25 -25v-33zM206 838c0 -16 -13 -25 -25 -25c-13 0 -25 9 -25 25v33c0 17 12 26 25 26c12 0 25 -9 25 -26v-33zM509 18c0 -15 -12 -23 -25 -23c-11 0 -19 6 -23 17l-53 160h-275
l-50 -160c-3 -11 -12 -17 -23 -17c-13 0 -25 8 -25 23c0 3 0 6 1 8l212 653c4 13 13 18 24 18s19 -6 23 -18l213 -653c1 -2 1 -5 1 -8zM393 221l-121 376l-123 -376h244z" />
    <glyph glyph-name="Aring" unicode="&#xc5;" horiz-adv-x="544" 
d="M342 826c0 -39 -31 -70 -70 -70s-71 31 -71 70s32 71 71 71s70 -32 70 -71zM509 18c0 -15 -12 -23 -25 -23c-11 0 -19 6 -23 17l-53 160h-275l-50 -160c-3 -11 -12 -17 -23 -17c-13 0 -25 8 -25 23c0 3 0 6 1 8l212 653c4 13 13 18 24 18s19 -6 23 -18l213 -653
c1 -2 1 -5 1 -8zM306 826c0 19 -15 35 -34 35s-34 -16 -34 -35s15 -33 34 -33s34 14 34 33zM393 221l-121 376l-123 -376h244z" />
    <glyph glyph-name="Ccedilla" unicode="&#xc7;" horiz-adv-x="509" 
d="M462 151c-10 -83 -77 -146 -161 -155v-5c35 -8 59 -39 59 -76v-11c0 -43 -35 -79 -79 -79h-10c-35 0 -77 28 -77 65c0 15 13 24 25 24c27 0 21 -39 52 -39h10c17 0 30 13 30 29v11c0 16 -13 29 -30 29h-4c-15 0 -25 12 -25 25v27c-92 9 -165 85 -165 181v337
c0 102 83 183 184 183h10c93 0 170 -68 181 -157v-3c0 -15 -11 -25 -24 -25c-12 0 -22 9 -25 21c-8 64 -64 115 -132 115h-10c-75 0 -135 -59 -135 -134v-337c0 -75 60 -134 135 -134h10c68 0 124 51 132 115c3 12 13 21 25 21c13 0 24 -10 24 -25v-3z" />
    <glyph glyph-name="Eacute" unicode="&#xc9;" horiz-adv-x="516" 
d="M401 871c0 -9 -5 -16 -15 -21l-163 -77c-5 -1 -9 -2 -12 -2c-13 0 -24 13 -24 26c0 9 5 16 15 21l163 76c4 1 8 3 12 3c12 0 24 -13 24 -26zM481 25c0 -13 -8 -25 -25 -25h-326c-15 0 -25 12 -25 25v641c0 13 10 25 25 25h326c17 0 25 -12 25 -25c0 -12 -8 -24 -25 -24
h-297v-259h209c17 0 25 -13 25 -26c0 -12 -8 -24 -25 -24h-214v-284h302c17 0 25 -12 25 -24z" />
    <glyph glyph-name="Ntilde" unicode="&#xd1;" horiz-adv-x="586" 
d="M430 874c0 -27 -41 -46 -89 -46c-49 0 -87 27 -114 27c-32 0 -44 -27 -60 -27c-12 0 -22 12 -22 23c0 29 52 45 79 45c54 0 86 -26 118 -26c47 0 46 27 65 27c12 0 23 -11 23 -23zM481 20c0 -16 -11 -25 -24 -25h-18c-7 0 -20 4 -25 16l-259 588v-580
c0 -17 -13 -24 -25 -24s-25 7 -25 24v653c0 13 12 25 25 25h18c7 0 17 -5 22 -16l261 -589v580c0 17 13 25 25 25s25 -8 25 -25v-652z" />
    <glyph glyph-name="Odieresis" unicode="&#xd6;" horiz-adv-x="551" 
d="M389 838c0 -16 -12 -25 -25 -25c-12 0 -25 9 -25 25v33c0 17 13 25 25 25c13 0 25 -8 25 -25v-33zM207 838c0 -16 -13 -25 -25 -25c-13 0 -25 9 -25 25v33c0 17 12 26 25 26c12 0 25 -9 25 -26v-33zM463 177c0 -102 -82 -182 -183 -182h-10c-101 0 -183 80 -183 182v337
c0 102 82 183 183 183h10c101 0 183 -81 183 -183v-337zM414 177v337c0 75 -59 134 -134 134h-10c-75 0 -134 -59 -134 -134v-337c0 -75 59 -134 134 -134h10c75 0 134 59 134 134z" />
    <glyph glyph-name="Udieresis" unicode="&#xdc;" horiz-adv-x="586" 
d="M410 838c0 -16 -12 -25 -25 -25c-12 0 -25 9 -25 25v33c0 17 13 25 25 25c13 0 25 -8 25 -25v-33zM228 838c0 -16 -13 -25 -25 -25c-13 0 -25 9 -25 25v33c0 17 12 26 25 26c12 0 25 -9 25 -26v-33zM481 177c0 -102 -82 -182 -183 -182h-10c-101 0 -183 80 -183 182v495
c0 17 12 25 25 25c12 0 24 -8 24 -25v-495c0 -75 59 -134 134 -134h10c75 0 134 59 134 134v495c0 17 12 25 24 25c13 0 25 -8 25 -25v-495z" />
    <glyph glyph-name="aacute" unicode="&#xe1;" horiz-adv-x="483" 
d="M326 671c0 -9 -5 -16 -15 -21l-163 -77c-5 -1 -9 -2 -12 -2c-13 0 -24 13 -24 26c0 9 5 16 15 21l163 76c4 2 8 3 12 3c12 0 24 -13 24 -26zM442 20c0 -15 -9 -25 -24 -25h-5c-40 7 -60 25 -71 52c-29 -33 -71 -52 -118 -52h-10c-84 0 -156 50 -156 144v5
c0 134 158 125 243 154c27 9 29 15 29 38c0 58 -45 102 -101 102h-7c-40 0 -79 -15 -99 -60c-5 -10 -12 -15 -22 -15c-13 0 -27 10 -27 25c0 3 1 7 3 11c29 68 92 89 145 89h7c79 0 150 -65 150 -148v-201c0 -77 10 -90 42 -95c14 -2 21 -10 21 -24zM330 150v106
c-58 -27 -223 -16 -223 -113v-5c0 -60 44 -95 107 -95h10c59 0 106 48 106 107z" />
    <glyph glyph-name="agrave" unicode="&#xe0;" horiz-adv-x="483" 
d="M340 597c0 -13 -11 -26 -24 -26c-5 0 -9 1 -12 2l-163 77c-10 5 -15 12 -15 21c0 13 12 26 24 26c4 0 8 -1 12 -3l163 -76c10 -5 15 -12 15 -21zM442 20c0 -15 -9 -25 -24 -25h-5c-40 7 -60 25 -71 52c-29 -33 -71 -52 -118 -52h-10c-84 0 -156 50 -156 144v5
c0 134 158 125 243 154c27 9 29 15 29 38c0 58 -45 102 -101 102h-7c-40 0 -79 -15 -99 -60c-5 -10 -12 -15 -22 -15c-13 0 -27 10 -27 25c0 3 1 7 3 11c29 68 92 89 145 89h7c79 0 150 -65 150 -148v-201c0 -77 10 -90 42 -95c14 -2 21 -10 21 -24zM330 150v106
c-58 -27 -223 -16 -223 -113v-5c0 -60 44 -95 107 -95h10c59 0 106 48 106 107z" />
    <glyph glyph-name="acircumflex" unicode="&#xe2;" horiz-adv-x="483" 
d="M347 615c0 -12 -11 -25 -24 -25c-4 0 -9 2 -14 5l-78 51l-78 -51c-5 -3 -10 -5 -14 -5c-13 0 -24 13 -24 25c0 8 4 14 11 19l78 53c11 7 16 10 27 10s16 -3 27 -10l78 -53c7 -5 11 -11 11 -19zM442 20c0 -15 -9 -25 -24 -25h-5c-40 7 -60 25 -71 52
c-29 -33 -71 -52 -118 -52h-10c-84 0 -156 50 -156 144v5c0 134 158 125 243 154c27 9 29 15 29 38c0 58 -45 102 -101 102h-7c-40 0 -79 -15 -99 -60c-5 -10 -12 -15 -22 -15c-13 0 -27 10 -27 25c0 3 1 7 3 11c29 68 92 89 145 89h7c79 0 150 -65 150 -148v-201
c0 -77 10 -90 42 -95c14 -2 21 -10 21 -24zM330 150v106c-58 -27 -223 -16 -223 -113v-5c0 -60 44 -95 107 -95h10c59 0 106 48 106 107z" />
    <glyph glyph-name="adieresis" unicode="&#xe4;" horiz-adv-x="483" 
d="M340 639c0 -16 -12 -25 -25 -25c-12 0 -25 9 -25 25v33c0 17 13 25 25 25c13 0 25 -8 25 -25v-33zM158 639c0 -16 -13 -25 -25 -25c-13 0 -25 9 -25 25v33c0 17 12 25 25 25c12 0 25 -8 25 -25v-33zM442 20c0 -15 -9 -25 -24 -25h-5c-40 7 -60 25 -71 52
c-29 -33 -71 -52 -118 -52h-10c-84 0 -156 50 -156 144v5c0 134 158 125 243 154c27 9 29 15 29 38c0 58 -45 102 -101 102h-7c-40 0 -79 -15 -99 -60c-5 -10 -12 -15 -22 -15c-13 0 -27 10 -27 25c0 3 1 7 3 11c29 68 92 89 145 89h7c79 0 150 -65 150 -148v-201
c0 -77 10 -90 42 -95c14 -2 21 -10 21 -24zM330 150v106c-58 -27 -223 -16 -223 -113v-5c0 -60 44 -95 107 -95h10c59 0 106 48 106 107z" />
    <glyph glyph-name="atilde" unicode="&#xe3;" horiz-adv-x="483" 
d="M367 675c0 -27 -40 -46 -89 -46s-87 26 -114 26c-32 0 -44 -26 -60 -26c-12 0 -22 11 -22 22c0 29 52 46 79 46c54 0 86 -26 118 -26c47 0 46 26 65 26c12 0 23 -10 23 -22zM442 20c0 -15 -9 -25 -24 -25h-5c-40 7 -60 25 -71 52c-29 -33 -71 -52 -118 -52h-10
c-84 0 -156 50 -156 144v5c0 134 158 125 243 154c27 9 29 15 29 38c0 58 -45 102 -101 102h-7c-40 0 -79 -15 -99 -60c-5 -10 -12 -15 -22 -15c-13 0 -27 10 -27 25c0 3 1 7 3 11c29 68 92 89 145 89h7c79 0 150 -65 150 -148v-201c0 -77 10 -90 42 -95
c14 -2 21 -10 21 -24zM330 150v106c-58 -27 -223 -16 -223 -113v-5c0 -60 44 -95 107 -95h10c59 0 106 48 106 107z" />
    <glyph glyph-name="aring" unicode="&#xe5;" horiz-adv-x="483" 
d="M296 626c0 -39 -31 -70 -70 -70s-71 31 -71 70s32 71 71 71s70 -32 70 -71zM442 20c0 -15 -9 -25 -24 -25h-5c-40 7 -60 25 -71 52c-29 -33 -71 -52 -118 -52h-10c-84 0 -156 50 -156 144v5c0 134 158 125 243 154c27 9 29 15 29 38c0 58 -45 102 -101 102h-7
c-40 0 -79 -15 -99 -60c-5 -10 -12 -15 -22 -15c-13 0 -27 10 -27 25c0 3 1 7 3 11c29 68 92 89 145 89h7c79 0 150 -65 150 -148v-201c0 -77 10 -90 42 -95c14 -2 21 -10 21 -24zM260 626c0 19 -15 34 -34 34s-34 -15 -34 -34s15 -34 34 -34s34 15 34 34zM330 150v106
c-58 -27 -223 -16 -223 -113v-5c0 -60 44 -95 107 -95h10c59 0 106 48 106 107z" />
    <glyph glyph-name="ccedilla" unicode="&#xe7;" horiz-adv-x="456" 
d="M398 150c0 -80 -61 -146 -138 -154v-32c35 -8 59 -39 59 -76v-11c0 -43 -35 -79 -79 -79h-10c-35 0 -77 28 -77 65c0 15 13 24 25 24c27 0 21 -39 52 -39h10c17 0 30 13 30 29v11c0 16 -13 29 -30 29h-4c-15 0 -25 12 -25 25v54c-76 11 -135 74 -135 154v182
c0 88 71 156 156 156h10c85 0 156 -68 156 -156c0 -17 -12 -25 -24 -25s-25 8 -25 25c0 59 -48 107 -107 107h-10c-59 0 -107 -48 -107 -107v-182c0 -59 48 -107 107 -107h10c59 0 107 48 107 107c0 17 13 26 25 26s24 -9 24 -26z" />
    <glyph glyph-name="eacute" unicode="&#xe9;" horiz-adv-x="461" 
d="M340 671c0 -9 -5 -16 -15 -21l-163 -77c-5 -1 -9 -2 -12 -2c-13 0 -24 13 -24 26c0 9 5 16 15 21l163 76c4 2 8 3 12 3c12 0 24 -13 24 -26zM397 241c0 -13 -12 -25 -25 -25h-248v-66c0 -59 48 -107 107 -107h10c47 0 84 29 99 72c4 11 12 17 23 17c13 0 27 -9 27 -24
c0 -2 -1 -5 -2 -9c-21 -63 -79 -104 -147 -104h-10c-85 0 -156 69 -156 155v182c0 85 71 156 155 156h10c87 0 157 -65 157 -156v-91zM348 266v66c0 59 -50 107 -106 107h-10c-59 0 -108 -48 -108 -107v-66h224z" />
    <glyph glyph-name="egrave" unicode="&#xe8;" horiz-adv-x="461" 
d="M351 597c0 -13 -11 -26 -24 -26c-5 0 -9 1 -12 2l-163 77c-10 5 -15 12 -15 21c0 13 12 26 24 26c4 0 8 -1 12 -3l163 -76c10 -5 15 -12 15 -21zM397 241c0 -13 -12 -25 -25 -25h-248v-66c0 -59 48 -107 107 -107h10c47 0 84 29 99 72c4 11 12 17 23 17
c13 0 27 -9 27 -24c0 -2 -1 -5 -2 -9c-21 -63 -79 -104 -147 -104h-10c-85 0 -156 69 -156 155v182c0 85 71 156 155 156h10c87 0 157 -65 157 -156v-91zM348 266v66c0 59 -50 107 -106 107h-10c-59 0 -108 -48 -108 -107v-66h224z" />
    <glyph glyph-name="ecircumflex" unicode="&#xea;" horiz-adv-x="461" 
d="M350 615c0 -12 -11 -25 -24 -25c-4 0 -9 2 -14 5l-78 51l-78 -51c-5 -3 -10 -5 -14 -5c-13 0 -24 13 -24 25c0 8 4 14 11 19l78 53c11 7 16 10 27 10s16 -3 27 -10l78 -53c7 -5 11 -12 11 -19zM397 241c0 -13 -12 -25 -25 -25h-248v-66c0 -59 48 -107 107 -107h10
c47 0 84 29 99 72c4 11 12 17 23 17c13 0 27 -9 27 -24c0 -2 -1 -5 -2 -9c-21 -63 -79 -104 -147 -104h-10c-85 0 -156 69 -156 155v182c0 85 71 156 155 156h10c87 0 157 -65 157 -156v-91zM348 266v66c0 59 -50 107 -106 107h-10c-59 0 -108 -48 -108 -107v-66h224z" />
    <glyph glyph-name="edieresis" unicode="&#xeb;" horiz-adv-x="461" 
d="M352 639c0 -16 -12 -25 -25 -25c-12 0 -25 9 -25 25v33c0 17 13 25 25 25c13 0 25 -8 25 -25v-33zM170 639c0 -16 -13 -25 -25 -25c-13 0 -25 9 -25 25v33c0 17 12 25 25 25c12 0 25 -8 25 -25v-33zM397 241c0 -13 -12 -25 -25 -25h-248v-66c0 -59 48 -107 107 -107h10
c47 0 84 29 99 72c4 11 12 17 23 17c13 0 27 -9 27 -24c0 -2 -1 -5 -2 -9c-21 -63 -79 -104 -147 -104h-10c-85 0 -156 69 -156 155v182c0 85 71 156 155 156h10c87 0 157 -65 157 -156v-91zM348 266v66c0 59 -50 107 -106 107h-10c-59 0 -108 -48 -108 -107v-66h224z" />
    <glyph glyph-name="iacute" unicode="&#xed;" horiz-adv-x="248" 
d="M231 671c0 -9 -5 -16 -15 -21l-163 -77c-5 -1 -9 -2 -12 -2c-13 0 -24 13 -24 26c0 9 5 16 15 21l163 76c5 2 9 3 12 3c12 0 24 -13 24 -26zM149 19c0 -17 -13 -24 -25 -24s-25 7 -25 24v444c0 17 13 25 25 25s25 -8 25 -25v-444z" />
    <glyph glyph-name="igrave" unicode="&#xec;" horiz-adv-x="248" 
d="M231 597c0 -13 -11 -26 -24 -26c-5 0 -9 1 -12 2l-163 77c-10 5 -15 12 -15 21c0 13 12 26 24 26c4 0 8 -1 12 -3l163 -76c10 -5 15 -12 15 -21zM149 19c0 -17 -13 -24 -25 -24s-25 7 -25 24v444c0 17 13 25 25 25s25 -8 25 -25v-444z" />
    <glyph glyph-name="icircumflex" unicode="&#xee;" horiz-adv-x="248" 
d="M240 615c0 -12 -11 -25 -24 -25c-4 0 -9 2 -14 5l-78 51l-78 -51c-5 -3 -10 -5 -14 -5c-13 0 -23 13 -23 25c0 8 3 14 10 19l78 53c11 7 16 10 27 10s16 -3 27 -10l78 -53c7 -5 11 -11 11 -19zM149 19c0 -17 -13 -24 -25 -24s-25 7 -25 24v444c0 17 13 25 25 25
s25 -8 25 -25v-444z" />
    <glyph glyph-name="idieresis" unicode="&#xef;" horiz-adv-x="248" 
d="M240 639c0 -16 -12 -25 -25 -25c-12 0 -25 9 -25 25v33c0 17 13 25 25 25c13 0 25 -8 25 -25v-33zM58 639c0 -16 -13 -25 -25 -25c-13 0 -24 9 -24 25v33c0 17 11 25 24 25c12 0 25 -8 25 -25v-33zM149 19c0 -17 -13 -24 -25 -24s-25 7 -25 24v444c0 17 13 25 25 25
s25 -8 25 -25v-444z" />
    <glyph glyph-name="ntilde" unicode="&#xf1;" 
d="M387 675c0 -27 -40 -46 -89 -46s-87 26 -114 26c-32 0 -44 -26 -60 -26c-12 0 -22 11 -22 22c0 29 52 46 79 46c54 0 86 -26 118 -26c47 0 46 26 65 26c12 0 23 -10 23 -22zM409 19c0 -17 -13 -24 -25 -24s-25 7 -25 24v314c0 60 -46 106 -106 106h-9
c-60 0 -107 -49 -107 -109v-311c0 -17 -13 -24 -25 -24s-25 7 -25 24v444c0 17 13 25 25 25s25 -8 25 -25v-24c19 29 66 49 107 49h9c85 0 156 -68 156 -156v-313z" />
    <glyph glyph-name="oacute" unicode="&#xf3;" horiz-adv-x="471" 
d="M333 671c0 -9 -5 -16 -15 -21l-163 -77c-5 -1 -9 -2 -12 -2c-13 0 -24 13 -24 26c0 9 5 16 15 21l163 76c4 2 8 3 12 3c12 0 24 -13 24 -26zM397 150c0 -86 -71 -155 -156 -155h-10c-85 0 -156 69 -156 155v182c0 88 71 156 156 156h10c85 0 156 -68 156 -156v-182z
M348 150v182c0 59 -48 107 -107 107h-10c-59 0 -107 -48 -107 -107v-182c0 -59 48 -107 107 -107h10c59 0 107 48 107 107z" />
    <glyph glyph-name="ograve" unicode="&#xf2;" horiz-adv-x="471" 
d="M349 597c0 -13 -11 -26 -24 -26c-5 0 -9 1 -12 2l-163 77c-10 5 -15 12 -15 21c0 13 12 26 24 26c4 0 8 -1 12 -3l163 -76c10 -5 15 -12 15 -21zM397 150c0 -86 -71 -155 -156 -155h-10c-85 0 -156 69 -156 155v182c0 88 71 156 156 156h10c85 0 156 -68 156 -156v-182z
M348 150v182c0 59 -48 107 -107 107h-10c-59 0 -107 -48 -107 -107v-182c0 -59 48 -107 107 -107h10c59 0 107 48 107 107z" />
    <glyph glyph-name="ocircumflex" unicode="&#xf4;" horiz-adv-x="471" 
d="M351 615c0 -12 -11 -25 -24 -25c-4 0 -9 2 -14 5l-78 51l-78 -51c-5 -3 -10 -5 -14 -5c-13 0 -24 13 -24 25c0 8 4 14 11 19l78 53c11 7 16 10 27 10s16 -3 27 -10l78 -53c7 -5 11 -12 11 -19zM397 150c0 -86 -71 -155 -156 -155h-10c-85 0 -156 69 -156 155v182
c0 88 71 156 156 156h10c85 0 156 -68 156 -156v-182zM348 150v182c0 59 -48 107 -107 107h-10c-59 0 -107 -48 -107 -107v-182c0 -59 48 -107 107 -107h10c59 0 107 48 107 107z" />
    <glyph glyph-name="odieresis" unicode="&#xf6;" horiz-adv-x="471" 
d="M350 639c0 -16 -12 -25 -25 -25c-12 0 -25 9 -25 25v33c0 17 13 25 25 25c13 0 25 -8 25 -25v-33zM168 639c0 -16 -13 -25 -25 -25c-13 0 -25 9 -25 25v33c0 17 12 25 25 25c12 0 25 -8 25 -25v-33zM397 150c0 -86 -71 -155 -156 -155h-10c-85 0 -156 69 -156 155v182
c0 88 71 156 156 156h10c85 0 156 -68 156 -156v-182zM348 150v182c0 59 -48 107 -107 107h-10c-59 0 -107 -48 -107 -107v-182c0 -59 48 -107 107 -107h10c59 0 107 48 107 107z" />
    <glyph glyph-name="otilde" unicode="&#xf5;" horiz-adv-x="471" 
d="M376 675c0 -27 -40 -46 -89 -46s-87 26 -114 26c-32 0 -44 -26 -60 -26c-12 0 -22 11 -22 22c0 29 52 46 79 46c54 0 86 -26 118 -26c47 0 46 26 65 26c12 0 23 -10 23 -22zM397 150c0 -86 -71 -155 -156 -155h-10c-85 0 -156 69 -156 155v182c0 88 71 156 156 156h10
c85 0 156 -68 156 -156v-182zM348 150v182c0 59 -48 107 -107 107h-10c-59 0 -107 -48 -107 -107v-182c0 -59 48 -107 107 -107h10c59 0 107 48 107 107z" />
    <glyph glyph-name="uacute" unicode="&#xfa;" 
d="M343 671c0 -9 -5 -16 -15 -21l-163 -77c-5 -1 -9 -2 -12 -2c-13 0 -24 13 -24 26c0 9 5 16 15 21l163 76c4 2 8 3 12 3c12 0 24 -13 24 -26zM398 19c0 -17 -13 -24 -25 -24s-25 7 -25 24v24c-19 -29 -66 -48 -107 -48h-9c-85 0 -156 66 -156 155v313c0 17 13 25 25 25
s25 -8 25 -25v-314c0 -60 46 -106 106 -106h9c60 0 107 49 107 109v311c0 17 13 25 25 25s25 -8 25 -25v-444z" />
    <glyph glyph-name="ugrave" unicode="&#xf9;" 
d="M348 597c0 -13 -11 -26 -24 -26c-5 0 -9 1 -12 2l-163 77c-10 5 -15 12 -15 21c0 13 12 26 24 26c4 0 8 -1 12 -3l163 -76c10 -5 15 -12 15 -21zM398 19c0 -17 -13 -24 -25 -24s-25 7 -25 24v24c-19 -29 -66 -48 -107 -48h-9c-85 0 -156 66 -156 155v313
c0 17 13 25 25 25s25 -8 25 -25v-314c0 -60 46 -106 106 -106h9c60 0 107 49 107 109v311c0 17 13 25 25 25s25 -8 25 -25v-444z" />
    <glyph glyph-name="ucircumflex" unicode="&#xfb;" 
d="M354 615c0 -12 -11 -25 -24 -25c-4 0 -9 2 -14 5l-78 51l-78 -51c-5 -3 -10 -5 -14 -5c-13 0 -24 13 -24 25c0 8 4 14 11 19l78 53c11 7 16 10 27 10s16 -3 27 -10l78 -53c7 -5 11 -11 11 -19zM398 19c0 -17 -13 -24 -25 -24s-25 7 -25 24v24c-19 -29 -66 -48 -107 -48
h-9c-85 0 -156 66 -156 155v313c0 17 13 25 25 25s25 -8 25 -25v-314c0 -60 46 -106 106 -106h9c60 0 107 49 107 109v311c0 17 13 25 25 25s25 -8 25 -25v-444z" />
    <glyph glyph-name="udieresis" unicode="&#xfc;" 
d="M350 639c0 -16 -12 -25 -25 -25c-12 0 -25 9 -25 25v33c0 17 13 25 25 25c13 0 25 -8 25 -25v-33zM168 639c0 -16 -13 -25 -25 -25c-13 0 -25 9 -25 25v33c0 17 12 25 25 25c12 0 25 -8 25 -25v-33zM398 19c0 -17 -13 -24 -25 -24s-25 7 -25 24v24
c-19 -29 -66 -48 -107 -48h-9c-85 0 -156 66 -156 155v313c0 17 13 25 25 25s25 -8 25 -25v-314c0 -60 46 -106 106 -106h9c60 0 107 49 107 109v311c0 17 13 25 25 25s25 -8 25 -25v-444z" />
    <glyph glyph-name="dagger" unicode="&#x2020;" horiz-adv-x="419" 
d="M360 463c0 -12 -8 -25 -24 -25h-101v-421c0 -15 -13 -22 -25 -22s-25 7 -25 22v421h-103c-16 0 -24 13 -24 25s8 25 24 25h103v185c0 16 13 24 25 24s25 -8 25 -24v-185h101c16 0 24 -13 24 -25z" />
    <glyph glyph-name="degree" unicode="&#xb0;" horiz-adv-x="275" 
d="M239 607c0 -51 -42 -93 -93 -93s-94 42 -94 93s42 93 93 93s94 -42 94 -93zM200 607c0 29 -23 54 -54 54s-56 -25 -56 -54c0 -31 24 -55 55 -55s54 24 54 55h1z" />
    <glyph glyph-name="cent" unicode="&#xa2;" horiz-adv-x="456" 
d="M398 150c0 -80 -59 -143 -135 -154v-40c0 -16 -12 -25 -25 -25c-12 0 -24 9 -24 25v40c-78 8 -138 74 -138 154v182c0 79 60 147 138 155v40c0 17 12 25 24 25c13 0 25 -8 25 -25v-40c76 -11 135 -76 135 -155c0 -17 -12 -25 -25 -25c-12 0 -24 8 -24 25
c0 59 -48 107 -107 107h-10c-59 0 -107 -48 -107 -107v-182c0 -59 48 -107 107 -107h10c59 0 107 48 107 107c0 17 12 25 24 25c13 0 25 -8 25 -25z" />
    <glyph glyph-name="sterling" unicode="&#xa3;" horiz-adv-x="513" 
d="M501 127c0 -96 -85 -127 -162 -127h-263c-15 0 -22 10 -22 25c0 19 13 22 29 30c64 29 83 74 83 125c0 44 -15 92 -32 137h-86c-17 0 -25 13 -25 25s8 24 25 24h67c-23 56 -43 120 -43 165v14c0 83 68 152 156 152h16c74 0 149 -56 157 -133v-4c0 -16 -13 -24 -25 -24
c-11 0 -21 7 -24 22c-5 47 -53 90 -108 90h-16c-56 0 -106 -44 -106 -103v-14c0 -47 18 -101 45 -165h113c17 0 25 -12 25 -24s-8 -25 -25 -25h-96c17 -44 28 -90 28 -134c0 -51 -15 -98 -58 -134h189c20 0 109 2 109 78c0 17 13 25 25 25s24 -8 24 -25z" />
    <glyph glyph-name="section" unicode="&#xa7;" horiz-adv-x="477" 
d="M396 252c0 -65 -45 -113 -112 -128l41 -32c43 -33 67 -67 67 -124c0 -95 -77 -140 -153 -140s-151 44 -151 123c0 17 12 25 25 25c12 0 24 -8 24 -25c0 -45 51 -73 102 -73c52 0 104 26 104 90c0 43 -20 60 -51 87l-168 147c-29 25 -42 58 -42 93c0 59 45 115 103 128
c-52 47 -75 81 -75 146c0 53 35 128 139 128c75 0 132 -51 132 -120c0 -16 -13 -24 -26 -24c-12 0 -23 7 -23 22c0 37 -27 73 -83 73c-64 0 -89 -36 -89 -79c0 -52 18 -77 73 -123l121 -100c29 -24 42 -59 42 -94zM348 253c0 23 -9 42 -26 57l-92 78c-5 0 -100 -14 -100 -93
c0 -21 8 -41 26 -57l90 -78c8 0 102 14 102 93z" />
    <glyph glyph-name="bullet" unicode="&#x2022;" horiz-adv-x="360" 
d="M284 337c0 -58 -45 -105 -104 -105c-57 0 -104 47 -104 105c0 57 47 104 104 104c59 0 104 -47 104 -104z" />
    <glyph glyph-name="paragraph" unicode="&#xb6;" horiz-adv-x="504" 
d="M399 -56c0 -17 -12 -25 -25 -25c-12 0 -24 8 -24 25v698h-64v-698c0 -17 -12 -25 -25 -25c-12 0 -24 8 -24 25v383h-31c-101 0 -183 81 -183 182s82 182 183 182h168c15 0 25 -12 25 -25v-722zM237 377v265h-31c-75 0 -134 -60 -134 -133c0 -75 59 -132 134 -132h31z" />
    <glyph glyph-name="germandbls" unicode="&#xdf;" horiz-adv-x="525" 
d="M467 177c0 -98 -75 -182 -151 -182c-17 0 -25 11 -25 24c0 12 8 24 25 24c43 0 102 57 102 134v65c0 80 -33 136 -94 136c-12 0 -24 9 -24 21v7c0 13 12 21 25 21c66 0 84 68 84 89v4c0 76 -52 128 -125 128h-4c-73 0 -126 -53 -126 -128v-554c0 -17 -12 -25 -24 -25
c-13 0 -25 8 -25 25v554c0 101 74 177 175 177h4c101 0 174 -76 174 -177v-4c0 -21 -12 -81 -61 -114c51 -32 70 -95 70 -160v-65z" />
    <glyph glyph-name="registered" unicode="&#xae;" horiz-adv-x="903" 
d="M822 346c0 -206 -162 -370 -370 -370c-204 0 -370 163 -370 369s166 371 370 371c208 0 370 -165 370 -370zM773 345c0 180 -141 322 -321 322c-176 0 -321 -142 -321 -322c0 -177 145 -323 321 -323c180 0 321 146 321 323zM593 443c0 -56 -37 -101 -88 -116l80 -175
c1 -5 2 -9 2 -11c0 -15 -13 -24 -26 -24c-8 0 -16 3 -21 14l-88 191h-62v-180c0 -17 -12 -25 -24 -25c-13 0 -25 8 -25 25v403c0 13 11 25 24 25h107c67 0 121 -54 121 -121v-6zM544 443v6c0 53 -32 72 -72 72h-82v-149h82c40 0 72 32 72 71z" />
    <glyph glyph-name="copyright" unicode="&#xa9;" horiz-adv-x="903" 
d="M822 346c0 -206 -162 -370 -370 -370c-204 0 -370 163 -370 369s166 371 370 371c208 0 370 -165 370 -370zM773 345c0 180 -141 322 -321 322c-176 0 -321 -142 -321 -322c0 -177 145 -323 321 -323c180 0 321 146 321 323zM571 215c-8 -56 -55 -98 -114 -98h-6
c-63 0 -115 51 -115 115v223c0 64 52 115 115 115h6c59 0 106 -43 114 -99v-4c0 -15 -12 -23 -24 -23c-11 0 -22 6 -23 21c-5 32 -32 56 -67 56h-6c-37 0 -65 -29 -65 -66v-223c0 -39 28 -66 65 -66h6c35 0 62 23 67 56c3 15 12 20 23 20c12 0 24 -8 24 -23v-4z" />
    <glyph glyph-name="trademark" unicode="&#x2122;" horiz-adv-x="608" 
d="M549 399c0 -15 -10 -22 -21 -22s-21 7 -21 22v207l-67 -127c-3 -6 -8 -9 -17 -9c-7 0 -13 3 -16 9l-67 127v-207c0 -15 -10 -22 -21 -22s-20 7 -20 22v276c0 12 9 22 20 22h6c13 0 19 -6 27 -21l71 -141l72 141c8 15 14 21 27 21h6c11 0 21 -10 21 -22v-276zM240 675
c0 -11 -7 -20 -22 -20h-63v-256c0 -15 -10 -22 -21 -22s-20 7 -20 22v256h-68c-15 0 -23 9 -23 20c0 12 8 22 23 22h172c15 0 22 -10 22 -22z" />
    <glyph glyph-name="acute" unicode="&#xb4;" horiz-adv-x="501" 
d="M356 671c0 -9 -5 -16 -15 -21l-163 -77c-5 -1 -9 -2 -12 -2c-13 0 -24 13 -24 26c0 9 5 16 15 21l163 76c4 2 8 3 12 3c12 0 24 -13 24 -26z" />
    <glyph glyph-name="dieresis" unicode="&#xa8;" horiz-adv-x="498" 
d="M364 639c0 -16 -12 -25 -25 -25c-12 0 -25 9 -25 25v33c0 17 13 25 25 25c13 0 25 -8 25 -25v-33zM182 639c0 -16 -13 -25 -25 -25c-13 0 -25 9 -25 25v33c0 17 12 25 25 25c12 0 25 -8 25 -25v-33z" />
    <glyph glyph-name="notequal" unicode="&#x2260;" horiz-adv-x="504" 
d="M448 269c0 -12 -8 -24 -24 -24h-206l-48 -75c-5 -7 -11 -11 -20 -11c-5 0 -10 1 -15 4c-7 6 -11 13 -11 20c0 6 1 11 4 14l31 48h-79c-16 0 -24 12 -24 24c0 13 8 25 24 25h111l60 91h-171c-16 0 -24 13 -24 25s8 25 24 25h203l56 86c5 7 11 11 20 11c6 0 11 -1 14 -4
c8 -6 12 -13 12 -20c0 -5 -2 -10 -5 -14l-38 -59h82c16 0 24 -13 24 -25s-8 -25 -24 -25h-114l-60 -91h174c16 0 24 -12 24 -25z" />
    <glyph glyph-name="AE" unicode="&#xc6;" horiz-adv-x="744" 
d="M709 25c0 -13 -8 -25 -25 -25h-294c-15 0 -25 9 -25 25v185h-220l-61 -198c-3 -11 -12 -17 -23 -17c-13 0 -26 8 -26 23c0 1 1 4 2 8l209 647c4 12 12 18 25 18h413c17 0 25 -12 25 -25c0 -12 -8 -24 -25 -24h-270v-259h182c16 0 25 -13 25 -26c0 -12 -9 -24 -25 -24
h-182v-284h270c17 0 25 -12 25 -24zM365 259v383h-77l-126 -383h203z" />
    <glyph glyph-name="Oslash" unicode="&#xd8;" horiz-adv-x="593" 
d="M505 703c0 -3 -1 -6 -3 -10l-45 -88c15 -27 24 -58 24 -91v-337c0 -102 -82 -182 -183 -182h-10c-47 0 -89 16 -121 45l-33 -64c-6 -11 -15 -13 -24 -13c-12 0 -23 10 -23 23v3c0 3 1 6 3 10l42 82c-18 29 -27 61 -27 96v337c0 102 82 183 183 183h10
c48 0 93 -19 125 -50l35 69c5 9 13 13 24 13c12 0 23 -10 23 -23v-3zM399 601c-24 29 -60 47 -101 47h-10c-75 0 -134 -59 -134 -134v-337c0 -15 2 -29 7 -41zM431 177v337c0 13 -1 24 -4 33l-237 -461c25 -27 59 -43 98 -43h10c74 0 133 59 133 134z" />
    <glyph glyph-name="infinity" unicode="&#x221e;" horiz-adv-x="756" 
d="M675 233c0 -76 -45 -142 -123 -142c-55 0 -115 41 -174 102c-56 -59 -114 -102 -174 -102c-77 0 -122 66 -122 142c0 75 45 141 122 141c56 0 116 -40 173 -101c59 59 116 101 175 101c78 0 123 -66 123 -141zM626 233c0 56 -31 90 -74 90c-51 0 -102 -47 -142 -90
c40 -40 91 -89 142 -89c43 0 74 34 74 89zM346 233c-40 42 -93 90 -142 90c-43 0 -74 -34 -74 -90c0 -55 31 -89 74 -89c49 0 102 46 142 89z" />
    <glyph glyph-name="plusminus" unicode="&#xb1;" horiz-adv-x="502" 
d="M432 313c0 -12 -9 -25 -26 -25h-130v-131c0 -17 -12 -25 -25 -25c-12 0 -25 8 -25 25v131h-131c-17 0 -25 13 -25 25s8 25 25 25h131v131c0 17 13 25 25 25c13 0 25 -8 25 -25v-131h130c17 0 26 -13 26 -25zM400 25c0 -13 -8 -25 -24 -25h-251c-17 0 -25 12 -25 25
c0 12 8 24 25 24h251c16 0 24 -12 24 -24z" />
    <glyph glyph-name="lessequal" unicode="&#x2264;" horiz-adv-x="463" 
d="M353 196c0 -5 -2 -9 -5 -14c-5 -8 -11 -12 -20 -12c-5 0 -9 2 -14 5l-201 133c-8 5 -12 13 -12 24s4 19 12 24l201 134c4 3 10 4 14 4c9 0 15 -4 20 -12c3 -5 5 -9 5 -14c0 -8 -4 -15 -12 -20l-178 -116l178 -116c8 -5 12 -11 12 -20zM382 25c0 -13 -8 -25 -25 -25h-250
c-17 0 -25 12 -25 25c0 12 8 24 25 24h250c17 0 25 -12 25 -24z" />
    <glyph glyph-name="greaterequal" unicode="&#x2265;" horiz-adv-x="463" 
d="M363 332c0 -10 -4 -18 -12 -24l-201 -133c-5 -3 -10 -5 -14 -5c-9 0 -15 4 -20 12c-3 5 -5 9 -5 14c0 9 4 15 12 20l178 116l-178 116c-8 5 -12 12 -12 20c0 5 2 9 5 14c5 8 11 12 20 12c5 0 9 -1 14 -4l201 -134c8 -6 12 -14 12 -24zM382 25c0 -13 -8 -25 -25 -25h-250
c-17 0 -25 12 -25 25c0 12 8 24 25 24h250c17 0 25 -12 25 -24z" />
    <glyph glyph-name="yen" unicode="&#xa5;" horiz-adv-x="477" 
d="M431 673c0 -3 -1 -6 -2 -10l-154 -369h92c17 0 25 -13 25 -25s-8 -25 -24 -25h-104v-43h103c17 0 25 -13 25 -25c0 -13 -8 -25 -24 -25h-104v-132c0 -17 -13 -24 -25 -24s-25 7 -25 24v132h-95c-16 0 -24 13 -24 25s8 25 24 25h95v43h-95c-16 0 -24 13 -24 25s8 25 24 25
h84l-154 369c-1 2 -2 5 -2 10c0 15 13 24 26 24c11 0 18 -5 22 -15l144 -346l144 346c4 10 11 15 22 15c13 0 26 -9 26 -24z" />
    <glyph glyph-name="mu" unicode="&#x3bc;" horiz-adv-x="514" 
d="M427 19c0 -17 -13 -24 -25 -24s-25 7 -25 24v24c-19 -29 -65 -48 -106 -48h-9c-41 0 -88 19 -107 48v-233c0 -17 -13 -25 -25 -25s-25 8 -25 25v653c0 17 13 25 25 25s25 -8 25 -25v-311c0 -60 47 -109 107 -109h9c60 0 106 49 106 109v311c0 17 13 25 25 25
s25 -8 25 -25v-444z" />
    <glyph glyph-name="partialdiff" unicode="&#x2202;" horiz-adv-x="499" 
d="M394 147c0 -86 -69 -152 -154 -152h-11c-85 0 -154 66 -154 152v129c0 85 69 154 154 154h11c41 0 77 -14 105 -41v154c0 56 -46 105 -105 105h-45c-17 0 -25 12 -25 24c0 13 8 25 25 25h45c80 0 154 -52 154 -154v-396zM345 147v129c0 59 -46 105 -105 105h-11
c-57 0 -104 -46 -104 -105v-129c0 -59 47 -104 104 -104h11c59 0 105 45 105 104z" />
    <glyph glyph-name="summation" unicode="&#x2211;" horiz-adv-x="542" 
d="M491 -184c0 -13 -7 -25 -23 -25h-415c-13 0 -24 11 -24 26v6c0 7 1 19 11 35l237 382l-237 384c-10 17 -11 28 -11 35v6c0 16 11 26 24 26h415c16 0 23 -12 23 -25c0 -12 -7 -24 -23 -24h-384l232 -374c7 -11 10 -20 10 -28s-2 -15 -9 -26l-233 -374h384
c16 0 23 -12 23 -24z" />
    <glyph glyph-name="product" unicode="&#x220f;" horiz-adv-x="729" 
d="M581 -191c0 -16 -12 -24 -25 -24c-12 0 -24 8 -24 24v833h-366v-833c0 -16 -12 -24 -24 -24c-13 0 -25 8 -25 24v858c0 13 11 24 24 24h416c13 0 24 -11 24 -24v-858z" />
    <glyph glyph-name="pi" unicode="&#x3c0;" horiz-adv-x="564" 
d="M479 457c0 -12 -8 -24 -24 -24h-89v-314c0 -28 7 -73 43 -76c15 -1 22 -12 22 -24s-8 -24 -25 -24h-6c-4 0 -8 1 -11 2c-56 11 -73 71 -73 122v314h-111v-415c0 -16 -13 -23 -25 -23s-25 7 -25 23v415h-90c-16 0 -24 12 -24 24c0 13 8 25 24 25h390c16 0 24 -12 24 -25z
" />
    <glyph glyph-name="integral" unicode="&#x222b;" horiz-adv-x="397" 
d="M282 673c0 -12 -8 -24 -24 -24c-40 0 -67 -30 -67 -70v-676c0 -67 -48 -118 -115 -118c-16 0 -24 12 -24 24s8 24 24 24c40 0 67 30 67 70v676c0 67 48 118 115 118c16 0 24 -12 24 -24z" />
    <glyph glyph-name="ordfeminine" unicode="&#xaa;" horiz-adv-x="353" 
d="M290 414c0 -12 -9 -25 -25 -25c-17 0 -37 12 -45 24c-19 -16 -41 -24 -64 -24h-6c-52 0 -98 32 -98 92v6c0 95 141 85 152 100c1 1 2 10 2 15c0 27 -21 46 -48 46h-4c-20 0 -36 -6 -47 -26c-4 -11 -13 -14 -21 -14c-12 0 -24 9 -24 22c0 2 1 6 2 11c20 43 58 56 90 56h4
c52 0 97 -39 97 -89v-150c0 -28 35 -18 35 -44zM206 487v49c-45 -16 -104 -12 -104 -54v-2c0 -28 16 -42 48 -42h6c27 0 50 21 50 49z" />
    <glyph glyph-name="ordmasculine" unicode="&#xba;" horiz-adv-x="317" 
d="M254 482c0 -55 -43 -93 -98 -93h-6c-55 0 -98 38 -98 93v117c0 56 43 98 98 98h6c55 0 98 -42 98 -98v-117zM204 482v117c0 28 -20 49 -48 49h-6c-28 0 -48 -21 -48 -49v-117c0 -28 20 -44 48 -44h6c28 0 48 16 48 44z" />
    <glyph glyph-name="Omega" unicode="&#x3a9;" horiz-adv-x="763" 
d="M690 387c0 -128 -76 -236 -186 -284v-60h160c16 0 25 -12 25 -25c0 -12 -9 -23 -25 -23h-184c-15 0 -25 10 -25 23v80c0 24 14 35 27 43c40 24 158 84 158 246c0 144 -116 261 -260 261s-260 -117 -260 -261c0 -162 120 -223 158 -246c14 -9 27 -19 27 -43v-80
c0 -13 -10 -23 -25 -23h-184c-16 0 -25 11 -25 23c0 13 9 25 25 25h160v60c-110 48 -186 156 -186 284c0 171 139 310 310 310s310 -139 310 -310z" />
    <glyph glyph-name="ae" unicode="&#xe6;" horiz-adv-x="716" 
d="M652 241c0 -13 -12 -25 -25 -25h-248v-66c0 -59 48 -107 107 -107h10c47 0 84 29 99 72c4 11 12 17 23 17c13 0 27 -9 27 -24c0 -2 -1 -5 -2 -9c-21 -63 -79 -104 -147 -104h-10c-56 0 -103 28 -131 71c-27 -43 -75 -71 -131 -71h-11c-83 0 -155 50 -155 144v5
c0 134 158 125 243 154c24 8 29 15 29 38c0 58 -45 102 -101 102h-8c-40 0 -78 -15 -98 -60c-5 -10 -12 -15 -22 -15c-13 0 -27 10 -27 25c0 3 1 7 3 11c29 68 93 89 144 89h8c51 0 99 -27 127 -70c28 43 74 70 129 70h10c87 0 157 -65 157 -156v-91zM603 266v66
c0 59 -50 107 -106 107h-10c-59 0 -108 -48 -108 -107v-66h224zM330 150v106c-58 -27 -223 -16 -223 -113v-5c0 -60 43 -95 106 -95h11c58 0 106 48 106 107z" />
    <glyph glyph-name="oslash" unicode="&#xf8;" horiz-adv-x="497" 
d="M423 483c0 -5 -1 -9 -4 -14l-33 -53c16 -25 24 -53 24 -84v-182c0 -86 -71 -155 -156 -155h-10c-37 0 -70 12 -97 33l-26 -40c-5 -8 -12 -12 -20 -12c-13 0 -26 9 -26 24c0 4 1 8 4 13l33 54c-16 25 -24 53 -24 83v182c0 88 71 156 156 156h10c37 0 71 -13 98 -34l25 41
c5 9 14 12 21 12c13 0 25 -11 25 -24zM325 411c-19 17 -44 28 -71 28h-10c-59 0 -107 -48 -107 -107v-182c0 -11 2 -23 6 -34zM361 150v182c0 12 -2 23 -6 34l-182 -295c19 -17 44 -28 71 -28h10c59 0 107 48 107 107z" />
    <glyph glyph-name="questiondown" unicode="&#xbf;" horiz-adv-x="396" 
d="M243 639c0 -16 -12 -25 -24 -25c-13 0 -25 9 -25 25v33c0 17 12 25 25 25c12 0 24 -8 24 -25v-33zM372 146c0 -85 -69 -151 -154 -151h-6c-85 0 -154 66 -154 151v42c0 51 32 89 57 114c45 45 79 54 79 128v57c0 16 12 25 25 25c12 0 24 -9 24 -25v-57
c0 -96 -41 -109 -98 -164c-18 -18 -37 -47 -37 -78v-42c0 -57 45 -103 104 -103h6c59 0 104 46 104 103v15c0 16 13 24 25 24s25 -9 25 -25v-14z" />
    <glyph glyph-name="exclamdown" unicode="&#xa1;" horiz-adv-x="260" 
d="M155 639c0 -16 -13 -25 -25 -25s-25 9 -25 25v33c0 17 13 25 25 25s25 -8 25 -25v-33zM155 19c0 -17 -13 -24 -25 -24s-25 7 -25 24v495c0 16 13 24 25 24s25 -8 25 -24v-495z" />
    <glyph glyph-name="logicalnot" unicode="&#xac;" horiz-adv-x="433" 
d="M336 263c0 -16 -12 -24 -25 -24c-12 0 -24 8 -24 24v70h-204c-17 0 -25 12 -25 25c0 12 8 25 25 25h228c13 0 25 -12 25 -25v-95z" />
    <glyph glyph-name="radical" unicode="&#x221a;" horiz-adv-x="483" 
d="M445 673c0 -4 0 -7 -1 -9l-225 -650c-5 -13 -11 -19 -27 -19c-19 0 -26 9 -29 17l-114 268c-1 2 -2 5 -2 10c0 15 13 24 26 24c8 0 17 -4 22 -15l94 -224l208 605c4 11 11 17 22 17c13 0 26 -9 26 -24z" />
    <glyph glyph-name="florin" unicode="&#x192;" horiz-adv-x="382" 
d="M339 673c0 -12 -8 -25 -25 -25c-47 0 -76 -34 -83 -74l-16 -86h54c17 0 25 -12 25 -24s-8 -25 -25 -25h-62l-73 -411c-11 -63 -67 -109 -132 -109c-16 0 -24 12 -24 24s8 25 24 25c43 0 76 28 83 68l71 403h-32c-17 0 -25 13 -25 25s8 24 25 24h41l17 95
c11 63 58 114 132 114c17 0 25 -12 25 -24z" />
    <glyph glyph-name="approxequal" unicode="&#x2248;" horiz-adv-x="497" 
d="M418 354c0 -8 -5 -16 -14 -23c-25 -19 -41 -28 -91 -28c-59 0 -102 30 -134 30c-37 5 -47 -30 -71 -30c-21 2 -36 26 -18 44c27 25 46 36 85 36c61 0 104 -31 139 -31c31 0 51 18 56 22c23 21 48 3 48 -20zM404 202c-24 -21 -41 -29 -91 -29c-59 0 -102 31 -134 31
c-37 5 -47 -30 -71 -30c-20 2 -37 24 -18 43c27 25 46 36 85 36c61 0 104 -30 139 -30c31 0 51 18 56 22c29 26 68 -13 34 -43z" />
    <glyph glyph-name="Delta" unicode="&#x394;" horiz-adv-x="673" 
d="M658 27c0 -15 -10 -27 -29 -27h-586c-19 0 -29 12 -29 27c0 7 1 13 4 18l286 587c7 15 17 22 32 22s25 -7 32 -22l286 -587c3 -5 4 -11 4 -18zM599 49l-263 536l-263 -536h526z" />
    <glyph glyph-name="guillemotleft" unicode="&#xab;" horiz-adv-x="631" 
d="M514 78c0 -9 -2 -16 -6 -20c-4 -5 -10 -7 -19 -7c-5 0 -11 2 -20 11l-170 171c-7 7 -11 16 -11 27s4 20 11 27l170 171c9 9 15 11 20 11c9 0 15 -2 19 -7c4 -4 6 -11 6 -20c0 -6 -3 -13 -11 -21l-161 -161l161 -161c8 -8 11 -15 11 -21zM284 78c0 -11 0 -13 -7 -20
c-5 -5 -11 -7 -19 -7c-5 0 -11 2 -20 11l-169 171c-7 7 -11 16 -11 27s4 20 11 27l169 171c9 9 15 11 20 11c8 0 14 -2 19 -7c7 -7 7 -9 7 -20c0 -5 -4 -12 -12 -21l-160 -161l160 -161c8 -9 12 -16 12 -21z" />
    <glyph glyph-name="guillemotright" unicode="&#xbb;" horiz-adv-x="631" 
d="M573 260c0 -11 -4 -20 -11 -27l-169 -171c-9 -9 -15 -11 -19 -11c-9 0 -15 2 -20 7s-7 12 -7 20c0 4 3 12 12 21l162 161l-162 161c-9 9 -12 17 -12 21c0 8 2 15 7 20s11 7 20 7c4 0 10 -2 19 -11l169 -171c7 -7 11 -16 11 -27zM342 260c0 -11 -3 -20 -10 -27l-170 -171
c-9 -9 -15 -11 -20 -11c-7 0 -14 2 -19 7c-4 5 -6 11 -6 20c0 4 1 10 12 21l160 161l-160 161c-11 11 -12 17 -12 21c0 9 2 15 6 20c5 5 12 7 19 7c5 0 11 -2 20 -11l170 -171c7 -7 10 -16 10 -27z" />
    <glyph glyph-name="ellipsis" unicode="&#x2026;" horiz-adv-x="509" 
d="M425 19c0 -17 -13 -24 -25 -24s-25 7 -25 24v33c0 16 13 25 25 25s25 -9 25 -25v-33zM255 19c0 -17 -13 -24 -25 -24s-25 7 -25 24v33c0 16 13 25 25 25s25 -9 25 -25v-33zM85 19c0 -17 -13 -24 -25 -24s-25 7 -25 24v33c0 16 13 25 25 25s25 -9 25 -25v-33z" />
    <glyph glyph-name="uni00A0" unicode="&#xa0;" horiz-adv-x="360" 
 />
    <glyph glyph-name="Agrave" unicode="&#xc0;" horiz-adv-x="544" 
d="M379 797c0 -13 -11 -26 -24 -26c-5 0 -9 1 -12 2l-163 77c-10 5 -15 12 -15 21c0 13 12 26 24 26c4 0 8 -2 12 -3l163 -76c10 -5 15 -12 15 -21zM509 18c0 -15 -12 -23 -25 -23c-11 0 -19 6 -23 17l-53 160h-275l-50 -160c-3 -11 -12 -17 -23 -17c-13 0 -25 8 -25 23
c0 3 0 6 1 8l212 653c4 13 13 18 24 18s19 -6 23 -18l213 -653c1 -2 1 -5 1 -8zM393 221l-121 376l-123 -376h244z" />
    <glyph glyph-name="Atilde" unicode="&#xc3;" horiz-adv-x="544" 
d="M414 874c0 -27 -41 -46 -89 -46c-49 0 -87 27 -114 27c-32 0 -44 -27 -60 -27c-12 0 -22 12 -22 23c0 29 52 45 79 45c54 0 86 -26 118 -26c47 0 46 27 65 27c12 0 23 -11 23 -23zM509 18c0 -15 -12 -23 -25 -23c-11 0 -19 6 -23 17l-53 160h-275l-50 -160
c-3 -11 -12 -17 -23 -17c-13 0 -25 8 -25 23c0 3 0 6 1 8l212 653c4 13 13 18 24 18s19 -6 23 -18l213 -653c1 -2 1 -5 1 -8zM393 221l-121 376l-123 -376h244z" />
    <glyph glyph-name="Otilde" unicode="&#xd5;" horiz-adv-x="551" 
d="M412 874c0 -27 -41 -46 -89 -46c-49 0 -87 27 -114 27c-32 0 -44 -27 -60 -27c-12 0 -22 12 -22 23c0 29 52 45 79 45c54 0 86 -26 118 -26c47 0 46 27 65 27c12 0 23 -11 23 -23zM463 177c0 -102 -82 -182 -183 -182h-10c-101 0 -183 80 -183 182v337
c0 102 82 183 183 183h10c101 0 183 -81 183 -183v-337zM414 177v337c0 75 -59 134 -134 134h-10c-75 0 -134 -59 -134 -134v-337c0 -75 59 -134 134 -134h10c75 0 134 59 134 134z" />
    <glyph glyph-name="OE" unicode="&#x152;" horiz-adv-x="824" 
d="M789 25c0 -13 -8 -25 -24 -25h-327c-13 0 -25 12 -25 25v27c-33 -36 -81 -57 -133 -57h-10c-101 0 -183 80 -183 182v337c0 102 82 183 183 183h10c52 0 100 -22 133 -58v27c0 13 12 25 25 25h327c16 0 24 -12 24 -25c0 -12 -8 -24 -24 -24h-302v-259h214
c16 0 24 -13 24 -26c0 -12 -8 -24 -24 -24h-214v-284h302c16 0 24 -12 24 -24zM413 173v345c0 72 -61 130 -133 130h-10c-75 0 -134 -59 -134 -134v-337c0 -75 59 -134 134 -134h10c72 0 133 58 133 130z" />
    <glyph glyph-name="oe" unicode="&#x153;" horiz-adv-x="735" 
d="M671 241c0 -13 -11 -25 -26 -25h-247v-66c0 -59 48 -107 106 -107h10c47 0 84 29 99 72c4 12 14 17 23 17c13 0 27 -9 27 -24c0 -2 -1 -5 -2 -9c-21 -63 -78 -104 -147 -104h-10c-56 0 -103 28 -131 71c-28 -43 -76 -71 -132 -71h-9c-87 0 -157 69 -157 155v182
c0 88 70 156 157 156h9c56 0 104 -28 132 -72c28 44 75 72 131 72h9c88 0 158 -65 158 -156v-91zM621 266v66c0 59 -49 107 -106 107h-10c-59 0 -107 -48 -107 -107v-66h223zM348 150v182c0 59 -48 107 -107 107h-9c-59 0 -107 -48 -107 -107v-182c0 -59 48 -107 107 -107h9
c59 0 107 48 107 107z" />
    <glyph glyph-name="endash" unicode="&#x2013;" 
d="M432 266c0 -12 -8 -25 -25 -25h-330c-17 0 -25 13 -25 25c0 13 8 25 25 25h330c17 0 25 -12 25 -25z" />
    <glyph glyph-name="emdash" unicode="&#x2014;" horiz-adv-x="541" 
d="M517 265c0 -12 -8 -24 -25 -24h-444c-17 0 -25 12 -25 24c0 13 8 25 25 25h444c17 0 25 -12 25 -25z" />
    <glyph glyph-name="quotedblleft" unicode="&#x201c;" horiz-adv-x="330" 
d="M253 672c0 -6 -2 -11 -5 -15c-20 -28 -31 -60 -31 -127v-30c0 -17 -13 -25 -25 -25s-25 9 -25 26v29c0 72 22 167 61 167c13 0 25 -10 25 -25zM127 672c0 -6 -2 -11 -5 -15c-20 -28 -31 -60 -31 -127v-30c0 -17 -13 -25 -25 -25s-25 9 -25 26v29c0 72 22 167 61 167
c13 0 25 -10 25 -25z" />
    <glyph glyph-name="quotedblright" unicode="&#x201d;" horiz-adv-x="330" 
d="M259 642c0 -72 -22 -167 -61 -167c-13 0 -25 10 -25 25c0 6 2 11 5 15c20 28 31 60 31 127v30c0 17 13 25 25 25s25 -9 25 -26v-29zM133 642c0 -72 -22 -167 -60 -167c-13 0 -26 10 -26 25c0 6 2 11 5 15c20 29 32 60 32 127v30c0 17 12 25 24 25c13 0 25 -9 25 -25v-30z
" />
    <glyph glyph-name="quoteleft" unicode="&#x2018;" horiz-adv-x="183" 
d="M144 672c0 -6 -2 -11 -5 -15c-20 -28 -32 -60 -32 -127v-30c0 -17 -12 -25 -24 -25c-13 0 -25 9 -25 26v29c0 75 23 167 61 167c13 0 25 -10 25 -25z" />
    <glyph glyph-name="quoteright" unicode="&#x2019;" horiz-adv-x="183" 
d="M121 642c0 -72 -22 -167 -61 -167c-13 0 -25 10 -25 25c0 5 2 10 5 15c21 29 32 60 32 127v30c0 17 12 25 24 25c13 0 25 -9 25 -25v-30z" />
    <glyph glyph-name="divide" unicode="&#xf7;" horiz-adv-x="463" 
d="M233 455c0 -16 -13 -25 -25 -25s-25 9 -25 25v33c0 17 13 25 25 25s25 -8 25 -25v-33zM358 266c0 -12 -8 -25 -25 -25h-250c-17 0 -25 13 -25 25s8 25 25 25h250c17 0 25 -13 25 -25zM233 44c0 -17 -13 -25 -25 -25s-25 8 -25 25v33c0 16 13 25 25 25s25 -9 25 -25v-33z
" />
    <glyph glyph-name="lozenge" unicode="&#x25ca;" horiz-adv-x="592" 
d="M537 242c0 -10 -3 -18 -10 -25l-214 -213c-7 -7 -15 -9 -24 -9s-17 2 -24 9l-214 213c-7 7 -10 15 -10 25c0 9 3 17 10 24l214 213c7 7 15 11 24 11c11 0 17 -4 24 -11l214 -213c7 -7 10 -15 10 -24zM481 242l-192 191l-192 -191l192 -192z" />
    <glyph glyph-name="ydieresis" unicode="&#xff;" horiz-adv-x="412" 
d="M319 639c0 -16 -12 -25 -25 -25c-12 0 -25 9 -25 25v33c0 17 13 25 25 25c13 0 25 -8 25 -25v-33zM137 639c0 -16 -13 -25 -25 -25c-13 0 -25 9 -25 25v33c0 17 12 25 25 25c12 0 25 -8 25 -25v-33zM371 464c0 -4 0 -7 -1 -9l-171 -533c-20 -62 -59 -137 -134 -137
c-15 0 -24 11 -24 26s9 20 22 23c52 10 72 57 87 103l36 109l-143 408c-1 3 -1 6 -1 10c0 15 13 24 26 24c9 0 19 -5 23 -17l120 -346l111 345c4 12 12 18 23 18c13 0 26 -9 26 -24z" />
    <glyph glyph-name="Ydieresis" unicode="&#x178;" horiz-adv-x="477" 
d="M353 838c0 -16 -12 -25 -25 -25c-12 0 -25 9 -25 25v33c0 17 13 25 25 25c13 0 25 -8 25 -25v-33zM171 838c0 -16 -13 -25 -25 -25c-13 0 -25 9 -25 25v33c0 17 12 26 25 26c12 0 25 -9 25 -26v-33zM431 673c0 -3 -1 -6 -2 -10l-165 -396v-248c0 -17 -13 -24 -25 -24
s-25 7 -25 24v248l-165 396c-1 2 -2 5 -2 10c0 15 13 24 26 24c11 0 18 -5 22 -15l144 -346l144 346c4 10 11 15 22 15c13 0 26 -9 26 -24z" />
    <glyph glyph-name="fraction" unicode="&#x2044;" horiz-adv-x="409" 
d="M360 673c0 -5 -1 -8 -2 -10l-266 -653c-4 -10 -11 -15 -22 -15c-13 0 -26 8 -26 23c0 3 1 6 2 10l266 653c5 11 12 16 22 16c13 0 26 -9 26 -24z" />
    <glyph glyph-name="Euro" unicode="&#x20ac;" horiz-adv-x="568" 
d="M509 151c-11 -90 -88 -156 -181 -156h-10c-101 0 -184 80 -184 182v68h-51c-17 0 -25 12 -25 24c0 13 8 25 25 25h51v91h-51c-17 0 -25 13 -25 25s8 25 25 25h51v79c0 102 83 183 184 183h10c93 0 170 -68 181 -157v-3c0 -15 -11 -25 -24 -25c-12 0 -22 9 -25 21
c-8 64 -64 115 -132 115h-10c-75 0 -135 -59 -135 -134v-79h216c17 0 25 -13 25 -25s-8 -25 -25 -25h-216v-91h216c17 0 25 -12 25 -25c0 -12 -8 -24 -25 -24h-216v-68c0 -75 60 -134 135 -134h10c68 0 124 51 132 115c3 12 13 21 25 21c13 0 24 -10 24 -25v-3z" />
    <glyph glyph-name="guilsinglleft" unicode="&#x2039;" horiz-adv-x="463" 
d="M346 20c0 -15 -12 -25 -25 -25c-5 0 -11 2 -16 5l-237 215c-5 5 -10 15 -10 26s5 21 10 26l237 215c5 4 11 6 16 6c13 0 25 -11 25 -26c0 -7 -3 -13 -9 -18l-228 -203l228 -203c6 -5 9 -11 9 -18z" />
    <glyph glyph-name="guilsinglright" unicode="&#x203a;" horiz-adv-x="463" 
d="M405 241c0 -11 -5 -21 -10 -26l-237 -215c-5 -3 -10 -5 -16 -5c-13 0 -25 10 -25 25c0 7 3 13 9 18l228 203l-228 203c-6 5 -9 11 -9 18c0 15 12 26 25 26c6 0 11 -2 16 -6l237 -215c5 -5 10 -15 10 -26z" />
    <glyph glyph-name="fi" unicode="&#xfb01;" horiz-adv-x="538" 
d="M438 629c0 -16 -12 -25 -25 -25c-12 0 -24 9 -24 25v43c0 17 12 25 24 25c13 0 25 -8 25 -25v-43zM438 19c0 -17 -12 -24 -25 -24c-12 0 -24 7 -24 24v417h-224v-417c0 -17 -12 -24 -25 -24s-25 7 -25 24v417h-38c-17 0 -25 13 -25 25s8 24 25 24h38v87
c0 83 51 125 122 125c17 0 26 -12 26 -24s-9 -25 -26 -25c-43 0 -72 -28 -72 -76v-87h248c13 0 25 -8 25 -25v-441z" />
    <glyph glyph-name="fl" unicode="&#xfb02;" horiz-adv-x="585" 
d="M538 19c0 -13 -9 -24 -25 -24c-82 0 -124 55 -124 124v529h-152c-43 0 -72 -28 -72 -76v-87h66c17 0 26 -12 26 -24s-9 -25 -26 -25h-66v-417c0 -17 -12 -24 -25 -24s-25 7 -25 24v417h-38c-17 0 -25 13 -25 25s8 24 25 24h38v87c0 83 51 125 122 125h176
c13 0 25 -8 25 -25v-553c0 -43 28 -76 75 -76c16 0 25 -12 25 -24z" />
    <glyph glyph-name="daggerdbl" unicode="&#x2021;" horiz-adv-x="467" 
d="M408 228c0 -13 -8 -25 -25 -25h-125v-184c0 -17 -13 -24 -25 -24s-25 7 -25 24v184h-125c-17 0 -25 13 -25 25s8 25 25 25h125v185h-125c-17 0 -25 13 -25 25s8 25 25 25h125v184c0 17 13 25 25 25s25 -8 25 -25v-184h125c17 0 25 -13 25 -25s-8 -25 -25 -25h-125v-185
h125c17 0 25 -13 25 -25z" />
    <glyph glyph-name="periodcentered" unicode="&#xb7;" horiz-adv-x="225" 
d="M137 345c0 -17 -13 -25 -25 -25s-25 8 -25 25v33c0 16 13 25 25 25s25 -9 25 -25v-33z" />
    <glyph glyph-name="quotesinglbase" unicode="&#x201a;" horiz-adv-x="183" 
d="M121 15c0 -70 -22 -166 -61 -166c-13 0 -25 10 -25 25c0 6 2 11 5 15c20 29 32 61 32 126v30c0 17 12 25 24 25c13 0 25 -9 25 -25v-30z" />
    <glyph glyph-name="quotedblbase" unicode="&#x201e;" horiz-adv-x="330" 
d="M259 15c0 -70 -22 -166 -61 -166c-13 0 -25 10 -25 25c0 6 2 11 5 15c20 29 31 61 31 126v30c0 17 13 25 25 25s25 -9 25 -25v-30zM133 15c0 -73 -13 -116 -41 -155c-5 -7 -12 -11 -19 -11c-13 0 -26 10 -26 25c0 6 2 11 5 15c20 29 32 61 32 126v30c0 17 12 25 24 25
c13 0 25 -9 25 -25v-30z" />
    <glyph glyph-name="perthousand" unicode="&#x2030;" horiz-adv-x="1031" 
d="M916 101c0 -60 -45 -106 -104 -106c-58 0 -103 46 -103 106v162c0 59 45 107 103 107c59 0 104 -48 104 -107v-162zM666 101c0 -60 -45 -106 -104 -106c-58 0 -103 46 -103 106v162c0 59 45 107 103 107c59 0 104 -48 104 -107v-162zM526 673c0 -3 -2 -7 -3 -10
l-270 -654c-4 -9 -11 -14 -22 -14c-13 0 -26 8 -26 23c0 3 1 6 2 10l271 654c4 10 11 15 22 15c13 0 26 -9 26 -24zM277 428c0 -59 -45 -107 -103 -107c-59 0 -104 48 -104 107v161c0 59 45 108 104 108c58 0 103 -49 103 -108v-161zM866 101v162c0 33 -25 58 -54 58
s-54 -25 -54 -58v-162c0 -33 25 -58 54 -58s54 25 54 58zM617 101v162c0 33 -26 58 -55 58s-54 -25 -54 -58v-162c0 -33 25 -58 54 -58s55 25 55 58zM228 428v161c0 33 -25 59 -54 59s-54 -26 -54 -59v-161c0 -33 25 -58 54 -58s54 25 54 58z" />
    <glyph glyph-name="Acircumflex" unicode="&#xc2;" horiz-adv-x="544" 
d="M388 817c0 -12 -11 -25 -24 -25c-4 0 -9 2 -14 5l-78 51l-78 -51c-5 -3 -10 -5 -14 -5c-13 0 -24 13 -24 25c0 8 4 14 11 19l78 53c11 8 16 11 27 11s16 -3 27 -11l78 -53c7 -5 11 -11 11 -19zM509 18c0 -15 -12 -23 -25 -23c-11 0 -19 6 -23 17l-53 160h-275l-50 -160
c-3 -11 -12 -17 -23 -17c-13 0 -25 8 -25 23c0 3 0 6 1 8l212 653c4 13 13 18 24 18s19 -6 23 -18l213 -653c1 -2 1 -5 1 -8zM393 221l-121 376l-123 -376h244z" />
    <glyph glyph-name="Ecircumflex" unicode="&#xca;" horiz-adv-x="516" 
d="M412 814c0 -12 -11 -25 -24 -25c-4 0 -9 2 -14 5l-78 51l-78 -51c-5 -3 -10 -5 -14 -5c-13 0 -24 13 -24 25c0 8 4 14 11 19l78 53c11 8 16 11 27 11s16 -3 27 -11l78 -53c7 -5 11 -11 11 -19zM481 25c0 -13 -8 -25 -25 -25h-326c-15 0 -25 12 -25 25v641
c0 13 10 25 25 25h326c17 0 25 -12 25 -25c0 -12 -8 -24 -25 -24h-297v-259h209c17 0 25 -13 25 -26c0 -12 -8 -24 -25 -24h-214v-284h302c17 0 25 -12 25 -24z" />
    <glyph glyph-name="Aacute" unicode="&#xc1;" horiz-adv-x="544" 
d="M379 871c0 -9 -5 -16 -15 -21l-163 -77c-5 -1 -9 -2 -12 -2c-13 0 -24 13 -24 26c0 9 5 16 15 21l163 76c4 1 8 3 12 3c12 0 24 -13 24 -26zM509 18c0 -15 -12 -23 -25 -23c-11 0 -19 6 -23 17l-53 160h-275l-50 -160c-3 -11 -12 -17 -23 -17c-13 0 -25 8 -25 23
c0 3 0 6 1 8l212 653c4 13 13 18 24 18s19 -6 23 -18l213 -653c1 -2 1 -5 1 -8zM393 221l-121 376l-123 -376h244z" />
    <glyph glyph-name="Edieresis" unicode="&#xcb;" horiz-adv-x="516" 
d="M407 838c0 -16 -12 -25 -25 -25c-12 0 -25 9 -25 25v33c0 17 13 25 25 25c13 0 25 -8 25 -25v-33zM225 838c0 -16 -13 -25 -25 -25c-13 0 -25 9 -25 25v33c0 17 12 26 25 26c12 0 25 -9 25 -26v-33zM481 25c0 -13 -8 -25 -25 -25h-326c-15 0 -25 12 -25 25v641
c0 13 10 25 25 25h326c17 0 25 -12 25 -25c0 -12 -8 -24 -25 -24h-297v-259h209c17 0 25 -13 25 -26c0 -12 -8 -24 -25 -24h-214v-284h302c17 0 25 -12 25 -24z" />
    <glyph glyph-name="Egrave" unicode="&#xc8;" horiz-adv-x="516" 
d="M397 797c0 -13 -11 -26 -24 -26c-5 0 -9 1 -12 2l-163 77c-10 5 -15 12 -15 21c0 13 12 26 24 26c4 0 8 -2 12 -3l163 -76c10 -5 15 -12 15 -21zM481 25c0 -13 -8 -25 -25 -25h-326c-15 0 -25 12 -25 25v641c0 13 10 25 25 25h326c17 0 25 -12 25 -25
c0 -12 -8 -24 -25 -24h-297v-259h209c17 0 25 -13 25 -26c0 -12 -8 -24 -25 -24h-214v-284h302c17 0 25 -12 25 -24z" />
    <glyph glyph-name="Iacute" unicode="&#xcd;" horiz-adv-x="283" 
d="M249 871c0 -9 -5 -16 -15 -21l-163 -77c-5 -1 -9 -2 -12 -2c-13 0 -24 13 -24 26c0 9 5 16 15 21l163 76c4 1 8 3 12 3c12 0 24 -13 24 -26zM167 19c0 -17 -13 -24 -25 -24s-25 7 -25 24v653c0 17 13 25 25 25s25 -8 25 -25v-653z" />
    <glyph glyph-name="Icircumflex" unicode="&#xce;" horiz-adv-x="283" 
d="M258 814c0 -12 -11 -25 -24 -25c-4 0 -9 2 -14 5l-78 51l-78 -51c-5 -3 -9 -5 -14 -5c-13 0 -24 13 -24 25c0 7 4 14 11 19l78 53c12 8 16 11 27 11s16 -3 27 -11l78 -53c7 -5 11 -11 11 -19zM167 19c0 -17 -13 -24 -25 -24s-25 7 -25 24v653c0 17 13 25 25 25
s25 -8 25 -25v-653z" />
    <glyph glyph-name="Idieresis" unicode="&#xcf;" horiz-adv-x="283" 
d="M258 838c0 -16 -12 -25 -25 -25c-12 0 -25 9 -25 25v33c0 17 13 25 25 25c13 0 25 -8 25 -25v-33zM76 838c0 -16 -13 -25 -25 -25c-13 0 -25 9 -25 25v33c0 17 12 26 25 26c12 0 25 -9 25 -26v-33zM167 19c0 -17 -13 -24 -25 -24s-25 7 -25 24v653c0 17 13 25 25 25
s25 -8 25 -25v-653z" />
    <glyph glyph-name="Igrave" unicode="&#xcc;" horiz-adv-x="283" 
d="M249 797c0 -13 -11 -26 -24 -26c-5 0 -9 1 -12 2l-163 77c-10 5 -15 12 -15 21c0 13 12 26 24 26c4 0 8 -2 12 -3l163 -76c10 -5 15 -12 15 -21zM167 19c0 -17 -13 -24 -25 -24s-25 7 -25 24v653c0 17 13 25 25 25s25 -8 25 -25v-653z" />
    <glyph glyph-name="Oacute" unicode="&#xd3;" horiz-adv-x="551" 
d="M371 871c0 -9 -5 -16 -15 -21l-163 -77c-5 -1 -9 -2 -12 -2c-13 0 -24 13 -24 26c0 9 5 16 15 21l163 76c4 1 8 3 12 3c12 0 24 -13 24 -26zM463 177c0 -102 -82 -182 -183 -182h-10c-101 0 -183 80 -183 182v337c0 102 82 183 183 183h10c101 0 183 -81 183 -183v-337z
M414 177v337c0 75 -59 134 -134 134h-10c-75 0 -134 -59 -134 -134v-337c0 -75 59 -134 134 -134h10c75 0 134 59 134 134z" />
    <glyph glyph-name="Ocircumflex" unicode="&#xd4;" horiz-adv-x="551" 
d="M389 814c0 -12 -11 -25 -24 -25c-4 0 -9 2 -14 5l-78 51l-78 -51c-5 -3 -9 -5 -14 -5c-13 0 -24 13 -24 25c0 7 4 14 11 19l78 53c12 8 16 11 27 11s16 -3 27 -11l78 -53c7 -5 11 -11 11 -19zM463 177c0 -102 -82 -182 -183 -182h-10c-101 0 -183 80 -183 182v337
c0 102 82 183 183 183h10c101 0 183 -81 183 -183v-337zM414 177v337c0 75 -59 134 -134 134h-10c-75 0 -134 -59 -134 -134v-337c0 -75 59 -134 134 -134h10c75 0 134 59 134 134z" />
    <glyph glyph-name="apple" horiz-adv-x="588" 
d="M539 364c0 -54 -39 -94 -93 -94h-72c11 -15 17 -35 17 -54c0 -54 -39 -93 -93 -93h-249v248c0 54 39 94 93 94c20 0 39 -6 55 -17v71c0 54 39 94 93 94s93 -40 93 -94v-62h63c54 0 93 -40 93 -93zM522 364c0 45 -31 76 -76 76h-79v79c0 45 -32 77 -77 77s-76 -32 -76 -77
v-232h232c45 0 76 32 76 77z" />
    <glyph glyph-name="Ograve" unicode="&#xd2;" horiz-adv-x="551" 
d="M383 797c0 -13 -11 -26 -24 -26c-5 0 -9 1 -12 2l-163 77c-10 5 -15 12 -15 21c0 13 12 26 24 26c4 0 8 -2 12 -3l163 -76c10 -5 15 -12 15 -21zM463 177c0 -102 -82 -182 -183 -182h-10c-101 0 -183 80 -183 182v337c0 102 82 183 183 183h10c101 0 183 -81 183 -183
v-337zM414 177v337c0 75 -59 134 -134 134h-10c-75 0 -134 -59 -134 -134v-337c0 -75 59 -134 134 -134h10c75 0 134 59 134 134z" />
    <glyph glyph-name="Uacute" unicode="&#xda;" horiz-adv-x="586" 
d="M391 871c0 -9 -5 -16 -15 -21l-163 -77c-5 -1 -9 -2 -12 -2c-13 0 -24 13 -24 26c0 9 5 16 15 21l163 76c4 1 8 3 12 3c12 0 24 -13 24 -26zM481 177c0 -102 -82 -182 -183 -182h-10c-101 0 -183 80 -183 182v495c0 17 12 25 25 25c12 0 24 -8 24 -25v-495
c0 -75 59 -134 134 -134h10c75 0 134 59 134 134v495c0 17 12 25 24 25c13 0 25 -8 25 -25v-495z" />
    <glyph glyph-name="Ucircumflex" unicode="&#xdb;" horiz-adv-x="586" 
d="M408 814c0 -12 -11 -25 -24 -25c-4 0 -9 2 -14 5l-78 51l-78 -51c-5 -3 -10 -5 -14 -5c-13 0 -24 13 -24 25c0 8 4 14 11 19l78 53c11 8 16 11 27 11s16 -3 27 -11l78 -53c7 -5 11 -11 11 -19zM481 177c0 -102 -82 -182 -183 -182h-10c-101 0 -183 80 -183 182v495
c0 17 12 25 25 25c12 0 24 -8 24 -25v-495c0 -75 59 -134 134 -134h10c75 0 134 59 134 134v495c0 17 12 25 24 25c13 0 25 -8 25 -25v-495z" />
    <glyph glyph-name="Ugrave" unicode="&#xd9;" horiz-adv-x="586" 
d="M407 797c0 -13 -11 -26 -24 -26c-5 0 -9 1 -12 2l-163 77c-10 5 -15 12 -15 21c0 13 12 26 24 26c4 0 8 -2 12 -3l163 -76c10 -5 15 -12 15 -21zM481 177c0 -102 -82 -182 -183 -182h-10c-101 0 -183 80 -183 182v495c0 17 12 25 25 25c12 0 24 -8 24 -25v-495
c0 -75 59 -134 134 -134h10c75 0 134 59 134 134v495c0 17 12 25 24 25c13 0 25 -8 25 -25v-495z" />
    <glyph glyph-name="dotlessi" unicode="&#x131;" horiz-adv-x="248" 
d="M149 19c0 -17 -13 -24 -25 -24s-25 7 -25 24v444c0 17 13 25 25 25s25 -8 25 -25v-444z" />
    <glyph glyph-name="circumflex" unicode="&#x2c6;" horiz-adv-x="498" 
d="M364 615c0 -12 -11 -25 -24 -25c-4 0 -9 2 -14 5l-78 51l-78 -51c-5 -3 -10 -5 -14 -5c-13 0 -24 13 -24 25c0 8 4 14 11 19l78 53c11 7 16 10 27 10s16 -3 27 -10l78 -53c7 -5 11 -11 11 -19z" />
    <glyph glyph-name="tilde" unicode="&#x2dc;" horiz-adv-x="481" 
d="M407 671c0 -31 -48 -54 -105 -54c-59 0 -102 31 -134 31c-38 0 -51 -31 -71 -31c-15 0 -26 12 -26 27c0 35 61 53 93 53c61 0 104 -31 139 -31c55 0 54 31 77 31c15 0 27 -11 27 -26z" />
    <glyph glyph-name="macron" unicode="&#xaf;" horiz-adv-x="478" 
d="M413 672c0 -12 -8 -24 -25 -24h-300c-17 0 -25 12 -25 24c0 13 8 25 25 25h300c17 0 25 -12 25 -25z" />
    <glyph glyph-name="breve" unicode="&#x2d8;" horiz-adv-x="501" 
d="M355 672c0 -56 -46 -102 -102 -102h-6c-56 0 -102 46 -102 102c0 17 12 25 25 25c37 0 16 -77 77 -77h6c61 0 40 77 77 77c13 0 25 -8 25 -25z" />
    <glyph glyph-name="dotaccent" unicode="&#x2d9;" horiz-adv-x="528" 
d="M288 649c0 -16 -13 -25 -25 -25s-25 9 -25 25v23c0 17 13 25 25 25s25 -8 25 -25v-23z" />
    <glyph glyph-name="ring" unicode="&#x2da;" horiz-adv-x="471" 
d="M306 705c0 -39 -31 -70 -70 -70s-71 31 -71 70s32 71 71 71s70 -32 70 -71zM270 705c0 19 -15 34 -34 34s-35 -15 -35 -34s16 -34 35 -34s34 15 34 34z" />
    <glyph glyph-name="cedilla" unicode="&#xb8;" horiz-adv-x="509" 
d="M336 -96c0 -43 -35 -79 -79 -79h-10c-35 0 -77 28 -77 65c0 15 13 24 25 24c27 0 21 -39 52 -39h10c17 0 30 13 30 29v11c0 16 -13 29 -30 29h-4c-15 0 -25 12 -25 25v49c0 15 11 25 24 25c15 0 25 -12 25 -25v-27c35 -8 59 -39 59 -76v-11z" />
    <glyph glyph-name="hungarumlaut" unicode="&#x2dd;" horiz-adv-x="488" 
d="M390 672c0 -77 -25 -118 -102 -145c-4 -1 -7 -2 -9 -2c-15 0 -24 13 -24 26c0 9 5 19 17 23c55 19 68 41 68 98c0 17 12 25 25 25c12 0 25 -8 25 -25zM231 672c0 -77 -24 -118 -101 -145c-5 -1 -9 -2 -10 -2c-15 0 -24 13 -24 26c0 9 6 19 17 23c57 19 68 40 68 98
c0 17 13 25 25 25c13 0 25 -8 25 -25z" />
    <glyph glyph-name="ogonek" unicode="&#x2db;" horiz-adv-x="508" 
d="M338 -79c0 -3 0 -6 -1 -8c-12 -40 -51 -59 -90 -59c-44 0 -79 35 -79 79v11c0 60 77 91 128 99h4c15 0 24 -10 24 -25c0 -12 -7 -20 -20 -23c-23 -5 -87 -21 -87 -51v-11c0 -23 19 -30 38 -30c37 0 29 42 57 42c13 0 26 -9 26 -24z" />
    <glyph glyph-name="caron" unicode="&#x2c7;" horiz-adv-x="498" 
d="M364 672c0 -8 -4 -14 -11 -19l-78 -53c-11 -7 -16 -10 -27 -10s-16 3 -27 10l-78 53c-7 5 -11 11 -11 19c0 13 11 25 24 25c4 0 9 -2 14 -5l78 -50l78 50c5 3 10 5 14 5c13 0 24 -12 24 -25z" />
    <glyph glyph-name="currency" unicode="&#xa4;" horiz-adv-x="588" 
d="M539 364c0 -54 -39 -94 -93 -94h-72c11 -15 17 -35 17 -54c0 -54 -39 -93 -93 -93h-249v248c0 54 39 94 93 94c20 0 39 -6 55 -17v71c0 54 39 94 93 94s93 -40 93 -94v-62h63c54 0 93 -40 93 -93zM522 364c0 45 -31 76 -76 76h-79v79c0 45 -32 77 -77 77s-76 -32 -76 -77
v-232h232c45 0 76 32 76 77z" />
  </font>
</defs>
</svg>
