
<svg xmlns="http://www.w3.org/2000/svg" version="1.1" xmlns:xlink="http://www.w3.org/1999/xlink" preserveAspectRatio="none" x="0px" y="0px" width="976px" height="976px" viewBox="0 0 976 976">
<defs>
<g id="Layer3_0_FILL">
<path fill="#F3A74C" stroke="none" d="
M 0 0
L 0 976 976 976 976 0 0 0
M 939.25 416.25
Q 968.95 445.9 968.95 487.95 968.95 530 939.25 559.7 909.55 589.4 867.5 589.4
L 589.45 589.4 589.45 867.5
Q 589.45 909.55 559.75 939.25 530.05 968.95 488 968.95 445.95 968.95 416.3 939.25 386.6 909.55 386.6 867.5
L 386.6 589.4 108.45 589.4
Q 66.4 589.4 36.7 559.7 7.05 530 7.05 487.95 7.05 445.9 36.7 416.25 66.4 386.55 108.45 386.55
L 386.6 386.55 386.6 108.45
Q 386.6 66.4 416.3 36.7 445.95 7.05 488 7.05 530.05 7.05 559.75 36.7 589.45 66.4 589.45 108.45
L 589.45 386.55 867.5 386.55
Q 909.55 386.55 939.25 416.25 Z"/>
</g>
</defs>

<g transform="matrix( 1, 0, 0, 1, 0,0) ">
<use xlink:href="#Layer3_0_FILL"/>
</g>
</svg>
