
<svg xmlns="http://www.w3.org/2000/svg" version="1.1" xmlns:xlink="http://www.w3.org/1999/xlink" preserveAspectRatio="none" x="0px" y="0px" width="753px" height="753px" viewBox="0 0 753 753">
<defs>
<g id="Layer0_0_FILL">
<path fill="#F3A74C" stroke="none" d="
M 754 754
L 754 0 0 0 0 754 754 754
M 717.2 36.75
Q 746.95 66.55 747 108.5 747 150.5 717.25 180.3
L 520.5 377 717.2 573.7
Q 746.95 603.5 746.95 645.5 747 687.45 717.25 717.25 687.5 746.95 645.5 746.95 603.5 746.95 573.7 717.2
L 377 520.5 180.3 717.25
Q 150.5 747 108.5 747 66.5 747 36.7 717.25 7 687.5 7 645.5 7 603.5 36.75 573.7
L 233.5 376.95 36.75 180.25
Q 7 150.45 7 108.45 7.05 66.5 36.75 36.75 66.55 7 108.45 7 150.45 7 180.25 36.75
L 376.95 233.5 573.7 36.75
Q 603.5 7 645.5 7 687.45 7.05 717.2 36.75 Z"/>
</g>
</defs>

<g transform="matrix( 1, 0, 0, 1, 0,0) ">
<use xlink:href="#Layer0_0_FILL"/>
</g>
</svg>
