
<svg xmlns="http://www.w3.org/2000/svg" version="1.1" xmlns:xlink="http://www.w3.org/1999/xlink" preserveAspectRatio="none" x="0px" y="0px" width="976px" height="976px" viewBox="0 0 976 976">
<defs>
<g id="Layer0_0_FILL">
<path fill="#F3A74C" stroke="none" d="
M 0 0
L 0 976 976 976 976 0 0 0
M 691.7 152.1
Q 722.05 122.95 764 123.8 805.9 124.7 835.05 155.05 864.15 185.4 863.3 227.35 862.45 269.3 832.1 298.45
L 631.4 490.95 823.9 691.6
Q 853 721.95 852.15 763.95 851.35 805.9 821 835 790.65 864.1 748.6 863.25 706.65 862.4 677.55 832.05
L 485.05 631.4 284.35 823.9
Q 254 853 212 852.15 170.05 851.3 140.95 820.95 111.8 790.6 112.7 748.6 113.6 706.65 143.95 677.55
L 344.65 485.05 152.1 284.3
Q 122.95 253.95 123.8 211.95 124.75 170 155.1 140.9 185.45 111.8 227.35 112.65 269.3 113.5 298.45 143.85
L 491 344.6 691.7 152.1 Z"/>
</g>
</defs>

<g transform="matrix( 1, 0, 0, 1, 0,0) ">
<use xlink:href="#Layer0_0_FILL"/>
</g>
</svg>
