
<svg xmlns="http://www.w3.org/2000/svg" version="1.1" xmlns:xlink="http://www.w3.org/1999/xlink" preserveAspectRatio="none" x="0px" y="0px" width="976px" height="976px" viewBox="0 0 976 976">
<defs>
<g id="Layer2_0_FILL">
<path fill="#F3A74C" stroke="none" d="
M 0 0
L 0 976 976 976 976 0 0 0
M 939.25 213.4
Q 968.95 243.05 968.95 285.1 968.95 327.15 939.25 356.85 910.0140625 386.0859375 868.8 386.55
L 107.15 386.55
Q 65.9359375 386.0859375 36.7 356.85 7.05 327.15 7.05 285.1 7.05 243.05 36.7 213.4 66.4 183.7 108.45 183.7
L 867.5 183.7
Q 909.55 183.7 939.25 213.4
M 939.25 619.1
Q 968.95 648.75 968.95 690.8 968.95 732.85 939.25 762.55 910 791.8 868.8 792.25
L 107.15 792.25
Q 65.95 791.8 36.7 762.55 7.05 732.85 7.05 690.8 7.05 648.75 36.7 619.1 66.4 589.4 108.45 589.4
L 867.5 589.4
Q 909.55 589.4 939.25 619.1 Z"/>
</g>
</defs>

<g transform="matrix( 1, 0, 0, 1, 0,0) ">
<use xlink:href="#Layer2_0_FILL"/>
</g>
</svg>
