
<svg xmlns="http://www.w3.org/2000/svg" version="1.1" xmlns:xlink="http://www.w3.org/1999/xlink" preserveAspectRatio="none" x="0px" y="0px" width="753px" height="976px" viewBox="0 0 753 976">
<defs>
<g id="Layer0_0_FILL">
<path fill="#F3A74C" stroke="none" d="
M 753.65 976
L 753.65 0 0 0 0 976 753.65 976
M 746.65 219.65
Q 746.65 261.65 716.9 291.4
L 520.25 488.05 716.85 684.65
Q 746.6 714.4 746.6 756.4 746.65 798.35 716.9 828.1 687.2 857.8 645.2 857.8 603.2 857.8 573.45 828.05
L 376.85 631.45 180.2 828.1
Q 150.45 857.85 108.45 857.85 66.45 857.85 36.7 828.1 7 798.4 7 756.4 7 714.4 36.75 684.65
L 233.4 488 36.75 291.35
Q 7 261.6 7 219.6 7.05 177.65 36.75 147.95 66.5 118.2 108.4 118.2 150.4 118.2 180.15 147.95
L 376.8 344.6 573.45 147.95
Q 603.2 118.2 645.2 118.2 687.15 118.25 716.85 147.95 746.6 177.7 746.65 219.65 Z"/>
</g>
</defs>

<g transform="matrix( 1, 0, 0, 1, 0,0) ">
<use xlink:href="#Layer0_0_FILL"/>
</g>
</svg>
